<svg width="32" height="32" viewBox="0 0 32 32" fill="none" xmlns="http://www.w3.org/2000/svg">
<circle cx="16" cy="16" r="16" fill="#3B69D1"/>
<path d="M16.5791 10.48C13.1551 10.48 11.7151 12.96 11.7151 16.448C11.7151 20.192 13.3311 22.32 16.2431 22.32C18.8031 22.32 20.3231 20.56 20.3231 18.448C20.3231 16.4 18.9151 14.816 16.6911 14.816C15.5871 14.816 14.6751 15.168 13.9551 15.792C14.0991 13.6 14.9631 12.432 16.5791 12.432C17.4591 12.432 18.1151 12.912 18.6911 13.68L20.3551 12.304C19.6191 11.328 18.4511 10.48 16.5791 10.48ZM16.2911 16.736C17.3631 16.736 18.0991 17.488 18.0991 18.528C18.0991 19.584 17.3791 20.368 16.1951 20.368C15.0591 20.368 14.2751 19.664 14.0191 17.84C14.5951 17.088 15.3791 16.736 16.2911 16.736Z" fill="white"/>
</svg>
