<svg viewBox="0 0 16 16" xmlns="http://www.w3.org/2000/svg"><path d="M11.5 14.7a3 3 0 0 1-2.2-1 3 3 0 0 1-1-2.2 3 3 0 0 1 1-2.2 3 3 0 0 1 2.2-1 3 3 0 0 1 2.2 1 3 3 0 0 1 1 2.2 3 3 0 0 1-1 2.2 3 3 0 0 1-2.2 1Zm1-1.5.4-.5-1.2-1.2V9.6h-.6v2.1l1.4 1.5Zm-9.5.6a1 1 0 0 1-.7-.3 1 1 0 0 1-.3-.7V3c0-.3 0-.5.3-.7.1-.2.3-.3.4-.3h3.4c0-.4.2-.7.5-1C7 1 7.3.7 7.7.7c.4 0 .8.2 1 .4.4.3.6.6.6 1h3.4c.3 0 .5 0 .7.3.2.2.3.4.3.7V8a4.7 4.7 0 0 0-1-.5V3.1h-1.8v2.1H4.8V3.1H3v9.7h4.5a4.1 4.1 0 0 0 .5 1H3ZM8 3c.2 0 .3 0 .5-.2l.2-.5-.2-.4a.6.6 0 0 0-.5-.2c-.2 0-.3 0-.5.2l-.2.4.2.5.5.2Z" fill="inherit"/></svg>