<svg viewBox="0 0 16 16" xmlns="http://www.w3.org/2000/svg"><path d="M2.3 14.3a1 1 0 0 1-.7-.3 1 1 0 0 1-.3-.7v-8c0-.2.1-.5.3-.7.2-.2.5-.3.7-.3h3V2.7c0-.3.1-.5.3-.7.2-.2.5-.3.7-.3h3.4c.2 0 .5 0 .7.3.2.2.3.4.3.7v1.6h3c.2 0 .5.1.7.3.2.2.3.5.3.7v8c0 .3-.1.5-.3.7a1 1 0 0 1-.7.3H2.3Zm0-1h11.4v-8H2.3v8Zm4-9h3.4V2.7H6.3v1.6Z" fill="inherit"/><rect x="5.2" y="7.4" width="1.3" height="6.7" rx=".7" transform="rotate(-45 5.2 7.4)" fill="inherit"/><rect x="6.2" y="12.2" width="1.3" height="6.7" rx=".7" transform="rotate(-135 6.2 12.2)" fill="inherit"/></svg>