<svg viewBox="0 0 24 24" xmlns="http://www.w3.org/2000/svg"><path d="M6 18a.7.7 0 0 1-.7-.8v-7c0-.2 0-.3.2-.5l.5-.2a.7.7 0 0 1 .8.8v7c0 .1 0 .3-.2.5L6 18Zm6.1 0a.7.7 0 0 1-.8-.8v-7c0-.2.1-.3.3-.5l.5-.2a.7.7 0 0 1 .8.8v7l-.3.5-.5.2Zm-9.4 3c-.2 0-.3-.1-.5-.3a.7.7 0 0 1-.2-.5.7.7 0 0 1 .8-.7h18.5c.2 0 .3 0 .5.2l.2.5a.7.7 0 0 1-.8.8H2.8ZM18 18a.7.7 0 0 1-.8-.8v-7c0-.2 0-.3.2-.5l.6-.2a.7.7 0 0 1 .7.8v7c0 .1 0 .3-.2.5l-.6.2ZM12.6 1.4l8.8 5 .4.3.1.5c0 .3 0 .4-.3.6a1 1 0 0 1-.6.2H2.9a1 1 0 0 1-.6-.2.7.7 0 0 1-.3-.6c0-.2 0-.3.2-.5l.4-.4 8.7-4.9a1.5 1.5 0 0 1 1.4 0Z" fill="inherit"/></svg>