<svg viewBox="0 0 24 24" xmlns="http://www.w3.org/2000/svg"><path d="M5.8 17.1A10.4 10.4 0 0 1 12 15a9.7 9.7 0 0 1 6.1 2.1A7.7 7.7 0 0 0 20 12c0-2.2-.8-4.1-2.3-5.7A7.7 7.7 0 0 0 12 4c-2.2 0-4.1.8-5.7 2.3A7.7 7.7 0 0 0 4 12a7.8 7.8 0 0 0 1.8 5.1ZM12 13c-1 0-1.8-.3-2.5-1s-1-1.5-1-2.5.3-1.8 1-2.5S11 6 12 6s1.8.3 2.5 1 1 1.5 1 2.5-.3 1.8-1 2.5-1.5 1-2.5 1Zm0 9a9.7 9.7 0 0 1-7-3A10 10 0 0 1 2.7 8.2 10 10 0 0 1 12 2a9.7 9.7 0 0 1 7 3 10 10 0 0 1 2.2 10.9A10 10 0 0 1 12 22Zm0-2a8 8 0 0 0 4.6-1.5A7.5 7.5 0 0 0 12 17a8 8 0 0 0-4.7 1.5A7.5 7.5 0 0 0 12 20Zm0-9a1.5 1.5 0 0 0 1.5-1.5A1.5 1.5 0 0 0 12 8a1.5 1.5 0 0 0-1.5 1.5A1.5 1.5 0 0 0 12 11Z" fill="inherit"/></svg>