<svg viewBox="0 0 24 24" xmlns="http://www.w3.org/2000/svg">
<path d="M12.925 15.525L15.525 12.925C15.775 12.675 15.9 12.3667 15.9 12C15.9 11.6333 15.775 11.325 15.525 11.075L12.9 8.45C12.6667 8.2 12.3667 8.079 12 8.087C11.6333 8.09566 11.325 8.225 11.075 8.475C10.825 8.725 10.7 9.03333 10.7 9.4C10.7 9.76666 10.825 10.075 11.075 10.325L11.425 10.675H8.975C8.60833 10.675 8.3 10.804 8.05 11.062C7.8 11.3207 7.675 11.6333 7.675 12C7.675 12.3667 7.804 12.6793 8.062 12.938C8.32067 13.196 8.63333 13.325 9 13.325H11.425L11.05 13.7C10.8 13.9333 10.6793 14.2333 10.688 14.6C10.696 14.9667 10.825 15.275 11.075 15.525C11.325 15.775 11.6333 15.9 12 15.9C12.3667 15.9 12.675 15.775 12.925 15.525ZM12 22.8C10.5 22.8 9.09567 22.5167 7.787 21.95C6.479 21.3833 5.33767 20.6127 4.363 19.638C3.38767 18.6627 2.61667 17.5207 2.05 16.212C1.48333 14.904 1.2 13.5 1.2 12C1.2 10.5 1.48333 9.09166 2.05 7.775C2.61667 6.45833 3.38767 5.31266 4.363 4.338C5.33767 3.36266 6.479 2.59566 7.787 2.037C9.09567 1.479 10.5 1.2 12 1.2C13.5 1.2 14.9083 1.479 16.225 2.037C17.5417 2.59566 18.6877 3.36266 19.663 4.338C20.6377 5.31266 21.404 6.45833 21.962 7.775C22.5207 9.09166 22.8 10.5 22.8 12C22.8 13.5 22.5207 14.904 21.962 16.212C21.404 17.5207 20.6377 18.6627 19.663 19.638C18.6877 20.6127 17.5417 21.3833 16.225 21.95C14.9083 22.5167 13.5 22.8 12 22.8ZM12 20.15C14.2667 20.15 16.1917 19.3583 17.775 17.775C19.3583 16.1917 20.15 14.2667 20.15 12C20.15 9.73333 19.3583 7.80833 17.775 6.225C16.1917 4.64166 14.2667 3.85 12 3.85C9.73333 3.85 7.80833 4.64166 6.225 6.225C4.64167 7.80833 3.85 9.73333 3.85 12C3.85 14.2667 4.64167 16.1917 6.225 17.775C7.80833 19.3583 9.73333 20.15 12 20.15Z" fill="inherit"/>
</svg>
