<svg viewBox="0 0 24 24" xmlns="http://www.w3.org/2000/svg"><path d="m13 15.5 2.5-2.6c.3-.2.4-.5.4-.9s-.1-.7-.4-1L13 8.5c-.2-.2-.5-.3-.9-.3a1.3 1.3 0 0 0-1.3 1.3c0 .4.1.7.4 1l.3.3H9c-.4 0-.7.1-1 .4-.2.2-.3.5-.3.9s.1.7.4 1c.2.2.5.3.9.3h2.4l-.3.4c-.3.2-.4.5-.4.9a1.3 1.3 0 0 0 1.3 1.3c.4 0 .7-.1 1-.4Zm-1 7.3a10.5 10.5 0 0 1-7.6-3.2A11 11 0 0 1 1.2 12a10.6 10.6 0 0 1 3.2-7.7A10.8 10.8 0 0 1 16.2 2 10.7 10.7 0 0 1 22 16.2a10.8 10.8 0 0 1-10 6.6Zm0-2.7c2.3 0 4.2-.7 5.8-2.3A7.9 7.9 0 0 0 20 12c0-2.3-.7-4.2-2.3-5.8A7.9 7.9 0 0 0 12 3.8c-2.3 0-4.2.8-5.8 2.4A7.9 7.9 0 0 0 3.8 12c0 2.3.8 4.2 2.4 5.8A7.9 7.9 0 0 0 12 20Z" fill="inherit"/></svg>