<svg width="12" height="12" viewBox="0 0 12 12" fill="none" xmlns="http://www.w3.org/2000/svg">
<g id="Group">
<g id="Group_2">
<path id="Vector" d="M1.99996 11.3333C2.73329 11.3333 3.33329 10.7333 3.33329 10V5.33333C3.33329 4.6 2.73329 4 1.99996 4C1.26663 4 0.666626 4.6 0.666626 5.33333V10C0.666626 10.7333 1.26663 11.3333 1.99996 11.3333Z" fill="white"/>
<path id="Vector_2" d="M8.66663 8.00002V10C8.66663 10.7334 9.26663 11.3334 9.99996 11.3334C10.7333 11.3334 11.3333 10.7334 11.3333 10V8.00002C11.3333 7.26669 10.7333 6.66669 9.99996 6.66669C9.26663 6.66669 8.66663 7.26669 8.66663 8.00002Z" fill="#3B69D1"/>
<path id="Vector_3" d="M5.99996 11.3334C6.73329 11.3334 7.33329 10.7334 7.33329 10V2.00002C7.33329 1.26669 6.73329 0.666687 5.99996 0.666687C5.26663 0.666687 4.66663 1.26669 4.66663 2.00002V10C4.66663 10.7334 5.26663 11.3334 5.99996 11.3334Z" fill="#3B69D1"/>
</g>
</g>
</svg>
