<svg viewBox="0 0 24 24" xmlns="http://www.w3.org/2000/svg">
<path d="M9 15H5.9C5.5 15 5.20434 14.8207 5.013 14.462C4.821 14.104 4.84167 13.7583 5.075 13.425L12.55 2.67501C12.7167 2.44168 12.9333 2.27901 13.2 2.18701C13.4667 2.09568 13.7417 2.10001 14.025 2.20001C14.3083 2.30001 14.5167 2.47501 14.65 2.72501C14.7833 2.97501 14.8333 3.24168 14.8 3.52501L14 10H17.875C18.3083 10 18.6127 10.1917 18.788 10.575C18.9627 10.9583 18.9083 11.3167 18.625 11.65L10.4 21.5C10.2167 21.7167 9.99167 21.8583 9.725 21.925C9.45834 21.9917 9.2 21.9667 8.95 21.85C8.7 21.7333 8.50434 21.554 8.363 21.312C8.221 21.0707 8.16667 20.8083 8.2 20.525L9 15Z" fill="inherit"/>
</svg>
