<svg xmlns="http://www.w3.org/2000/svg" viewBox="0 0 15 14">
    <path
        d="m1.66 13.194 6.027-2.154a1.334 1.334 0 0 0 .493-2.2L5.16 5.82a1.335 1.335 0 0 0-2.2.493L.807 12.34a.668.668 0 0 0 .853.854M9.04 7l3.373-3.374a.833.833 0 0 1 1.18 0l.04.04a.503.503 0 0 0 .707 0 .503.503 0 0 0 0-.706l-.04-.04a1.84 1.84 0 0 0-2.593 0L8.333 6.293a.503.503 0 0 0 0 .707.503.503 0 0 0 .707 0M5.706 3.587l-.04.04a.503.503 0 0 0 0 .706.503.503 0 0 0 .707 0l.04-.04a1.84 1.84 0 0 0 0-2.593l-.033-.033a.503.503 0 0 0-.713.707l.04.04c.32.32.32.853 0 1.173m4.666 3.333-.707.706a.503.503 0 0 0 0 .707.503.503 0 0 0 .707 0l.707-.707a.833.833 0 0 1 1.18 0l.72.72a.503.503 0 0 0 .707 0 .503.503 0 0 0 0-.706l-.72-.72a1.84 1.84 0 0 0-2.594 0m-1.333-4L7 4.96a.503.503 0 0 0 0 .707.503.503 0 0 0 .707 0l2.04-2.04a1.84 1.84 0 0 0 0-2.594L9.04.327a.503.503 0 0 0-.707 0 .503.503 0 0 0 0 .706l.707.707c.32.327.32.86 0 1.18"
        fill="inherit"/>
</svg>