<svg viewBox="0 0 24 24" xmlns="http://www.w3.org/2000/svg"><path d="M7 14h6c.3 0 .5-.1.7-.3.2-.2.3-.4.3-.7a1 1 0 0 0-.3-.7 1 1 0 0 0-.7-.3H7a1 1 0 0 0-.7.3 1 1 0 0 0-.3.7c0 .3.1.5.3.7.2.2.4.3.7.3Zm0-3h10c.3 0 .5-.1.7-.3.2-.2.3-.4.3-.7a1 1 0 0 0-.3-.7A1 1 0 0 0 17 9H7a1 1 0 0 0-.7.3 1 1 0 0 0-.3.7c0 .3.1.5.3.7.2.2.4.3.7.3Zm0-3h10c.3 0 .5-.1.7-.3.2-.2.3-.4.3-.7a1 1 0 0 0-.3-.7A1 1 0 0 0 17 6H7a1 1 0 0 0-.7.3A1 1 0 0 0 6 7c0 .3.1.5.3.7.2.2.4.3.7.3ZM2 19.6V4c0-.5.2-1 .6-1.4A2 2 0 0 1 4 2h16c.6 0 1 .2 1.4.6.4.4.6.9.6 1.4v12c0 .6-.2 1-.6 1.4a2 2 0 0 1-1.4.6H6l-2.3 2.3a1 1 0 0 1-1 .2 1 1 0 0 1-.7-1Zm2-2.4L5.2 16H20V4H4v13.2Z" fill="inherit"/></svg>