<svg viewBox="0 0 24 24" xmlns="http://www.w3.org/2000/svg"><path d="M3 9a1 1 0 0 1-.7-.3A1 1 0 0 1 2 8c0-.3.1-.5.3-.7.2-.2.4-.3.7-.3h7c.3 0 .5.1.7.3.2.2.3.4.3.7 0 .3-.1.5-.3.7a1 1 0 0 1-.7.3H3Zm0 8a1 1 0 0 1-.7-.3A1 1 0 0 1 2 16c0-.3.1-.5.3-.7.2-.2.4-.3.7-.3h7c.3 0 .5.1.7.3.2.2.3.4.3.7 0 .3-.1.5-.3.7a1 1 0 0 1-.7.3H3Zm12.7-6.7-2.2-2.2a1 1 0 0 1-.3-.7c0-.2.1-.5.3-.7l.7-.2c.3 0 .5 0 .7.2l1.5 1.5 3.5-3.6c.2-.2.4-.3.7-.3a1 1 0 0 1 1 1c0 .3-.1.5-.3.7l-4.2 4.3a1 1 0 0 1-1.4 0Zm0 8-2.2-2.2a1 1 0 0 1-.3-.7c0-.2.1-.5.3-.7l.7-.2c.3 0 .5 0 .7.2l1.5 1.5 3.5-3.6c.2-.2.4-.3.7-.3a1 1 0 0 1 1 1c0 .3-.1.5-.3.7l-4.2 4.3a1 1 0 0 1-1.4 0Z" fill="inherit"/></svg>