<svg viewBox="0 0 24 24" xmlns="http://www.w3.org/2000/svg"><path d="m10.6 13.4-2-2c-.2-.2-.5-.4-.9-.4a1.3 1.3 0 0 0-1.3 1.4c0 .3.1.6.4.9l2.9 2.9c.2.2.5.4.9.4s.7-.2 1-.4l5.7-5.8c.3-.2.4-.6.4-1 0-.3-.2-.6-.4-.8-.3-.3-.6-.4-1-.4-.3 0-.6.1-.9.4l-4.8 4.8Zm1.4 9.4a10.5 10.5 0 0 1-7.6-3.2A11 11 0 0 1 1.2 12a10.6 10.6 0 0 1 3.2-7.7A10.8 10.8 0 0 1 16.2 2 10.7 10.7 0 0 1 22 16.2a10.8 10.8 0 0 1-10 6.6Zm0-2.6c2.3 0 4.2-.8 5.8-2.4a7.9 7.9 0 0 0 2.4-5.8c0-2.3-.8-4.2-2.4-5.8A7.9 7.9 0 0 0 12 4c-2.3 0-4.2.7-5.8 2.3A7.9 7.9 0 0 0 4 12c0 2.3.7 4.2 2.3 5.8a7.9 7.9 0 0 0 5.8 2.4Z" fill="inherit"/></svg>