<svg viewBox="0 0 24 24" xmlns="http://www.w3.org/2000/svg"><path d="m16.5 8.2 3.6-3.6c.2-.2.4-.3.7-.3a1 1 0 0 1 1 1c0 .3-.1.5-.3.7l-4.3 4.3a1 1 0 0 1-1.3 0l-2.2-2.2a1 1 0 0 1-.3-.7c0-.2.1-.5.3-.7l.7-.2c.3 0 .5 0 .7.2l1.4 1.5ZM3 9a1 1 0 0 1-.7-.3A1 1 0 0 1 2 8c0-.3.1-.5.3-.7.2-.2.4-.3.7-.3h7c.3 0 .5.1.7.3.2.2.3.4.3.7 0 .3-.1.5-.3.7a1 1 0 0 1-.7.3H3Zm14 8.4-1.9 1.9a1 1 0 0 1-.7.3 1 1 0 0 1-.7-.3 1 1 0 0 1-.3-.7c0-.3.1-.5.3-.7l1.9-1.9-1.9-1.9a1 1 0 0 1-.3-.7c0-.3.1-.5.3-.7.2-.2.4-.3.7-.3.3 0 .5.1.7.3l1.9 1.9 1.9-1.9c.2-.2.4-.3.7-.3.3 0 .5.1.7.3.2.2.3.4.3.7 0 .3-.1.5-.3.7L18.4 16l1.9 1.9c.2.2.3.4.3.7 0 .3-.1.5-.3.7a1 1 0 0 1-.7.3 1 1 0 0 1-.7-.3L17 17.4ZM3 17a1 1 0 0 1-.7-.3A1 1 0 0 1 2 16c0-.3.1-.5.3-.7.2-.2.4-.3.7-.3h7c.3 0 .5.1.7.3.2.2.3.4.3.7 0 .3-.1.5-.3.7a1 1 0 0 1-.7.3H3Z" fill="inherit"/></svg>