<svg viewBox="0 0 24 24" xmlns="http://www.w3.org/2000/svg"><path d="M9 18h6c.3 0 .5-.1.7-.3.2-.2.3-.4.3-.7a1 1 0 0 0-.3-.7 1 1 0 0 0-.7-.3H9a1 1 0 0 0-.7.3 1 1 0 0 0-.3.7c0 .3.1.5.3.7.2.2.4.3.7.3Zm0-4h6c.3 0 .5-.1.7-.3.2-.2.3-.4.3-.7a1 1 0 0 0-.3-.7 1 1 0 0 0-.7-.3H9a1 1 0 0 0-.7.3 1 1 0 0 0-.3.7c0 .3.1.5.3.7.2.2.4.3.7.3Zm-3 8a2 2 0 0 1-1.4-.6A2 2 0 0 1 4 20V4c0-.5.2-1 .6-1.4A2 2 0 0 1 6 2h7.2a2 2 0 0 1 1.4.6l4.8 4.8a2 2 0 0 1 .6 1.4V20c0 .6-.2 1-.6 1.4a2 2 0 0 1-1.4.6H6Zm7-14c0 .3.1.5.3.7.2.2.4.3.7.3h4l-5-5v4Z" fill="inherit"/></svg>