<svg viewBox="0 0 24 24" xmlns="http://www.w3.org/2000/svg"><path d="M1.8 20a.7.7 0 0 1-.8-.8V16c0-.5.2-.9.5-1.2.4-.4.8-.6 1.3-.6h3.5c.3 0 .5.1.8.3l.7.6a5.2 5.2 0 0 0 6.7 1.6c.7-.4 1.3-1 1.8-1.6l.6-.6c.3-.2.5-.3.8-.3h3.6c.4 0 .8.2 1.2.6.3.3.5.7.5 1.2v3.3a.7.7 0 0 1-.8.7h-5a.7.7 0 0 1-.7-.8V17a6.5 6.5 0 0 1-4.5 1.8A6.6 6.6 0 0 1 7.5 17v2.3a.7.7 0 0 1-.8.7h-5ZM12 15.7a3.7 3.7 0 0 1-3-1.5l-1-1-1.2-.4c.5-.5 1.3-.9 2.3-1.2l2.9-.3c.9 0 1.9 0 3 .3 1 .3 1.7.7 2.2 1.2-.4 0-.8.2-1.2.5-.4.2-.7.5-1 .9-.3.5-.7.9-1.3 1.1-.5.3-1.1.4-1.7.4Zm-8-3.2c-.8 0-1.4-.3-2-.8-.5-.5-.8-1.2-.8-2 0-.7.3-1.4.8-1.9.6-.5 1.2-.8 2-.8s1.4.3 2 .8c.5.5.8 1.2.8 2 0 .7-.3 1.4-.8 1.9-.6.5-1.2.8-2 .8Zm16 0c-.8 0-1.4-.3-2-.8-.5-.5-.8-1.2-.8-2 0-.7.3-1.4.9-1.9.5-.5 1.1-.8 1.9-.8.8 0 1.4.3 2 .8.5.5.8 1.2.8 2 0 .7-.3 1.4-.9 1.9-.5.5-1.1.8-1.9.8Zm-8-3c-.8 0-1.4-.3-2-.8-.5-.5-.8-1.2-.8-2 0-.7.3-1.4.9-1.9.5-.5 1.1-.8 1.9-.8.8 0 1.4.3 2 .8.5.5.8 1.2.8 2 0 .7-.3 1.4-.9 1.9-.5.5-1.1.8-1.9.8Z" fill="inherit"/></svg>