<svg viewBox="0 0 16 16" xmlns="http://www.w3.org/2000/svg">
<path id="Vector" d="M8.00008 10.3834C7.91119 10.3834 7.82786 10.3694 7.75008 10.3414C7.6723 10.3139 7.60008 10.2667 7.53341 10.2001L5.13341 7.80008C5.01119 7.67786 4.95008 7.5223 4.95008 7.33341C4.95008 7.14453 5.01119 6.98897 5.13341 6.86675C5.25564 6.74453 5.41386 6.68053 5.60808 6.67475C5.80275 6.66941 5.96119 6.72786 6.08341 6.85008L7.33341 8.10008V3.33341C7.33341 3.14453 7.39741 2.98608 7.52541 2.85808C7.65297 2.73053 7.81119 2.66675 8.00008 2.66675C8.18897 2.66675 8.34741 2.73053 8.47541 2.85808C8.60297 2.98608 8.66675 3.14453 8.66675 3.33341V8.10008L9.91675 6.85008C10.039 6.72786 10.1974 6.66941 10.3921 6.67475C10.5863 6.68053 10.7445 6.74453 10.8667 6.86675C10.989 6.98897 11.0501 7.14453 11.0501 7.33341C11.0501 7.5223 10.989 7.67786 10.8667 7.80008L8.46675 10.2001C8.40008 10.2667 8.32786 10.3139 8.25008 10.3414C8.1723 10.3694 8.08897 10.3834 8.00008 10.3834ZM4.00008 13.3334C3.63341 13.3334 3.31964 13.203 3.05875 12.9421C2.79741 12.6807 2.66675 12.3667 2.66675 12.0001V10.6667C2.66675 10.4779 2.73053 10.3194 2.85808 10.1914C2.98608 10.0639 3.14453 10.0001 3.33341 10.0001C3.5223 10.0001 3.68075 10.0639 3.80875 10.1914C3.9363 10.3194 4.00008 10.4779 4.00008 10.6667V12.0001H12.0001V10.6667C12.0001 10.4779 12.0641 10.3194 12.1921 10.1914C12.3196 10.0639 12.4779 10.0001 12.6667 10.0001C12.8556 10.0001 13.0139 10.0639 13.1414 10.1914C13.2694 10.3194 13.3334 10.4779 13.3334 10.6667V12.0001C13.3334 12.3667 13.203 12.6807 12.9421 12.9421C12.6807 13.203 12.3667 13.3334 12.0001 13.3334H4.00008Z" fill="inherit"/>
</svg>
