<svg viewBox="0 0 24 24" xmlns="http://www.w3.org/2000/svg"><path d="M15 21a9 9 0 0 1-8.5-6H4a1 1 0 0 1-.7-.3A1 1 0 0 1 3 14c0-.3.1-.5.3-.7.2-.2.4-.3.7-.3h2v-2H4a1 1 0 0 1-.7-.3A1 1 0 0 1 3 10c0-.3.1-.5.3-.7.2-.2.4-.3.7-.3h2.5a9 9 0 0 1 13.4-4.5c.3.2.5.4.5.8s0 .7-.4 1c-.2.2-.4.3-.7.3-.3 0-.6 0-1-.2-.4-.3-1-.5-1.5-.7L15 5.5c-1.3 0-2.4.3-3.4 1C10.6 7 9.8 8 9.3 9H14c.3 0 .5.1.7.3.2.2.3.4.3.7 0 .3-.1.5-.3.7a1 1 0 0 1-.7.3H8.6a7.4 7.4 0 0 0-.1 1 4.6 4.6 0 0 0 .1 1H14c.3 0 .5.1.7.3.2.2.3.4.3.7 0 .3-.1.5-.3.7a1 1 0 0 1-.7.3H9.2a6.3 6.3 0 0 0 5.8 3.5 6.4 6.4 0 0 0 3.4-1c.3 0 .6-.2.9-.1.3 0 .5.1.7.3.3.3.4.6.4 1s-.2.7-.5.9A9 9 0 0 1 15 21Z" fill="inherit"/></svg>