<svg viewBox="0 0 24 24" xmlns="http://www.w3.org/2000/svg"><path d="M3 21a2 2 0 0 1-1.4-.6A2 2 0 0 1 1 19V5c0-.5.2-1 .6-1.4A2 2 0 0 1 3 3h1V2c0-.3.1-.5.3-.7.2-.2.4-.3.7-.3.3 0 .5.1.7.3.2.2.3.4.3.7v1h8V2c0-.3.1-.5.3-.7.2-.2.4-.3.7-.3.3 0 .5.1.7.3.2.2.3.4.3.7v1h1c.6 0 1 .2 1.4.6.4.4.6.9.6 1.4v6h-2V9H3v10h7v2H3Zm14 2a4.9 4.9 0 0 1-4.6-2.9v-.8c.2-.2.4-.3.8-.3l.3.1.3.3c.3.7.7 1.1 1.3 1.5.5.4 1.2.6 1.9.6 1 0 1.8-.3 2.5-1s1-1.5 1-2.5-.3-1.8-1-2.5-1.5-1-2.5-1a3.5 3.5 0 0 0-2.4 1h.7c.2 0 .3 0 .5.2l.2.6c0 .2 0 .3-.2.5l-.6.2H13a1 1 0 0 1-.7-.3 1 1 0 0 1-.3-.7v-2.3a.7.7 0 0 1 .8-.7c.2 0 .3 0 .5.2l.2.6v.6c.4-.4 1-.8 1.6-1 .6-.3 1.2-.4 1.9-.4 1.4 0 2.6.5 3.5 1.5 1 1 1.5 2.1 1.5 3.5s-.5 2.6-1.5 3.5c-1 1-2.1 1.5-3.5 1.5Z" fill="inherit"/></svg>