<svg viewBox="0 0 24 24" xmlns="http://www.w3.org/2000/svg"><path d="M9 16.5c-.7 0-1.3-.2-1.8-.7-.5-.5-.7-1.1-.7-1.8s.2-1.3.7-1.8c.5-.5 1.1-.7 1.8-.7s1.3.2 1.8.7c.5.5.7 1.1.7 1.8s-.2 1.3-.7 1.8c-.5.5-1.1.7-1.8.7ZM5 22a2 2 0 0 1-1.4-.6A2 2 0 0 1 3 20V6c0-.5.2-1 .6-1.4A2 2 0 0 1 5 4h1V3c0-.3.1-.5.3-.7.2-.2.4-.3.7-.3.3 0 .5.1.7.3.2.2.3.4.3.7v1h8V3c0-.3.1-.5.3-.7.2-.2.4-.3.7-.3.3 0 .5.1.7.3.2.2.3.4.3.7v1h1c.6 0 1 .2 1.4.6.4.4.6.9.6 1.4v14c0 .6-.2 1-.6 1.4a2 2 0 0 1-1.4.6H5Zm0-2h14V10H5v10ZM5 8h14V6H5v2Z" fill="inherit"/></svg>