<svg viewBox="0 0 24 24" xmlns="http://www.w3.org/2000/svg">
<path d="M10.2002 20.25L8.1002 18.325C6.41686 16.775 4.8462 15.1833 3.3882 13.55C1.92953 11.9167 1.2002 10.05 1.2002 7.95C1.2002 6.18333 1.8002 4.70833 3.0002 3.525C4.2002 2.34167 5.68353 1.75 7.4502 1.75C8.43353 1.75 9.31686 1.95 10.1002 2.35C10.8835 2.75 11.5169 3.16667 12.0002 3.6C12.4835 3.16667 13.1169 2.75 13.9002 2.35C14.6835 1.95 15.5669 1.75 16.5502 1.75C18.3169 1.75 19.8002 2.34167 21.0002 3.525C22.2002 4.70833 22.8002 6.18333 22.8002 7.95C22.8002 10.05 22.0712 11.9167 20.6132 13.55C19.1545 15.1833 17.5919 16.7667 15.9252 18.3L13.8002 20.25C13.3002 20.7333 12.7002 20.975 12.0002 20.975C11.3002 20.975 10.7002 20.7333 10.2002 20.25ZM10.7502 6.4C10.4669 5.91667 10.0419 5.46233 9.4752 5.037C8.90853 4.61233 8.23353 4.4 7.4502 4.4C6.41686 4.4 5.55853 4.73333 4.8752 5.4C4.19186 6.06667 3.8502 6.91667 3.8502 7.95C3.8502 8.85 4.16286 9.79167 4.7882 10.775C5.41286 11.7583 6.16253 12.7207 7.0372 13.662C7.91253 14.604 8.81286 15.4793 9.7382 16.288C10.6629 17.096 11.4169 17.7667 12.0002 18.3C12.5835 17.7667 13.3375 17.096 14.2622 16.288C15.1875 15.4793 16.0879 14.604 16.9632 13.662C17.8379 12.7207 18.5879 11.7583 19.2132 10.775C19.8379 9.79167 20.1502 8.85 20.1502 7.95C20.1502 6.91667 19.8085 6.06667 19.1252 5.4C18.4419 4.73333 17.5835 4.4 16.5502 4.4C15.7669 4.4 15.0875 4.61233 14.5122 5.037C13.9375 5.46233 13.5169 5.91667 13.2502 6.4C13.1169 6.63333 12.9379 6.81267 12.7132 6.938C12.4879 7.06267 12.2585 7.125 12.0252 7.125C11.7752 7.125 11.5375 7.06267 11.3122 6.938C11.0875 6.81267 10.9002 6.63333 10.7502 6.4Z" fill="inherit"/>
</svg>
