<svg viewBox="0 0 24 24" xmlns="http://www.w3.org/2000/svg"><path d="m10.2 20.3-2.1-2a68.6 68.6 0 0 1-4.7-4.8A8.2 8.2 0 0 1 1.2 8a6 6 0 0 1 6.2-6.2c1 0 2 .2 2.7.6A9 9 0 0 1 12 3.5a9 9 0 0 1 1.9-1.3c.8-.3 1.7-.5 2.7-.5A6 6 0 0 1 22.8 8c0 2-.7 4-2.2 5.6a68 68 0 0 1-4.7 4.7l-2.1 2c-.5.4-1.1.7-1.8.7s-1.3-.3-1.8-.8Zm.6-13.9c-.3-.5-.8-1-1.3-1.4-.6-.4-1.3-.6-2-.6-1 0-2 .3-2.6 1-.7.7-1 1.5-1 2.5s.3 1.9.9 2.9a36.3 36.3 0 0 0 7.2 7.5l2.3-2a36.3 36.3 0 0 0 5-5.5c.5-1 .9-2 .9-2.9 0-1-.4-1.8-1-2.5-.8-.7-1.6-1-2.6-1-.8 0-1.5.2-2 .6-.7.5-1 1-1.3 1.4l-.6.5a1.4 1.4 0 0 1-1.4 0c-.2 0-.4-.3-.5-.5Z" fill="inherit"/></svg>