<svg viewBox="0 0 24 22" xmlns="http://www.w3.org/2000/svg"><path d="M12.1 21.6c-.3 0-.6-.1-.8-.4a1.2 1.2 0 0 1 0-1.7l5.5-5.5-.6-.7-5.6 5.6-.4.3h-.4c-.4 0-.6 0-.9-.3-.2-.2-.3-.5-.3-.8v-.5l.3-.4 5.6-5.5-.7-.7-5.5 5.6-.4.2a1.2 1.2 0 0 1-1.3-.2 1.2 1.2 0 0 1 0-1.7L12 9.3l-.6-.6L6 14.3a1.1 1.1 0 0 1-.9.3l-.9-.3-.3-.9a1.1 1.1 0 0 1 .4-.8l6.6-6.7 3.9 3.8.7.5c.3.2.6.3 1 .3.6 0 1.1-.2 1.6-.6.4-.5.6-1 .6-1.7a2.2 2.2 0 0 0-.7-1.6l-5.3-5.4.1-.2a3.7 3.7 0 0 1 2.4-1c.6 0 1 0 1.5.3.4.1.8.4 1.2.8l5 5c.4.4.7.8.8 1.3.2.4.3.9.3 1.5 0 .4 0 .8-.3 1.2-.1.4-.4.8-.8 1.1l-10 10c-.1.2-.2.3-.4.3l-.4.1Zm-9.4-8.8L1 11.2c-.3-.3-.6-.7-.7-1.1A3.6 3.6 0 0 1 1 6l5-5A3.6 3.6 0 0 1 8.6 0c.5 0 1 0 1.4.2l1.2.9 6.2 6.1c.2.2.3.3.3.5l.2.5a1.3 1.3 0 0 1-2 1.2 2 2 0 0 1-.5-.4l-4.5-4.4-8.2 8.2Z" fill="inherit"/></svg>