<svg viewBox="0 0 24 24" xmlns="http://www.w3.org/2000/svg"><path d="M12 18c.3 0 .6-.1.8-.4.3-.2.4-.5.4-.9 0-.3-.1-.6-.4-.8-.2-.3-.5-.4-.9-.4-.3 0-.6.1-.8.4-.3.2-.4.5-.4.8 0 .4.1.7.4 1 .2.2.5.3.8.3ZM12 7.7c.5 0 .8.1 1.1.4.3.2.5.6.5 1l-.3.9-.8.9c-.5.4-1 .8-1.2 1.2l-.3 1.2c0 .3 0 .5.3.6.1.2.3.3.6.3l.6-.3.3-.6.4-.8.8-1c.6-.4 1-.9 1.1-1.3.2-.4.4-.8.4-1.3 0-.8-.4-1.5-1-2C13.9 6.2 13 6 12 6c-.7 0-1.3.1-1.9.4-.5.3-1 .7-1.2 1.2a1 1 0 0 0-.2.7c0 .2.2.3.4.5l.7.1c.3 0 .5-.2.7-.4.1-.3.4-.5.6-.6l.9-.2ZM12 22a10.2 10.2 0 0 1-9.2-6.1A9.7 9.7 0 0 1 2 12a9.7 9.7 0 0 1 3-7 10.3 10.3 0 0 1 7-3 9.8 9.8 0 0 1 7.1 3 10 10 0 0 1 2.9 7 9.9 9.9 0 0 1-6 9.2c-1.3.5-2.6.8-4 .8Z" fill="inherit"/></svg>