<svg viewBox="0 0 24 24" xmlns="http://www.w3.org/2000/svg"><path d="M9 14c0-2.5.9-4.6 2.6-6.4A8.7 8.7 0 0 1 18 5v2c-2 0-3.6.7-5 2-1.3 1.4-2 3-2 5H9Zm4 0c0-1.4.5-2.6 1.5-3.5 1-1 2.1-1.5 3.5-1.5v2c-.8 0-1.5.3-2.1.9-.6.6-.9 1.3-.9 2.1h-2ZM5 6a2 2 0 0 1-1.4-.6A2 2 0 0 1 3 4c0-.5.2-1 .6-1.4A2 2 0 0 1 5 2c.5 0 1 .2 1.4.6.4.4.6.9.6 1.4 0 .5-.2 1-.6 1.4A2 2 0 0 1 5 6Zm-3 5V8.5c0-.4.1-.8.4-1 .3-.4.7-.5 1.1-.5h3c.8 0 1.4-.2 2-.7.5-.5.8-1 1-1.8h2c-.2 1-.5 1.9-1.2 2.7A5 5 0 0 1 8 8.7V11H2Zm17 6a2 2 0 0 1-1.4-.6A2 2 0 0 1 17 15c0-.6.2-1 .6-1.4A2 2 0 0 1 19 13c.6 0 1 .2 1.4.6.4.4.6.8.6 1.4 0 .6-.2 1-.6 1.4a2 2 0 0 1-1.4.6Zm-3 5v-2.3a5 5 0 0 1-3.4-4.2h2a3 3 0 0 0 1 1.8c.5.5 1.2.7 1.9.7h3c.4 0 .8.1 1 .4.4.3.5.7.5 1.1V22h-6Z" fill="inherit"/></svg>