<svg viewBox="0 0 24 24" xmlns="http://www.w3.org/2000/svg"><path d="M6 22a2 2 0 0 1-1.4-.6A2 2 0 0 1 4 20V10c0-.6.2-1 .6-1.4A2 2 0 0 1 6 8h1V6c0-1.4.5-2.6 1.5-3.5 1-1 2.1-1.5 3.5-1.5s2.6.5 3.5 1.5c1 1 1.5 2.1 1.5 3.5v2h1c.6 0 1 .2 1.4.6.4.4.6.8.6 1.4v10c0 .6-.2 1-.6 1.4a2 2 0 0 1-1.4.6H6Zm6-5c.6 0 1-.2 1.4-.6.4-.4.6-.8.6-1.4 0-.6-.2-1-.6-1.4A2 2 0 0 0 12 13a2 2 0 0 0-1.4.6A2 2 0 0 0 10 15c0 .6.2 1 .6 1.4.4.4.8.6 1.4.6ZM9 8h6V6c0-.8-.3-1.5-.9-2.1-.6-.6-1.3-.9-2.1-.9s-1.5.3-2.1.9C9.3 4.5 9 5.2 9 6v2Z" fill="inherit"/></svg>