<svg viewBox="0 0 24 24" xmlns="http://www.w3.org/2000/svg"><path d="M15.6 17c.2.2.4.3.7.3.3 0 .5 0 .7-.3.2-.2.3-.4.3-.7 0-.3 0-.5-.3-.7L15.3 14a4 4 0 0 0 .7-2.4c0-1.3-.4-2.3-1.3-3.2-.9-.9-2-1.3-3.2-1.3-1.3 0-2.3.4-3.2 1.3-.9.9-1.3 2-1.3 3.2 0 1.3.4 2.3 1.3 3.2.9.9 2 1.3 3.2 1.3a4.6 4.6 0 0 0 2.4-.7l1.7 1.7Zm-4.1-3c-.7 0-1.3-.2-1.8-.7-.5-.5-.7-1.1-.7-1.8s.2-1.3.7-1.8c.5-.5 1.1-.7 1.8-.7s1.3.2 1.8.7c.5.5.7 1.1.7 1.8s-.2 1.3-.7 1.8c-.5.5-1.1.7-1.8.7ZM4 20a2 2 0 0 1-1.4-.6A2 2 0 0 1 2 18V6c0-.5.2-1 .6-1.4A2 2 0 0 1 4 4h16c.6 0 1 .2 1.4.6.4.4.6.9.6 1.4v12c0 .6-.2 1-.6 1.4a2 2 0 0 1-1.4.6H4Zm0-2h16V6H4v12Z" fill="inherit"/></svg>