<svg viewBox="0 0 24 24" xmlns="http://www.w3.org/2000/svg"><path d="M1.3 21.1c-.4 0-.7-.1-1-.4-.2-.2-.3-.5-.3-.9v-2.3c0-.7.2-1.3.5-1.8.3-.6.8-1 1.3-1.3a15.2 15.2 0 0 1 14 0c.5.3 1 .7 1.2 1.3.4.5.5 1.1.5 1.8v2.3c0 .4-.1.7-.4 1-.2.2-.5.3-.9.3H1.3Zm17.7 0c.2 0 .3-.2.4-.4.2-.2.3-.5.3-.9v-2.6c0-.7-.2-1.4-.6-2.3-.4-.8-1-1.5-1.8-2.1a15.6 15.6 0 0 1 5.5 1.6c.7.4 1.2.9 1.6 1.3.4.5.6 1 .6 1.5v2.6c0 .4-.2.7-.4 1-.3.2-.6.3-1 .3H19ZM8.7 11.4c-1.2 0-2.4-.5-3.3-1.4C4.5 9.1 4 8 4 6.7c0-1.3.5-2.4 1.4-3.3 1-1 2-1.4 3.3-1.4 1.4 0 2.5.5 3.4 1.4.9.9 1.3 2 1.3 3.3 0 1.3-.4 2.4-1.3 3.3-1 1-2 1.4-3.3 1.4ZM21 6.7c0 1.3-.5 2.4-1.4 3.3-1 1-2 1.4-3.3 1.4a8.1 8.1 0 0 1-2-.3 6.9 6.9 0 0 0 1.4-4.4A7.5 7.5 0 0 0 14 2.3l1-.2 1-.1c1.4 0 2.5.5 3.4 1.4 1 .9 1.4 2 1.4 3.3Z" fill="inherit"/></svg>