<svg viewBox="0 0 24 24" xmlns="http://www.w3.org/2000/svg"><path d="m6 12.4-2.5-1c-.4-.2-.6-.5-.7-1-.1-.4 0-.8.3-1.2l3.2-3.1 1.1-.7h1.3l1.6.2A24.6 24.6 0 0 0 6 12.4ZM21.5 2.2h.5a1.6 1.6 0 0 1 .7.8l.1.5c0 1.6-.4 3.1-1 4.7a18 18 0 0 1-9 8.3h-1c-.2 0-.4 0-.6-.3L8.7 14l-.4-.8c0-.3 0-.5.2-.8.6-1.4 1.2-2.6 1.8-3.4.5-.9 1.3-1.8 2.3-2.8a13.6 13.6 0 0 1 8.8-4Zm-6.1 7.4c.3.4.7.5 1.2.5s1-.1 1.3-.5c.3-.3.4-.7.4-1.2s-.1-1-.4-1.3c-.4-.3-.8-.5-1.3-.5s-.9.2-1.2.5c-.4.4-.5.8-.5 1.3s.1.9.5 1.2Zm-2.9 9.2a47.7 47.7 0 0 0 6.8-4.2l.4 1.6-.1 1.3c-.2.4-.4.8-.7 1l-3.2 3.3c-.3.3-.7.4-1.1.3-.5 0-.8-.3-1-.8l-1-2.5Zm-9-2c.6-.7 1.4-1 2.3-1 1 0 1.7.3 2.4 1 .6.6 1 1.4 1 2.3 0 1-.4 1.8-1 2.4-.5.4-1.2.8-2.2 1.2-1 .3-2.6.6-4.6.8.3-2 .5-3.5.9-4.5.3-1 .7-1.8 1.2-2.2Z" fill="inherit"/></svg>