<svg xmlns="http://www.w3.org/2000/svg" viewBox="0 0 16 16">
    <path
        d="M6.67 2a.7.7 0 0 1-.48-.2.7.7 0 0 1-.19-.47q0-.28.2-.47.18-.2.47-.2h2.66q.3 0 .48.2.2.19.19.47 0 .3-.2.48a.7.7 0 0 1-.47.19zM8 9.33q.29 0 .47-.19.2-.19.2-.47V6a.7.7 0 0 0-.2-.47.7.7 0 0 0-.47-.2.7.7 0 0 0-.47.2.7.7 0 0 0-.2.47v2.67q0 .28.2.47.18.2.47.2m0 5.34q-1.23 0-2.33-.48a6 6 0 0 1-3.2-3.2A6 6 0 0 1 2 8.67q0-1.24.48-2.33a6 6 0 0 1 3.2-3.2Q6.77 2.67 8 2.67a6 6 0 0 1 3.77 1.3l.46-.47a.6.6 0 0 1 .47-.18q.28 0 .47.18t.18.47-.18.46l-.47.47q.63.84.97 1.78a6 6 0 0 1-1.44 6.22A6 6 0 0 1 8 14.67m0-1.34a4.5 4.5 0 0 0 3.3-1.36 4.5 4.5 0 0 0 1.37-3.3 4.5 4.5 0 0 0-1.37-3.3A4.5 4.5 0 0 0 8 4a4.5 4.5 0 0 0-3.3 1.37 4.5 4.5 0 0 0-1.37 3.3 4.5 4.5 0 0 0 1.37 3.3A4.5 4.5 0 0 0 8 13.33"
        fill="inherit"/>
</svg>