<svg viewBox="0 0 24 24" xmlns="http://www.w3.org/2000/svg"><path d="M10 3a1 1 0 0 1-.7-.3A1 1 0 0 1 9 2c0-.3.1-.5.3-.7.2-.2.4-.3.7-.3h4c.3 0 .5.1.7.3.2.2.3.4.3.7 0 .3-.1.5-.3.7a1 1 0 0 1-.7.3h-4Zm2 11c.3 0 .5-.1.7-.3.2-.2.3-.4.3-.7V9a1 1 0 0 0-.3-.7A1 1 0 0 0 12 8a1 1 0 0 0-.7.3 1 1 0 0 0-.3.7v4c0 .3.1.5.3.7.2.2.4.3.7.3Zm0 8c-1.2 0-2.4-.2-3.5-.7a9.2 9.2 0 0 1-4.8-4.8 8.7 8.7 0 0 1 0-7 9.2 9.2 0 0 1 4.8-4.8A9 9 0 0 1 17.6 6l.8-.7c.2-.2.4-.3.7-.3l.6.3c.2.2.3.5.3.8 0 .2 0 .5-.3.7l-.6.6c.6.9 1 1.8 1.4 2.7a9 9 0 0 1-2.1 9.4A9.2 9.2 0 0 1 12 22Z" fill="inherit"/></svg>