<svg fill="none" xmlns="http://www.w3.org/2000/svg" viewBox="0 0 24 24"><path d="m19 16.8-3.3-3.3c.2-.2.3-.6.4-1l.1-1c0-1.2-.4-2.2-1.2-3a4.1 4.1 0 0 0-3-1.2h-1a3 3 0 0 0-1 .5L7.2 5a12.4 12.4 0 0 1 4.9-1 12 12 0 0 1 10.7 7.1 2.7 2.7 0 0 1 0 .8l-.1.3a12 12 0 0 1-3.8 4.6Zm.8 5-3.6-3.5-2 .5-2.2.2c-2.3 0-4.4-.6-6.3-1.8a12 12 0 0 1-4.5-5.3 2.4 2.4 0 0 1 0-.8l.1-.3a11.9 11.9 0 0 1 3.2-4.2L2 4a.7.7 0 0 1 0-1l.6-.3c.2 0 .3 0 .5.2l17.9 18 .2.4c0 .2 0 .4-.2.5-.1.2-.3.3-.5.3l-.6-.2Zm-7.8-6 .7-.1.7-.2L8 10.1l-.2.7v.7a4 4 0 0 0 1.2 3c.8.8 1.8 1.3 3 1.3Zm2.6-3.4L11.1 9c1-.4 2-.2 2.8.6 1 .8 1.2 1.7.7 3Z" fill="inherit"/></svg>
