<svg fill="none" xmlns="http://www.w3.org/2000/svg" viewBox="0 0 24 24"><path d="M12 16.6a5 5 0 0 0 3.6-1.5 5 5 0 0 0 1.5-3.6 5 5 0 0 0-1.5-3.6A5 5 0 0 0 12 6.4a5 5 0 0 0-3.6 1.5 5 5 0 0 0-1.5 3.6 5 5 0 0 0 1.5 3.6 5 5 0 0 0 3.6 1.5Zm0-2.4c-.8 0-1.4-.2-2-.8-.5-.5-.8-1.1-.8-1.9 0-.8.3-1.4.9-2 .5-.5 1.1-.8 1.9-.8.8 0 1.4.3 2 .9.5.5.7 1.1.7 1.9 0 .8-.2 1.4-.8 2-.5.5-1.1.8-1.9.8Zm0 5.6A12.5 12.5 0 0 1 .5 12.2a4.3 4.3 0 0 1 0-1.4l.2-.7A12.4 12.4 0 0 1 12 3.3a12.5 12.5 0 0 1 11.5 7.5 4.3 4.3 0 0 1 0 1.4l-.2.7A12.4 12.4 0 0 1 12 19.7Z" fill="inherit"/></svg>
