<svg width="280" height="280" viewBox="0 0 280 280" fill="none" xmlns="http://www.w3.org/2000/svg">
<path d="M140.095 264.992C211.322 264.992 269.063 231.656 269.063 190.534C269.063 149.412 211.322 116.077 140.095 116.077C68.8681 116.077 11.1272 149.412 11.1272 190.534C11.1272 231.656 68.8681 264.992 140.095 264.992Z" fill="#F5F5F5"/>
<path d="M67.8328 32.8386L63.196 35.5098C63.2228 35.3075 63.2359 35.1035 63.2352 34.8994V33.5554C63.2352 31.1642 61.5552 30.1954 59.4944 31.3938C58.6004 31.937 57.8359 32.669 57.2544 33.5386C56.9184 30.537 54.5608 29.417 51.6992 31.069C48.6024 32.8554 46.0992 37.229 46.0992 40.7738V42.7842C46.0799 43.5849 46.2427 44.3795 46.5752 45.1082L42.728 47.3482C42.1233 47.7418 41.62 48.2725 41.259 48.8972C40.898 49.5219 40.6895 50.223 40.6504 50.9434C40.6504 52.2706 41.58 52.8082 42.728 52.1474L67.8328 37.6322C68.4375 37.2386 68.9408 36.7079 69.3018 36.0832C69.6628 35.4585 69.8713 34.7574 69.9104 34.037C69.9104 32.7098 68.9808 32.1722 67.8328 32.8386Z" fill="#EBEBEB"/>
<path d="M87.6568 46.3345L84.1624 48.3505C84.1801 48.1981 84.1895 48.0448 84.1904 47.8913V46.8777C84.1904 45.0745 82.9248 44.3465 81.3624 45.2481C80.6915 45.6591 80.1182 46.2114 79.6824 46.8665C79.4248 44.6265 77.644 43.7529 75.488 45.0017C74.2564 45.804 73.2312 46.8854 72.4956 48.158C71.76 49.4307 71.3348 50.8588 71.2544 52.3265V53.8441C71.2423 54.4477 71.3647 55.0465 71.6128 55.5969L68.712 57.2769C68.2559 57.5749 67.8763 57.976 67.6039 58.4478C67.3315 58.9196 67.174 59.4489 67.144 59.9929C67.144 60.9953 67.844 61.3985 68.712 60.9001L87.6568 49.9633C88.113 49.6654 88.4926 49.2643 88.765 48.7924C89.0374 48.3206 89.1949 47.7913 89.2248 47.2473C89.2248 46.2393 88.5248 45.8361 87.6568 46.3345Z" fill="#EBEBEB"/>
<path d="M58.1169 216.205L63.9017 212.845C63.9017 212.845 65.3185 200.463 64.3721 190.876C63.0505 177.402 54.3481 161.196 43.9657 164.998C33.5833 168.801 48.7201 182.56 52.0801 193.978C55.4401 205.397 58.1169 216.205 58.1169 216.205Z" fill="#333866"/>
<path opacity="0.2" d="M58.1169 216.205L63.9017 212.845C63.9017 212.845 65.3185 200.463 64.3721 190.876C63.0505 177.402 54.3481 161.196 43.9657 164.998C33.5833 168.801 48.7201 182.56 52.0801 193.978C55.4401 205.397 58.1169 216.205 58.1169 216.205Z" fill="black"/>
<path d="M61.1577 214.799C61.1121 214.798 61.0673 214.787 61.0257 214.769C60.9841 214.75 60.9467 214.723 60.9155 214.69C60.8843 214.656 60.8599 214.617 60.8438 214.575C60.8278 214.532 60.8202 214.486 60.8217 214.441C61.8353 184.498 46.9337 169.439 46.7825 169.294C46.7434 169.263 46.7111 169.224 46.6879 169.18C46.6647 169.136 46.6511 169.088 46.6479 169.038C46.6448 168.989 46.6522 168.939 46.6696 168.892C46.687 168.846 46.7142 168.803 46.7491 168.768C46.7841 168.732 46.8262 168.705 46.8726 168.687C46.919 168.669 46.9687 168.661 47.0184 168.664C47.0681 168.666 47.1167 168.679 47.161 168.702C47.2052 168.725 47.2442 168.756 47.2753 168.795C47.4265 168.941 62.5465 184.223 61.5217 214.463C61.5203 214.509 61.5097 214.555 61.4906 214.597C61.4714 214.639 61.4441 214.676 61.4102 214.708C61.3763 214.739 61.3365 214.763 61.2932 214.779C61.2498 214.795 61.2038 214.802 61.1577 214.799V214.799Z" fill="white"/>
<path d="M55.0313 218.596L59.1473 216.221C59.1473 216.221 59.8473 207.726 55.6809 197.4C52.0521 188.44 43.0585 180.964 38.5337 182.526C34.0089 184.088 34.1153 187.303 36.2937 190.668C38.4721 194.034 51.9569 202.059 55.0313 218.596Z" fill="#333866"/>
<path d="M57.2042 217.694C57.1106 217.694 57.0209 217.657 56.9547 217.591C56.8886 217.525 56.8514 217.435 56.8514 217.342C56.9354 198.414 39.161 185.618 38.9818 185.489C38.9185 185.432 38.8786 185.353 38.8696 185.268C38.8606 185.183 38.8832 185.098 38.9331 185.029C38.983 184.959 39.0566 184.911 39.14 184.892C39.2234 184.874 39.3106 184.887 39.385 184.929C39.5642 185.058 57.6354 198.066 57.5514 217.358C57.5485 217.449 57.5106 217.534 57.4458 217.597C57.381 217.659 57.2944 217.694 57.2042 217.694V217.694Z" fill="white"/>
<path d="M166.096 192.282L130.256 213.002L130.172 212.957L116.536 205.078C115.35 204.315 114.407 203.228 113.821 201.945C113.236 200.662 113.031 199.238 113.232 197.842L118.272 171.567L154.112 150.847L149.072 177.122C148.871 178.518 149.076 179.942 149.661 181.225C150.247 182.508 151.19 183.595 152.376 184.358L166.096 192.282Z" fill="#37474F"/>
<path d="M118.289 171.567L113.271 197.613L149.122 176.921L153.759 152.83L151.497 152.376L118.289 171.567Z" fill="#263238"/>
<path d="M130.245 212.996L116.53 205.078C115.345 204.315 114.403 203.227 113.817 201.945C113.232 200.662 113.027 199.238 113.226 197.843L118.266 171.567L112.291 168.112L106.512 198.173C105.745 202.149 107.99 207.06 111.496 209.082L130.228 219.895L130.245 212.996Z" fill="#263238"/>
<path d="M166.096 192.282L130.245 212.996V219.901L166.096 199.187V192.282Z" fill="#455A64"/>
<path d="M201.169 22.0137C202.815 22.9657 204.154 25.3737 204.154 27.4177V137.435C204.094 138.54 203.774 139.616 203.22 140.574C202.667 141.533 201.895 142.347 200.967 142.951L63.8401 222.13C62.0817 223.143 59.3153 223.194 57.6801 222.242C56.0449 221.29 54.6897 218.882 54.6897 216.838V106.82C54.7502 105.714 55.0702 104.638 55.6238 103.679C56.1773 102.72 56.9489 101.904 57.8761 101.299L194.992 22.1257C196.751 21.1065 199.517 21.0561 201.169 22.0137Z" fill="#455A64"/>
<path d="M63.4592 222.32C61.7008 223.144 59.1976 223.127 57.6576 222.242C56.0056 221.29 54.6672 218.882 54.6672 216.838V106.82C54.707 105.711 55.0289 104.629 55.6024 103.679L61.6 107.134C61.026 108.082 60.7041 109.162 60.6648 110.27V220.288C60.648 222.175 61.8744 223.02 63.4592 222.32Z" fill="#263238"/>
<path d="M204.154 137.435V27.4402C204.154 25.4074 202.731 24.5842 200.967 25.5978L63.84 104.754C62.9126 105.358 62.1407 106.172 61.5871 107.131C61.0335 108.089 60.7136 109.165 60.6536 110.27V220.287C60.6536 222.32 62.0816 223.143 63.84 222.13L200.967 142.951C201.895 142.347 202.666 141.533 203.22 140.574C203.774 139.616 204.094 138.541 204.154 137.435V137.435Z" fill="#37474F"/>
<path d="M197.154 31.192L66.1864 106.848C65.4449 107.332 64.8277 107.983 64.385 108.75C63.9423 109.517 63.6865 110.377 63.6384 111.261V208.942C63.6384 210.566 64.7584 211.226 66.1864 210.414L197.159 134.758C197.901 134.275 198.518 133.623 198.961 132.857C199.403 132.09 199.659 131.23 199.707 130.346V32.6648C199.707 31.0408 198.565 30.38 197.154 31.192Z" fill="#333866"/>
<path opacity="0.8" d="M197.154 31.192L66.1864 106.848C65.4449 107.332 64.8277 107.983 64.385 108.75C63.9423 109.517 63.6865 110.377 63.6384 111.261V208.942C63.6384 210.566 64.7584 211.226 66.1864 210.414L197.159 134.758C197.901 134.275 198.518 133.623 198.961 132.857C199.403 132.09 199.659 131.23 199.707 130.346V32.6648C199.707 31.0408 198.565 30.38 197.154 31.192Z" fill="white"/>
<path d="M72.9735 198.402C72.2791 198.402 71.8535 197.842 71.8535 196.885V119.526L191.481 50.4673V127.501C191.434 128.322 191.195 129.12 190.784 129.832C190.372 130.544 189.8 131.15 189.112 131.6L73.9535 198.094C73.6591 198.281 73.3214 198.387 72.9735 198.402V198.402Z" fill="#F5F5F5"/>
<path d="M191.201 50.96V127.512C191.153 128.286 190.926 129.038 190.537 129.709C190.148 130.379 189.609 130.95 188.961 131.376L73.8135 197.854C73.5608 198.013 73.2718 198.105 72.9735 198.122C72.2231 198.122 72.1447 197.26 72.1447 196.885V119.689L191.201 50.96ZM191.761 49.9912L71.5847 119.375V196.885C71.5847 198.005 72.1447 198.682 72.9735 198.682C73.3711 198.668 73.7576 198.548 74.0935 198.335L189.246 131.852C189.978 131.376 190.587 130.733 191.024 129.977C191.461 129.221 191.713 128.373 191.761 127.501V49.98V49.9912Z" fill="#E0E0E0"/>
<path d="M71.5847 119.364V130.245L191.761 60.8608V49.98L71.5847 119.364Z" fill="#333866"/>
<path d="M146.989 80.0801V82.4209C146.989 82.8969 147.33 83.0929 147.745 82.8577L184.705 61.5217V57.4561L147.745 78.7921C147.528 78.9339 147.347 79.124 147.216 79.3474C147.085 79.5709 147.007 79.8216 146.989 80.0801V80.0801Z" fill="#FAFAFA"/>
<path d="M188.653 55.1713C189.067 54.9305 189.403 55.1265 189.403 55.6081V57.9489C189.388 58.2098 189.313 58.4636 189.182 58.6901C189.052 58.9166 188.871 59.1096 188.653 59.2537L184.694 61.5385V57.4561L188.653 55.1713Z" fill="#455A64"/>
<path d="M188.356 58.3799L187.919 58.2455C187.963 58.062 187.985 57.8741 187.986 57.6855C188.006 57.5072 187.98 57.3267 187.909 57.1618C187.838 56.9969 187.726 56.8532 187.583 56.7447C187.486 56.6859 187.375 56.6548 187.261 56.6548C187.148 56.6548 187.036 56.6859 186.939 56.7447C186.658 56.9596 186.432 57.2381 186.279 57.5574C186.126 57.8767 186.051 58.2276 186.06 58.5815C186.04 58.7606 186.067 58.9418 186.137 59.1076C186.208 59.2734 186.32 59.4182 186.463 59.5279C186.548 59.5763 186.645 59.6014 186.743 59.6007C186.872 59.5988 186.998 59.562 187.107 59.4943C187.442 59.2636 187.692 58.9291 187.818 58.5423L188.261 58.6767H188.311C188.346 58.676 188.38 58.6642 188.408 58.6431C188.437 58.622 188.457 58.5926 188.468 58.5591C188.472 58.5211 188.463 58.4829 188.442 58.4505C188.422 58.4181 188.392 58.3933 188.356 58.3799V58.3799ZM186.939 59.2311C186.892 59.2592 186.837 59.274 186.782 59.274C186.727 59.274 186.673 59.2592 186.625 59.2311C186.536 59.1481 186.467 59.0449 186.425 58.9299C186.383 58.815 186.369 58.6916 186.385 58.5703C186.38 58.2739 186.443 57.9804 186.568 57.7117C186.693 57.443 186.877 57.2062 187.107 57.0191C187.166 56.9817 187.233 56.9605 187.303 56.9575C187.342 56.9484 187.382 56.9484 187.421 56.9575C187.51 57.0413 187.578 57.1446 187.619 57.2594C187.661 57.3741 187.676 57.497 187.661 57.6183C187.674 57.9247 187.615 58.2298 187.49 58.5096C187.365 58.7895 187.176 59.0364 186.939 59.2311V59.2311Z" fill="#FAFAFA"/>
<path d="M71.5847 114.106C71.6309 113.234 71.8822 112.386 72.3181 111.63C72.7541 110.873 73.3624 110.231 74.0935 109.754L189.246 43.2711C190.635 42.4703 191.761 43.1199 191.761 44.7215V49.9799L71.5847 119.364V114.106Z" fill="#37474F"/>
<path d="M177.621 52.6962C177.279 52.9198 176.994 53.2208 176.789 53.5749C176.585 53.9291 176.467 54.3263 176.445 54.7346C176.445 55.4906 176.971 55.793 177.621 55.4178C177.966 55.1949 178.252 54.8934 178.458 54.5381C178.663 54.1827 178.781 53.7837 178.802 53.3738C178.802 52.6402 178.276 52.321 177.621 52.6962Z" fill="#333866"/>
<path d="M181.748 50.3217C181.404 50.544 181.118 50.8446 180.912 51.1989C180.707 51.5533 180.588 51.9512 180.566 52.3601C180.566 53.1105 181.093 53.4185 181.748 53.0433C182.091 52.8192 182.376 52.5172 182.581 52.1621C182.785 51.8069 182.903 51.4085 182.924 50.9993C182.924 50.2489 182.398 49.9465 181.748 50.3217Z" fill="#333866"/>
<path d="M185.87 47.9471C185.527 48.1707 185.243 48.4718 185.038 48.8259C184.834 49.18 184.716 49.5773 184.694 49.9855C184.694 50.7359 185.22 51.0439 185.87 50.6687C186.212 50.4443 186.497 50.1422 186.702 49.7871C186.906 49.432 187.024 49.0338 187.046 48.6247C187.04 47.8743 186.519 47.5999 185.87 47.9471Z" fill="#333866"/>
<path d="M124.27 121.923L139.076 113.377C140.011 112.817 140.756 113.271 140.756 114.357V131.449C140.725 132.036 140.557 132.608 140.265 133.118C139.974 133.629 139.566 134.064 139.076 134.389L124.27 142.934C123.334 143.494 122.59 143.035 122.59 141.954V124.88C122.617 124.289 122.783 123.714 123.075 123.2C123.367 122.686 123.776 122.248 124.27 121.923Z" fill="#333866"/>
<path d="M128.335 143.214L137.295 138.051C137.967 137.659 138.505 137.939 138.505 138.662C138.475 139.069 138.349 139.463 138.139 139.813C137.929 140.163 137.64 140.459 137.295 140.678L128.335 145.841C127.663 146.227 127.12 145.953 127.12 145.23C127.15 144.822 127.275 144.427 127.486 144.077C127.697 143.727 127.988 143.431 128.335 143.214V143.214Z" fill="#455A64"/>
<path d="M131.544 121.296C133.118 120.389 134.389 121.123 134.389 122.937C134.336 123.924 134.051 124.884 133.556 125.739C133.062 126.594 132.372 127.321 131.544 127.859C129.976 128.767 128.705 128.033 128.705 126.219C128.758 125.233 129.043 124.273 129.536 123.418C130.029 122.563 130.717 121.836 131.544 121.296V121.296Z" fill="#FAFAFA"/>
<path d="M137.15 130.99C137.15 128.016 135.055 126.689 132.479 128.19L130.866 129.125C128.285 130.615 126.196 134.232 126.196 137.211V138.012L137.15 131.695V130.99Z" fill="#FAFAFA"/>
<path d="M151.581 106.142L166.382 97.5967C167.322 97.0367 168.062 97.4903 168.062 98.5767V115.668C168.032 116.255 167.864 116.828 167.572 117.338C167.28 117.849 166.873 118.284 166.382 118.608L151.581 127.154C150.646 127.714 149.901 127.254 149.901 126.174V109.082C149.931 108.495 150.099 107.923 150.39 107.412C150.682 106.901 151.09 106.466 151.581 106.142V106.142Z" fill="#333866"/>
<path opacity="0.2" d="M151.581 106.142L166.382 97.5967C167.322 97.0367 168.062 97.4903 168.062 98.5767V115.668C168.032 116.255 167.864 116.828 167.572 117.338C167.28 117.849 166.873 118.284 166.382 118.608L151.581 127.154C150.646 127.714 149.901 127.254 149.901 126.174V109.082C149.931 108.495 150.099 107.923 150.39 107.412C150.682 106.901 151.09 106.466 151.581 106.142V106.142Z" fill="black"/>
<path d="M155.646 127.434L164.606 122.27C165.273 121.884 165.816 122.158 165.816 122.881C165.787 123.288 165.662 123.683 165.452 124.033C165.242 124.383 164.952 124.679 164.606 124.897L155.646 130.06C154.974 130.446 154.431 130.172 154.431 129.45C154.461 129.042 154.586 128.646 154.797 128.296C155.009 127.946 155.299 127.65 155.646 127.434V127.434Z" fill="#455A64"/>
<path d="M158.855 105.515C160.429 104.608 161.7 105.342 161.7 107.156C161.648 108.143 161.362 109.103 160.868 109.959C160.374 110.814 159.684 111.541 158.855 112.079C157.287 112.986 156.016 112.252 156.016 110.438C156.07 109.452 156.355 108.493 156.848 107.638C157.341 106.782 158.029 106.055 158.855 105.515Z" fill="#FAFAFA"/>
<path d="M164.461 115.209C164.461 112.235 162.367 110.908 159.791 112.409L158.178 113.344C155.596 114.834 153.507 118.451 153.507 121.431V122.231L164.461 115.92V115.209Z" fill="#FAFAFA"/>
<path d="M96.9864 137.665L111.793 129.119C112.728 128.559 113.473 129.018 113.473 130.099V147.19C113.443 147.778 113.276 148.35 112.984 148.861C112.692 149.372 112.284 149.807 111.793 150.13L96.9864 158.676C96.0512 159.236 95.3064 158.782 95.3064 157.696V140.605C95.3372 140.018 95.5053 139.446 95.797 138.935C96.0888 138.425 96.4961 137.989 96.9864 137.665V137.665Z" fill="#333866"/>
<path opacity="0.5" d="M96.9864 137.665L111.793 129.119C112.728 128.559 113.473 129.018 113.473 130.099V147.19C113.443 147.778 113.276 148.35 112.984 148.861C112.692 149.372 112.284 149.807 111.793 150.13L96.9864 158.676C96.0512 159.236 95.3064 158.782 95.3064 157.696V140.605C95.3372 140.018 95.5053 139.446 95.797 138.935C96.0888 138.425 96.4961 137.989 96.9864 137.665V137.665Z" fill="white"/>
<path d="M101.052 158.956L110.012 153.793C110.684 153.406 111.222 153.681 111.222 154.403C111.192 154.811 111.068 155.205 110.857 155.556C110.647 155.906 110.358 156.202 110.012 156.419L101.052 161.582C100.38 161.969 99.8369 161.694 99.8369 160.972C99.8665 160.564 99.992 160.169 100.203 159.819C100.414 159.468 100.705 159.173 101.052 158.956V158.956Z" fill="#455A64"/>
<path d="M104.261 137.038C105.834 136.131 107.106 136.87 107.106 138.679C107.053 139.666 106.767 140.627 106.273 141.483C105.779 142.339 105.089 143.067 104.261 143.607C102.693 144.508 101.422 143.775 101.422 141.96C101.475 140.974 101.76 140.015 102.254 139.16C102.747 138.305 103.434 137.578 104.261 137.038Z" fill="#FAFAFA"/>
<path d="M109.866 146.72C109.866 143.741 107.772 142.42 105.196 143.92L103.6 144.856C101.018 146.345 98.9297 149.968 98.9297 152.948V153.748L109.883 147.426L109.866 146.72Z" fill="#FAFAFA"/>
<path d="M238.941 102.273L232.994 98.8402C226.996 95.4802 218.775 95.9562 209.664 101.215C201.141 106.126 193.368 114.324 187.51 123.811C180.734 134.731 176.473 147.375 176.473 158.71C176.473 169.283 180.174 176.697 186.161 180.175L192.17 183.619C198.218 187.471 206.73 187.13 216.25 181.664C234.584 171.075 249.446 145.331 249.446 124.163C249.424 113.12 245.392 105.543 238.941 102.273Z" fill="#333866"/>
<path opacity="0.1" d="M191.935 183.478L186.161 180.174C180.175 176.702 176.479 169.277 176.479 158.704C176.479 147.37 180.74 134.736 187.511 123.816L194.051 127.618C187.275 138.538 183.025 151.166 183.025 162.49C183.025 172.598 186.407 179.822 191.935 183.478Z" fill="black"/>
<path opacity="0.4" d="M238.7 102.133C232.787 99.2656 224.896 99.9936 216.233 104.989C207.699 109.922 199.926 118.126 194.051 127.618L187.51 123.816C193.374 114.296 201.152 106.131 209.67 101.22C218.775 95.956 227.002 95.4576 233.005 98.84L238.7 102.133Z" fill="white"/>
<path d="M201.337 181.709C198.923 181.759 196.546 181.11 194.494 179.839L194.399 179.777L194.208 179.671C189.835 176.691 187.427 170.599 187.427 162.484C187.427 152.404 191.195 140.583 197.775 130.004C203.487 120.775 210.807 113.277 218.395 108.892C222.846 106.322 227.203 104.972 230.978 104.972C232.895 104.943 234.795 105.343 236.539 106.143L236.74 106.255L236.841 106.305C241.942 108.887 244.866 115.405 244.866 124.191C244.866 143.909 230.978 167.961 213.903 177.811C209.44 180.354 205.111 181.709 201.337 181.709Z" fill="#FAFAFA"/>
<path d="M217.493 123.004C221.645 120.656 225 122.569 225 127.25C224.86 129.805 224.107 132.292 222.803 134.508C221.498 136.723 219.679 138.606 217.493 140.003C213.355 142.336 210 140.438 210 135.742C210.142 133.191 210.894 130.709 212.195 128.496C213.497 126.283 215.312 124.401 217.493 123.004Z" fill="#333866"/>
<path d="M231.957 147.842C231.957 140.145 226.603 136.731 220.018 140.608L215.939 143.024C209.339 146.873 204 156.234 204 163.931V166L232 149.665L231.957 147.842Z" fill="#333866"/>
<path d="M206.539 188.244C207.295 185.069 208.09 181.457 208.841 177.604C208.841 177.604 208.807 185.567 207.631 191.604L206.539 188.244Z" fill="#E0E0E0"/>
<path d="M208.074 171.427L203.498 168.784H203.448C201.174 167.496 198.055 167.664 194.6 169.68C191.369 171.545 188.44 174.653 186.2 178.248C183.635 182.392 182.017 187.208 182.017 191.486C182.017 195.49 183.422 198.307 185.69 199.623L190.338 202.277C192.629 203.739 195.866 203.61 199.461 201.533C206.41 197.517 212.05 187.757 212.05 179.732C212.05 175.543 210.521 172.665 208.074 171.427Z" fill="#37474F"/>
<path d="M190.243 202.216L185.69 199.618C183.417 198.302 182.017 195.485 182.017 191.475C182.017 187.18 183.63 182.386 186.2 178.248L191.061 181.048C188.49 185.192 186.878 189.974 186.878 194.27C186.866 198.089 188.16 200.833 190.243 202.216Z" fill="#263238"/>
<path d="M207.979 171.36C205.739 170.273 202.748 170.548 199.461 172.446C196.174 174.345 193.301 177.425 191.061 181.025L186.2 178.225C188.44 174.625 191.375 171.505 194.6 169.657C198.055 167.664 201.175 167.473 203.448 168.756H203.499L207.979 171.36Z" fill="#455A64"/>
<path d="M204.921 182.151L200.726 184.576V177.856C200.726 176.775 200.166 176.232 199.461 176.635C198.755 177.038 198.195 178.237 198.195 179.317V186.037L193.995 188.462C193.648 188.738 193.369 189.09 193.179 189.491C192.99 189.892 192.896 190.332 192.903 190.775C192.903 191.705 193.396 192.175 193.995 191.822L198.195 189.403V196.123C198.195 197.204 198.755 197.747 199.461 197.344C200.166 196.941 200.726 195.737 200.726 194.661V187.941L204.921 185.517C205.269 185.242 205.549 184.89 205.738 184.488C205.928 184.087 206.022 183.647 206.013 183.204C206.013 182.274 205.52 181.804 204.921 182.151Z" fill="#F5F5F5"/>
</svg>
