<svg width="195" height="223" viewBox="0 0 195 223" fill="none" xmlns="http://www.w3.org/2000/svg">
<path d="M157.6 18.6695C175.369 29.7495 190.674 47.6244 194.169 67.574C197.711 87.5171 189.444 109.584 178.517 131.49C167.591 153.445 154.009 175.366 132.009 190.425C110.01 205.543 79.5957 213.865 56.3151 204.509C33.0862 195.202 16.993 168.169 8.18203 142.169C-0.577275 116.168 -2.00486 91.2033 2.47384 67.4124C6.90301 43.6841 17.1889 21.1815 34.3157 10.0025C51.4424 -1.17662 75.412 -1.02797 97.5084 1.18889C119.557 3.3562 139.834 7.63911 157.6 18.6695Z" fill="#F0F0F0"/>
<path d="M167.964 223C166.497 220.438 146.905 177.973 146.905 174.629C146.905 173.488 153.117 138.608 155.867 138.203C158.617 137.798 165.218 135.025 167.335 134.263C167.581 137.087 182.162 223 182.162 223H167.964Z" fill="#3B3744"/>
<path d="M122.609 223C122.609 217.433 122.807 135.025 122.807 135.025C122.807 135.025 158.191 136.374 161.173 136.518C161.173 153.674 136.482 209.668 136.482 223H122.609Z" fill="#3B3744"/>
<path d="M142.692 64.7819C141.634 63.1165 136.719 54.8717 136.284 53.4455C135.849 52.0193 132.839 26.9639 132.839 26.9639L124.344 27.3947C124.344 27.3947 123.42 54.1866 124.344 56.2182C125.268 58.2498 132.038 71.3657 132.038 71.3657L137.27 74.6942L142.692 64.7819Z" fill="white"/>
<path d="M122.897 50.9968C122.953 53.1641 123.065 54.711 123.261 55.1418C124.185 57.1734 130.954 70.2893 130.954 70.2893L136.187 73.6178L141.615 63.7077C140.558 62.0423 135.642 53.7975 135.207 52.3713C134.772 50.9451 131.762 25.8896 131.762 25.8896L123.267 26.3205C123.267 26.3205 122.921 36.3901 122.865 44.65" stroke="#1B3C87" stroke-width="2" stroke-linecap="round" stroke-linejoin="round"/>
<path d="M181.341 3.83301L187.644 3.21912C187.963 3.18798 188.286 3.22015 188.593 3.3138C188.901 3.40744 189.187 3.56073 189.435 3.7649C189.683 3.96907 189.888 4.22013 190.039 4.50375C190.19 4.78736 190.284 5.09798 190.315 5.41786L191.741 20.0738C191.804 20.7198 191.608 21.3644 191.196 21.8656C190.784 22.3669 190.189 22.6839 189.544 22.7468L183.241 23.3606L181.341 3.83301Z" fill="#B2C3FB"/>
<path d="M63.9379 15.2661L47.9868 26.6757L65.8392 34.7934L183.241 23.3515L181.34 3.82422L63.9379 15.2661Z" fill="#D8DFFF"/>
<path d="M149.697 63C172.241 63 167.069 125.546 166.899 134.644C163.376 138.907 126.832 137.876 122.172 134.984C121.005 125.035 125.294 63 149.697 63Z" fill="#46DBC9"/>
<path d="M165.215 86.0195C168.141 104.627 166.358 127.905 166.259 133.185C164.261 135.603 151.647 136.32 140.248 135.96" stroke="#1B3C87" stroke-width="2" stroke-linecap="round" stroke-linejoin="round"/>
<path d="M122.206 114.936C124.456 93.2243 131.618 61.542 149.057 61.542C155.187 61.542 159.267 66.1674 161.957 73.0852" stroke="#1B3C87" stroke-width="2" stroke-linecap="round" stroke-linejoin="round"/>
<path d="M131.394 135.435C126.575 134.991 122.826 134.332 121.532 133.526C121.364 132.1 121.317 129.603 121.409 126.371" stroke="#1B3C87" stroke-width="2" stroke-linecap="round" stroke-linejoin="round"/>
<path d="M153.197 162.925C149.836 172.65 146.292 181.552 145.243 184.656C143.224 190.634 135.405 217.881 135.405 221.927" stroke="#1B3C87" stroke-width="2" stroke-linecap="round" stroke-linejoin="round"/>
<path d="M160.096 135.23C160.096 139.246 158.712 145.307 156.778 151.849" stroke="#1B3C87" stroke-width="2" stroke-linecap="round" stroke-linejoin="round"/>
<path d="M121.532 204.145V221.923" stroke="#1B3C87" stroke-width="2" stroke-linecap="round" stroke-linejoin="round"/>
<path d="M121.532 133.526V190.816" stroke="#1B3C87" stroke-width="2" stroke-linecap="round" stroke-linejoin="round"/>
<path d="M166.259 133.186C166.259 138.343 179.178 214.033 181.077 221.922" stroke="#1B3C87" stroke-width="2" stroke-linecap="round" stroke-linejoin="round"/>
<path d="M158.692 204.881C153.904 194.269 148.66 182.096 147.496 178.576" stroke="#1B3C87" stroke-width="2" stroke-linecap="round" stroke-linejoin="round"/>
<path d="M166.888 221.923C166.22 220.906 164.704 217.849 162.796 213.783" stroke="#1B3C87" stroke-width="2" stroke-linecap="round" stroke-linejoin="round"/>
<path d="M29.1591 94.9668C31.2449 94.9668 32.9358 93.2749 32.9358 91.188C32.9358 89.101 31.2449 87.4092 29.1591 87.4092C27.0732 87.4092 25.3823 89.101 25.3823 91.188C25.3823 93.2749 27.0732 94.9668 29.1591 94.9668Z" fill="#B2C3FB"/>
<path d="M101.869 101.079C103.838 101.079 105.435 99.4814 105.435 97.511C105.435 95.5407 103.838 93.9434 101.869 93.9434C99.8997 93.9434 98.3032 95.5407 98.3032 97.511C98.3032 99.4814 99.8997 101.079 101.869 101.079Z" fill="#FB5D64"/>
<path d="M69.6351 181.121C71.6044 181.121 73.2008 179.523 73.2008 177.553C73.2008 175.583 71.6044 173.985 69.6351 173.985C67.6658 173.985 66.0693 175.583 66.0693 177.553C66.0693 179.523 67.6658 181.121 69.6351 181.121Z" fill="white"/>
<path d="M40.0728 32.217L21.019 48.5684L55.8966 89.2539L74.9503 72.9025L40.0728 32.217Z" fill="white"/>
<path d="M157.943 54.8678C157.646 57.0652 157.082 64.9417 157.316 67.6777C156.091 68.8562 150.245 69.0932 147.842 66.9711C148.314 64.7068 149.399 62.7248 148.785 58.0089C148.172 53.2929 157.943 54.8678 157.943 54.8678Z" fill="white"/>
<path d="M147.483 64.1597C147.933 62.4836 148.359 60.5123 147.914 57.1472C147.302 52.4291 157.073 54.0061 157.073 54.0061C156.776 56.2035 156.212 64.08 156.447 66.816C155.495 67.7317 151.751 68.0785 149.001 67.1909" stroke="#1B3C87" stroke-width="2" stroke-linecap="round" stroke-linejoin="round"/>
<path d="M150.45 58.8318C156.418 58.8318 161.257 52.4812 161.257 44.6473C161.257 36.8135 156.418 30.4629 150.45 30.4629C144.481 30.4629 139.643 36.8135 139.643 44.6473C139.643 52.4812 144.481 58.8318 150.45 58.8318Z" fill="white"/>
<path d="M139.033 46.8399C138.864 45.8304 138.78 44.8086 138.781 43.785C138.781 35.9517 143.62 29.6006 149.588 29.6006C155.557 29.6006 160.395 35.9517 160.395 43.785C160.416 46.5332 159.786 49.2472 158.556 51.7045" stroke="#1B3C87" stroke-width="2" stroke-linecap="round" stroke-linejoin="round"/>
<path d="M153.167 57.1756C152.046 57.6971 150.825 57.9684 149.588 57.9705C145.661 57.9705 142.22 55.2194 140.33 51.1045" stroke="#1B3C87" stroke-width="2" stroke-linecap="round" stroke-linejoin="round"/>
<path d="M144.78 45.9698C145.036 45.9698 145.243 45.4103 145.243 44.7202C145.243 44.0301 145.036 43.4707 144.78 43.4707C144.525 43.4707 144.317 44.0301 144.317 44.7202C144.317 45.4103 144.525 45.9698 144.78 45.9698Z" fill="#1B3C87"/>
<path d="M142.759 45.0264C142.759 46.0368 141.85 47.7387 140.969 48.663" stroke="#1B3C87" stroke-width="2" stroke-linecap="round" stroke-linejoin="round"/>
<path d="M143.725 53.5365C144.197 53.5365 145.861 52.9398 147.052 51.2012" stroke="#1B3C87" stroke-width="2" stroke-linecap="round" stroke-linejoin="round"/>
<path d="M155.374 48.3395C155.841 48.9729 156.313 53.5488 157.312 53.8482C158.311 54.1477 162.549 46.0925 162.549 42.8609C162.549 37.0182 159.104 23.9282 154.039 23.9282C152.202 23.9282 152.037 26.7677 152.037 27.8685C151.436 26.3605 148.665 23.1289 145.161 23.1289C139.221 23.1289 139.315 28.7303 140.355 33.1468C139.322 32.578 139.279 32.4121 138.019 32.4121C136.887 32.4121 136.284 33.8965 136.284 35.4498C136.284 39.1898 138.293 40.5255 139.858 41.1611C141.423 41.7966 145.928 42.0961 148.902 42.0228C149.265 42.8717 152.002 48.4063 155.374 48.3395Z" fill="#ECC953"/>
<path d="M141.415 40.6377C143.541 40.8855 145.682 40.9905 147.823 40.9522C148.189 41.786 150.925 47.3292 154.297 47.2624C154.765 47.8958 155.236 52.4717 156.235 52.7712C156.496 52.8509 156.98 52.3575 157.551 51.5281" stroke="#1B3C87" stroke-width="2" stroke-linecap="round" stroke-linejoin="round"/>
<path d="M140.129 23.4824C138.297 25.4214 138.564 29.0278 139.279 32.0676C138.245 31.4989 138.202 31.333 136.943 31.333C135.81 31.333 135.207 32.8174 135.207 34.3707C135.207 37.0206 136.217 38.464 137.36 39.3064" stroke="#1B3C87" stroke-width="2" stroke-linecap="round" stroke-linejoin="round"/>
<path d="M155.839 24.306C154.956 23.3947 153.994 22.854 152.962 22.854C151.126 22.854 150.96 25.6913 150.96 26.7943C150.359 25.2863 147.588 22.0547 144.085 22.0547C143.927 22.0547 143.775 22.0547 143.626 22.0547" stroke="#1B3C87" stroke-width="2" stroke-linecap="round" stroke-linejoin="round"/>
<path d="M159.965 47.0276C160.826 45.0693 161.472 43.0571 161.472 41.786C161.472 38.2356 160.204 32.0137 158.07 27.6748" stroke="#1B3C87" stroke-width="2" stroke-linecap="round" stroke-linejoin="round"/>
<path d="M153.686 49.8774C155.568 49.8774 157.094 48.3505 157.094 46.467C157.094 44.5835 155.568 43.0566 153.686 43.0566C151.803 43.0566 150.277 44.5835 150.277 46.467C150.277 48.3505 151.803 49.8774 153.686 49.8774Z" fill="white"/>
<path d="M151.122 42.6561C151.575 42.3938 152.082 42.2393 152.604 42.2047C153.127 42.1701 153.65 42.2563 154.134 42.4566C154.618 42.6568 155.049 42.9658 155.394 43.3596C155.739 43.7534 155.989 44.2214 156.125 44.7274C156.26 45.2334 156.277 45.7638 156.175 46.2774C156.072 46.7911 155.853 47.2743 155.534 47.6896C155.215 48.1049 154.805 48.4411 154.335 48.6722C153.865 48.9033 153.348 49.0231 152.825 49.0223" stroke="#1B3C87" stroke-width="2" stroke-linecap="round" stroke-linejoin="round"/>
<path d="M143.835 72.794C141.467 71.7168 124.428 65.5316 122.949 64.0472C121.47 62.5628 110.411 41.2948 110.055 40.2865C110.372 39.9375 110.951 38.2829 110.917 36.4086C110.882 34.5343 109.679 34.0194 109.586 28.1638C109.556 26.1581 106.615 28.2737 106.651 32.4316C103.163 32.1645 98.736 23.6482 96.0444 27.399C105.303 46.1033 115.512 74.9096 116.371 75.7692C117.23 76.6288 139.365 87.81 139.86 87.5041C140.356 87.1982 144.854 74.0177 143.835 72.794Z" fill="white"/>
<path d="M165.096 90.2429C166.838 83.42 156.369 72.4412 145.052 71.3662C143.187 72.3745 137.688 84.9539 138.336 88.9761C142.599 93.5262 162.336 101.06 165.096 90.2429Z" fill="#46DBC9"/>
<path d="M143.234 71.0254C140.965 73.9855 136.682 84.3244 137.259 87.8985C138.051 88.7452 139.382 89.6953 141.038 90.6109" stroke="#1B3C87" stroke-width="2" stroke-linecap="round" stroke-linejoin="round"/>
<path d="M143.975 70.2891C143.683 70.4849 143.432 70.735 143.234 71.0259" stroke="#1B3C87" stroke-width="2" stroke-linecap="round" stroke-linejoin="round"/>
<path d="M149.397 93.894C155.805 95.5162 162.497 95.1327 164.019 89.1651C165.395 83.7792 159.162 75.808 150.911 72.1455" stroke="#1B3C87" stroke-width="2" stroke-linecap="round" stroke-linejoin="round"/>
<path d="M96.464 28.9807C95.9731 28.0787 95.4707 27.1911 94.9568 26.3179C94.2462 25.2989 97.448 23.3405 102.547 30.045" stroke="#1B3C87" stroke-width="2" stroke-linecap="round" stroke-linejoin="round"/>
<path d="M119.702 77.2321C117.516 76.0321 115.847 75.0777 115.292 74.6878C113.373 73.3262 107.689 51.0779 98.3008 32.4619" stroke="#1B3C87" stroke-width="2" stroke-linecap="round" stroke-linejoin="round"/>
<path d="M137.242 86.4232C136.596 86.1755 130.828 83.1916 125.341 80.2725" stroke="#1B3C87" stroke-width="2" stroke-linecap="round" stroke-linejoin="round"/>
<path d="M112.168 45.529C110.413 42.1531 109.097 39.5463 108.979 39.2102C109.295 38.8612 109.875 37.2066 109.84 35.3323C109.806 33.458 108.602 32.9431 108.509 27.0875C108.479 25.0817 105.538 27.1973 105.575 31.3553" stroke="#1B3C87" stroke-width="2" stroke-linecap="round" stroke-linejoin="round"/>
<path d="M142.759 71.7173C140.39 70.6401 123.352 64.4548 121.872 62.9705C121.261 62.3586 119.026 58.3859 116.584 53.8574" stroke="#1B3C87" stroke-width="2" stroke-linecap="round" stroke-linejoin="round"/>
<path d="M96.0421 112.902L49.5239 124.87L83.14 159.196L96.0421 112.902Z" stroke="#D8DFFF" stroke-width="2" stroke-linecap="round" stroke-linejoin="round"/>
</svg>
