<svg viewBox="0 0 360 360" fill="none" xmlns="http://www.w3.org/2000/svg">
<path d="M165.883 252.161C187.127 223.83 227.457 218.055 255.785 239.296C266.216 247.117 273.929 257.766 278.087 270.084C279.357 273.846 280.272 277.684 280.829 281.58L153.72 299.771C151.391 283.49 155.262 266.327 165.883 252.161Z" fill="white"/>
<path d="M161.241 197.967L145.943 213.268C145.05 214.161 143.88 214.606 142.71 214.606C141.54 214.606 140.37 214.161 139.477 213.268C137.695 211.483 137.695 208.588 139.477 206.803L154.776 191.501C156.561 189.719 159.456 189.719 161.241 191.501V191.504C163.024 193.29 163.027 196.181 161.241 197.967Z" fill="#F7F7F7"/>
<path d="M161.241 197.967L145.943 213.268C145.05 214.161 143.88 214.606 142.71 214.606C141.54 214.606 140.37 214.161 139.478 213.268L161.241 191.504C163.024 193.29 163.027 196.181 161.241 197.967Z" fill="#EEF1F8"/>
<path d="M247.172 157.803C247.172 186.602 223.742 210.035 194.94 210.035C184.334 210.035 174.118 206.87 165.4 200.883C162.737 199.055 160.269 197.004 158.006 194.74C155.745 192.476 153.688 190.005 151.86 187.339C145.873 178.625 142.707 168.409 142.707 157.803C142.707 129.001 166.141 105.57 194.94 105.57C209.342 105.57 222.401 111.429 231.856 120.89C241.316 130.348 247.172 143.403 247.172 157.803Z" fill="#EEF1F8"/>
<path d="M247.172 157.803C247.172 186.602 223.742 210.035 194.94 210.035C184.334 210.035 174.117 206.87 165.4 200.883C162.737 199.055 160.269 197.004 158.006 194.74L231.856 120.89C241.316 130.348 247.172 143.403 247.172 157.803Z" fill="#EEF1F8"/>
<path d="M156.421 157.806C156.421 160.33 158.467 162.376 160.991 162.376C163.515 162.376 165.562 160.33 165.562 157.806C165.562 141.605 178.742 128.425 194.943 128.425C197.467 128.425 199.513 126.379 199.513 123.855C199.513 121.331 197.467 119.284 194.943 119.284C173.702 119.284 156.421 136.565 156.421 157.806Z" fill="#274996"/>
<path d="M148.503 189.64L148.503 189.64C142.049 180.248 138.637 169.238 138.637 157.8C138.637 126.757 163.894 101.5 194.943 101.5C210.465 101.5 224.541 107.814 234.735 118.011C244.929 128.207 251.243 142.28 251.243 157.8C251.243 188.849 225.986 214.106 194.943 214.106C183.505 214.106 172.495 210.693 163.1 204.24C160.23 202.267 157.569 200.059 155.13 197.617L155.129 197.616C152.69 195.179 150.476 192.513 148.503 189.64ZM167.707 197.529C175.743 203.049 185.159 205.965 194.943 205.965C221.498 205.965 243.102 184.358 243.102 157.8C243.102 144.526 237.701 132.484 228.98 123.766C220.264 115.045 208.222 109.641 194.943 109.641C168.384 109.641 146.778 131.244 146.778 157.8C146.778 167.583 149.693 176.999 155.214 185.032C156.9 187.492 158.797 189.773 160.888 191.858C162.975 193.948 165.25 195.842 167.707 197.529Z" fill="#3B69D1" stroke="#3B69D1"/>
<path d="M251.743 157.8C251.743 189.125 226.262 214.606 194.943 214.606C183.404 214.606 172.295 211.163 162.817 204.652C159.922 202.662 157.238 200.435 154.776 197.97L161.241 191.504C163.307 193.573 165.559 195.447 167.99 197.117C175.943 202.58 185.26 205.465 194.943 205.465C221.222 205.465 242.602 184.082 242.602 157.8C242.602 144.665 237.258 132.748 228.626 124.12L235.088 117.657C245.372 127.944 251.743 142.142 251.743 157.8Z" fill="#274996"/>
<path d="M152.049 219.374L152.049 219.374L116.117 255.309C114.526 256.9 111.948 256.895 110.362 255.309L103.899 248.846L97.4339 242.381C95.8498 240.797 95.8433 238.216 97.4339 236.626L133.369 200.691C134.131 199.928 135.165 199.5 136.245 199.5C137.325 199.5 138.362 199.929 139.124 200.691L145.589 207.156L145.59 207.156L152.049 213.619L152.049 213.619C153.639 215.209 153.639 217.787 152.049 219.374Z" fill="#3B69D1" stroke="#3B69D1"/>
<path d="M152.402 219.728L116.47 255.662C114.684 257.449 111.789 257.443 110.008 255.662L103.546 249.2L145.943 206.803L152.402 213.265C154.188 215.051 154.188 217.945 152.402 219.728Z" fill="#274996"/>
<path d="M255.65 99.6638L247.661 101.072C247.307 101.135 247.019 101.324 246.8 101.637C246.58 101.95 246.502 102.284 246.565 102.639L247.973 110.628C248.036 110.983 248.224 111.271 248.537 111.49C248.85 111.709 249.184 111.788 249.539 111.725L257.528 110.316C257.883 110.254 258.171 110.065 258.39 109.753C258.61 109.44 258.688 109.105 258.625 108.75L257.217 100.761C257.154 100.406 256.966 100.119 256.652 99.8994C256.34 99.6796 256.005 99.6013 255.65 99.6638Z" fill="#FF8D7E"/>
<path d="M261.919 73.8997C260.714 72.3839 259.289 71.1772 257.642 70.2774C255.997 69.3779 254.213 68.7423 252.295 68.3715C250.376 68.0011 248.53 67.9719 246.754 68.285C240.008 69.4744 235.38 73.3336 232.87 79.8628C232.744 80.1824 232.737 80.5037 232.852 80.8269C232.966 81.1496 233.187 81.3968 233.514 81.5678L239.707 84.7664C240.027 84.8927 240.32 84.9325 240.586 84.8856C240.986 84.8151 241.298 84.5767 241.525 84.1708C242.77 81.8922 243.732 80.4068 244.411 79.7148C245.252 78.9032 246.393 78.3704 247.836 78.1161C249.189 77.8774 250.445 78.0222 251.602 78.5498C252.759 79.0781 253.419 79.8084 253.584 80.7404C253.767 81.7829 253.639 82.6754 253.198 83.4168C252.757 84.1579 251.934 84.9434 250.73 85.7737C249.136 86.8554 247.761 88.3393 246.607 90.2246C245.452 92.1102 245.037 93.9738 245.362 95.8156L245.626 97.3134C245.701 97.7354 245.89 98.1309 246.196 98.5002C246.501 98.87 246.82 99.0252 247.153 98.9665L255.142 97.5578C255.497 97.4952 255.777 97.2689 255.983 96.8768C256.188 96.4869 256.258 96.1026 256.192 95.7259C256.094 95.1713 256.268 94.3733 256.713 93.3342C257.159 92.2946 257.792 91.4387 258.613 90.7676C259.391 90.1271 259.998 89.6144 260.434 89.2283C260.871 88.8429 261.423 88.2467 262.094 87.4425C262.764 86.6377 263.258 85.8698 263.575 85.1392C263.892 84.4083 264.131 83.4908 264.291 82.3869C264.452 81.2833 264.426 80.1322 264.214 78.934C263.889 77.0922 263.124 75.414 261.919 73.8997Z" fill="#FF8D7E"/>
<path d="M116.577 59.3157L113.845 54.4032L101.213 61.4297L94.1862 48.7977L89.2738 51.5302L96.3003 64.1622L83.6682 71.1887L86.4007 76.1012L99.0328 69.0747L106.059 81.7068L110.972 78.9742L103.945 66.3422L116.577 59.3157Z" fill="#FF8D7E"/>
</svg>
