<svg viewBox="0 0 56 55" xmlns="http://www.w3.org/2000/svg">
<ellipse cx="38.1666" cy="38.0576" rx="8.35691" ry="8.64508" transform="rotate(-90 38.1666 38.0576)" fill="var(--secondary-fill)"/>
<ellipse cx="17.733" cy="16.0259" rx="8.35691" ry="8.64508" transform="rotate(-90 17.733 16.0259)" fill="var(--secondary-fill)"/>
<rect width="5.67061" height="5.86052" transform="matrix(0.122994 -0.992407 0.993361 0.115041 41.7031 18.4878)" fill="var(--secondary-fill)"/>
<rect width="5.67733" height="5.85402" transform="matrix(0.226184 -0.974085 0.97726 0.212045 7.77783 41.562)" fill="var(--secondary-fill)"/>
<path d="M28.4661 14.3799C20.8863 14.3799 14.7202 20.2302 14.7202 27.4217C14.7202 34.6133 20.8863 40.4636 28.4661 40.4636C36.0458 40.4636 42.2119 34.6133 42.2119 27.4217C42.2119 20.2302 36.0458 14.3799 28.4661 14.3799Z" fill="inherit"/>
<path d="M25.472 28.5823H29.0891C29.2592 28.5823 29.3993 28.5265 29.5093 28.4151C29.6194 28.3041 29.6744 28.1663 29.6744 28.0019C29.6744 27.8375 29.617 27.6996 29.5021 27.5881C29.3869 27.4771 29.2442 27.4216 29.0741 27.4216H25.457C25.2869 27.4216 25.1468 27.4771 25.0367 27.5881C24.9267 27.6996 24.8716 27.8375 24.8716 28.0019C24.8716 28.1663 24.9291 28.3041 25.0439 28.4151C25.1592 28.5265 25.3019 28.5823 25.472 28.5823ZM25.472 26.8412H31.4905C31.6606 26.8412 31.8007 26.7855 31.9108 26.6741C32.0208 26.5631 32.0759 26.4253 32.0759 26.2609C32.0759 26.0965 32.0182 25.9585 31.903 25.8471C31.7881 25.7361 31.6456 25.6806 31.4755 25.6806H25.457C25.2869 25.6806 25.1468 25.7361 25.0367 25.8471C24.9267 25.9585 24.8716 26.0965 24.8716 26.2609C24.8716 26.4253 24.9291 26.5631 25.0439 26.6741C25.1592 26.7855 25.3019 26.8412 25.472 26.8412ZM25.472 25.1002H31.4905C31.6606 25.1002 31.8007 25.0447 31.9108 24.9337C32.0208 24.8222 32.0759 24.6843 32.0759 24.5199C32.0759 24.3554 32.0182 24.2175 31.903 24.1061C31.7881 23.995 31.6456 23.9395 31.4755 23.9395H25.457C25.2869 23.9395 25.1468 23.995 25.0367 24.1061C24.9267 24.2175 24.8716 24.3554 24.8716 24.5199C24.8716 24.6843 24.9291 24.8222 25.0439 24.9337C25.1592 25.0447 25.3019 25.1002 25.472 25.1002ZM22.4702 31.8177V22.7788C22.4702 22.4597 22.5879 22.1863 22.8232 21.9588C23.0582 21.7317 23.3407 21.6182 23.6709 21.6182H33.2766C33.6068 21.6182 33.8895 21.7317 34.1249 21.9588C34.3598 22.1863 34.4773 22.4597 34.4773 22.7788V29.7429C34.4773 30.0621 34.3598 30.3355 34.1249 30.563C33.8895 30.7901 33.6068 30.9036 33.2766 30.9036H24.8716L23.4908 32.2384C23.3007 32.4222 23.083 32.4632 22.8376 32.3614C22.5927 32.2601 22.4702 32.0788 22.4702 31.8177Z" fill="white"/>
</svg>
