<svg xmlns="http://www.w3.org/2000/svg" viewBox="0 0 180 180">
  <!-- keep your decorative background shapes -->
  <circle cx="122.7" cy="127" r="27.8" transform="rotate(-90 122.7 127)" fill="var(--secondary-fill)"/>
  <circle cx="57" cy="53.8" r="27.8" transform="rotate(-90 57 53.8)" fill="var(--secondary-fill)"/>
  <path fill="var(--secondary-fill)" d="m134 62 2.2-18.7 18.7 2.3-2.2 18.6zM25 138.7l4.1-18.3 18.4 4-4.2 18.4z"/>
  <path d="M91.5 48.3a43.8 43.8 0 0 0-44.2 43.4A43.8 43.8 0 0 0 91.5 135a43.8 43.8 0 0 0 44.2-43.3c0-24-19.8-43.4-44.2-43.4"
        fill="inherit"/>

  <!-- replace the old complex path with a simple info icon -->
  <circle cx="91.5" cy="91.5" r="15" fill="none" stroke="white" stroke-width="3"/>
  <text x="91.5" y="97" text-anchor="middle" font-size="18" font-family="Arial, sans-serif" fill="white" font-weight="bold">i</text>
</svg>
