<svg xmlns="http://www.w3.org/2000/svg" viewBox="0 0 94 93">
    <ellipse cx="64.1" cy="65.4" rx="14.4" ry="14.5" transform="rotate(-90 64 65.4)" fill="var(--secondary-fill)"/>
    <ellipse cx="29.8" cy="27.5" rx="14.4" ry="14.5" transform="rotate(-90 29.8 27.5)" fill="var(--secondary-fill)"/>
    <path transform="rotate(-83.1 53 -23.6)skewX(.1)" fill="var(--secondary-fill)" d="M0 0H9.7V9.8H0z"/>
    <path transform="rotate(-77.2 51.2 27.6)skewX(.3)" fill="var(--secondary-fill)" d="M0 0H9.7V9.8H0z"/>
    <path
        d="M47.7824 24.7041C35.0592 24.7041 24.709 34.7548 24.709 47.1097C24.709 59.4647 35.0592 69.5154 47.7824 69.5154C60.5056 69.5154 70.8558 59.4647 70.8558 47.1097C70.8558 34.7548 60.5056 24.7041 47.7824 24.7041Z"
        fill="inherit"/>
    <path
        d="M47.7447 53.0919C48.0974 53.0919 48.3957 52.9712 48.6396 52.73C48.8828 52.4893 49.0044 52.1946 49.0044 51.8456C49.0044 51.4967 48.8828 51.2019 48.6396 50.9613C48.3957 50.72 48.0974 50.5993 47.7447 50.5993C47.392 50.5993 47.0937 50.72 46.8499 50.9613C46.6067 51.2019 46.4851 51.4967 46.4851 51.8456C46.4851 52.1946 46.6067 52.4893 46.8499 52.73C47.0937 52.9712 47.392 53.0919 47.7447 53.0919ZM47.8959 42.8226C48.3662 42.8226 48.7441 42.9512 49.0296 43.2085C49.3151 43.4664 49.4579 43.803 49.4579 44.2184C49.4579 44.5009 49.3615 44.7874 49.1687 45.0779C48.9752 45.369 48.7021 45.6724 48.3494 45.9881C47.8455 46.4202 47.476 46.8356 47.2409 47.2344C47.0057 47.6332 46.8882 48.032 46.8882 48.4308C46.8882 48.6635 46.9765 48.8586 47.1532 49.0161C47.3292 49.1743 47.5348 49.2534 47.7699 49.2534C48.0051 49.2534 48.215 49.1703 48.3998 49.0041C48.5845 48.8379 48.7021 48.6302 48.7525 48.381C48.8029 48.0985 48.9164 47.8369 49.0931 47.5963C49.2691 47.3551 49.5587 47.0433 49.9618 46.6611C50.4824 46.1792 50.8479 45.7389 51.0582 45.3401C51.2678 44.9413 51.3726 44.5009 51.3726 44.019C51.3726 43.1716 51.0494 42.4777 50.4031 41.9373C49.7562 41.3976 48.9204 41.1277 47.8959 41.1277C47.1905 41.1277 46.565 41.2606 46.0195 41.5265C45.4733 41.7924 45.049 42.1995 44.7467 42.7479C44.6292 42.9639 44.5872 43.1756 44.6208 43.383C44.6543 43.591 44.7719 43.7615 44.9735 43.8944C45.1918 44.0274 45.4313 44.0689 45.692 44.019C45.952 43.9692 46.166 43.828 46.3339 43.5953C46.5187 43.3461 46.7414 43.155 47.002 43.022C47.262 42.8891 47.56 42.8226 47.8959 42.8226ZM47.7951 57.0799C46.4179 57.0799 45.1162 56.8181 43.8901 56.2943C42.6641 55.7712 41.5935 55.061 40.6785 54.1637C39.7628 53.2664 39.0406 52.2112 38.5119 50.9981C37.9825 49.7851 37.7178 48.489 37.7178 47.1098C37.7178 45.7306 37.9825 44.4345 38.5119 43.2214C39.0406 42.0084 39.7628 40.9532 40.6785 40.0559C41.5935 39.1586 42.6641 38.4481 43.8901 37.9243C45.1162 37.4012 46.4179 37.1396 47.7951 37.1396C49.206 37.1396 50.5244 37.4012 51.7505 37.9243C52.9766 38.4481 54.0431 39.1586 54.95 40.0559C55.857 40.9532 56.5708 42.0084 57.0915 43.2214C57.6121 44.4345 57.8725 45.7306 57.8725 47.1098C57.8725 48.489 57.6121 49.7851 57.0915 50.9981C56.5708 52.2112 55.857 53.2664 54.95 54.1637C54.0431 55.061 52.9766 55.7712 51.7505 56.2943C50.5244 56.8181 49.206 57.0799 47.7951 57.0799Z"
        fill="var(--color-white)"/>
</svg>
