<svg viewBox="0 0 360 360" fill="none" xmlns="http://www.w3.org/2000/svg">
<circle cx="245.357" cy="254.093" r="55.5755" transform="rotate(-90 245.357 254.093)" fill="#EEF1F8"/>
<circle cx="113.996" cy="107.576" r="55.5755" transform="rotate(-90 113.996 107.576)" fill="#EEF1F8"/>
<rect x="268.092" y="123.949" width="37.6923" height="37.6923" transform="rotate(-83.1683 268.092 123.949)" fill="#EEF1F8"/>
<rect x="50" y="277.397" width="37.6923" height="37.6923" transform="rotate(-77.349 50 277.397)" fill="#EEF1F8"/>
<path d="M182.995 96.6288C134.268 96.6288 94.6289 135.535 94.6289 183.36C94.6289 231.186 134.268 270.092 182.995 270.092C231.722 270.092 271.361 231.186 271.361 183.36C271.361 135.535 231.722 96.6288 182.995 96.6288Z" fill="#3B69D1"/>
<path d="M182.869 211.534C182.161 210.826 181.791 209.926 181.757 208.832C181.727 207.739 182.065 206.838 182.773 206.131L201.684 187.22H158.555C157.461 187.22 156.544 186.849 155.803 186.108C155.065 185.37 154.695 184.454 154.695 183.36C154.695 182.267 155.065 181.35 155.803 180.609C156.544 179.87 157.461 179.501 158.555 179.501H201.684L182.773 160.59C182.065 159.882 181.727 158.982 181.757 157.888C181.791 156.795 182.161 155.894 182.869 155.187C183.577 154.479 184.477 154.125 185.571 154.125C186.664 154.125 187.565 154.479 188.272 155.187L213.744 180.659C214.13 180.98 214.404 181.382 214.566 181.863C214.726 182.347 214.806 182.846 214.806 183.36C214.806 183.875 214.726 184.357 214.566 184.808C214.404 185.258 214.13 185.676 213.744 186.062L188.272 211.534C187.565 212.242 186.664 212.595 185.571 212.595C184.477 212.595 183.577 212.242 182.869 211.534Z" fill="white"/>
</svg>
