<svg viewBox="0 0 360 360" xmlns="http://www.w3.org/2000/svg">
    <circle cx="245.4" cy="254.1" r="55.6" transform="rotate(-90 245.4 254)" fill="var(--secondary-fill)"/>
    <circle cx="114" cy="107.6" r="55.6" transform="rotate(-90 114 107.6)" fill="var(--secondary-fill)"/>
    <path transform="rotate(-83.2 268 124)" fill="var(--secondary-fill)" d="M268.1 123.9H305.8V161.6H268.1z"/>
    <path transform="rotate(-77.3 50 277.4)" fill="var(--secondary-fill)" d="M50 277.4H87.7V315.1H50z"/>
    <path d="M183 96.6c-48.7 0-88.4 39-88.4 86.8A87.7 87.7 0 0 0 183 270c48.7 0 88.4-39 88.4-86.7A87.7 87.7 0 0 0 183 96.6Z"
          fill="inherit"/>
    <path
        d="M182.9 211.5c-.7-.7-1.1-1.6-1.1-2.7 0-1 .3-2 1-2.7l18.9-18.9h-43.1c-1.1 0-2-.4-2.8-1a3.7 3.7 0 0 1-1.1-2.8c0-1.1.4-2 1.1-2.8.7-.7 1.7-1.1 2.8-1.1h43l-18.8-19c-.7-.6-1-1.5-1-2.6s.4-2 1-2.7c.8-.7 1.7-1 2.8-1 1 0 2 .3 2.7 1l25.4 25.5c.4.3.7.7.9 1.2a4.7 4.7 0 0 1 0 3l-.9 1.2-25.4 25.4c-.7.7-1.6 1-2.7 1s-2-.3-2.7-1Z"
        fill="var(--color-white)"/>
</svg>