<svg xmlns="http://www.w3.org/2000/svg" viewBox="0 0 120 120">
    <circle cx="81.8" cy="84.7" r="18.5" transform="rotate(-90 81.8 84.7)" fill="var(--color-alert_lighten)"/>
    <circle cx="38" cy="35.9" transform="rotate(-90 38 35.9)" fill="var(--color-alert_lighten)" r="18.5"/>
    <path fill="var(--color-alert_lighten)" d="m89.4 41.3 1.5-12.5 12.5 1.5-1.5 12.5zM16.7 92.5l2.8-12.3L31.8 83 29 95.3z"/>
    <path d="M61 32.2c-16.2 0-29.5 13-29.5 29C31.5 77 44.8 90 61 90s29.5-13 29.5-28.9c0-16-13.3-28.9-29.5-28.9Z"
          fill="var(--color-alert)"/>
    <path
        d="M68.3 59.8v-7.7c0-1.4-1.2-2.6-2.6-2.6H58a2.6 2.6 0 0 0-2.6 2.6v2.6H53a2.6 2.6 0 0 0-2.6 2.6V70c0 1.4 1.1 2.6 2.6 2.6h6.4c.7 0 1.3-.6 1.3-1.3v-3.8H63v3.8c0 .7.6 1.3 1.3 1.3H71c1.4 0 2.5-1.2 2.5-2.6v-7.7c0-1.4-1.1-2.6-2.5-2.6h-2.6ZM55.4 70.1H53v-2.5h2.5V70Zm0-5.1H53v-2.6h2.5V65Zm0-5.2H53v-2.5h2.5v2.5Zm5.2 5.2H58v-2.6h2.6V65Zm0-5.2H58v-2.5h2.6v2.5Zm0-5.1H58V52h2.6v2.6ZM65.7 65h-2.6v-2.6h2.6V65Zm0-5.2h-2.6v-2.5h2.6v2.5Zm0-5.1h-2.6V52h2.6v2.6ZM71 70h-2.6v-2.5H71V70Zm0-5.1h-2.6v-2.6H71V65Z"
        fill="var(--color-white)"/>
</svg>