<svg xmlns="http://www.w3.org/2000/svg" viewBox="0 0 180 180">
    <circle cx="122.7" cy="127" r="27.8" transform="rotate(-90 122.7 127)" fill="var(--secondary-fill)"/>
    <circle cx="57" cy="53.8" r="27.8" transform="rotate(-90 57 53.8)" fill="var(--secondary-fill)"/>
    <path fill="var(--secondary-fill)" d="m134 62 2.2-18.7 18.7 2.3-2.2 18.6zM25 138.7l4.1-18.3 18.4 4-4.2 18.4z"/>
    <path d="M91.5 48.3a43.8 43.8 0 0 0-44.2 43.4A43.8 43.8 0 0 0 91.5 135a43.8 43.8 0 0 0 44.2-43.3c0-24-19.8-43.4-44.2-43.4"
          fill="inherit"/>
    <path
        d="M77.3 105.2c-.5 0-1-.2-1.3-.6-.4-.3-.6-.8-.6-1.3 0-.6.2-1 .6-1.4.3-.4.8-.6 1.3-.6h7.8c.5 0 1 .2 1.3.6.4.4.6.8.6 1.4 0 .5-.2 1-.6 1.3-.3.4-.8.6-1.3.6zm0-23.2c-.5 0-1-.2-1.3-.5a2 2 0 0 1-.6-1.4c0-.5.2-1 .6-1.4.3-.3.8-.5 1.3-.5h15.5c.5 0 1 .2 1.4.5.3.4.5.9.5 1.4 0 .5-.2 1-.5 1.4-.4.3-.9.5-1.4.5zm15.5 27c-.6 0-1-.1-1.4-.5-.4-.4-.5-.8-.5-1.4v-7.7c0-.5.1-1 .5-1.4.4-.3.8-.5 1.4-.5.5 0 1 .2 1.4.5.3.4.5.9.5 1.4v2h13.5c.6 0 1 .1 1.4.5.4.4.6.8.6 1.4 0 .5-.2 1-.6 1.3-.4.4-.8.6-1.4.6H94.7v2c0 .5-.2 1-.5 1.3-.4.4-.9.5-1.4.5M85 97.5c-.6 0-1-.2-1.4-.6-.4-.4-.6-.8-.6-1.4v-1.9h-5.8c-.5 0-1-.2-1.3-.5a2 2 0 0 1-.6-1.4c0-.6.2-1 .6-1.4.3-.4.8-.5 1.3-.5H83v-2c0-.5.2-1 .6-1.4.4-.3.8-.5 1.4-.5.5 0 1 .2 1.3.5.4.4.6.9.6 1.4v7.7c0 .6-.2 1-.6 1.4-.3.4-.8.6-1.3.6m7.7-3.9c-.6 0-1-.2-1.4-.5-.4-.4-.5-.9-.5-1.4 0-.6.1-1 .5-1.4.4-.4.8-.5 1.4-.5h15.4c.6 0 1 .1 1.4.5.4.4.6.8.6 1.4 0 .5-.2 1-.6 1.4-.4.3-.8.5-1.4.5zm7.7-7.7a2 2 0 0 1-1.4-.6c-.3-.3-.5-.8-.5-1.3v-7.8c0-.5.2-1 .5-1.3a2 2 0 0 1 1.4-.6c.6 0 1 .2 1.4.6.3.3.5.8.5 1.3v2h5.8c.6 0 1 .2 1.4.5.4.4.6.9.6 1.4 0 .5-.2 1-.6 1.4-.4.3-.8.5-1.4.5h-5.8v2c0 .5-.2 1-.5 1.3-.4.4-.8.6-1.4.6"
        fill="var(--color-white)"/>
</svg>