<svg viewBox="0 0 360 360" xmlns="http://www.w3.org/2000/svg">
    <circle cx="245.4" cy="253.1" r="55.6" transform="rotate(-90 245.4 253)" fill="var(--color-alert_lighten)"/>
    <circle cx="114" cy="106.6" r="55.6" transform="rotate(-90 114 106.6)" fill="var(--color-alert_lighten)"/>
    <path transform="rotate(-83.2 268 123)" fill="var(--color-alert_lighten)" d="M268.1 122.9H305.8V160.6H268.1z"/>
    <path transform="rotate(-77.3 50 276.4)" fill="var(--color-alert_lighten)" d="M50 276.4H87.7V314.1H50z"/>
    <path d="M183 95.6c-48.7 0-88.4 39-88.4 86.8A87.7 87.7 0 0 0 183 269c48.7 0 88.4-39 88.4-86.7A87.7 87.7 0 0 0 183 95.6Z"
          fill="var(--color-alert)"/>
    <path
        d="M183 186.2c1.1 0 2-.4 2.8-1 .7-.8 1.1-1.7 1.1-2.8v-15.6c0-1-.4-2-1.1-2.7-.7-.7-1.7-1-2.8-1-1 0-2 .3-2.7 1-.7.8-1.1 1.7-1.1 2.8v15.6c0 1 .4 2 1.1 2.7.7.7 1.7 1 2.7 1Zm0 15.5c1.1 0 2-.4 2.8-1.2.7-.7 1.1-1.6 1.1-2.7s-.4-2-1.1-2.8a3.7 3.7 0 0 0-2.8-1c-1 0-2 .3-2.7 1-.7.8-1.1 1.7-1.1 2.8 0 1 .4 2 1.1 2.7.7.8 1.7 1.2 2.7 1.2Zm0 19.3a37.5 37.5 0 0 1-27.3-11.3 39 39 0 0 1-8.2-42.4 39 39 0 0 1 35.5-23.5 37.6 37.6 0 0 1 27.3 11.3 39 39 0 0 1 8.3 42.3A39 39 0 0 1 183 221Z"
        fill="var(--color-white)"/>
</svg>