<svg xmlns="http://www.w3.org/2000/svg" viewBox="0 0 94 93">
    <ellipse cx="64.1" cy="65.6" rx="14.4" ry="14.5" transform="rotate(-90 64 65.6)" fill="var(--secondary-fill)"/>
    <ellipse cx="29.8" cy="27.8" rx="14.4" ry="14.5" transform="rotate(-90 29.8 27.8)" fill="var(--secondary-fill)"/>
    <path transform="rotate(-83.1 53 -23.5)skewX(.1)" fill="var(--secondary-fill)" d="M0 0H9.7V9.8H0z"/>
    <path transform="rotate(-77.2 51.4 27.7)skewX(.3)" fill="var(--secondary-fill)" d="M0 0H9.7V9.8H0z"/>
    <path
        d="M47.7824 24.9624C35.0592 24.9624 24.709 35.0131 24.709 47.368C24.709 59.723 35.0592 69.7737 47.7824 69.7737C60.5056 69.7737 70.8558 59.723 70.8558 47.368C70.8558 35.0131 60.5056 24.9624 47.7824 24.9624Z"
        fill="inherit"/>
    <path
        d="M43.4161 53.3502C43.1306 53.3502 42.8913 53.2546 42.6981 53.0635C42.505 52.8724 42.4084 52.6356 42.4084 52.3532V50.3591H55.5089V41.386H57.5244C57.8099 41.386 58.0493 41.4816 58.2424 41.6726C58.4356 41.8637 58.5321 42.1005 58.5321 42.383V54.9205C58.5321 55.3691 58.3264 55.6807 57.9149 55.8552C57.5034 56.0297 57.1381 55.959 56.819 55.6433L54.5012 53.3502H43.4161ZM42.4084 48.3651L40.0906 50.6582C39.7715 50.974 39.4062 51.0446 38.9947 50.8701C38.5832 50.6956 38.3774 50.3841 38.3774 49.9354V38.395C38.3774 38.1125 38.474 37.8757 38.6672 37.6846C38.8603 37.4935 39.0997 37.3979 39.3852 37.3979H52.4857C52.7713 37.3979 53.0106 37.4935 53.2037 37.6846C53.3969 37.8757 53.4935 38.1125 53.4935 38.395V47.3681C53.4935 47.6506 53.3969 47.8874 53.2037 48.0785C53.0106 48.2696 52.7713 48.3651 52.4857 48.3651H42.4084Z"
        fill="var(--color-white)"/>
</svg>
