<svg fill="none" xmlns="http://www.w3.org/2000/svg" viewBox="0 0 360 360"><circle cx="245.4" cy="254.1" r="55.6" transform="rotate(-90 245.4 254)" fill="#F1F1F1"/><circle cx="114" cy="107.6" r="55.6" transform="rotate(-90 114 107.6)" fill="#F1F1F1"/><path transform="rotate(-83.2 268 124)" fill="#F1F1F1" d="M268.1 123.9H305.8V161.6H268.1z"/><path transform="rotate(-77.3 50 277.4)" fill="#F1F1F1" d="M50 277.4H87.7V315.1H50z"/><path d="M183 96.6c-48.7 0-88.4 39-88.4 86.8A87.7 87.7 0 0 0 183 270c48.7 0 88.4-39 88.4-86.7A87.7 87.7 0 0 0 183 96.6Z" fill="#73758D"/><path d="M174 206.5H197c1.1 0 2-.4 2.8-1 .7-.8 1.1-1.7 1.1-2.8 0-1.1-.4-2-1.1-2.8a3.7 3.7 0 0 0-2.8-1.1H174c-1.1 0-2 .4-2.8 1.1-.7.7-1 1.7-1 2.8 0 1 .3 2 1 2.7.8.7 1.7 1.1 2.8 1.1Zm0-15.4H197c1.1 0 2-.4 2.8-1.1.7-.8 1.1-1.7 1.1-2.8a3.7 3.7 0 0 0-3.9-3.9H174c-1.1 0-2 .4-2.8 1.2-.7.7-1 1.6-1 2.7s.3 2 1 2.8c.8.7 1.7 1 2.8 1ZM162.4 222c-2.1 0-4-.8-5.4-2.3a7.4 7.4 0 0 1-2.3-5.5v-61.7c0-2.1.8-4 2.3-5.5a7.4 7.4 0 0 1 5.4-2.2h27.7a7.6 7.6 0 0 1 5.4 2.2l18.7 18.7a7.5 7.5 0 0 1 2.2 5.4v43.1c0 2.2-.7 4-2.2 5.5a7.4 7.4 0 0 1-5.5 2.3h-46.3Zm27-54c0 1 .4 2 1.1 2.7.8.7 1.7 1 2.8 1h15.4l-19.3-19.2v15.4Z" fill="#fff"/></svg>