<svg fill="var(--color-primary)" xmlns="http://www.w3.org/2000/svg" viewBox="0 0 181 180">
    <circle cx="123.2" cy="126.5" r="27.8" transform="rotate(-90 123.2 126.5)" fill="var(--secondary-fill)"/>
    <circle cx="57.5" cy="53.3" r="27.8" transform="rotate(-90 57.5 53.3)" fill="var(--secondary-fill)"/>
    <path transform="rotate(-83.2 134.5 61.5)" fill="var(--secondary-fill)" d="M134.5 61.5H153.3V80.3H134.5z"/>
    <path transform="rotate(-77.3 25.5 138.2)" fill="var(--secondary-fill)" d="M25.5 138.2H44.3V157H25.5z"/>
    <path d="M92 47.8a43.8 43.8 0 0 0-44.2 43.4c0 23.9 19.8 43.3 44.2 43.3a43.8 43.8 0 0 0 44.2-43.3c0-24-19.8-43.4-44.2-43.4Z"
          fill="inherit"/>
    <path d="M92 88.7a7 7 0 0 0 5.4-2.3 7.9 7.9 0 0 0 2.1-5.6v-5.6h-15v5.6c0 2.2.8 4.1 2.2 5.6a7 7 0 0 0 5.3 2.3Zm-14.4 23c-.6 0-1.1-.2-1.6-.7-.4-.4-.6-1-.6-1.6 0-.6.2-1.2.6-1.6.5-.4 1-.7 1.6-.7H80v-5.6c0-2.2.5-4.2 1.6-6 1-2 2.4-3.4 4.3-4.3-1.9-1-3.3-2.4-4.3-4.3S80 83 80 80.9v-5.7h-2.4c-.6 0-1.1-.2-1.6-.6-.4-.5-.6-1-.6-1.7 0-.6.2-1.1.6-1.6.5-.4 1-.7 1.6-.7h28.8c.6 0 1.2.3 1.6.7.5.5.7 1 .7 1.7 0 .6-.2 1.1-.7 1.6-.4.4-1 .6-1.6.6h-2.3v5.6c0 2.2-.5 4.2-1.6 6-1 2-2.5 3.4-4.4 4.4 2 1 3.4 2.4 4.4 4.2 1 1.9 1.6 4 1.6 6v5.7h2.3c.6 0 1.2.3 1.6.7.5.4.7 1 .7 1.6 0 .7-.2 1.2-.7 1.6-.4.5-1 .7-1.6.7H77.6Z"
          fill="var(--color-white)"/>
</svg>