<svg fill="#73758D" xmlns="http://www.w3.org/2000/svg" viewBox="0 0 360 360">
    <circle cx="245.4" cy="254.1" r="55.6" transform="rotate(-90 245.4 254)" fill="#F1F1F1"/>
    <circle cx="114" cy="107.6" r="55.6" transform="rotate(-90 114 107.6)" fill="#F1F1F1"/>
    <path fill="#F1F1F1" d="m268 123.9 4.4-37.4 37.4 4.4-4.5 37.5zM50 277.4l8.3-36.8L95 249l-8.3 36.8z"/>
    <path d="M183 96.6c-48.7 0-88.4 39-88.4 86.8A87.7 87.7 0 0 0 183 270c48.7 0 88.4-39 88.4-86.7A87.7 87.7 0 0 0 183 96.6" fill="inherit"/>
    <path
        d="m212.2 215.4-21.6-21.6a23 23 0 0 1-14.7 5q-10.5 0-17.8-7.3a24 24 0 0 1-7.3-17.8q0-10.6 7.3-17.8a24 24 0 0 1 17.8-7.3q10.6 0 17.8 7.3a24 24 0 0 1 7.3 17.8 24 24 0 0 1-5 14.7l21.7 21.7q1 1 1 2.6c0 1.6-.3 2-1.1 2.7q-1 1-2.7 1-1.6 0-2.7-1M175.9 191q7.3 0 12.3-5a17 17 0 0 0 5-12.4q0-7.3-5-12.3t-12.3-5q-7.2 0-12.3 5-5 5.1-5 12.3t5 12.3 12.3 5Z"
        fill="#fff"/>
</svg>