<svg viewBox="0 0 360 360" fill="none" xmlns="http://www.w3.org/2000/svg">
<circle cx="245.357" cy="253.093" r="55.5755" transform="rotate(-90 245.357 253.093)" fill="#FFC6A6"/>
<circle cx="113.996" cy="106.576" r="55.5755" transform="rotate(-90 113.996 106.576)" fill="#FFC6A6"/>
<rect x="268.092" y="122.949" width="37.6923" height="37.6923" transform="rotate(-83.1683 268.092 122.949)" fill="#FFC6A6"/>
<rect x="50" y="276.397" width="37.6923" height="37.6923" transform="rotate(-77.349 50 276.397)" fill="#FFC6A6"/>
<path d="M182.995 95.6288C134.268 95.6288 94.6289 134.535 94.6289 182.36C94.6289 230.186 134.268 269.092 182.995 269.092C231.722 269.092 271.361 230.186 271.361 182.36C271.361 134.535 231.722 95.6288 182.995 95.6288Z" fill="#FF975C"/>
<path d="M183.044 186.22C184.138 186.22 185.055 185.849 185.796 185.108C186.534 184.37 186.904 183.454 186.904 182.36V166.826C186.904 165.733 186.534 164.832 185.796 164.125C185.055 163.417 184.138 163.063 183.044 163.063C181.951 163.063 181.035 163.432 180.296 164.171C179.555 164.912 179.185 165.829 179.185 166.923V182.457C179.185 183.55 179.555 184.451 180.296 185.158C181.035 185.866 181.951 186.22 183.044 186.22ZM183.044 201.657C184.138 201.657 185.055 201.287 185.796 200.546C186.534 199.807 186.904 198.891 186.904 197.798C186.904 196.704 186.534 195.787 185.796 195.046C185.055 194.308 184.138 193.939 183.044 193.939C181.951 193.939 181.035 194.308 180.296 195.046C179.555 195.787 179.185 196.704 179.185 197.798C179.185 198.891 179.555 199.807 180.296 200.546C181.035 201.287 181.951 201.657 183.044 201.657ZM183.044 220.954C177.705 220.954 172.688 219.941 167.993 217.913C163.297 215.888 159.212 213.139 155.739 209.666C152.266 206.192 149.516 202.108 147.491 197.412C145.464 192.716 144.45 187.699 144.45 182.36C144.45 177.021 145.464 172.004 147.491 167.309C149.516 162.613 152.266 158.528 155.739 155.055C159.212 151.581 163.297 148.831 167.993 146.804C172.688 144.779 177.705 143.766 183.044 143.766C188.383 143.766 193.4 144.779 198.096 146.804C202.792 148.831 206.876 151.581 210.35 155.055C213.823 158.528 216.572 162.613 218.597 167.309C220.625 172.004 221.638 177.021 221.638 182.36C221.638 187.699 220.625 192.716 218.597 197.412C216.572 202.108 213.823 206.192 210.35 209.666C206.876 213.139 202.792 215.888 198.096 217.913C193.4 219.941 188.383 220.954 183.044 220.954Z" fill="white"/>
</svg>
