<svg fill="var(--color-disabled)" xmlns="http://www.w3.org/2000/svg" viewBox="0 0 57 53">
    <ellipse cx="38.7" cy="36.9" rx="8" ry="8.6" transform="rotate(-90 38.7 37)" fill="var(--secondary-fill)"/>
    <ellipse cx="18.2" cy="15.9" rx="8" ry="8.6" transform="rotate(-90 18.2 15.9)" fill="var(--secondary-fill)"/>
    <path fill="var(--secondary-fill)" d="m42.2 18.3.7-5.4 5.9.7-.7 5.3zm-33.9 22 1.3-5.2 5.7 1.1-1.3 5.3z"/>
    <ellipse cx="48.7" cy="26.8" rx="13.5" ry="13.5" transform="rotate(-90 38.7 37)" fill="inherit"/>
    <path
        d="m31.2 29.6.4.1.4-.1.2-.4-.2-.4-1-1a2 2 0 0 0 .4-1.3q0-1-.8-1.8-.8-.7-2-.7-1 0-1.8.7-.9.8-.8 1.8t.8 1.8q.7.6 1.9.7l1.4-.4zm-2.5-1.7q-.6 0-1-.4t-.5-1 .4-1 1-.4 1.1.4.5 1-.5 1-1 .4m-4.5 3.3q-.5 0-.9-.3L23 30v-6.6q0-.6.3-.8.4-.3.9-.4h9.6q.5 0 .8.4.4.2.4.8V30q0 .5-.4.8-.3.3-.8.3z"
        fill="var(--color-white)"/>
</svg>
