<svg xmlns="http://www.w3.org/2000/svg" viewBox="0 0 181 180">
    <circle cx="123.2" cy="127" r="27.8" transform="rotate(-90 123.2 127)" fill="var(--secondary-fill)"/>
    <circle cx="57.5" cy="53.8" r="27.8" transform="rotate(-90 57.5 53.8)" fill="var(--secondary-fill)"/>
    <path fill="var(--secondary-fill)" d="m134.5 62 2.2-18.7 18.7 2.3-2.2 18.6zm-109 76.7 4.1-18.3 18.4 4-4.2 18.4z"/>
    <path d="M92 48.3a43.8 43.8 0 0 0-44.2 43.4A43.8 43.8 0 0 0 92 135a43.8 43.8 0 0 0 44.2-43.3c0-24-19.8-43.4-44.2-43.4"
          fill="inherit"/>
    <path
        d="M88.6 102.4h-.8l-.6-.5-8.3-8.3a2 2 0 0 1-.5-1.4c0-.5.2-1 .6-1.3.3-.4.8-.6 1.3-.6.6 0 1 .2 1.4.6l6.9 6.9 16.3-16.4c.4-.3.8-.5 1.4-.5.5 0 1 .2 1.4.5.3.4.5.8.5 1.4 0 .5-.2 1-.5 1.4l-17.8 17.7-.6.4z"
        fill="var(--color-white)"/>
</svg>