<svg fill="var(--color-disabled)" xmlns="http://www.w3.org/2000/svg" viewBox="0 0 360 360">
    <circle cx="245.4" cy="254.1" r="55.6" transform="rotate(-90 245.4 254)" fill="var(--secondary-fill)"/>
    <circle cx="114" cy="107.6" r="55.6" transform="rotate(-90 114 107.6)" fill="var(--secondary-fill)"/>
    <path transform="rotate(-83.2 268 124)" fill="var(--secondary-fill)" d="M268.1 123.9H305.8V161.6H268.1z"/>
    <path transform="rotate(-77.3 50 277.4)" fill="var(--secondary-fill)" d="M50 277.4H87.7V315.1H50z"/>
    <path d="M183 96.6c-48.7 0-88.4 39-88.4 86.8A87.7 87.7 0 0 0 183 270c48.7 0 88.4-39 88.4-86.7A87.7 87.7 0 0 0 183 96.6Z"
          fill="inherit"/>
    <path
        d="M156.2 212c-1.2.5-2.5.4-3.6-.3a3.6 3.6 0 0 1-1.8-3.3v-14.3c0-1 .3-1.7.8-2.4.5-.8 1.2-1.2 2.1-1.4l28-7-28-6.9c-.9-.2-1.6-.6-2-1.3a4 4 0 0 1-.9-2.4v-14.4c0-1.4.6-2.5 1.8-3.3 1.1-.7 2.4-.8 3.6-.3l59.5 25c1.6.8 2.4 2 2.4 3.7 0 1.6-.8 2.8-2.4 3.5L156.2 212Z"
        fill="var(--color-white)"/>
</svg>