<svg fill="#73758D" xmlns="http://www.w3.org/2000/svg" viewBox="0 0 360 360"><circle cx="245.4" cy="253.1" r="55.6" transform="rotate(-90 245.4 253)" fill="#F1F1F1"/><circle cx="114" cy="106.6" r="55.6" transform="rotate(-90 114 106.6)" fill="#F1F1F1"/><path transform="rotate(-83.2 268 123)" fill="#F1F1F1" d="M268.1 122.9H305.8V160.6H268.1z"/><path transform="rotate(-77.3 50 276.4)" fill="#F1F1F1" d="M50 276.4H87.7V314.1H50z"/><path d="M183 95.6c-48.7 0-88.4 39-88.4 86.8A87.7 87.7 0 0 0 183 269c48.7 0 88.4-39 88.4-86.7A87.7 87.7 0 0 0 183 95.6Z" fill="inherit"/><path d="m200.5 167.6 13.7-13.7c.8-.8 1.7-1.1 2.7-1.1a3.9 3.9 0 0 1 3.8 3.9c0 1-.4 2-1 2.7l-16.4 16.4a3.7 3.7 0 0 1-5.4 0l-8.3-8.3c-.7-.7-1-1.6-1-2.7 0-1 .3-2 1-2.7.7-.7 1.6-1 2.7-1s2 .3 2.7 1l5.5 5.5Zm-52.2 3.2c-1 0-2-.4-2.7-1.1a3.7 3.7 0 0 1-1.2-2.8c0-1 .4-2 1.2-2.7.7-.8 1.6-1.1 2.7-1.1h27c1.1 0 2 .3 2.8 1 .7.8 1 1.7 1 2.8 0 1.1-.3 2-1 2.8-.8.7-1.7 1-2.8 1h-27Zm54 32.4-7.3 7.3c-.7.7-1.6 1-2.7 1-1 0-2-.3-2.7-1-.7-.7-1-1.6-1-2.7 0-1 .3-2 1-2.7l7.3-7.3-7.3-7.3c-.7-.7-1-1.6-1-2.7s.3-2 1-2.7c.7-.7 1.6-1.1 2.7-1.1s2 .4 2.7 1l7.3 7.4 7.4-7.3c.7-.7 1.6-1.1 2.7-1.1 1 0 2 .4 2.7 1 .7.8 1 1.7 1 2.8 0 1-.3 2-1 2.7l-7.4 7.3 7.4 7.3c.7.7 1 1.6 1 2.7s-.3 2-1 2.7c-.7.7-1.6 1-2.7 1s-2-.3-2.7-1l-7.4-7.3Zm-54-1.5c-1 0-2-.4-2.7-1.2a3.7 3.7 0 0 1-1.2-2.7c0-1.1.4-2 1.2-2.8.7-.7 1.6-1 2.7-1h27c1.1 0 2 .3 2.8 1 .7.8 1 1.7 1 2.8 0 1-.3 2-1 2.7-.8.8-1.7 1.2-2.8 1.2h-27Z" fill="#fff"/></svg>
