<svg fill="none" xmlns="http://www.w3.org/2000/svg" viewBox="0 0 360 360"><path fill="#F1F1F1" d="M0 0H360V360H0z"/><circle cx="245.4" cy="253.1" r="55.6" transform="rotate(-90 245.4 253)" fill="#fff"/><circle cx="114" cy="106.6" r="55.6" transform="rotate(-90 114 106.6)" fill="#fff"/><path transform="rotate(-83.2 268 123)" fill="#fff" d="M268.1 122.9H305.8V160.6H268.1z"/><path transform="rotate(-77.3 50 276.4)" fill="#fff" d="M50 276.4H87.7V314.1H50z"/><path d="M183 95.6c-48.7 0-88.4 39-88.4 86.8A87.7 87.7 0 0 0 183 269c48.7 0 88.4-39 88.4-86.7A87.7 87.7 0 0 0 183 95.6Z" fill="#73758D"/><path d="M141.7 217.5c-1.4 0-2.6-.5-3.5-1.5-1-1-1.5-2.1-1.5-3.5v-8.8c0-2.7.7-5 2-7.2 1.2-2 2.9-3.7 5-4.8a58.7 58.7 0 0 1 53.7 0c2.1 1.1 3.8 2.7 5 4.8 1.3 2.2 2 4.5 2 7.2v8.8c0 1.4-.5 2.6-1.5 3.5-1 1-2.1 1.5-3.6 1.5h-57.6Zm68.4 0c.6-.3 1.2-.9 1.7-1.7.5-.8.8-2 .8-3.3v-10c0-2.7-.8-5.6-2.3-8.9-1.4-3.2-3.7-5.9-6.9-8.2a60.2 60.2 0 0 1 21.3 6.3c2.7 1.6 4.8 3.3 6.2 5.1a9.4 9.4 0 0 1 2.1 5.7v10a4.9 4.9 0 0 1-5 5h-18ZM170.5 180c-5 0-9.3-1.7-12.8-5.3a17.5 17.5 0 0 1-5.3-12.8c0-5 1.7-9.3 5.3-12.8 3.5-3.6 7.8-5.3 12.8-5.3 5 0 9.3 1.7 12.8 5.3 3.6 3.5 5.3 7.8 5.3 12.8 0 5-1.7 9.3-5.3 12.8a17.5 17.5 0 0 1-12.8 5.3Zm46.8-18c0 5-1.8 9.2-5.3 12.7a17.5 17.5 0 0 1-12.8 5.3 31.4 31.4 0 0 1-8-1.1 26.6 26.6 0 0 0 5.6-17 29.1 29.1 0 0 0-5.6-17c1.3-.4 2.7-.7 4-.9 1.4-.2 2.7-.2 4-.2 5 0 9.3 1.7 12.8 5.3 3.5 3.5 5.3 7.8 5.3 12.8Z" fill="#fff"/></svg>