<svg fill="none" xmlns="http://www.w3.org/2000/svg" viewBox="0 0 360 360"><path fill="#F1F1F1" d="M0 0H360V360H0z"/><circle cx="245.4" cy="254.1" r="55.6" transform="rotate(-90 245.4 254)" fill="#fff"/><circle cx="114" cy="107.6" r="55.6" transform="rotate(-90 114 107.6)" fill="#fff"/><path transform="rotate(-83.2 268 124)" fill="#fff" d="M268.1 123.9H305.8V161.6H268.1z"/><path transform="rotate(-77.3 50 277.4)" fill="#fff" d="M50 277.4H87.7V315.1H50z"/><path d="M183 96.6c-48.7 0-88.4 39-88.4 86.8A87.7 87.7 0 0 0 183 270c48.7 0 88.4-39 88.4-86.7A87.7 87.7 0 0 0 183 96.6Z" fill="#73758D"/><path d="m212.2 215.4-21.6-21.6a23 23 0 0 1-14.7 5c-7 0-13-2.4-17.8-7.3a24.2 24.2 0 0 1-7.3-17.8c0-7 2.5-13 7.3-17.8a24.2 24.2 0 0 1 17.8-7.3c7 0 13 2.5 17.8 7.3a24.2 24.2 0 0 1 7.3 17.8 23.5 23.5 0 0 1-5 14.7l21.7 21.7c.7.7 1 1.6 1 2.6s-.3 2-1.1 2.7c-.7.7-1.6 1-2.7 1-1 0-2-.3-2.7-1ZM175.9 191c4.8 0 9-1.7 12.3-5 3.4-3.5 5-7.6 5-12.4 0-4.8-1.6-9-5-12.3-3.4-3.4-7.5-5-12.3-5-4.8 0-8.9 1.6-12.3 5-3.4 3.4-5 7.5-5 12.3 0 4.8 1.6 9 5 12.3 3.4 3.4 7.5 5 12.3 5Z" fill="#fff"/></svg>