<svg xmlns="http://www.w3.org/2000/svg" viewBox="0 0 360 360">
    <circle cx="245.4" cy="253.1" r="55.6" transform="rotate(-90 245.4 253)" fill="#EEF1F8"/>
    <circle cx="114" cy="106.6" r="55.6" transform="rotate(-90 114 106.6)" fill="#EEF1F8"/>
    <path transform="rotate(-83.2 268 123)" fill="#EEF1F8" d="M268.1 122.9H305.8V160.6H268.1z"/>
    <path transform="rotate(-77.3 50 276.4)" fill="#EEF1F8" d="M50 276.4H87.7V314.1H50z"/>
    <path d="M183 95.6c-48.7 0-88.4 39-88.4 86.8A87.7 87.7 0 0 0 183 269c48.7 0 88.4-39 88.4-86.7A87.7 87.7 0 0 0 183 95.6Z"
          fill="inherit"/>
    <path
        d="M151.6 216.1c-2.8 0-5.3-1-7.2-3-2-2-3-4.4-3-7.2v-47c0-3 1-5.3 3-7.3s4.4-3 7.2-3h62.9c2.8 0 5.2 1 7.2 3s3 4.4 3 7.2V192a25.4 25.4 0 0 0-12.6-3.5c-6.8 0-12.6 2.4-17.4 7.2a23.6 23.6 0 0 0-7.1 17.3v3.2h-36Zm31.4-37.6-25-15.6c-1.2-.9-2.6-1-4.1-.2-1.6.8-2.3 2-2.3 3.7 0 .8.2 1.5.6 2.2.4.6.8 1 1.3 1.4l26.8 16.8a5 5 0 0 0 5.4 0l26.9-16.8c.5-.3 1-.8 1.3-1.4a4 4 0 0 0 .6-2.2 4 4 0 0 0-2.1-3.6 4 4 0 0 0-4.4 0l-25 15.7Zm26.7 37.6h-9.3a5 5 0 0 1-3.6-1.5 5 5 0 0 1-1.5-3.6 5 5 0 0 1 1.5-3.6 5 5 0 0 1 3.6-1.5h9.3l-1.4-1.3c-1-1-1.5-2.2-1.5-3.6a5.2 5.2 0 0 1 5.2-5.1c1.3 0 2.5.5 3.6 1.5l10 10c1 1 1.5 2.2 1.5 3.6s-.4 2.6-1.4 3.6l-10.1 10a5 5 0 0 1-3.6 1.5c-1.3 0-2.6-.4-3.6-1.5a5 5 0 0 1-1.5-3.5 5 5 0 0 1 1.4-3.6l1.4-1.4Z"
        fill="#fff"/>
</svg>