<svg fill="none" xmlns="http://www.w3.org/2000/svg" viewBox="0 0 360 360"><circle cx="245.4" cy="254.1" r="55.6" transform="rotate(-90 245.4 254)" fill="#F1F1F1"/><circle cx="114" cy="107.6" r="55.6" transform="rotate(-90 114 107.6)" fill="#F1F1F1"/><path transform="rotate(-83.2 268 124)" fill="#F1F1F1" d="M268.1 123.9H305.8V161.6H268.1z"/><path transform="rotate(-77.3 50 277.4)" fill="#F1F1F1" d="M50 277.4H87.7V315.1H50z"/><path d="M183 96.6c-48.7 0-88.4 39-88.4 86.8A87.7 87.7 0 0 0 183 270c48.7 0 88.4-39 88.4-86.7A87.7 87.7 0 0 0 183 96.6Z" fill="#73758D"/><path d="M147 198v-49.4c0-1 .3-2 1-2.7.8-.8 1.7-1.1 2.8-1.1H201c1.1 0 2 .3 2.8 1 .7.8 1 1.7 1 2.8v34.8c0 1-.3 2-1 2.7-.8.7-1.7 1.1-2.8 1.1h-38.6l-12.1 12.2c-.6.6-1.3.7-2.1.4-.8-.3-1.2-.9-1.2-1.8Zm19.3 8.5c-1.1 0-2-.4-2.8-1a3.7 3.7 0 0 1-1-2.8v-7.8h50v-34.7h7.8c1.1 0 2 .4 2.8 1.1.7.8 1 1.7 1 2.8v53.2c0 1-.3 1.5-1.1 1.8-.8.3-1.5.2-2.1-.4l-12.2-12.2h-42.4Z" fill="#fff"/></svg>