<svg viewBox="0 0 360 360" xmlns="http://www.w3.org/2000/svg">
    <circle cx="245.4" cy="253.1" r="55.6" transform="rotate(-90 245.4 253)" fill="var(--color-warning_lighten)"/>
    <circle cx="114" cy="106.6" r="55.6" transform="rotate(-90 114 106.6)" fill="var(--color-warning_lighten)"/>
    <path transform="rotate(-83.2 268 123)" fill="var(--color-warning_lighten)" d="M268.1 122.9H305.8V160.6H268.1z"/>
    <path transform="rotate(-77.3 50 276.4)" fill="var(--color-warning_lighten)" d="M50 276.4H87.7V314.1H50z"/>
    <path d="M183 95.6c-48.7 0-88.4 39-88.4 86.8A87.7 87.7 0 0 0 183 269c48.7 0 88.4-39 88.4-86.7A87.7 87.7 0 0 0 183 95.6Z"
          fill="var(--color-warning)"/>
    <path
        d="M163.7 217c-2 0-3.9-.7-5.4-2.2a7.4 7.4 0 0 1-2.3-5.4v-50.2a3.7 3.7 0 0 1-3.9-3.9c0-1 .4-2 1.2-2.7.7-.7 1.6-1.1 2.7-1.1h15.5c0-1.1.3-2 1-2.8.8-.7 1.7-1 2.8-1h15.5c1 0 2 .3 2.7 1 .8.8 1.1 1.7 1.1 2.8h15.5c1 0 2 .4 2.7 1 .7.8 1.1 1.8 1.1 2.8 0 1.1-.4 2-1 2.8-.8.7-1.7 1.1-2.8 1.1v50.2c0 2.1-.8 4-2.3 5.4a7.4 7.4 0 0 1-5.5 2.3h-38.6Zm7.8-19.2c0 1 .3 2 1 2.7.8.8 1.7 1.2 2.8 1.2 1.1 0 2-.4 2.8-1.2.7-.7 1-1.6 1-2.7v-27c0-1.1-.3-2-1-2.8a3.7 3.7 0 0 0-2.8-1c-1 0-2 .3-2.7 1-.8.8-1.1 1.7-1.1 2.8v27Zm15.4 0c0 1 .4 2 1.1 2.7.8.8 1.7 1.2 2.8 1.2 1 0 2-.4 2.7-1.2.8-.7 1.1-1.6 1.1-2.7v-27c0-1.1-.3-2-1-2.8a3.7 3.7 0 0 0-2.8-1c-1.1 0-2 .3-2.8 1-.7.8-1.1 1.7-1.1 2.8v27Z"
        fill="var(--color-white)"/>
</svg>