<svg fill="#73758D" xmlns="http://www.w3.org/2000/svg" viewBox="0 0 360 360"><circle cx="245.4" cy="253.1" r="55.6" transform="rotate(-90 245.4 253)" fill="#F1F1F1"/><circle cx="114" cy="106.6" r="55.6" transform="rotate(-90 114 106.6)" fill="#F1F1F1"/><path transform="rotate(-83.2 268 123)" fill="#F1F1F1" d="M268.1 122.9H305.8V160.6H268.1z"/><path transform="rotate(-77.3 50 276.4)" fill="#F1F1F1" d="M50 276.4H87.7V314.1H50z"/><path d="M183 95.6c-48.7 0-88.4 39-88.4 86.8A87.7 87.7 0 0 0 183 269c48.7 0 88.4-39 88.4-86.7A87.7 87.7 0 0 0 183 95.6Z" fill="inherit"/><path d="M171.5 199.7c-2.7 0-5-1-6.9-2.8a9.3 9.3 0 0 1-2.8-6.8c0-2.7 1-5 2.8-6.9a9.3 9.3 0 0 1 6.9-2.8c2.7 0 5 1 6.8 2.8a9.3 9.3 0 0 1 2.8 6.9c0 2.7-1 5-2.8 6.8a9.3 9.3 0 0 1-6.8 2.8ZM156 221c-2 0-4-.8-5.4-2.3a7.4 7.4 0 0 1-2.3-5.5v-54c0-2.1.8-4 2.3-5.4a7.4 7.4 0 0 1 5.4-2.3h3.9v-3.9c0-1 .4-2 1-2.7.8-.8 1.8-1.1 2.8-1.1 1.1 0 2 .3 2.8 1 .7.8 1.1 1.7 1.1 2.8v3.9h30.9v-3.9c0-1 .4-2 1-2.7.8-.8 1.7-1.1 2.8-1.1 1.1 0 2 .3 2.8 1 .7.8 1.1 1.7 1.1 2.8v3.9h3.9c2 0 3.9.7 5.4 2.3a7.4 7.4 0 0 1 2.3 5.4v54c0 2.2-.8 4-2.3 5.5a7.4 7.4 0 0 1-5.4 2.3h-54Zm0-7.8h54v-38.6h-54v38.6Z" fill="#fff"/></svg>
