<svg viewBox="0 0 86 71" fill="inherit" xmlns="http://www.w3.org/2000/svg">
    <path d="M76.0325 0.565505C75.4564 -0.0298226 74.5068 -0.0454178 73.9114 0.530667L64.21 9.91855C63.6147 10.4946 63.5991 11.4443 64.1752 12.0396C64.7513 12.6349 65.7009 12.6505 66.2962 12.0744L74.9197 3.72964L83.2645 12.3531C83.8406 12.9485 84.7902 12.9641 85.3855 12.388C85.9808 11.8119 85.9964 10.8623 85.4204 10.2669L76.0325 0.565505ZM0.983954 70.1424C32.382 65.4809 51.2002 58.7529 62.1935 47.8277C73.26 36.8296 76.122 21.8646 76.4543 1.63324L73.4547 1.58397C73.1247 21.68 70.2584 35.5831 60.0787 45.6998C49.8257 55.8894 31.8797 62.5226 0.54339 67.175L0.983954 70.1424Z" fill="inherit"/>
</svg>
