<svg width="136" height="102" viewBox="0 0 136 102" fill="none" xmlns="http://www.w3.org/2000/svg">
<rect width="136" height="102" rx="2" fill="white"/>
<rect width="136" height="26" fill="#E5E5E5"/>
<rect x="3" y="29" width="133" height="15" fill="#F3F8DA"/>
<rect x="3" y="64" width="40" height="38" fill="#E5E5E5"/>
<rect x="3" y="47" width="40" height="14" fill="#C7D33F"/>
<path d="M0 0H15V4C15 5.10457 14.1046 6 13 6H0V0Z" fill="#ABABAB"/>
<path d="M26 0H136V6H28C26.8954 6 26 5.10457 26 4V0Z" fill="#ABABAB"/>
<rect x="3" y="11" width="130" height="10" rx="5" fill="white"/>
<path d="M11.392 18C11.3653 18 11.3427 17.992 11.324 17.976C11.308 17.9573 11.3 17.9347 11.3 17.908V15.252C11.3 15.2253 11.308 15.204 11.324 15.188C11.3427 15.1693 11.3653 15.16 11.392 15.16H11.592C11.6213 15.16 11.644 15.1693 11.66 15.188C11.676 15.204 11.684 15.2253 11.684 15.252V16.184C11.756 16.0933 11.844 16.02 11.948 15.964C12.052 15.908 12.184 15.88 12.344 15.88C12.5173 15.88 12.664 15.9187 12.784 15.996C12.9067 16.0707 12.9987 16.176 13.06 16.312C13.124 16.4453 13.156 16.6013 13.156 16.78V17.908C13.156 17.9347 13.148 17.9573 13.132 17.976C13.116 17.992 13.0933 18 13.064 18H12.864C12.8373 18 12.8147 17.992 12.796 17.976C12.78 17.9573 12.772 17.9347 12.772 17.908V16.8C12.772 16.6133 12.7267 16.468 12.636 16.364C12.5453 16.2573 12.412 16.204 12.236 16.204C12.0707 16.204 11.9373 16.2573 11.836 16.364C11.7347 16.468 11.684 16.6133 11.684 16.8V17.908C11.684 17.9347 11.676 17.9573 11.66 17.976C11.644 17.992 11.6213 18 11.592 18H11.392ZM14.5182 18C14.3688 18 14.2475 17.972 14.1542 17.916C14.0608 17.8573 13.9928 17.776 13.9502 17.672C13.9075 17.5653 13.8862 17.44 13.8862 17.296V16.24H13.5742C13.5475 16.24 13.5248 16.232 13.5062 16.216C13.4902 16.1973 13.4822 16.1747 13.4822 16.148V16.012C13.4822 15.9853 13.4902 15.964 13.5062 15.948C13.5248 15.9293 13.5475 15.92 13.5742 15.92H13.8862V15.252C13.8862 15.2253 13.8942 15.204 13.9102 15.188C13.9288 15.1693 13.9515 15.16 13.9782 15.16H14.1662C14.1928 15.16 14.2142 15.1693 14.2302 15.188C14.2488 15.204 14.2582 15.2253 14.2582 15.252V15.92H14.7542C14.7808 15.92 14.8022 15.9293 14.8182 15.948C14.8368 15.964 14.8462 15.9853 14.8462 16.012V16.148C14.8462 16.1747 14.8368 16.1973 14.8182 16.216C14.8022 16.232 14.7808 16.24 14.7542 16.24H14.2582V17.268C14.2582 17.3933 14.2795 17.492 14.3222 17.564C14.3648 17.636 14.4408 17.672 14.5502 17.672H14.7942C14.8208 17.672 14.8422 17.6813 14.8582 17.7C14.8768 17.716 14.8862 17.7373 14.8862 17.764V17.908C14.8862 17.9347 14.8768 17.9573 14.8582 17.976C14.8422 17.992 14.8208 18 14.7942 18H14.5182ZM16.0807 18C15.9313 18 15.81 17.972 15.7167 17.916C15.6233 17.8573 15.5553 17.776 15.5127 17.672C15.47 17.5653 15.4487 17.44 15.4487 17.296V16.24H15.1367C15.11 16.24 15.0873 16.232 15.0687 16.216C15.0527 16.1973 15.0447 16.1747 15.0447 16.148V16.012C15.0447 15.9853 15.0527 15.964 15.0687 15.948C15.0873 15.9293 15.11 15.92 15.1367 15.92H15.4487V15.252C15.4487 15.2253 15.4567 15.204 15.4727 15.188C15.4913 15.1693 15.514 15.16 15.5407 15.16H15.7287C15.7553 15.16 15.7767 15.1693 15.7927 15.188C15.8113 15.204 15.8207 15.2253 15.8207 15.252V15.92H16.3167C16.3433 15.92 16.3647 15.9293 16.3807 15.948C16.3993 15.964 16.4087 15.9853 16.4087 16.012V16.148C16.4087 16.1747 16.3993 16.1973 16.3807 16.216C16.3647 16.232 16.3433 16.24 16.3167 16.24H15.8207V17.268C15.8207 17.3933 15.842 17.492 15.8847 17.564C15.9273 17.636 16.0033 17.672 16.1127 17.672H16.3567C16.3833 17.672 16.4047 17.6813 16.4207 17.7C16.4393 17.716 16.4487 17.7373 16.4487 17.764V17.908C16.4487 17.9347 16.4393 17.9573 16.4207 17.976C16.4047 17.992 16.3833 18 16.3567 18H16.0807ZM16.9272 18.76C16.9005 18.76 16.8778 18.7507 16.8592 18.732C16.8432 18.716 16.8352 18.6947 16.8352 18.668V16.012C16.8352 15.9853 16.8432 15.964 16.8592 15.948C16.8778 15.9293 16.9005 15.92 16.9272 15.92H17.1112C17.1378 15.92 17.1592 15.9293 17.1752 15.948C17.1938 15.964 17.2032 15.9853 17.2032 16.012V16.188C17.2672 16.1 17.3525 16.0267 17.4592 15.968C17.5658 15.9093 17.6992 15.88 17.8592 15.88C18.0085 15.88 18.1352 15.9053 18.2392 15.956C18.3458 16.0067 18.4325 16.076 18.4992 16.164C18.5685 16.252 18.6205 16.352 18.6552 16.464C18.6898 16.576 18.7085 16.696 18.7112 16.824C18.7138 16.8667 18.7152 16.912 18.7152 16.96C18.7152 17.008 18.7138 17.0533 18.7112 17.096C18.7085 17.2213 18.6898 17.3413 18.6552 17.456C18.6205 17.568 18.5685 17.668 18.4992 17.756C18.4325 17.8413 18.3458 17.9107 18.2392 17.964C18.1352 18.0147 18.0085 18.04 17.8592 18.04C17.7045 18.04 17.5738 18.012 17.4672 17.956C17.3632 17.8973 17.2778 17.8253 17.2112 17.74V18.668C17.2112 18.6947 17.2032 18.716 17.1872 18.732C17.1712 18.7507 17.1485 18.76 17.1192 18.76H16.9272ZM17.7752 17.716C17.9138 17.716 18.0218 17.6867 18.0992 17.628C18.1792 17.5667 18.2365 17.488 18.2712 17.392C18.3058 17.2933 18.3258 17.188 18.3312 17.076C18.3338 16.9987 18.3338 16.9213 18.3312 16.844C18.3258 16.732 18.3058 16.628 18.2712 16.532C18.2365 16.4333 18.1792 16.3547 18.0992 16.296C18.0218 16.2347 17.9138 16.204 17.7752 16.204C17.6445 16.204 17.5378 16.2347 17.4552 16.296C17.3752 16.3573 17.3152 16.436 17.2752 16.532C17.2378 16.6253 17.2165 16.7213 17.2112 16.82C17.2085 16.8627 17.2072 16.9133 17.2072 16.972C17.2072 17.0307 17.2085 17.0827 17.2112 17.128C17.2138 17.2213 17.2352 17.3133 17.2752 17.404C17.3178 17.4947 17.3805 17.5693 17.4632 17.628C17.5458 17.6867 17.6498 17.716 17.7752 17.716ZM19.934 18.04C19.7846 18.04 19.6566 18.0213 19.55 17.984C19.4433 17.9467 19.3566 17.9013 19.29 17.848C19.2233 17.7947 19.1726 17.7413 19.138 17.688C19.106 17.6347 19.0886 17.592 19.086 17.56C19.0833 17.5307 19.0926 17.508 19.114 17.492C19.1353 17.476 19.1566 17.468 19.178 17.468H19.354C19.37 17.468 19.382 17.4707 19.39 17.476C19.4006 17.4787 19.414 17.4893 19.43 17.508C19.4646 17.5453 19.5033 17.5827 19.546 17.62C19.5886 17.6573 19.6406 17.688 19.702 17.712C19.766 17.736 19.8446 17.748 19.938 17.748C20.074 17.748 20.186 17.7227 20.274 17.672C20.362 17.6187 20.406 17.5413 20.406 17.44C20.406 17.3733 20.3873 17.32 20.35 17.28C20.3153 17.24 20.2513 17.204 20.158 17.172C20.0673 17.14 19.942 17.1067 19.782 17.072C19.622 17.0347 19.4953 16.9893 19.402 16.936C19.3086 16.88 19.242 16.8147 19.202 16.74C19.162 16.6627 19.142 16.576 19.142 16.48C19.142 16.3813 19.1713 16.2867 19.23 16.196C19.2886 16.1027 19.374 16.0267 19.486 15.968C19.6006 15.9093 19.7433 15.88 19.914 15.88C20.0526 15.88 20.1713 15.8973 20.27 15.932C20.3686 15.9667 20.45 16.0107 20.514 16.064C20.578 16.1147 20.626 16.1653 20.658 16.216C20.69 16.2667 20.7073 16.3093 20.71 16.344C20.7126 16.3707 20.7046 16.3933 20.686 16.412C20.6673 16.428 20.646 16.436 20.622 16.436H20.454C20.4353 16.436 20.4193 16.432 20.406 16.424C20.3953 16.416 20.3846 16.4067 20.374 16.396C20.3473 16.3613 20.3153 16.3267 20.278 16.292C20.2433 16.2573 20.1966 16.2293 20.138 16.208C20.082 16.184 20.0073 16.172 19.914 16.172C19.7806 16.172 19.6806 16.2 19.614 16.256C19.5473 16.312 19.514 16.3827 19.514 16.468C19.514 16.5187 19.5286 16.564 19.558 16.604C19.5873 16.644 19.6433 16.68 19.726 16.712C19.8086 16.744 19.9313 16.7787 20.094 16.816C20.27 16.8507 20.4086 16.8973 20.51 16.956C20.6113 17.0147 20.6833 17.0827 20.726 17.16C20.7686 17.2373 20.79 17.3267 20.79 17.428C20.79 17.54 20.7566 17.6427 20.69 17.736C20.626 17.8293 20.53 17.904 20.402 17.96C20.2766 18.0133 20.1206 18.04 19.934 18.04ZM21.325 16.6C21.2984 16.6 21.2757 16.592 21.257 16.576C21.241 16.5573 21.233 16.5347 21.233 16.508V16.228C21.233 16.2013 21.241 16.18 21.257 16.164C21.2757 16.1453 21.2984 16.136 21.325 16.136H21.609C21.6384 16.136 21.661 16.1453 21.677 16.164C21.6957 16.18 21.705 16.2013 21.705 16.228V16.508C21.705 16.5347 21.6957 16.5573 21.677 16.576C21.661 16.592 21.6384 16.6 21.609 16.6H21.325ZM21.325 18C21.2984 18 21.2757 17.992 21.257 17.976C21.241 17.9573 21.233 17.9347 21.233 17.908V17.628C21.233 17.6013 21.241 17.58 21.257 17.564C21.2757 17.5453 21.2984 17.536 21.325 17.536H21.609C21.6384 17.536 21.661 17.5453 21.677 17.564C21.6957 17.58 21.705 17.6013 21.705 17.628V17.908C21.705 17.9347 21.6957 17.9573 21.677 17.976C21.661 17.992 21.6384 18 21.609 18H21.325ZM22.1645 18.336C22.1431 18.336 22.1245 18.328 22.1085 18.312C22.0925 18.296 22.0845 18.2773 22.0845 18.256C22.0845 18.2427 22.0885 18.2267 22.0965 18.208L23.4645 14.928C23.4725 14.912 23.4831 14.896 23.4965 14.88C23.5125 14.864 23.5365 14.856 23.5685 14.856H23.7245C23.7458 14.856 23.7645 14.864 23.7805 14.88C23.7965 14.896 23.8045 14.9147 23.8045 14.936C23.8045 14.9467 23.8018 14.9627 23.7965 14.984L22.4245 18.264C22.4191 18.2773 22.4071 18.292 22.3885 18.308C22.3725 18.3267 22.3498 18.336 22.3205 18.336H22.1645ZM23.2699 18.336C23.2486 18.336 23.2299 18.328 23.2139 18.312C23.1979 18.296 23.1899 18.2773 23.1899 18.256C23.1899 18.2427 23.1939 18.2267 23.2019 18.208L24.5699 14.928C24.5779 14.912 24.5886 14.896 24.6019 14.88C24.6179 14.864 24.6419 14.856 24.6739 14.856H24.8299C24.8513 14.856 24.8699 14.864 24.8859 14.88C24.9019 14.896 24.9099 14.9147 24.9099 14.936C24.9099 14.9467 24.9073 14.9627 24.9019 14.984L23.5299 18.264C23.5246 18.2773 23.5126 18.292 23.4939 18.308C23.4779 18.3267 23.4553 18.336 23.4259 18.336H23.2699ZM25.2631 18.76C25.2364 18.76 25.2138 18.7507 25.1951 18.732C25.1791 18.716 25.1711 18.6947 25.1711 18.668V16.012C25.1711 15.9853 25.1791 15.964 25.1951 15.948C25.2138 15.9293 25.2364 15.92 25.2631 15.92H25.4471C25.4738 15.92 25.4951 15.9293 25.5111 15.948C25.5298 15.964 25.5391 15.9853 25.5391 16.012V16.188C25.6031 16.1 25.6884 16.0267 25.7951 15.968C25.9018 15.9093 26.0351 15.88 26.1951 15.88C26.3444 15.88 26.4711 15.9053 26.5751 15.956C26.6818 16.0067 26.7684 16.076 26.8351 16.164C26.9044 16.252 26.9564 16.352 26.9911 16.464C27.0258 16.576 27.0444 16.696 27.0471 16.824C27.0498 16.8667 27.0511 16.912 27.0511 16.96C27.0511 17.008 27.0498 17.0533 27.0471 17.096C27.0444 17.2213 27.0258 17.3413 26.9911 17.456C26.9564 17.568 26.9044 17.668 26.8351 17.756C26.7684 17.8413 26.6818 17.9107 26.5751 17.964C26.4711 18.0147 26.3444 18.04 26.1951 18.04C26.0404 18.04 25.9098 18.012 25.8031 17.956C25.6991 17.8973 25.6138 17.8253 25.5471 17.74V18.668C25.5471 18.6947 25.5391 18.716 25.5231 18.732C25.5071 18.7507 25.4844 18.76 25.4551 18.76H25.2631ZM26.1111 17.716C26.2498 17.716 26.3578 17.6867 26.4351 17.628C26.5151 17.5667 26.5724 17.488 26.6071 17.392C26.6418 17.2933 26.6618 17.188 26.6671 17.076C26.6698 16.9987 26.6698 16.9213 26.6671 16.844C26.6618 16.732 26.6418 16.628 26.6071 16.532C26.5724 16.4333 26.5151 16.3547 26.4351 16.296C26.3578 16.2347 26.2498 16.204 26.1111 16.204C25.9804 16.204 25.8738 16.2347 25.7911 16.296C25.7111 16.3573 25.6511 16.436 25.6111 16.532C25.5738 16.6253 25.5524 16.7213 25.5471 16.82C25.5444 16.8627 25.5431 16.9133 25.5431 16.972C25.5431 17.0307 25.5444 17.0827 25.5471 17.128C25.5498 17.2213 25.5711 17.3133 25.6111 17.404C25.6538 17.4947 25.7164 17.5693 25.7991 17.628C25.8818 17.6867 25.9858 17.716 26.1111 17.716ZM28.4019 18.04C28.1992 18.04 28.0299 18.0013 27.8939 17.924C27.7579 17.8467 27.6539 17.74 27.5819 17.604C27.5099 17.4653 27.4699 17.308 27.4619 17.132C27.4592 17.0867 27.4579 17.0293 27.4579 16.96C27.4579 16.888 27.4592 16.8307 27.4619 16.788C27.4699 16.6093 27.5099 16.452 27.5819 16.316C27.6566 16.18 27.7619 16.0733 27.8979 15.996C28.0339 15.9187 28.2019 15.88 28.4019 15.88C28.6019 15.88 28.7699 15.9187 28.9059 15.996C29.0419 16.0733 29.1459 16.18 29.2179 16.316C29.2926 16.452 29.3339 16.6093 29.3419 16.788C29.3446 16.8307 29.3459 16.888 29.3459 16.96C29.3459 17.0293 29.3446 17.0867 29.3419 17.132C29.3339 17.308 29.2939 17.4653 29.2219 17.604C29.1499 17.74 29.0459 17.8467 28.9099 17.924C28.7739 18.0013 28.6046 18.04 28.4019 18.04ZM28.4019 17.732C28.5672 17.732 28.6992 17.68 28.7979 17.576C28.8966 17.4693 28.9499 17.3147 28.9579 17.112C28.9606 17.072 28.9619 17.0213 28.9619 16.96C28.9619 16.8987 28.9606 16.848 28.9579 16.808C28.9499 16.6053 28.8966 16.452 28.7979 16.348C28.6992 16.2413 28.5672 16.188 28.4019 16.188C28.2366 16.188 28.1032 16.2413 28.0019 16.348C27.9032 16.452 27.8512 16.6053 27.8459 16.808C27.8432 16.848 27.8419 16.8987 27.8419 16.96C27.8419 17.0213 27.8432 17.072 27.8459 17.112C27.8512 17.3147 27.9032 17.4693 28.0019 17.576C28.1032 17.68 28.2366 17.732 28.4019 17.732ZM29.9388 18C29.9121 18 29.8894 17.992 29.8708 17.976C29.8548 17.9573 29.8468 17.9347 29.8468 17.908V16.016C29.8468 15.9893 29.8548 15.9667 29.8708 15.948C29.8894 15.9293 29.9121 15.92 29.9388 15.92H30.1228C30.1494 15.92 30.1721 15.9293 30.1908 15.948C30.2094 15.9667 30.2188 15.9893 30.2188 16.016V16.192C30.2721 16.1013 30.3454 16.0333 30.4388 15.988C30.5321 15.9427 30.6441 15.92 30.7748 15.92H30.9348C30.9614 15.92 30.9828 15.9293 30.9988 15.948C31.0148 15.964 31.0228 15.9853 31.0228 16.012V16.176C31.0228 16.2027 31.0148 16.224 30.9988 16.24C30.9828 16.256 30.9614 16.264 30.9348 16.264H30.6948C30.5508 16.264 30.4374 16.3067 30.3548 16.392C30.2721 16.4747 30.2308 16.588 30.2308 16.732V17.908C30.2308 17.9347 30.2214 17.9573 30.2028 17.976C30.1841 17.992 30.1614 18 30.1348 18H29.9388ZM32.1783 18C32.029 18 31.9076 17.972 31.8143 17.916C31.721 17.8573 31.653 17.776 31.6103 17.672C31.5676 17.5653 31.5463 17.44 31.5463 17.296V16.24H31.2343C31.2076 16.24 31.185 16.232 31.1663 16.216C31.1503 16.1973 31.1423 16.1747 31.1423 16.148V16.012C31.1423 15.9853 31.1503 15.964 31.1663 15.948C31.185 15.9293 31.2076 15.92 31.2343 15.92H31.5463V15.252C31.5463 15.2253 31.5543 15.204 31.5703 15.188C31.589 15.1693 31.6116 15.16 31.6383 15.16H31.8263C31.853 15.16 31.8743 15.1693 31.8903 15.188C31.909 15.204 31.9183 15.2253 31.9183 15.252V15.92H32.4143C32.441 15.92 32.4623 15.9293 32.4783 15.948C32.497 15.964 32.5063 15.9853 32.5063 16.012V16.148C32.5063 16.1747 32.497 16.1973 32.4783 16.216C32.4623 16.232 32.441 16.24 32.4143 16.24H31.9183V17.268C31.9183 17.3933 31.9396 17.492 31.9823 17.564C32.025 17.636 32.101 17.672 32.2103 17.672H32.4543C32.481 17.672 32.5023 17.6813 32.5183 17.7C32.537 17.716 32.5463 17.7373 32.5463 17.764V17.908C32.5463 17.9347 32.537 17.9573 32.5183 17.976C32.5023 17.992 32.481 18 32.4543 18H32.1783ZM33.5088 18.04C33.3755 18.04 33.2541 18.0133 33.1448 17.96C33.0355 17.9067 32.9475 17.8347 32.8808 17.744C32.8141 17.6533 32.7808 17.5507 32.7808 17.436C32.7808 17.252 32.8555 17.1053 33.0048 16.996C33.1541 16.8867 33.3488 16.8147 33.5888 16.78L34.1848 16.696V16.58C34.1848 16.452 34.1475 16.352 34.0728 16.28C34.0008 16.208 33.8821 16.172 33.7168 16.172C33.5968 16.172 33.4995 16.196 33.4248 16.244C33.3528 16.292 33.3021 16.3533 33.2728 16.428C33.2568 16.468 33.2288 16.488 33.1888 16.488H33.0088C32.9795 16.488 32.9568 16.48 32.9408 16.464C32.9275 16.4453 32.9208 16.424 32.9208 16.4C32.9208 16.36 32.9355 16.3107 32.9648 16.252C32.9968 16.1933 33.0448 16.136 33.1088 16.08C33.1728 16.024 33.2541 15.9773 33.3528 15.94C33.4541 15.9 33.5768 15.88 33.7208 15.88C33.8808 15.88 34.0155 15.9013 34.1248 15.944C34.2341 15.984 34.3195 16.0387 34.3808 16.108C34.4448 16.1773 34.4901 16.256 34.5168 16.344C34.5461 16.432 34.5608 16.5213 34.5608 16.612V17.908C34.5608 17.9347 34.5515 17.9573 34.5328 17.976C34.5168 17.992 34.4955 18 34.4688 18H34.2848C34.2555 18 34.2328 17.992 34.2168 17.976C34.2008 17.9573 34.1928 17.9347 34.1928 17.908V17.736C34.1581 17.784 34.1115 17.832 34.0528 17.88C33.9941 17.9253 33.9208 17.964 33.8328 17.996C33.7448 18.0253 33.6368 18.04 33.5088 18.04ZM33.5928 17.74C33.7021 17.74 33.8021 17.7173 33.8928 17.672C33.9835 17.624 34.0541 17.5507 34.1048 17.452C34.1581 17.3533 34.1848 17.2293 34.1848 17.08V16.968L33.7208 17.036C33.5315 17.0627 33.3888 17.108 33.2928 17.172C33.1968 17.2333 33.1488 17.312 33.1488 17.408C33.1488 17.4827 33.1701 17.5453 33.2128 17.596C33.2581 17.644 33.3141 17.68 33.3808 17.704C33.4501 17.728 33.5208 17.74 33.5928 17.74ZM35.2278 18C35.2012 18 35.1785 17.992 35.1598 17.976C35.1438 17.9573 35.1358 17.9347 35.1358 17.908V16.012C35.1358 15.9853 35.1438 15.964 35.1598 15.948C35.1785 15.9293 35.2012 15.92 35.2278 15.92H35.4198C35.4465 15.92 35.4678 15.9293 35.4838 15.948C35.4998 15.964 35.5078 15.9853 35.5078 16.012V17.908C35.5078 17.9347 35.4998 17.9573 35.4838 17.976C35.4678 17.992 35.4465 18 35.4198 18H35.2278ZM35.1958 15.532C35.1692 15.532 35.1465 15.524 35.1278 15.508C35.1118 15.4893 35.1038 15.4667 35.1038 15.44V15.224C35.1038 15.1973 35.1118 15.176 35.1278 15.16C35.1465 15.1413 35.1692 15.132 35.1958 15.132H35.4478C35.4745 15.132 35.4958 15.1413 35.5118 15.16C35.5305 15.176 35.5398 15.1973 35.5398 15.224V15.44C35.5398 15.4667 35.5305 15.4893 35.5118 15.508C35.4958 15.524 35.4745 15.532 35.4478 15.532H35.1958ZM36.2006 18C36.1739 18 36.1513 17.992 36.1326 17.976C36.1166 17.9573 36.1086 17.9347 36.1086 17.908V15.252C36.1086 15.2253 36.1166 15.204 36.1326 15.188C36.1513 15.1693 36.1739 15.16 36.2006 15.16H36.3886C36.4179 15.16 36.4406 15.1693 36.4566 15.188C36.4726 15.204 36.4806 15.2253 36.4806 15.252V17.908C36.4806 17.9347 36.4726 17.9573 36.4566 17.976C36.4406 17.992 36.4179 18 36.3886 18H36.2006ZM37.1413 18C37.1146 18 37.0919 17.992 37.0733 17.976C37.0573 17.9573 37.0493 17.9347 37.0493 17.908V17.62C37.0493 17.5933 37.0573 17.572 37.0733 17.556C37.0919 17.5373 37.1146 17.528 37.1413 17.528H37.4293C37.4559 17.528 37.4773 17.5373 37.4933 17.556C37.5119 17.572 37.5213 17.5933 37.5213 17.62V17.908C37.5213 17.9347 37.5119 17.9573 37.4933 17.976C37.4773 17.992 37.4559 18 37.4293 18H37.1413ZM38.1771 18C38.1504 18 38.1277 17.992 38.1091 17.976C38.0931 17.9573 38.0851 17.9347 38.0851 17.908V16.012C38.0851 15.9853 38.0931 15.964 38.1091 15.948C38.1277 15.9293 38.1504 15.92 38.1771 15.92H38.3691C38.3957 15.92 38.4171 15.9293 38.4331 15.948C38.4491 15.964 38.4571 15.9853 38.4571 16.012V17.908C38.4571 17.9347 38.4491 17.9573 38.4331 17.976C38.4171 17.992 38.3957 18 38.3691 18H38.1771ZM38.1451 15.532C38.1184 15.532 38.0957 15.524 38.0771 15.508C38.0611 15.4893 38.0531 15.4667 38.0531 15.44V15.224C38.0531 15.1973 38.0611 15.176 38.0771 15.16C38.0957 15.1413 38.1184 15.132 38.1451 15.132H38.3971C38.4237 15.132 38.4451 15.1413 38.4611 15.16C38.4797 15.176 38.4891 15.1973 38.4891 15.224V15.44C38.4891 15.4667 38.4797 15.4893 38.4611 15.508C38.4451 15.524 38.4237 15.532 38.3971 15.532H38.1451ZM39.1258 16.968C39.0991 16.968 39.0765 16.96 39.0578 16.944C39.0418 16.9253 39.0338 16.9027 39.0338 16.876V16.724C39.0338 16.6973 39.0418 16.676 39.0578 16.66C39.0765 16.6413 39.0991 16.632 39.1258 16.632H40.3258C40.3525 16.632 40.3738 16.6413 40.3898 16.66C40.4085 16.676 40.4178 16.6973 40.4178 16.724V16.876C40.4178 16.9027 40.4085 16.9253 40.3898 16.944C40.3738 16.96 40.3525 16.968 40.3258 16.968H39.1258ZM41.0833 18C41.0566 18 41.034 17.992 41.0153 17.976C40.9993 17.9573 40.9913 17.9347 40.9913 17.908V16.012C40.9913 15.9853 40.9993 15.964 41.0153 15.948C41.034 15.9293 41.0566 15.92 41.0833 15.92H41.2633C41.29 15.92 41.3113 15.9293 41.3273 15.948C41.346 15.964 41.3553 15.9853 41.3553 16.012V16.152C41.4166 16.0693 41.494 16.004 41.5873 15.956C41.6806 15.9053 41.7926 15.88 41.9233 15.88C42.2246 15.8773 42.438 16 42.5633 16.248C42.6246 16.136 42.714 16.0467 42.8313 15.98C42.9486 15.9133 43.082 15.88 43.2313 15.88C43.37 15.88 43.4953 15.912 43.6073 15.976C43.722 16.04 43.8113 16.1373 43.8753 16.268C43.942 16.396 43.9753 16.5573 43.9753 16.752V17.908C43.9753 17.9347 43.966 17.9573 43.9473 17.976C43.9313 17.992 43.91 18 43.8833 18H43.6953C43.6686 18 43.646 17.992 43.6273 17.976C43.6113 17.9573 43.6033 17.9347 43.6033 17.908V16.788C43.6033 16.6387 43.582 16.5213 43.5393 16.436C43.4966 16.3507 43.4393 16.2907 43.3673 16.256C43.2953 16.2213 43.2166 16.204 43.1313 16.204C43.062 16.204 42.9913 16.2213 42.9193 16.256C42.8473 16.2907 42.7873 16.3507 42.7393 16.436C42.694 16.5213 42.6713 16.6387 42.6713 16.788V17.908C42.6713 17.9347 42.662 17.9573 42.6433 17.976C42.6273 17.992 42.606 18 42.5793 18H42.3913C42.3646 18 42.342 17.992 42.3233 17.976C42.3073 17.9573 42.2993 17.9347 42.2993 17.908V16.788C42.2993 16.6387 42.2766 16.5213 42.2313 16.436C42.186 16.3507 42.1273 16.2907 42.0553 16.256C41.9833 16.2213 41.9073 16.204 41.8273 16.204C41.758 16.204 41.6873 16.2213 41.6153 16.256C41.5433 16.2907 41.4833 16.3507 41.4353 16.436C41.39 16.5213 41.3673 16.6373 41.3673 16.784V17.908C41.3673 17.9347 41.358 17.9573 41.3393 17.976C41.3233 17.992 41.302 18 41.2753 18H41.0833ZM44.638 18C44.6113 18 44.5887 17.992 44.57 17.976C44.554 17.9573 44.546 17.9347 44.546 17.908V16.012C44.546 15.9853 44.554 15.964 44.57 15.948C44.5887 15.9293 44.6113 15.92 44.638 15.92H44.83C44.8567 15.92 44.878 15.9293 44.894 15.948C44.91 15.964 44.918 15.9853 44.918 16.012V17.908C44.918 17.9347 44.91 17.9573 44.894 17.976C44.878 17.992 44.8567 18 44.83 18H44.638ZM44.606 15.532C44.5793 15.532 44.5567 15.524 44.538 15.508C44.522 15.4893 44.514 15.4667 44.514 15.44V15.224C44.514 15.1973 44.522 15.176 44.538 15.16C44.5567 15.1413 44.5793 15.132 44.606 15.132H44.858C44.8847 15.132 44.906 15.1413 44.922 15.16C44.9407 15.176 44.95 15.1973 44.95 15.224V15.44C44.95 15.4667 44.9407 15.4893 44.922 15.508C44.906 15.524 44.8847 15.532 44.858 15.532H44.606ZM45.6108 18C45.5841 18 45.5614 17.992 45.5428 17.976C45.5268 17.9573 45.5188 17.9347 45.5188 17.908V15.252C45.5188 15.2253 45.5268 15.204 45.5428 15.188C45.5614 15.1693 45.5841 15.16 45.6108 15.16H45.7988C45.8281 15.16 45.8508 15.1693 45.8668 15.188C45.8828 15.204 45.8908 15.2253 45.8908 15.252V17.908C45.8908 17.9347 45.8828 17.9573 45.8668 17.976C45.8508 17.992 45.8281 18 45.7988 18H45.6108ZM47.3394 18.04C47.1367 18.04 46.9674 18.0013 46.8314 17.924C46.6954 17.8467 46.5914 17.74 46.5194 17.604C46.4474 17.4653 46.4074 17.308 46.3994 17.132C46.3967 17.0867 46.3954 17.0293 46.3954 16.96C46.3954 16.888 46.3967 16.8307 46.3994 16.788C46.4074 16.6093 46.4474 16.452 46.5194 16.316C46.5941 16.18 46.6994 16.0733 46.8354 15.996C46.9714 15.9187 47.1394 15.88 47.3394 15.88C47.5394 15.88 47.7074 15.9187 47.8434 15.996C47.9794 16.0733 48.0834 16.18 48.1554 16.316C48.2301 16.452 48.2714 16.6093 48.2794 16.788C48.2821 16.8307 48.2834 16.888 48.2834 16.96C48.2834 17.0293 48.2821 17.0867 48.2794 17.132C48.2714 17.308 48.2314 17.4653 48.1594 17.604C48.0874 17.74 47.9834 17.8467 47.8474 17.924C47.7114 18.0013 47.5421 18.04 47.3394 18.04ZM47.3394 17.732C47.5047 17.732 47.6367 17.68 47.7354 17.576C47.8341 17.4693 47.8874 17.3147 47.8954 17.112C47.8981 17.072 47.8994 17.0213 47.8994 16.96C47.8994 16.8987 47.8981 16.848 47.8954 16.808C47.8874 16.6053 47.8341 16.452 47.7354 16.348C47.6367 16.2413 47.5047 16.188 47.3394 16.188C47.1741 16.188 47.0407 16.2413 46.9394 16.348C46.8407 16.452 46.7887 16.6053 46.7834 16.808C46.7807 16.848 46.7794 16.8987 46.7794 16.96C46.7794 17.0213 46.7807 17.072 46.7834 17.112C46.7887 17.3147 46.8407 17.4693 46.9394 17.576C47.0407 17.68 47.1741 17.732 47.3394 17.732ZM48.8092 18C48.7826 18 48.7599 17.992 48.7412 17.976C48.7252 17.9573 48.7172 17.9347 48.7172 17.908V17.62C48.7172 17.5933 48.7252 17.572 48.7412 17.556C48.7599 17.5373 48.7826 17.528 48.8092 17.528H49.0972C49.1239 17.528 49.1452 17.5373 49.1612 17.556C49.1799 17.572 49.1892 17.5933 49.1892 17.62V17.908C49.1892 17.9347 49.1799 17.9573 49.1612 17.976C49.1452 17.992 49.1239 18 49.0972 18H48.8092ZM49.9554 18C49.9287 18 49.906 17.992 49.8874 17.976C49.8714 17.9573 49.8634 17.9347 49.8634 17.908V16.24H49.5234C49.4967 16.24 49.474 16.232 49.4554 16.216C49.4394 16.1973 49.4314 16.1747 49.4314 16.148V16.012C49.4314 15.9853 49.4394 15.964 49.4554 15.948C49.474 15.9293 49.4967 15.92 49.5234 15.92H49.8634V15.72C49.8634 15.584 49.886 15.4653 49.9314 15.364C49.9767 15.26 50.0487 15.18 50.1474 15.124C50.2487 15.068 50.3834 15.04 50.5514 15.04H50.7914C50.818 15.04 50.8394 15.0493 50.8554 15.068C50.8714 15.084 50.8794 15.1053 50.8794 15.132V15.268C50.8794 15.2947 50.8714 15.3173 50.8554 15.336C50.8394 15.352 50.818 15.36 50.7914 15.36H50.5594C50.434 15.36 50.3487 15.3933 50.3034 15.46C50.258 15.524 50.2354 15.6173 50.2354 15.74V15.92H50.7514C50.778 15.92 50.7994 15.9293 50.8154 15.948C50.8314 15.964 50.8394 15.9853 50.8394 16.012V16.148C50.8394 16.1747 50.8314 16.1973 50.8154 16.216C50.7994 16.232 50.778 16.24 50.7514 16.24H50.2354V17.908C50.2354 17.9347 50.226 17.9573 50.2074 17.976C50.1914 17.992 50.17 18 50.1434 18H49.9554ZM51.2864 18C51.2598 18 51.2371 17.992 51.2184 17.976C51.2024 17.9573 51.1944 17.9347 51.1944 17.908V16.016C51.1944 15.9893 51.2024 15.9667 51.2184 15.948C51.2371 15.9293 51.2598 15.92 51.2864 15.92H51.4704C51.4971 15.92 51.5198 15.9293 51.5384 15.948C51.5571 15.9667 51.5664 15.9893 51.5664 16.016V16.192C51.6198 16.1013 51.6931 16.0333 51.7864 15.988C51.8798 15.9427 51.9918 15.92 52.1224 15.92H52.2824C52.3091 15.92 52.3304 15.9293 52.3464 15.948C52.3624 15.964 52.3704 15.9853 52.3704 16.012V16.176C52.3704 16.2027 52.3624 16.224 52.3464 16.24C52.3304 16.256 52.3091 16.264 52.2824 16.264H52.0424C51.8984 16.264 51.7851 16.3067 51.7024 16.392C51.6198 16.4747 51.5784 16.588 51.5784 16.732V17.908C51.5784 17.9347 51.5691 17.9573 51.5504 17.976C51.5318 17.992 51.5091 18 51.4824 18H51.2864ZM52.4145 18.336C52.3931 18.336 52.3745 18.328 52.3585 18.312C52.3425 18.296 52.3345 18.2773 52.3345 18.256C52.3345 18.2427 52.3385 18.2267 52.3465 18.208L53.7145 14.928C53.7225 14.912 53.7331 14.896 53.7465 14.88C53.7625 14.864 53.7865 14.856 53.8185 14.856H53.9745C53.9958 14.856 54.0145 14.864 54.0305 14.88C54.0465 14.896 54.0545 14.9147 54.0545 14.936C54.0545 14.9467 54.0518 14.9627 54.0465 14.984L52.6745 18.264C52.6691 18.2773 52.6571 18.292 52.6385 18.308C52.6225 18.3267 52.5998 18.336 52.5705 18.336H52.4145ZM55.013 18.04C54.8664 18.04 54.7397 18.0147 54.633 17.964C54.5264 17.9107 54.4384 17.84 54.369 17.752C54.3024 17.6613 54.2517 17.5587 54.217 17.444C54.185 17.3293 54.1664 17.208 54.161 17.08C54.1584 17.0373 54.157 16.9973 54.157 16.96C54.157 16.9227 54.1584 16.8827 54.161 16.84C54.1664 16.7147 54.185 16.5947 54.217 16.48C54.2517 16.3653 54.3024 16.2627 54.369 16.172C54.4384 16.0813 54.5264 16.0107 54.633 15.96C54.7397 15.9067 54.8664 15.88 55.013 15.88C55.1704 15.88 55.301 15.908 55.405 15.964C55.509 16.02 55.5944 16.0893 55.661 16.172V15.252C55.661 15.2253 55.669 15.204 55.685 15.188C55.7037 15.1693 55.7264 15.16 55.753 15.16H55.945C55.9717 15.16 55.993 15.1693 56.009 15.188C56.0277 15.204 56.037 15.2253 56.037 15.252V17.908C56.037 17.9347 56.0277 17.9573 56.009 17.976C55.993 17.992 55.9717 18 55.945 18H55.765C55.7357 18 55.713 17.992 55.697 17.976C55.681 17.9573 55.673 17.9347 55.673 17.908V17.74C55.6064 17.8253 55.5197 17.8973 55.413 17.956C55.3064 18.012 55.173 18.04 55.013 18.04ZM55.097 17.716C55.2304 17.716 55.337 17.6853 55.417 17.624C55.497 17.5627 55.557 17.4853 55.597 17.392C55.637 17.296 55.6584 17.1987 55.661 17.1C55.6637 17.0573 55.665 17.0067 55.665 16.948C55.665 16.8867 55.6637 16.8347 55.661 16.792C55.6584 16.6987 55.6357 16.6067 55.593 16.516C55.553 16.4253 55.4917 16.3507 55.409 16.292C55.329 16.2333 55.225 16.204 55.097 16.204C54.961 16.204 54.853 16.2347 54.773 16.296C54.693 16.3547 54.6357 16.4333 54.601 16.532C54.5664 16.628 54.5464 16.732 54.541 16.844C54.5384 16.9213 54.5384 16.9987 54.541 17.076C54.5464 17.188 54.5664 17.2933 54.601 17.392C54.6357 17.488 54.693 17.5667 54.773 17.628C54.853 17.6867 54.961 17.716 55.097 17.716ZM57.4839 18.04C57.2813 18.04 57.1119 18.0013 56.9759 17.924C56.8399 17.8467 56.7359 17.74 56.6639 17.604C56.5919 17.4653 56.5519 17.308 56.5439 17.132C56.5413 17.0867 56.5399 17.0293 56.5399 16.96C56.5399 16.888 56.5413 16.8307 56.5439 16.788C56.5519 16.6093 56.5919 16.452 56.6639 16.316C56.7386 16.18 56.8439 16.0733 56.9799 15.996C57.1159 15.9187 57.2839 15.88 57.4839 15.88C57.6839 15.88 57.8519 15.9187 57.9879 15.996C58.1239 16.0733 58.2279 16.18 58.2999 16.316C58.3746 16.452 58.4159 16.6093 58.4239 16.788C58.4266 16.8307 58.4279 16.888 58.4279 16.96C58.4279 17.0293 58.4266 17.0867 58.4239 17.132C58.4159 17.308 58.3759 17.4653 58.3039 17.604C58.2319 17.74 58.1279 17.8467 57.9919 17.924C57.8559 18.0013 57.6866 18.04 57.4839 18.04ZM57.4839 17.732C57.6493 17.732 57.7813 17.68 57.8799 17.576C57.9786 17.4693 58.0319 17.3147 58.0399 17.112C58.0426 17.072 58.0439 17.0213 58.0439 16.96C58.0439 16.8987 58.0426 16.848 58.0399 16.808C58.0319 16.6053 57.9786 16.452 57.8799 16.348C57.7813 16.2413 57.6493 16.188 57.4839 16.188C57.3186 16.188 57.1853 16.2413 57.0839 16.348C56.9853 16.452 56.9333 16.6053 56.9279 16.808C56.9253 16.848 56.9239 16.8987 56.9239 16.96C56.9239 17.0213 56.9253 17.072 56.9279 17.112C56.9333 17.3147 56.9853 17.4693 57.0839 17.576C57.1853 17.68 57.3186 17.732 57.4839 17.732ZM59.6488 18.04C59.4995 18.04 59.3715 18.0213 59.2648 17.984C59.1581 17.9467 59.0715 17.9013 59.0048 17.848C58.9381 17.7947 58.8875 17.7413 58.8528 17.688C58.8208 17.6347 58.8035 17.592 58.8008 17.56C58.7981 17.5307 58.8075 17.508 58.8288 17.492C58.8501 17.476 58.8715 17.468 58.8928 17.468H59.0688C59.0848 17.468 59.0968 17.4707 59.1048 17.476C59.1155 17.4787 59.1288 17.4893 59.1448 17.508C59.1795 17.5453 59.2181 17.5827 59.2608 17.62C59.3035 17.6573 59.3555 17.688 59.4168 17.712C59.4808 17.736 59.5595 17.748 59.6528 17.748C59.7888 17.748 59.9008 17.7227 59.9888 17.672C60.0768 17.6187 60.1208 17.5413 60.1208 17.44C60.1208 17.3733 60.1021 17.32 60.0648 17.28C60.0301 17.24 59.9661 17.204 59.8728 17.172C59.7821 17.14 59.6568 17.1067 59.4968 17.072C59.3368 17.0347 59.2101 16.9893 59.1168 16.936C59.0235 16.88 58.9568 16.8147 58.9168 16.74C58.8768 16.6627 58.8568 16.576 58.8568 16.48C58.8568 16.3813 58.8861 16.2867 58.9448 16.196C59.0035 16.1027 59.0888 16.0267 59.2008 15.968C59.3155 15.9093 59.4581 15.88 59.6288 15.88C59.7675 15.88 59.8861 15.8973 59.9848 15.932C60.0835 15.9667 60.1648 16.0107 60.2288 16.064C60.2928 16.1147 60.3408 16.1653 60.3728 16.216C60.4048 16.2667 60.4221 16.3093 60.4248 16.344C60.4275 16.3707 60.4195 16.3933 60.4008 16.412C60.3821 16.428 60.3608 16.436 60.3368 16.436H60.1688C60.1501 16.436 60.1341 16.432 60.1208 16.424C60.1101 16.416 60.0995 16.4067 60.0888 16.396C60.0621 16.3613 60.0301 16.3267 59.9928 16.292C59.9581 16.2573 59.9115 16.2293 59.8528 16.208C59.7968 16.184 59.7221 16.172 59.6288 16.172C59.4955 16.172 59.3955 16.2 59.3288 16.256C59.2621 16.312 59.2288 16.3827 59.2288 16.468C59.2288 16.5187 59.2435 16.564 59.2728 16.604C59.3021 16.644 59.3581 16.68 59.4408 16.712C59.5235 16.744 59.6461 16.7787 59.8088 16.816C59.9848 16.8507 60.1235 16.8973 60.2248 16.956C60.3261 17.0147 60.3981 17.0827 60.4408 17.16C60.4835 17.2373 60.5048 17.3267 60.5048 17.428C60.5048 17.54 60.4715 17.6427 60.4048 17.736C60.3408 17.8293 60.2448 17.904 60.1168 17.96C59.9915 18.0133 59.8355 18.04 59.6488 18.04ZM61.6879 18.04C61.5385 18.04 61.4105 18.0213 61.3039 17.984C61.1972 17.9467 61.1105 17.9013 61.0439 17.848C60.9772 17.7947 60.9265 17.7413 60.8919 17.688C60.8599 17.6347 60.8425 17.592 60.8399 17.56C60.8372 17.5307 60.8465 17.508 60.8679 17.492C60.8892 17.476 60.9105 17.468 60.9319 17.468H61.1079C61.1239 17.468 61.1359 17.4707 61.1439 17.476C61.1545 17.4787 61.1679 17.4893 61.1839 17.508C61.2185 17.5453 61.2572 17.5827 61.2999 17.62C61.3425 17.6573 61.3945 17.688 61.4559 17.712C61.5199 17.736 61.5985 17.748 61.6919 17.748C61.8279 17.748 61.9399 17.7227 62.0279 17.672C62.1159 17.6187 62.1599 17.5413 62.1599 17.44C62.1599 17.3733 62.1412 17.32 62.1039 17.28C62.0692 17.24 62.0052 17.204 61.9119 17.172C61.8212 17.14 61.6959 17.1067 61.5359 17.072C61.3759 17.0347 61.2492 16.9893 61.1559 16.936C61.0625 16.88 60.9959 16.8147 60.9559 16.74C60.9159 16.6627 60.8959 16.576 60.8959 16.48C60.8959 16.3813 60.9252 16.2867 60.9839 16.196C61.0425 16.1027 61.1279 16.0267 61.2399 15.968C61.3545 15.9093 61.4972 15.88 61.6679 15.88C61.8065 15.88 61.9252 15.8973 62.0239 15.932C62.1225 15.9667 62.2039 16.0107 62.2679 16.064C62.3319 16.1147 62.3799 16.1653 62.4119 16.216C62.4439 16.2667 62.4612 16.3093 62.4639 16.344C62.4665 16.3707 62.4585 16.3933 62.4399 16.412C62.4212 16.428 62.3999 16.436 62.3759 16.436H62.2079C62.1892 16.436 62.1732 16.432 62.1599 16.424C62.1492 16.416 62.1385 16.4067 62.1279 16.396C62.1012 16.3613 62.0692 16.3267 62.0319 16.292C61.9972 16.2573 61.9505 16.2293 61.8919 16.208C61.8359 16.184 61.7612 16.172 61.6679 16.172C61.5345 16.172 61.4345 16.2 61.3679 16.256C61.3012 16.312 61.2679 16.3827 61.2679 16.468C61.2679 16.5187 61.2825 16.564 61.3119 16.604C61.3412 16.644 61.3972 16.68 61.4799 16.712C61.5625 16.744 61.6852 16.7787 61.8479 16.816C62.0239 16.8507 62.1625 16.8973 62.2639 16.956C62.3652 17.0147 62.4372 17.0827 62.4799 17.16C62.5225 17.2373 62.5439 17.3267 62.5439 17.428C62.5439 17.54 62.5105 17.6427 62.4439 17.736C62.3799 17.8293 62.2839 17.904 62.1559 17.96C62.0305 18.0133 61.8745 18.04 61.6879 18.04ZM63.0989 18C63.0723 18 63.0496 17.992 63.0309 17.976C63.0149 17.9573 63.0069 17.9347 63.0069 17.908V16.012C63.0069 15.9853 63.0149 15.964 63.0309 15.948C63.0496 15.9293 63.0723 15.92 63.0989 15.92H63.2909C63.3176 15.92 63.3389 15.9293 63.3549 15.948C63.3709 15.964 63.3789 15.9853 63.3789 16.012V17.908C63.3789 17.9347 63.3709 17.9573 63.3549 17.976C63.3389 17.992 63.3176 18 63.2909 18H63.0989ZM63.0669 15.532C63.0403 15.532 63.0176 15.524 62.9989 15.508C62.9829 15.4893 62.9749 15.4667 62.9749 15.44V15.224C62.9749 15.1973 62.9829 15.176 62.9989 15.16C63.0176 15.1413 63.0403 15.132 63.0669 15.132H63.3189C63.3456 15.132 63.3669 15.1413 63.3829 15.16C63.4016 15.176 63.4109 15.1973 63.4109 15.224V15.44C63.4109 15.4667 63.4016 15.4893 63.3829 15.508C63.3669 15.524 63.3456 15.532 63.3189 15.532H63.0669ZM64.8115 18.04C64.5368 18.04 64.3182 17.956 64.1555 17.788C63.9928 17.6173 63.9035 17.3853 63.8875 17.092C63.8848 17.0573 63.8835 17.0133 63.8835 16.96C63.8835 16.904 63.8848 16.8587 63.8875 16.824C63.8982 16.6347 63.9422 16.4693 64.0195 16.328C64.0968 16.184 64.2022 16.0733 64.3355 15.996C64.4715 15.9187 64.6302 15.88 64.8115 15.88C65.0142 15.88 65.1835 15.9227 65.3195 16.008C65.4582 16.0933 65.5635 16.2147 65.6355 16.372C65.7075 16.5293 65.7435 16.7133 65.7435 16.924V16.992C65.7435 17.0213 65.7342 17.044 65.7155 17.06C65.6995 17.076 65.6782 17.084 65.6515 17.084H64.2675C64.2675 17.0867 64.2675 17.092 64.2675 17.1C64.2675 17.108 64.2675 17.1147 64.2675 17.12C64.2728 17.2293 64.2968 17.332 64.3395 17.428C64.3822 17.5213 64.4435 17.5973 64.5235 17.656C64.6035 17.7147 64.6995 17.744 64.8115 17.744C64.9075 17.744 64.9875 17.7293 65.0515 17.7C65.1155 17.6707 65.1675 17.6387 65.2075 17.604C65.2475 17.5667 65.2742 17.5387 65.2875 17.52C65.3115 17.4853 65.3302 17.4653 65.3435 17.46C65.3568 17.452 65.3782 17.448 65.4075 17.448H65.5995C65.6262 17.448 65.6475 17.456 65.6635 17.472C65.6822 17.4853 65.6902 17.5053 65.6875 17.532C65.6848 17.572 65.6635 17.6213 65.6235 17.68C65.5835 17.736 65.5262 17.792 65.4515 17.848C65.3768 17.904 65.2862 17.9507 65.1795 17.988C65.0728 18.0227 64.9502 18.04 64.8115 18.04ZM64.2675 16.808H65.3635V16.796C65.3635 16.676 65.3408 16.5693 65.2955 16.476C65.2528 16.3827 65.1902 16.3093 65.1075 16.256C65.0248 16.2 64.9262 16.172 64.8115 16.172C64.6968 16.172 64.5982 16.2 64.5155 16.256C64.4355 16.3093 64.3742 16.3827 64.3315 16.476C64.2888 16.5693 64.2675 16.676 64.2675 16.796V16.808ZM66.3138 18C66.2871 18 66.2644 17.992 66.2458 17.976C66.2298 17.9573 66.2218 17.9347 66.2218 17.908V16.016C66.2218 15.9893 66.2298 15.9667 66.2458 15.948C66.2644 15.9293 66.2871 15.92 66.3138 15.92H66.4978C66.5244 15.92 66.5471 15.9293 66.5658 15.948C66.5844 15.9667 66.5938 15.9893 66.5938 16.016V16.192C66.6471 16.1013 66.7204 16.0333 66.8138 15.988C66.9071 15.9427 67.0191 15.92 67.1498 15.92H67.3098C67.3364 15.92 67.3578 15.9293 67.3738 15.948C67.3898 15.964 67.3978 15.9853 67.3978 16.012V16.176C67.3978 16.2027 67.3898 16.224 67.3738 16.24C67.3578 16.256 67.3364 16.264 67.3098 16.264H67.0698C66.9258 16.264 66.8124 16.3067 66.7298 16.392C66.6471 16.4747 66.6058 16.588 66.6058 16.732V17.908C66.6058 17.9347 66.5964 17.9573 66.5778 17.976C66.5591 17.992 66.5364 18 66.5098 18H66.3138ZM67.4418 18.336C67.4205 18.336 67.4018 18.328 67.3858 18.312C67.3698 18.296 67.3618 18.2773 67.3618 18.256C67.3618 18.2427 67.3658 18.2267 67.3738 18.208L68.7418 14.928C68.7498 14.912 68.7605 14.896 68.7738 14.88C68.7898 14.864 68.8138 14.856 68.8458 14.856H69.0018C69.0231 14.856 69.0418 14.864 69.0578 14.88C69.0738 14.896 69.0818 14.9147 69.0818 14.936C69.0818 14.9467 69.0791 14.9627 69.0738 14.984L67.7018 18.264C67.6965 18.2773 67.6845 18.292 67.6658 18.308C67.6498 18.3267 67.6271 18.336 67.5978 18.336H67.4418ZM70.272 18C70.2453 18 70.2226 17.992 70.204 17.976C70.188 17.9573 70.18 17.9347 70.18 17.908V15.668L69.516 16.18C69.4946 16.196 69.472 16.2027 69.448 16.2C69.424 16.1973 69.404 16.1853 69.388 16.164L69.284 16.032C69.268 16.008 69.2613 15.984 69.264 15.96C69.2693 15.936 69.2826 15.916 69.304 15.9L70.176 15.228C70.1946 15.2147 70.212 15.2067 70.228 15.204C70.244 15.2013 70.2613 15.2 70.28 15.2H70.484C70.5106 15.2 70.532 15.2093 70.548 15.228C70.564 15.244 70.572 15.2653 70.572 15.292V17.908C70.572 17.9347 70.564 17.9573 70.548 17.976C70.532 17.992 70.5106 18 70.484 18H70.272ZM71.1669 18C71.1402 18 71.1176 17.992 71.0989 17.976C71.0829 17.9573 71.0749 17.9347 71.0749 17.908V17.78C71.0749 17.756 71.0816 17.7293 71.0949 17.7C71.1082 17.6707 71.1349 17.6387 71.1749 17.604L72.0229 16.756C72.1589 16.6413 72.2656 16.544 72.3429 16.464C72.4229 16.3813 72.4789 16.3027 72.5109 16.228C72.5456 16.1533 72.5629 16.076 72.5629 15.996C72.5629 15.844 72.5202 15.724 72.4349 15.636C72.3496 15.5453 72.2229 15.5 72.0549 15.5C71.9482 15.5 71.8562 15.5227 71.7789 15.568C71.7016 15.6107 71.6402 15.6707 71.5949 15.748C71.5522 15.8227 71.5242 15.908 71.5109 16.004C71.5056 16.0387 71.4909 16.0627 71.4669 16.076C71.4456 16.0893 71.4256 16.096 71.4069 16.096H71.1989C71.1749 16.096 71.1549 16.0893 71.1389 16.076C71.1229 16.06 71.1149 16.0413 71.1149 16.02C71.1176 15.9187 71.1389 15.8173 71.1789 15.716C71.2189 15.612 71.2776 15.5187 71.3549 15.436C71.4349 15.3533 71.5322 15.2867 71.6469 15.236C71.7642 15.1827 71.9002 15.156 72.0549 15.156C72.2656 15.156 72.4376 15.1947 72.5709 15.272C72.7069 15.3467 72.8069 15.4467 72.8709 15.572C72.9349 15.6973 72.9669 15.8347 72.9669 15.984C72.9669 16.1013 72.9469 16.2093 72.9069 16.308C72.8669 16.404 72.8082 16.4987 72.7309 16.592C72.6562 16.6827 72.5629 16.776 72.4509 16.872L71.6829 17.652H72.9309C72.9602 17.652 72.9829 17.66 72.9989 17.676C73.0176 17.692 73.0269 17.7147 73.0269 17.744V17.908C73.0269 17.9347 73.0176 17.9573 72.9989 17.976C72.9829 17.992 72.9602 18 72.9309 18H71.1669ZM74.4186 18.04C74.2506 18.04 74.1039 18.02 73.9786 17.98C73.8532 17.9373 73.7479 17.8813 73.6626 17.812C73.5772 17.7427 73.5119 17.6667 73.4666 17.584C73.4239 17.5013 73.4012 17.416 73.3986 17.328C73.3986 17.304 73.4066 17.2853 73.4226 17.272C73.4386 17.2587 73.4586 17.252 73.4826 17.252H73.6786C73.7026 17.252 73.7239 17.2573 73.7426 17.268C73.7612 17.2787 73.7772 17.3013 73.7906 17.336C73.8172 17.432 73.8626 17.5067 73.9266 17.56C73.9932 17.6133 74.0692 17.6507 74.1546 17.672C74.2426 17.6907 74.3306 17.7 74.4186 17.7C74.6026 17.7 74.7519 17.656 74.8666 17.568C74.9812 17.48 75.0386 17.3507 75.0386 17.18C75.0386 17.0067 74.9866 16.8827 74.8826 16.808C74.7786 16.7333 74.6346 16.696 74.4506 16.696H74.0706C74.0439 16.696 74.0212 16.688 74.0026 16.672C73.9866 16.656 73.9786 16.6333 73.9786 16.604V16.496C73.9786 16.472 73.9826 16.452 73.9906 16.436C74.0012 16.4173 74.0119 16.4013 74.0226 16.388L74.7986 15.54H73.6186C73.5919 15.54 73.5692 15.532 73.5506 15.516C73.5346 15.5 73.5266 15.4773 73.5266 15.448V15.296C73.5266 15.2667 73.5346 15.244 73.5506 15.228C73.5692 15.2093 73.5919 15.2 73.6186 15.2H75.2146C75.2439 15.2 75.2666 15.2093 75.2826 15.228C75.3012 15.244 75.3106 15.2667 75.3106 15.296V15.44C75.3106 15.4587 75.3052 15.476 75.2946 15.492C75.2866 15.5053 75.2772 15.5187 75.2666 15.532L74.4946 16.392L74.5586 16.396C74.7346 16.4013 74.8879 16.4333 75.0186 16.492C75.1519 16.5507 75.2546 16.6387 75.3266 16.756C75.4012 16.8707 75.4386 17.016 75.4386 17.192C75.4386 17.3707 75.3946 17.524 75.3066 17.652C75.2186 17.7773 75.0972 17.8733 74.9426 17.94C74.7879 18.0067 74.6132 18.04 74.4186 18.04ZM77.2329 18C77.2062 18 77.1836 17.992 77.1649 17.976C77.1489 17.9573 77.1409 17.9347 77.1409 17.908V17.332H75.8449C75.8182 17.332 75.7956 17.324 75.7769 17.308C75.7609 17.2893 75.7529 17.2667 75.7529 17.24V17.08C75.7529 17.0693 75.7556 17.0533 75.7609 17.032C75.7689 17.008 75.7809 16.984 75.7969 16.96L76.9969 15.268C77.0289 15.2227 77.0782 15.2 77.1449 15.2H77.4329C77.4596 15.2 77.4809 15.2093 77.4969 15.228C77.5156 15.244 77.5249 15.2653 77.5249 15.292V16.984H77.8849C77.9142 16.984 77.9369 16.9933 77.9529 17.012C77.9716 17.028 77.9809 17.0493 77.9809 17.076V17.24C77.9809 17.2667 77.9716 17.2893 77.9529 17.308C77.9369 17.324 77.9156 17.332 77.8889 17.332H77.5249V17.908C77.5249 17.9347 77.5156 17.9573 77.4969 17.976C77.4809 17.992 77.4596 18 77.4329 18H77.2329ZM76.1809 16.992H77.1449V15.62L76.1809 16.992ZM79.3053 18.04C79.1373 18.04 78.9906 18.02 78.8653 17.98C78.7399 17.9373 78.6346 17.8813 78.5493 17.812C78.4639 17.7427 78.3986 17.6667 78.3533 17.584C78.3106 17.5013 78.2879 17.416 78.2853 17.328C78.2853 17.304 78.2933 17.2853 78.3093 17.272C78.3253 17.2587 78.3453 17.252 78.3693 17.252H78.5653C78.5893 17.252 78.6106 17.2573 78.6293 17.268C78.6479 17.2787 78.6639 17.3013 78.6773 17.336C78.7039 17.432 78.7493 17.5067 78.8133 17.56C78.8799 17.6133 78.9559 17.6507 79.0413 17.672C79.1293 17.6907 79.2173 17.7 79.3053 17.7C79.4893 17.7 79.6386 17.656 79.7533 17.568C79.8679 17.48 79.9253 17.3507 79.9253 17.18C79.9253 17.0067 79.8733 16.8827 79.7693 16.808C79.6653 16.7333 79.5213 16.696 79.3373 16.696H78.9573C78.9306 16.696 78.9079 16.688 78.8893 16.672C78.8733 16.656 78.8653 16.6333 78.8653 16.604V16.496C78.8653 16.472 78.8693 16.452 78.8773 16.436C78.8879 16.4173 78.8986 16.4013 78.9093 16.388L79.6853 15.54H78.5053C78.4786 15.54 78.4559 15.532 78.4373 15.516C78.4213 15.5 78.4133 15.4773 78.4133 15.448V15.296C78.4133 15.2667 78.4213 15.244 78.4373 15.228C78.4559 15.2093 78.4786 15.2 78.5053 15.2H80.1013C80.1306 15.2 80.1533 15.2093 80.1693 15.228C80.1879 15.244 80.1973 15.2667 80.1973 15.296V15.44C80.1973 15.4587 80.1919 15.476 80.1813 15.492C80.1733 15.5053 80.1639 15.5187 80.1533 15.532L79.3813 16.392L79.4453 16.396C79.6213 16.4013 79.7746 16.4333 79.9053 16.492C80.0386 16.5507 80.1413 16.6387 80.2133 16.756C80.2879 16.8707 80.3253 17.016 80.3253 17.192C80.3253 17.3707 80.2813 17.524 80.1933 17.652C80.1053 17.7773 79.9839 17.8733 79.8293 17.94C79.6746 18.0067 79.4999 18.04 79.3053 18.04ZM81.6836 18.04C81.473 18.04 81.2943 18.004 81.1476 17.932C81.0036 17.8573 80.893 17.7613 80.8156 17.644C80.741 17.5267 80.701 17.4027 80.6956 17.272C80.693 17.248 80.6996 17.2293 80.7156 17.216C80.7316 17.2027 80.7516 17.196 80.7756 17.196H80.9916C81.0156 17.196 81.037 17.2013 81.0556 17.212C81.0743 17.2227 81.089 17.2453 81.0996 17.28C81.1263 17.3787 81.169 17.46 81.2276 17.524C81.289 17.5853 81.3583 17.6307 81.4356 17.66C81.5156 17.6867 81.5983 17.7 81.6836 17.7C81.7983 17.7 81.9023 17.6773 81.9956 17.632C82.0916 17.584 82.1676 17.5147 82.2236 17.424C82.2796 17.3307 82.3076 17.2187 82.3076 17.088C82.3076 16.968 82.2796 16.8653 82.2236 16.78C82.1703 16.692 82.0956 16.6253 81.9996 16.58C81.9063 16.532 81.801 16.508 81.6836 16.508C81.5956 16.508 81.5236 16.5187 81.4676 16.54C81.4116 16.5613 81.3636 16.5867 81.3236 16.616C81.2863 16.6453 81.2516 16.6707 81.2196 16.692C81.1903 16.7133 81.157 16.724 81.1196 16.724H80.9116C80.8876 16.724 80.8663 16.716 80.8476 16.7C80.829 16.6813 80.821 16.66 80.8236 16.636L80.9516 15.3C80.9543 15.268 80.9636 15.244 80.9796 15.228C80.9983 15.2093 81.0223 15.2 81.0516 15.2H82.4476C82.4743 15.2 82.4956 15.2093 82.5116 15.228C82.5303 15.244 82.5396 15.2653 82.5396 15.292V15.448C82.5396 15.4773 82.5303 15.5 82.5116 15.516C82.4956 15.532 82.4743 15.54 82.4476 15.54H81.2956L81.2196 16.328C81.257 16.304 81.317 16.276 81.3996 16.244C81.4823 16.2093 81.5956 16.192 81.7396 16.192C81.8703 16.192 81.993 16.212 82.1076 16.252C82.225 16.292 82.329 16.3507 82.4196 16.428C82.5103 16.5053 82.581 16.6 82.6316 16.712C82.6823 16.8213 82.7076 16.948 82.7076 17.092C82.7076 17.2947 82.6623 17.4667 82.5716 17.608C82.4836 17.7493 82.3623 17.8573 82.2076 17.932C82.0556 18.004 81.881 18.04 81.6836 18.04ZM84.1226 18.04C83.9013 18.04 83.7133 17.996 83.5586 17.908C83.404 17.8173 83.2853 17.7 83.2026 17.556C83.1226 17.4093 83.0826 17.2507 83.0826 17.08C83.0826 17 83.092 16.924 83.1106 16.852C83.132 16.7773 83.1573 16.708 83.1866 16.644C83.2186 16.5773 83.2493 16.5187 83.2786 16.468C83.3106 16.4147 83.3386 16.372 83.3626 16.34L84.1226 15.28C84.136 15.2667 84.152 15.2507 84.1706 15.232C84.1893 15.2107 84.2173 15.2 84.2546 15.2H84.4666C84.4906 15.2 84.5093 15.2093 84.5226 15.228C84.5386 15.244 84.5466 15.264 84.5466 15.288C84.5466 15.2987 84.5453 15.3093 84.5426 15.32C84.54 15.328 84.536 15.3347 84.5306 15.34L83.9466 16.156C83.9786 16.1453 84.0146 16.1387 84.0546 16.136C84.0973 16.1307 84.1373 16.128 84.1746 16.128C84.3213 16.1307 84.4546 16.1573 84.5746 16.208C84.6946 16.2587 84.7973 16.328 84.8826 16.416C84.9706 16.5013 85.0373 16.6013 85.0826 16.716C85.128 16.828 85.1506 16.948 85.1506 17.076C85.1506 17.244 85.1106 17.4013 85.0306 17.548C84.9506 17.6947 84.8333 17.8133 84.6786 17.904C84.5266 17.9947 84.3413 18.04 84.1226 18.04ZM84.1186 17.7C84.2306 17.7 84.3346 17.676 84.4306 17.628C84.5266 17.58 84.604 17.5107 84.6626 17.42C84.724 17.3267 84.7546 17.2133 84.7546 17.08C84.7546 16.944 84.7253 16.8307 84.6666 16.74C84.608 16.6467 84.5293 16.5773 84.4306 16.532C84.3346 16.484 84.2306 16.46 84.1186 16.46C84.0066 16.46 83.9026 16.484 83.8066 16.532C83.7106 16.5773 83.632 16.6467 83.5706 16.74C83.512 16.8307 83.4826 16.944 83.4826 17.08C83.4826 17.2133 83.512 17.3267 83.5706 17.42C83.632 17.5107 83.7106 17.58 83.8066 17.628C83.9026 17.676 84.0066 17.7 84.1186 17.7ZM85.4692 18.336C85.4478 18.336 85.4292 18.328 85.4132 18.312C85.3972 18.296 85.3892 18.2773 85.3892 18.256C85.3892 18.2427 85.3932 18.2267 85.4012 18.208L86.7692 14.928C86.7772 14.912 86.7878 14.896 86.8012 14.88C86.8172 14.864 86.8412 14.856 86.8732 14.856H87.0292C87.0505 14.856 87.0692 14.864 87.0852 14.88C87.1012 14.896 87.1092 14.9147 87.1092 14.936C87.1092 14.9467 87.1065 14.9627 87.1012 14.984L85.7292 18.264C85.7238 18.2773 85.7118 18.292 85.6932 18.308C85.6772 18.3267 85.6545 18.336 85.6252 18.336H85.4692ZM88.2993 18C88.2726 18 88.25 17.992 88.2313 17.976C88.2153 17.9573 88.2073 17.9347 88.2073 17.908V15.668L87.5433 16.18C87.522 16.196 87.4993 16.2027 87.4753 16.2C87.4513 16.1973 87.4313 16.1853 87.4153 16.164L87.3113 16.032C87.2953 16.008 87.2886 15.984 87.2913 15.96C87.2966 15.936 87.31 15.916 87.3313 15.9L88.2033 15.228C88.222 15.2147 88.2393 15.2067 88.2553 15.204C88.2713 15.2013 88.2886 15.2 88.3073 15.2H88.5113C88.538 15.2 88.5593 15.2093 88.5753 15.228C88.5913 15.244 88.5993 15.2653 88.5993 15.292V17.908C88.5993 17.9347 88.5913 17.9573 88.5753 17.976C88.5593 17.992 88.538 18 88.5113 18H88.2993ZM90.5103 18C90.4836 18 90.4609 17.992 90.4423 17.976C90.4263 17.9573 90.4183 17.9347 90.4183 17.908V17.332H89.1223C89.0956 17.332 89.0729 17.324 89.0543 17.308C89.0383 17.2893 89.0303 17.2667 89.0303 17.24V17.08C89.0303 17.0693 89.0329 17.0533 89.0382 17.032C89.0463 17.008 89.0583 16.984 89.0743 16.96L90.2743 15.268C90.3063 15.2227 90.3556 15.2 90.4223 15.2H90.7103C90.7369 15.2 90.7583 15.2093 90.7743 15.228C90.7929 15.244 90.8023 15.2653 90.8023 15.292V16.984H91.1623C91.1916 16.984 91.2143 16.9933 91.2303 17.012C91.2489 17.028 91.2582 17.0493 91.2582 17.076V17.24C91.2582 17.2667 91.2489 17.2893 91.2303 17.308C91.2143 17.324 91.1929 17.332 91.1662 17.332H90.8023V17.908C90.8023 17.9347 90.7929 17.9573 90.7743 17.976C90.7583 17.992 90.7369 18 90.7103 18H90.5103ZM89.4583 16.992H90.4223V15.62L89.4583 16.992ZM93.5426 18.26C93.508 18.26 93.48 18.248 93.4586 18.224C93.4373 18.2027 93.42 18.184 93.4066 18.168L93.2426 17.944C93.0986 18.008 92.932 18.04 92.7426 18.04C92.5133 18.04 92.3173 18.0013 92.1546 17.924C91.9946 17.844 91.8693 17.7227 91.7786 17.56C91.6906 17.3947 91.6426 17.188 91.6346 16.94C91.632 16.8227 91.6306 16.7107 91.6306 16.604C91.6306 16.4947 91.632 16.3813 91.6346 16.264C91.6426 16.0187 91.6933 15.8147 91.7866 15.652C91.88 15.4867 92.008 15.364 92.1706 15.284C92.336 15.2013 92.5266 15.16 92.7426 15.16C92.9613 15.16 93.152 15.2013 93.3146 15.284C93.48 15.364 93.6093 15.4867 93.7026 15.652C93.796 15.8147 93.8453 16.0187 93.8506 16.264C93.856 16.3813 93.8586 16.4947 93.8586 16.604C93.8586 16.7107 93.856 16.8227 93.8506 16.94C93.8373 17.308 93.7413 17.5813 93.5626 17.76L93.8266 18.136C93.8293 18.1387 93.832 18.1427 93.8346 18.148C93.8373 18.156 93.8386 18.1667 93.8386 18.18C93.8413 18.2013 93.8346 18.22 93.8186 18.236C93.8026 18.252 93.7826 18.26 93.7586 18.26H93.5426ZM92.7426 17.7C92.9453 17.7 93.112 17.6387 93.2426 17.516C93.3733 17.3933 93.444 17.1947 93.4546 16.92C93.46 16.8 93.4626 16.6933 93.4626 16.6C93.4626 16.504 93.46 16.3973 93.4546 16.28C93.4493 16.096 93.4146 15.9467 93.3506 15.832C93.2893 15.7173 93.2066 15.6333 93.1026 15.58C92.9986 15.5267 92.8786 15.5 92.7426 15.5C92.612 15.5 92.4933 15.5267 92.3866 15.58C92.2826 15.6333 92.2 15.7173 92.1386 15.832C92.0773 15.9467 92.0426 16.096 92.0346 16.28C92.032 16.3973 92.0306 16.504 92.0306 16.6C92.0306 16.6933 92.032 16.8 92.0346 16.92C92.0453 17.1947 92.116 17.3933 92.2466 17.516C92.3773 17.6387 92.5426 17.7 92.7426 17.7ZM94.5377 18C94.5083 18 94.4857 17.992 94.4697 17.976C94.4537 17.9573 94.4457 17.9347 94.4457 17.908V15.296C94.4457 15.2667 94.4537 15.244 94.4697 15.228C94.4857 15.2093 94.5083 15.2 94.5377 15.2H96.1897C96.219 15.2 96.2417 15.2093 96.2577 15.228C96.2737 15.244 96.2817 15.2667 96.2817 15.296V15.448C96.2817 15.4773 96.2737 15.5 96.2577 15.516C96.2417 15.532 96.219 15.54 96.1897 15.54H94.8297V16.416H96.1017C96.131 16.416 96.1537 16.4253 96.1697 16.444C96.1857 16.46 96.1937 16.4827 96.1937 16.512V16.66C96.1937 16.6867 96.1857 16.7093 96.1697 16.728C96.1537 16.744 96.131 16.752 96.1017 16.752H94.8297V17.66H96.2217C96.251 17.66 96.2737 17.668 96.2897 17.684C96.3057 17.7 96.3137 17.7227 96.3137 17.752V17.908C96.3137 17.9347 96.3057 17.9573 96.2897 17.976C96.2737 17.992 96.251 18 96.2217 18H94.5377ZM97.8521 18.04C97.6068 18.04 97.4028 17.9947 97.2401 17.904C97.0801 17.8133 96.9588 17.6867 96.8761 17.524C96.7934 17.3613 96.7481 17.172 96.7401 16.956C96.7374 16.8467 96.7361 16.7293 96.7361 16.604C96.7361 16.4787 96.7374 16.3587 96.7401 16.244C96.7481 16.028 96.7934 15.8387 96.8761 15.676C96.9588 15.5133 97.0801 15.3867 97.2401 15.296C97.4028 15.2053 97.6068 15.16 97.8521 15.16C98.0361 15.16 98.1974 15.1853 98.3361 15.236C98.4748 15.2867 98.5894 15.3547 98.6801 15.44C98.7734 15.5253 98.8441 15.6213 98.8921 15.728C98.9401 15.832 98.9668 15.94 98.9721 16.052C98.9748 16.076 98.9668 16.096 98.9481 16.112C98.9321 16.128 98.9121 16.136 98.8881 16.136H98.6681C98.6441 16.136 98.6228 16.1293 98.6041 16.116C98.5881 16.1027 98.5761 16.0787 98.5681 16.044C98.5228 15.836 98.4374 15.6933 98.3121 15.616C98.1894 15.5387 98.0348 15.5 97.8481 15.5C97.6348 15.5 97.4654 15.5613 97.3401 15.684C97.2148 15.804 97.1468 15.9973 97.1361 16.264C97.1281 16.4827 97.1281 16.7067 97.1361 16.936C97.1468 17.2027 97.2148 17.3973 97.3401 17.52C97.4654 17.64 97.6348 17.7 97.8481 17.7C98.0348 17.7 98.1894 17.6613 98.3121 17.584C98.4374 17.5067 98.5228 17.364 98.5681 17.156C98.5761 17.1213 98.5881 17.0973 98.6041 17.084C98.6228 17.0707 98.6441 17.064 98.6681 17.064H98.8881C98.9121 17.064 98.9321 17.072 98.9481 17.088C98.9668 17.104 98.9748 17.124 98.9721 17.148C98.9668 17.26 98.9401 17.3693 98.8921 17.476C98.8441 17.58 98.7734 17.6747 98.6801 17.76C98.5894 17.8453 98.4748 17.9133 98.3361 17.964C98.1974 18.0147 98.0361 18.04 97.8521 18.04ZM99.6002 18C99.5708 18 99.5482 17.992 99.5322 17.976C99.5162 17.9573 99.5082 17.9347 99.5082 17.908V15.296C99.5082 15.2667 99.5162 15.244 99.5322 15.228C99.5482 15.2093 99.5708 15.2 99.6002 15.2H100.576C100.877 15.2 101.116 15.2707 101.292 15.412C101.468 15.5533 101.556 15.7627 101.556 16.04C101.556 16.2453 101.504 16.4133 101.4 16.544C101.299 16.672 101.16 16.7613 100.984 16.812L101.6 17.876C101.608 17.892 101.612 17.9067 101.612 17.92C101.612 17.9413 101.603 17.96 101.584 17.976C101.568 17.992 101.549 18 101.528 18H101.336C101.291 18 101.257 17.988 101.236 17.964C101.215 17.94 101.196 17.916 101.18 17.892L100.6 16.876H99.9002V17.908C99.9002 17.9347 99.8908 17.9573 99.8722 17.976C99.8562 17.992 99.8335 18 99.8042 18H99.6002ZM99.9002 16.536H100.56C100.76 16.536 100.909 16.4947 101.008 16.412C101.107 16.3267 101.156 16.2013 101.156 16.036C101.156 15.8733 101.107 15.7493 101.008 15.664C100.912 15.5787 100.763 15.536 100.56 15.536H99.9002V16.536ZM102.941 18.4C102.912 18.4 102.889 18.3907 102.873 18.372C102.857 18.356 102.849 18.3347 102.849 18.308V18.028C102.655 18.012 102.491 17.968 102.357 17.896C102.224 17.8213 102.123 17.732 102.053 17.628C101.984 17.524 101.947 17.4133 101.941 17.296C101.941 17.2747 101.949 17.256 101.965 17.24C101.984 17.2213 102.005 17.212 102.029 17.212H102.233C102.265 17.212 102.289 17.22 102.305 17.236C102.321 17.252 102.332 17.2707 102.337 17.292C102.353 17.356 102.387 17.42 102.437 17.484C102.488 17.5453 102.56 17.5973 102.653 17.64C102.749 17.68 102.872 17.7 103.021 17.7C103.251 17.7 103.419 17.66 103.525 17.58C103.635 17.4973 103.689 17.388 103.689 17.252C103.689 17.1587 103.66 17.084 103.601 17.028C103.545 16.9693 103.459 16.9173 103.341 16.872C103.224 16.8267 103.072 16.7773 102.885 16.724C102.691 16.668 102.529 16.6067 102.401 16.54C102.273 16.4733 102.177 16.3907 102.113 16.292C102.052 16.1933 102.021 16.068 102.021 15.916C102.021 15.7213 102.093 15.5547 102.237 15.416C102.381 15.2747 102.585 15.192 102.849 15.168V14.892C102.849 14.8653 102.857 14.844 102.873 14.828C102.889 14.8093 102.912 14.8 102.941 14.8H103.093C103.12 14.8 103.141 14.8093 103.157 14.828C103.176 14.844 103.185 14.8653 103.185 14.892V15.172C103.364 15.1933 103.513 15.2427 103.633 15.32C103.753 15.3973 103.844 15.4867 103.905 15.588C103.967 15.6893 103.999 15.788 104.001 15.884C104.001 15.9027 103.995 15.9213 103.981 15.94C103.968 15.956 103.947 15.964 103.917 15.964H103.705C103.687 15.964 103.667 15.9587 103.645 15.948C103.627 15.9373 103.612 15.9173 103.601 15.888C103.585 15.7787 103.524 15.6867 103.417 15.612C103.311 15.5373 103.172 15.5 103.001 15.5C102.828 15.5 102.687 15.5333 102.577 15.6C102.471 15.6667 102.417 15.7707 102.417 15.912C102.417 16.0027 102.443 16.0787 102.493 16.14C102.544 16.1987 102.624 16.2507 102.733 16.296C102.843 16.3413 102.985 16.3893 103.161 16.44C103.375 16.4987 103.549 16.5613 103.685 16.628C103.821 16.692 103.921 16.7733 103.985 16.872C104.052 16.968 104.085 17.092 104.085 17.244C104.085 17.396 104.048 17.528 103.973 17.64C103.901 17.752 103.797 17.8413 103.661 17.908C103.528 17.9747 103.369 18.016 103.185 18.032V18.308C103.185 18.3347 103.176 18.356 103.157 18.372C103.141 18.3907 103.12 18.4 103.093 18.4H102.941Z" fill="black"/>
</svg>
