<svg width="260" height="102" viewBox="0 0 260 102" fill="none" xmlns="http://www.w3.org/2000/svg">
<rect width="260" height="102" rx="2" fill="white"/>
<rect width="260" height="45" fill="#E5E5E5"/>
<rect x="10" y="57" width="250" height="45" fill="#F3F8DA"/>
<path d="M10 22.5C10 15.5964 15.5964 10 22.5 10H260V35H22.5C15.5964 35 10 29.4036 10 22.5Z" fill="white"/>
<rect x="165" y="15" width="45" height="14" fill="#5570AC" fill-opacity="0.25"/>
<path d="M21.98 26C21.9133 26 21.8567 25.98 21.81 25.94C21.77 25.8933 21.75 25.8367 21.75 25.77V19.13C21.75 19.0633 21.77 19.01 21.81 18.97C21.8567 18.9233 21.9133 18.9 21.98 18.9H22.48C22.5533 18.9 22.61 18.9233 22.65 18.97C22.69 19.01 22.71 19.0633 22.71 19.13V21.46C22.89 21.2333 23.11 21.05 23.37 20.91C23.63 20.77 23.96 20.7 24.36 20.7C24.7933 20.7 25.16 20.7967 25.46 20.99C25.7667 21.1767 25.9967 21.44 26.15 21.78C26.31 22.1133 26.39 22.5033 26.39 22.95V25.77C26.39 25.8367 26.37 25.8933 26.33 25.94C26.29 25.98 26.2333 26 26.16 26H25.66C25.5933 26 25.5367 25.98 25.49 25.94C25.45 25.8933 25.43 25.8367 25.43 25.77V23C25.43 22.5333 25.3167 22.17 25.09 21.91C24.8633 21.6433 24.53 21.51 24.09 21.51C23.6767 21.51 23.3433 21.6433 23.09 21.91C22.8367 22.17 22.71 22.5333 22.71 23V25.77C22.71 25.8367 22.69 25.8933 22.65 25.94C22.61 25.98 22.5533 26 22.48 26H21.98ZM29.7954 26C29.4221 26 29.1187 25.93 28.8854 25.79C28.6521 25.6433 28.4821 25.44 28.3754 25.18C28.2687 24.9133 28.2154 24.6 28.2154 24.24V21.6H27.4354C27.3687 21.6 27.3121 21.58 27.2654 21.54C27.2254 21.4933 27.2054 21.4367 27.2054 21.37V21.03C27.2054 20.9633 27.2254 20.91 27.2654 20.87C27.3121 20.8233 27.3687 20.8 27.4354 20.8H28.2154V19.13C28.2154 19.0633 28.2354 19.01 28.2754 18.97C28.3221 18.9233 28.3787 18.9 28.4454 18.9H28.9154C28.9821 18.9 29.0354 18.9233 29.0754 18.97C29.1221 19.01 29.1454 19.0633 29.1454 19.13V20.8H30.3854C30.4521 20.8 30.5054 20.8233 30.5454 20.87C30.5921 20.91 30.6154 20.9633 30.6154 21.03V21.37C30.6154 21.4367 30.5921 21.4933 30.5454 21.54C30.5054 21.58 30.4521 21.6 30.3854 21.6H29.1454V24.17C29.1454 24.4833 29.1987 24.73 29.3054 24.91C29.4121 25.09 29.6021 25.18 29.8754 25.18H30.4854C30.5521 25.18 30.6054 25.2033 30.6454 25.25C30.6921 25.29 30.7154 25.3433 30.7154 25.41V25.77C30.7154 25.8367 30.6921 25.8933 30.6454 25.94C30.6054 25.98 30.5521 26 30.4854 26H29.7954ZM33.7016 26C33.3283 26 33.025 25.93 32.7916 25.79C32.5583 25.6433 32.3883 25.44 32.2816 25.18C32.175 24.9133 32.1216 24.6 32.1216 24.24V21.6H31.3416C31.275 21.6 31.2183 21.58 31.1716 21.54C31.1316 21.4933 31.1116 21.4367 31.1116 21.37V21.03C31.1116 20.9633 31.1316 20.91 31.1716 20.87C31.2183 20.8233 31.275 20.8 31.3416 20.8H32.1216V19.13C32.1216 19.0633 32.1416 19.01 32.1816 18.97C32.2283 18.9233 32.285 18.9 32.3516 18.9H32.8216C32.8883 18.9 32.9416 18.9233 32.9816 18.97C33.0283 19.01 33.0516 19.0633 33.0516 19.13V20.8H34.2916C34.3583 20.8 34.4116 20.8233 34.4516 20.87C34.4983 20.91 34.5216 20.9633 34.5216 21.03V21.37C34.5216 21.4367 34.4983 21.4933 34.4516 21.54C34.4116 21.58 34.3583 21.6 34.2916 21.6H33.0516V24.17C33.0516 24.4833 33.105 24.73 33.2116 24.91C33.3183 25.09 33.5083 25.18 33.7816 25.18H34.3916C34.4583 25.18 34.5116 25.2033 34.5516 25.25C34.5983 25.29 34.6216 25.3433 34.6216 25.41V25.77C34.6216 25.8367 34.5983 25.8933 34.5516 25.94C34.5116 25.98 34.4583 26 34.3916 26H33.7016ZM35.8179 27.9C35.7512 27.9 35.6946 27.8767 35.6479 27.83C35.6079 27.79 35.5879 27.7367 35.5879 27.67V21.03C35.5879 20.9633 35.6079 20.91 35.6479 20.87C35.6946 20.8233 35.7512 20.8 35.8179 20.8H36.2779C36.3446 20.8 36.3979 20.8233 36.4379 20.87C36.4846 20.91 36.5079 20.9633 36.5079 21.03V21.47C36.6679 21.25 36.8812 21.0667 37.1479 20.92C37.4146 20.7733 37.7479 20.7 38.1479 20.7C38.5212 20.7 38.8379 20.7633 39.0979 20.89C39.3646 21.0167 39.5812 21.19 39.7479 21.41C39.9212 21.63 40.0512 21.88 40.1379 22.16C40.2246 22.44 40.2712 22.74 40.2779 23.06C40.2846 23.1667 40.2879 23.28 40.2879 23.4C40.2879 23.52 40.2846 23.6333 40.2779 23.74C40.2712 24.0533 40.2246 24.3533 40.1379 24.64C40.0512 24.92 39.9212 25.17 39.7479 25.39C39.5812 25.6033 39.3646 25.7767 39.0979 25.91C38.8379 26.0367 38.5212 26.1 38.1479 26.1C37.7612 26.1 37.4346 26.03 37.1679 25.89C36.9079 25.7433 36.6946 25.5633 36.5279 25.35V27.67C36.5279 27.7367 36.5079 27.79 36.4679 27.83C36.4279 27.8767 36.3712 27.9 36.2979 27.9H35.8179ZM37.9379 25.29C38.2846 25.29 38.5546 25.2167 38.7479 25.07C38.9479 24.9167 39.0912 24.72 39.1779 24.48C39.2646 24.2333 39.3146 23.97 39.3279 23.69C39.3346 23.4967 39.3346 23.3033 39.3279 23.11C39.3146 22.83 39.2646 22.57 39.1779 22.33C39.0912 22.0833 38.9479 21.8867 38.7479 21.74C38.5546 21.5867 38.2846 21.51 37.9379 21.51C37.6112 21.51 37.3446 21.5867 37.1379 21.74C36.9379 21.8933 36.7879 22.09 36.6879 22.33C36.5946 22.5633 36.5412 22.8033 36.5279 23.05C36.5212 23.1567 36.5179 23.2833 36.5179 23.43C36.5179 23.5767 36.5212 23.7067 36.5279 23.82C36.5346 24.0533 36.5879 24.2833 36.6879 24.51C36.7946 24.7367 36.9512 24.9233 37.1579 25.07C37.3646 25.2167 37.6246 25.29 37.9379 25.29ZM43.3349 26.1C42.9616 26.1 42.6416 26.0533 42.3749 25.96C42.1083 25.8667 41.8916 25.7533 41.7249 25.62C41.5583 25.4867 41.4316 25.3533 41.3449 25.22C41.2649 25.0867 41.2216 24.98 41.2149 24.9C41.2083 24.8267 41.2316 24.77 41.2849 24.73C41.3383 24.69 41.3916 24.67 41.4449 24.67H41.8849C41.9249 24.67 41.9549 24.6767 41.9749 24.69C42.0016 24.6967 42.0349 24.7233 42.0749 24.77C42.1616 24.8633 42.2583 24.9567 42.3649 25.05C42.4716 25.1433 42.6016 25.22 42.7549 25.28C42.9149 25.34 43.1116 25.37 43.3449 25.37C43.6849 25.37 43.9649 25.3067 44.1849 25.18C44.4049 25.0467 44.5149 24.8533 44.5149 24.6C44.5149 24.4333 44.4683 24.3 44.3749 24.2C44.2883 24.1 44.1283 24.01 43.8949 23.93C43.6683 23.85 43.3549 23.7667 42.9549 23.68C42.5549 23.5867 42.2383 23.4733 42.0049 23.34C41.7716 23.2 41.6049 23.0367 41.5049 22.85C41.4049 22.6567 41.3549 22.44 41.3549 22.2C41.3549 21.9533 41.4283 21.7167 41.5749 21.49C41.7216 21.2567 41.9349 21.0667 42.2149 20.92C42.5016 20.7733 42.8583 20.7 43.2849 20.7C43.6316 20.7 43.9283 20.7433 44.1749 20.83C44.4216 20.9167 44.6249 21.0267 44.7849 21.16C44.9449 21.2867 45.0649 21.4133 45.1449 21.54C45.2249 21.6667 45.2683 21.7733 45.2749 21.86C45.2816 21.9267 45.2616 21.9833 45.2149 22.03C45.1683 22.07 45.1149 22.09 45.0549 22.09H44.6349C44.5883 22.09 44.5483 22.08 44.5149 22.06C44.4883 22.04 44.4616 22.0167 44.4349 21.99C44.3683 21.9033 44.2883 21.8167 44.1949 21.73C44.1083 21.6433 43.9916 21.5733 43.8449 21.52C43.7049 21.46 43.5183 21.43 43.2849 21.43C42.9516 21.43 42.7016 21.5 42.5349 21.64C42.3683 21.78 42.2849 21.9567 42.2849 22.17C42.2849 22.2967 42.3216 22.41 42.3949 22.51C42.4683 22.61 42.6083 22.7 42.8149 22.78C43.0216 22.86 43.3283 22.9467 43.7349 23.04C44.1749 23.1267 44.5216 23.2433 44.7749 23.39C45.0283 23.5367 45.2083 23.7067 45.3149 23.9C45.4216 24.0933 45.4749 24.3167 45.4749 24.57C45.4749 24.85 45.3916 25.1067 45.2249 25.34C45.0649 25.5733 44.8249 25.76 44.5049 25.9C44.1916 26.0333 43.8016 26.1 43.3349 26.1ZM46.8126 22.5C46.7459 22.5 46.6892 22.48 46.6426 22.44C46.6026 22.3933 46.5826 22.3367 46.5826 22.27V21.57C46.5826 21.5033 46.6026 21.45 46.6426 21.41C46.6892 21.3633 46.7459 21.34 46.8126 21.34H47.5226C47.5959 21.34 47.6526 21.3633 47.6926 21.41C47.7392 21.45 47.7626 21.5033 47.7626 21.57V22.27C47.7626 22.3367 47.7392 22.3933 47.6926 22.44C47.6526 22.48 47.5959 22.5 47.5226 22.5H46.8126ZM46.8126 26C46.7459 26 46.6892 25.98 46.6426 25.94C46.6026 25.8933 46.5826 25.8367 46.5826 25.77V25.07C46.5826 25.0033 46.6026 24.95 46.6426 24.91C46.6892 24.8633 46.7459 24.84 46.8126 24.84H47.5226C47.5959 24.84 47.6526 24.8633 47.6926 24.91C47.7392 24.95 47.7626 25.0033 47.7626 25.07V25.77C47.7626 25.8367 47.7392 25.8933 47.6926 25.94C47.6526 25.98 47.5959 26 47.5226 26H46.8126ZM48.9112 26.84C48.8578 26.84 48.8112 26.82 48.7712 26.78C48.7312 26.74 48.7112 26.6933 48.7112 26.64C48.7112 26.6067 48.7212 26.5667 48.7412 26.52L52.1612 18.32C52.1812 18.28 52.2078 18.24 52.2412 18.2C52.2812 18.16 52.3412 18.14 52.4212 18.14H52.8112C52.8645 18.14 52.9112 18.16 52.9512 18.2C52.9912 18.24 53.0112 18.2867 53.0112 18.34C53.0112 18.3667 53.0045 18.4067 52.9912 18.46L49.5612 26.66C49.5478 26.6933 49.5178 26.73 49.4712 26.77C49.4312 26.8167 49.3745 26.84 49.3012 26.84H48.9112ZM51.6748 26.84C51.6215 26.84 51.5748 26.82 51.5348 26.78C51.4948 26.74 51.4748 26.6933 51.4748 26.64C51.4748 26.6067 51.4848 26.5667 51.5048 26.52L54.9248 18.32C54.9448 18.28 54.9715 18.24 55.0048 18.2C55.0448 18.16 55.1048 18.14 55.1848 18.14H55.5748C55.6282 18.14 55.6748 18.16 55.7148 18.2C55.7548 18.24 55.7748 18.2867 55.7748 18.34C55.7748 18.3667 55.7682 18.4067 55.7548 18.46L52.3248 26.66C52.3115 26.6933 52.2815 26.73 52.2348 26.77C52.1948 26.8167 52.1382 26.84 52.0648 26.84H51.6748ZM56.6577 27.9C56.5911 27.9 56.5344 27.8767 56.4877 27.83C56.4477 27.79 56.4277 27.7367 56.4277 27.67V21.03C56.4277 20.9633 56.4477 20.91 56.4877 20.87C56.5344 20.8233 56.5911 20.8 56.6577 20.8H57.1177C57.1844 20.8 57.2377 20.8233 57.2777 20.87C57.3244 20.91 57.3477 20.9633 57.3477 21.03V21.47C57.5077 21.25 57.7211 21.0667 57.9877 20.92C58.2544 20.7733 58.5877 20.7 58.9877 20.7C59.3611 20.7 59.6777 20.7633 59.9377 20.89C60.2044 21.0167 60.4211 21.19 60.5877 21.41C60.7611 21.63 60.8911 21.88 60.9777 22.16C61.0644 22.44 61.1111 22.74 61.1177 23.06C61.1244 23.1667 61.1277 23.28 61.1277 23.4C61.1277 23.52 61.1244 23.6333 61.1177 23.74C61.1111 24.0533 61.0644 24.3533 60.9777 24.64C60.8911 24.92 60.7611 25.17 60.5877 25.39C60.4211 25.6033 60.2044 25.7767 59.9377 25.91C59.6777 26.0367 59.3611 26.1 58.9877 26.1C58.6011 26.1 58.2744 26.03 58.0077 25.89C57.7477 25.7433 57.5344 25.5633 57.3677 25.35V27.67C57.3677 27.7367 57.3477 27.79 57.3077 27.83C57.2677 27.8767 57.2111 27.9 57.1377 27.9H56.6577ZM58.7777 25.29C59.1244 25.29 59.3944 25.2167 59.5877 25.07C59.7877 24.9167 59.9311 24.72 60.0177 24.48C60.1044 24.2333 60.1544 23.97 60.1677 23.69C60.1744 23.4967 60.1744 23.3033 60.1677 23.11C60.1544 22.83 60.1044 22.57 60.0177 22.33C59.9311 22.0833 59.7877 21.8867 59.5877 21.74C59.3944 21.5867 59.1244 21.51 58.7777 21.51C58.4511 21.51 58.1844 21.5867 57.9777 21.74C57.7777 21.8933 57.6277 22.09 57.5277 22.33C57.4344 22.5633 57.3811 22.8033 57.3677 23.05C57.3611 23.1567 57.3577 23.2833 57.3577 23.43C57.3577 23.5767 57.3611 23.7067 57.3677 23.82C57.3744 24.0533 57.4277 24.2833 57.5277 24.51C57.6344 24.7367 57.7911 24.9233 57.9977 25.07C58.2044 25.2167 58.4644 25.29 58.7777 25.29ZM64.5048 26.1C63.9981 26.1 63.5748 26.0033 63.2348 25.81C62.8948 25.6167 62.6348 25.35 62.4548 25.01C62.2748 24.6633 62.1748 24.27 62.1548 23.83C62.1481 23.7167 62.1448 23.5733 62.1448 23.4C62.1448 23.22 62.1481 23.0767 62.1548 22.97C62.1748 22.5233 62.2748 22.13 62.4548 21.79C62.6414 21.45 62.9048 21.1833 63.2448 20.99C63.5848 20.7967 64.0048 20.7 64.5048 20.7C65.0048 20.7 65.4248 20.7967 65.7648 20.99C66.1048 21.1833 66.3648 21.45 66.5448 21.79C66.7314 22.13 66.8348 22.5233 66.8548 22.97C66.8614 23.0767 66.8648 23.22 66.8648 23.4C66.8648 23.5733 66.8614 23.7167 66.8548 23.83C66.8348 24.27 66.7348 24.6633 66.5548 25.01C66.3748 25.35 66.1148 25.6167 65.7748 25.81C65.4348 26.0033 65.0114 26.1 64.5048 26.1ZM64.5048 25.33C64.9181 25.33 65.2481 25.2 65.4948 24.94C65.7414 24.6733 65.8748 24.2867 65.8948 23.78C65.9014 23.68 65.9048 23.5533 65.9048 23.4C65.9048 23.2467 65.9014 23.12 65.8948 23.02C65.8748 22.5133 65.7414 22.13 65.4948 21.87C65.2481 21.6033 64.9181 21.47 64.5048 21.47C64.0914 21.47 63.7581 21.6033 63.5048 21.87C63.2581 22.13 63.1281 22.5133 63.1148 23.02C63.1081 23.12 63.1048 23.2467 63.1048 23.4C63.1048 23.5533 63.1081 23.68 63.1148 23.78C63.1281 24.2867 63.2581 24.6733 63.5048 24.94C63.7581 25.2 64.0914 25.33 64.5048 25.33ZM68.347 26C68.2803 26 68.2236 25.98 68.177 25.94C68.137 25.8933 68.117 25.8367 68.117 25.77V21.04C68.117 20.9733 68.137 20.9167 68.177 20.87C68.2236 20.8233 68.2803 20.8 68.347 20.8H68.807C68.8736 20.8 68.9303 20.8233 68.977 20.87C69.0236 20.9167 69.047 20.9733 69.047 21.04V21.48C69.1803 21.2533 69.3636 21.0833 69.597 20.97C69.8303 20.8567 70.1103 20.8 70.437 20.8H70.837C70.9036 20.8 70.957 20.8233 70.997 20.87C71.037 20.91 71.057 20.9633 71.057 21.03V21.44C71.057 21.5067 71.037 21.56 70.997 21.6C70.957 21.64 70.9036 21.66 70.837 21.66H70.237C69.877 21.66 69.5936 21.7667 69.387 21.98C69.1803 22.1867 69.077 22.47 69.077 22.83V25.77C69.077 25.8367 69.0536 25.8933 69.007 25.94C68.9603 25.98 68.9036 26 68.837 26H68.347ZM73.9458 26C73.5724 26 73.2691 25.93 73.0358 25.79C72.8024 25.6433 72.6324 25.44 72.5258 25.18C72.4191 24.9133 72.3658 24.6 72.3658 24.24V21.6H71.5858C71.5191 21.6 71.4624 21.58 71.4158 21.54C71.3758 21.4933 71.3558 21.4367 71.3558 21.37V21.03C71.3558 20.9633 71.3758 20.91 71.4158 20.87C71.4624 20.8233 71.5191 20.8 71.5858 20.8H72.3658V19.13C72.3658 19.0633 72.3858 19.01 72.4258 18.97C72.4724 18.9233 72.5291 18.9 72.5958 18.9H73.0658C73.1324 18.9 73.1858 18.9233 73.2258 18.97C73.2724 19.01 73.2958 19.0633 73.2958 19.13V20.8H74.5358C74.6024 20.8 74.6558 20.8233 74.6958 20.87C74.7424 20.91 74.7658 20.9633 74.7658 21.03V21.37C74.7658 21.4367 74.7424 21.4933 74.6958 21.54C74.6558 21.58 74.6024 21.6 74.5358 21.6H73.2958V24.17C73.2958 24.4833 73.3491 24.73 73.4558 24.91C73.5624 25.09 73.7524 25.18 74.0258 25.18H74.6358C74.7024 25.18 74.7558 25.2033 74.7958 25.25C74.8424 25.29 74.8658 25.3433 74.8658 25.41V25.77C74.8658 25.8367 74.8424 25.8933 74.7958 25.94C74.7558 25.98 74.7024 26 74.6358 26H73.9458ZM77.272 26.1C76.9387 26.1 76.6354 26.0333 76.362 25.9C76.0887 25.7667 75.8687 25.5867 75.702 25.36C75.5354 25.1333 75.452 24.8767 75.452 24.59C75.452 24.13 75.6387 23.7633 76.012 23.49C76.3854 23.2167 76.872 23.0367 77.472 22.95L78.962 22.74V22.45C78.962 22.13 78.8687 21.88 78.682 21.7C78.502 21.52 78.2054 21.43 77.792 21.43C77.492 21.43 77.2487 21.49 77.062 21.61C76.882 21.73 76.7554 21.8833 76.682 22.07C76.642 22.17 76.572 22.22 76.472 22.22H76.022C75.9487 22.22 75.892 22.2 75.852 22.16C75.8187 22.1133 75.802 22.06 75.802 22C75.802 21.9 75.8387 21.7767 75.912 21.63C75.992 21.4833 76.112 21.34 76.272 21.2C76.432 21.06 76.6354 20.9433 76.882 20.85C77.1354 20.75 77.442 20.7 77.802 20.7C78.202 20.7 78.5387 20.7533 78.812 20.86C79.0854 20.96 79.2987 21.0967 79.452 21.27C79.612 21.4433 79.7254 21.64 79.792 21.86C79.8654 22.08 79.902 22.3033 79.902 22.53V25.77C79.902 25.8367 79.8787 25.8933 79.832 25.94C79.792 25.98 79.7387 26 79.672 26H79.212C79.1387 26 79.082 25.98 79.042 25.94C79.002 25.8933 78.982 25.8367 78.982 25.77V25.34C78.8954 25.46 78.7787 25.58 78.632 25.7C78.4854 25.8133 78.302 25.91 78.082 25.99C77.862 26.0633 77.592 26.1 77.272 26.1ZM77.482 25.35C77.7554 25.35 78.0054 25.2933 78.232 25.18C78.4587 25.06 78.6354 24.8767 78.762 24.63C78.8954 24.3833 78.962 24.0733 78.962 23.7V23.42L77.802 23.59C77.3287 23.6567 76.972 23.77 76.732 23.93C76.492 24.0833 76.372 24.28 76.372 24.52C76.372 24.7067 76.4254 24.8633 76.532 24.99C76.6454 25.11 76.7854 25.2 76.952 25.26C77.1254 25.32 77.302 25.35 77.482 25.35ZM81.5696 26C81.5029 26 81.4463 25.98 81.3996 25.94C81.3596 25.8933 81.3396 25.8367 81.3396 25.77V21.03C81.3396 20.9633 81.3596 20.91 81.3996 20.87C81.4463 20.8233 81.5029 20.8 81.5696 20.8H82.0496C82.1163 20.8 82.1696 20.8233 82.2096 20.87C82.2496 20.91 82.2696 20.9633 82.2696 21.03V25.77C82.2696 25.8367 82.2496 25.8933 82.2096 25.94C82.1696 25.98 82.1163 26 82.0496 26H81.5696ZM81.4896 19.83C81.4229 19.83 81.3663 19.81 81.3196 19.77C81.2796 19.7233 81.2596 19.6667 81.2596 19.6V19.06C81.2596 18.9933 81.2796 18.94 81.3196 18.9C81.3663 18.8533 81.4229 18.83 81.4896 18.83H82.1196C82.1863 18.83 82.2396 18.8533 82.2796 18.9C82.3263 18.94 82.3496 18.9933 82.3496 19.06V19.6C82.3496 19.6667 82.3263 19.7233 82.2796 19.77C82.2396 19.81 82.1863 19.83 82.1196 19.83H81.4896ZM84.0015 26C83.9348 26 83.8782 25.98 83.8315 25.94C83.7915 25.8933 83.7715 25.8367 83.7715 25.77V19.13C83.7715 19.0633 83.7915 19.01 83.8315 18.97C83.8782 18.9233 83.9348 18.9 84.0015 18.9H84.4715C84.5448 18.9 84.6015 18.9233 84.6415 18.97C84.6815 19.01 84.7015 19.0633 84.7015 19.13V25.77C84.7015 25.8367 84.6815 25.8933 84.6415 25.94C84.6015 25.98 84.5448 26 84.4715 26H84.0015ZM86.3531 26C86.2865 26 86.2298 25.98 86.1831 25.94C86.1431 25.8933 86.1231 25.8367 86.1231 25.77V25.05C86.1231 24.9833 86.1431 24.93 86.1831 24.89C86.2298 24.8433 86.2865 24.82 86.3531 24.82H87.0731C87.1398 24.82 87.1931 24.8433 87.2331 24.89C87.2798 24.93 87.3031 24.9833 87.3031 25.05V25.77C87.3031 25.8367 87.2798 25.8933 87.2331 25.94C87.1931 25.98 87.1398 26 87.0731 26H86.3531ZM88.9427 26C88.876 26 88.8193 25.98 88.7727 25.94C88.7327 25.8933 88.7127 25.8367 88.7127 25.77V21.03C88.7127 20.9633 88.7327 20.91 88.7727 20.87C88.8193 20.8233 88.876 20.8 88.9427 20.8H89.4227C89.4893 20.8 89.5427 20.8233 89.5827 20.87C89.6227 20.91 89.6427 20.9633 89.6427 21.03V25.77C89.6427 25.8367 89.6227 25.8933 89.5827 25.94C89.5427 25.98 89.4893 26 89.4227 26H88.9427ZM88.8627 19.83C88.796 19.83 88.7393 19.81 88.6927 19.77C88.6527 19.7233 88.6327 19.6667 88.6327 19.6V19.06C88.6327 18.9933 88.6527 18.94 88.6927 18.9C88.7393 18.8533 88.796 18.83 88.8627 18.83H89.4927C89.5593 18.83 89.6127 18.8533 89.6527 18.9C89.6993 18.94 89.7227 18.9933 89.7227 19.06V19.6C89.7227 19.6667 89.6993 19.7233 89.6527 19.77C89.6127 19.81 89.5593 19.83 89.4927 19.83H88.8627ZM91.3145 23.42C91.2479 23.42 91.1912 23.4 91.1445 23.36C91.1045 23.3133 91.0845 23.2567 91.0845 23.19V22.81C91.0845 22.7433 91.1045 22.69 91.1445 22.65C91.1912 22.6033 91.2479 22.58 91.3145 22.58H94.3145C94.3812 22.58 94.4345 22.6033 94.4745 22.65C94.5212 22.69 94.5445 22.7433 94.5445 22.81V23.19C94.5445 23.2567 94.5212 23.3133 94.4745 23.36C94.4345 23.4 94.3812 23.42 94.3145 23.42H91.3145ZM96.2083 26C96.1416 26 96.0849 25.98 96.0383 25.94C95.9983 25.8933 95.9783 25.8367 95.9783 25.77V21.03C95.9783 20.9633 95.9983 20.91 96.0383 20.87C96.0849 20.8233 96.1416 20.8 96.2083 20.8H96.6583C96.7249 20.8 96.7783 20.8233 96.8183 20.87C96.8649 20.91 96.8883 20.9633 96.8883 21.03V21.38C97.0416 21.1733 97.2349 21.01 97.4683 20.89C97.7016 20.7633 97.9816 20.7 98.3083 20.7C99.0616 20.6933 99.5949 21 99.9083 21.62C100.062 21.34 100.285 21.1167 100.578 20.95C100.872 20.7833 101.205 20.7 101.578 20.7C101.925 20.7 102.238 20.78 102.518 20.94C102.805 21.1 103.028 21.3433 103.188 21.67C103.355 21.99 103.438 22.3933 103.438 22.88V25.77C103.438 25.8367 103.415 25.8933 103.368 25.94C103.328 25.98 103.275 26 103.208 26H102.738C102.672 26 102.615 25.98 102.568 25.94C102.528 25.8933 102.508 25.8367 102.508 25.77V22.97C102.508 22.5967 102.455 22.3033 102.348 22.09C102.242 21.8767 102.098 21.7267 101.918 21.64C101.738 21.5533 101.542 21.51 101.328 21.51C101.155 21.51 100.978 21.5533 100.798 21.64C100.618 21.7267 100.468 21.8767 100.348 22.09C100.235 22.3033 100.178 22.5967 100.178 22.97V25.77C100.178 25.8367 100.155 25.8933 100.108 25.94C100.068 25.98 100.015 26 99.9483 26H99.4783C99.4116 26 99.3549 25.98 99.3083 25.94C99.2683 25.8933 99.2483 25.8367 99.2483 25.77V22.97C99.2483 22.5967 99.1916 22.3033 99.0783 22.09C98.9649 21.8767 98.8183 21.7267 98.6383 21.64C98.4583 21.5533 98.2683 21.51 98.0683 21.51C97.8949 21.51 97.7183 21.5533 97.5383 21.64C97.3583 21.7267 97.2083 21.8767 97.0883 22.09C96.9749 22.3033 96.9183 22.5933 96.9183 22.96V25.77C96.9183 25.8367 96.8949 25.8933 96.8483 25.94C96.8083 25.98 96.7549 26 96.6883 26H96.2083ZM105.095 26C105.028 26 104.972 25.98 104.925 25.94C104.885 25.8933 104.865 25.8367 104.865 25.77V21.03C104.865 20.9633 104.885 20.91 104.925 20.87C104.972 20.8233 105.028 20.8 105.095 20.8H105.575C105.642 20.8 105.695 20.8233 105.735 20.87C105.775 20.91 105.795 20.9633 105.795 21.03V25.77C105.795 25.8367 105.775 25.8933 105.735 25.94C105.695 25.98 105.642 26 105.575 26H105.095ZM105.015 19.83C104.948 19.83 104.892 19.81 104.845 19.77C104.805 19.7233 104.785 19.6667 104.785 19.6V19.06C104.785 18.9933 104.805 18.94 104.845 18.9C104.892 18.8533 104.948 18.83 105.015 18.83H105.645C105.712 18.83 105.765 18.8533 105.805 18.9C105.852 18.94 105.875 18.9933 105.875 19.06V19.6C105.875 19.6667 105.852 19.7233 105.805 19.77C105.765 19.81 105.712 19.83 105.645 19.83H105.015ZM107.527 26C107.46 26 107.404 25.98 107.357 25.94C107.317 25.8933 107.297 25.8367 107.297 25.77V19.13C107.297 19.0633 107.317 19.01 107.357 18.97C107.404 18.9233 107.46 18.9 107.527 18.9H107.997C108.07 18.9 108.127 18.9233 108.167 18.97C108.207 19.01 108.227 19.0633 108.227 19.13V25.77C108.227 25.8367 108.207 25.8933 108.167 25.94C108.127 25.98 108.07 26 107.997 26H107.527ZM111.849 26.1C111.342 26.1 110.919 26.0033 110.579 25.81C110.239 25.6167 109.979 25.35 109.799 25.01C109.619 24.6633 109.519 24.27 109.499 23.83C109.492 23.7167 109.489 23.5733 109.489 23.4C109.489 23.22 109.492 23.0767 109.499 22.97C109.519 22.5233 109.619 22.13 109.799 21.79C109.985 21.45 110.249 21.1833 110.589 20.99C110.929 20.7967 111.349 20.7 111.849 20.7C112.349 20.7 112.769 20.7967 113.109 20.99C113.449 21.1833 113.709 21.45 113.889 21.79C114.075 22.13 114.179 22.5233 114.199 22.97C114.205 23.0767 114.209 23.22 114.209 23.4C114.209 23.5733 114.205 23.7167 114.199 23.83C114.179 24.27 114.079 24.6633 113.899 25.01C113.719 25.35 113.459 25.6167 113.119 25.81C112.779 26.0033 112.355 26.1 111.849 26.1ZM111.849 25.33C112.262 25.33 112.592 25.2 112.839 24.94C113.085 24.6733 113.219 24.2867 113.239 23.78C113.245 23.68 113.249 23.5533 113.249 23.4C113.249 23.2467 113.245 23.12 113.239 23.02C113.219 22.5133 113.085 22.13 112.839 21.87C112.592 21.6033 112.262 21.47 111.849 21.47C111.435 21.47 111.102 21.6033 110.849 21.87C110.602 22.13 110.472 22.5133 110.459 23.02C110.452 23.12 110.449 23.2467 110.449 23.4C110.449 23.5533 110.452 23.68 110.459 23.78C110.472 24.2867 110.602 24.6733 110.849 24.94C111.102 25.2 111.435 25.33 111.849 25.33ZM115.523 26C115.456 26 115.4 25.98 115.353 25.94C115.313 25.8933 115.293 25.8367 115.293 25.77V25.05C115.293 24.9833 115.313 24.93 115.353 24.89C115.4 24.8433 115.456 24.82 115.523 24.82H116.243C116.31 24.82 116.363 24.8433 116.403 24.89C116.45 24.93 116.473 24.9833 116.473 25.05V25.77C116.473 25.8367 116.45 25.8933 116.403 25.94C116.363 25.98 116.31 26 116.243 26H115.523ZM118.388 26C118.322 26 118.265 25.98 118.218 25.94C118.178 25.8933 118.158 25.8367 118.158 25.77V21.6H117.308C117.242 21.6 117.185 21.58 117.138 21.54C117.098 21.4933 117.078 21.4367 117.078 21.37V21.03C117.078 20.9633 117.098 20.91 117.138 20.87C117.185 20.8233 117.242 20.8 117.308 20.8H118.158V20.3C118.158 19.96 118.215 19.6633 118.328 19.41C118.442 19.15 118.622 18.95 118.868 18.81C119.122 18.67 119.458 18.6 119.878 18.6H120.478C120.545 18.6 120.598 18.6233 120.638 18.67C120.678 18.71 120.698 18.7633 120.698 18.83V19.17C120.698 19.2367 120.678 19.2933 120.638 19.34C120.598 19.38 120.545 19.4 120.478 19.4H119.898C119.585 19.4 119.372 19.4833 119.258 19.65C119.145 19.81 119.088 20.0433 119.088 20.35V20.8H120.378C120.445 20.8 120.498 20.8233 120.538 20.87C120.578 20.91 120.598 20.9633 120.598 21.03V21.37C120.598 21.4367 120.578 21.4933 120.538 21.54C120.498 21.58 120.445 21.6 120.378 21.6H119.088V25.77C119.088 25.8367 119.065 25.8933 119.018 25.94C118.978 25.98 118.925 26 118.858 26H118.388ZM121.716 26C121.649 26 121.593 25.98 121.546 25.94C121.506 25.8933 121.486 25.8367 121.486 25.77V21.04C121.486 20.9733 121.506 20.9167 121.546 20.87C121.593 20.8233 121.649 20.8 121.716 20.8H122.176C122.243 20.8 122.299 20.8233 122.346 20.87C122.393 20.9167 122.416 20.9733 122.416 21.04V21.48C122.549 21.2533 122.733 21.0833 122.966 20.97C123.199 20.8567 123.479 20.8 123.806 20.8H124.206C124.273 20.8 124.326 20.8233 124.366 20.87C124.406 20.91 124.426 20.9633 124.426 21.03V21.44C124.426 21.5067 124.406 21.56 124.366 21.6C124.326 21.64 124.273 21.66 124.206 21.66H123.606C123.246 21.66 122.963 21.7667 122.756 21.98C122.549 22.1867 122.446 22.47 122.446 22.83V25.77C122.446 25.8367 122.423 25.8933 122.376 25.94C122.329 25.98 122.273 26 122.206 26H121.716ZM124.536 26.84C124.483 26.84 124.436 26.82 124.396 26.78C124.356 26.74 124.336 26.6933 124.336 26.64C124.336 26.6067 124.346 26.5667 124.366 26.52L127.786 18.32C127.806 18.28 127.833 18.24 127.866 18.2C127.906 18.16 127.966 18.14 128.046 18.14H128.436C128.49 18.14 128.536 18.16 128.576 18.2C128.616 18.24 128.636 18.2867 128.636 18.34C128.636 18.3667 128.63 18.4067 128.616 18.46L125.186 26.66C125.173 26.6933 125.143 26.73 125.096 26.77C125.056 26.8167 125 26.84 124.926 26.84H124.536ZM131.033 26.1C130.666 26.1 130.349 26.0367 130.083 25.91C129.816 25.7767 129.596 25.6 129.423 25.38C129.256 25.1533 129.129 24.8967 129.043 24.61C128.963 24.3233 128.916 24.02 128.903 23.7C128.896 23.5933 128.893 23.4933 128.893 23.4C128.893 23.3067 128.896 23.2067 128.903 23.1C128.916 22.7867 128.963 22.4867 129.043 22.2C129.129 21.9133 129.256 21.6567 129.423 21.43C129.596 21.2033 129.816 21.0267 130.083 20.9C130.349 20.7667 130.666 20.7 131.033 20.7C131.426 20.7 131.753 20.77 132.013 20.91C132.273 21.05 132.486 21.2233 132.653 21.43V19.13C132.653 19.0633 132.673 19.01 132.713 18.97C132.759 18.9233 132.816 18.9 132.883 18.9H133.363C133.429 18.9 133.483 18.9233 133.523 18.97C133.569 19.01 133.593 19.0633 133.593 19.13V25.77C133.593 25.8367 133.569 25.8933 133.523 25.94C133.483 25.98 133.429 26 133.363 26H132.913C132.839 26 132.783 25.98 132.743 25.94C132.703 25.8933 132.683 25.8367 132.683 25.77V25.35C132.516 25.5633 132.299 25.7433 132.033 25.89C131.766 26.03 131.433 26.1 131.033 26.1ZM131.243 25.29C131.576 25.29 131.843 25.2133 132.043 25.06C132.243 24.9067 132.393 24.7133 132.493 24.48C132.593 24.24 132.646 23.9967 132.653 23.75C132.659 23.6433 132.663 23.5167 132.663 23.37C132.663 23.2167 132.659 23.0867 132.653 22.98C132.646 22.7467 132.589 22.5167 132.483 22.29C132.383 22.0633 132.229 21.8767 132.023 21.73C131.823 21.5833 131.563 21.51 131.243 21.51C130.903 21.51 130.633 21.5867 130.433 21.74C130.233 21.8867 130.089 22.0833 130.003 22.33C129.916 22.57 129.866 22.83 129.853 23.11C129.846 23.3033 129.846 23.4967 129.853 23.69C129.866 23.97 129.916 24.2333 130.003 24.48C130.089 24.72 130.233 24.9167 130.433 25.07C130.633 25.2167 130.903 25.29 131.243 25.29ZM137.21 26.1C136.703 26.1 136.28 26.0033 135.94 25.81C135.6 25.6167 135.34 25.35 135.16 25.01C134.98 24.6633 134.88 24.27 134.86 23.83C134.853 23.7167 134.85 23.5733 134.85 23.4C134.85 23.22 134.853 23.0767 134.86 22.97C134.88 22.5233 134.98 22.13 135.16 21.79C135.347 21.45 135.61 21.1833 135.95 20.99C136.29 20.7967 136.71 20.7 137.21 20.7C137.71 20.7 138.13 20.7967 138.47 20.99C138.81 21.1833 139.07 21.45 139.25 21.79C139.437 22.13 139.54 22.5233 139.56 22.97C139.567 23.0767 139.57 23.22 139.57 23.4C139.57 23.5733 139.567 23.7167 139.56 23.83C139.54 24.27 139.44 24.6633 139.26 25.01C139.08 25.35 138.82 25.6167 138.48 25.81C138.14 26.0033 137.717 26.1 137.21 26.1ZM137.21 25.33C137.623 25.33 137.953 25.2 138.2 24.94C138.447 24.6733 138.58 24.2867 138.6 23.78C138.607 23.68 138.61 23.5533 138.61 23.4C138.61 23.2467 138.607 23.12 138.6 23.02C138.58 22.5133 138.447 22.13 138.2 21.87C137.953 21.6033 137.623 21.47 137.21 21.47C136.797 21.47 136.463 21.6033 136.21 21.87C135.963 22.13 135.833 22.5133 135.82 23.02C135.813 23.12 135.81 23.2467 135.81 23.4C135.81 23.5533 135.813 23.68 135.82 23.78C135.833 24.2867 135.963 24.6733 136.21 24.94C136.463 25.2 136.797 25.33 137.21 25.33ZM142.622 26.1C142.249 26.1 141.929 26.0533 141.662 25.96C141.395 25.8667 141.179 25.7533 141.012 25.62C140.845 25.4867 140.719 25.3533 140.632 25.22C140.552 25.0867 140.509 24.98 140.502 24.9C140.495 24.8267 140.519 24.77 140.572 24.73C140.625 24.69 140.679 24.67 140.732 24.67H141.172C141.212 24.67 141.242 24.6767 141.262 24.69C141.289 24.6967 141.322 24.7233 141.362 24.77C141.449 24.8633 141.545 24.9567 141.652 25.05C141.759 25.1433 141.889 25.22 142.042 25.28C142.202 25.34 142.399 25.37 142.632 25.37C142.972 25.37 143.252 25.3067 143.472 25.18C143.692 25.0467 143.802 24.8533 143.802 24.6C143.802 24.4333 143.755 24.3 143.662 24.2C143.575 24.1 143.415 24.01 143.182 23.93C142.955 23.85 142.642 23.7667 142.242 23.68C141.842 23.5867 141.525 23.4733 141.292 23.34C141.059 23.2 140.892 23.0367 140.792 22.85C140.692 22.6567 140.642 22.44 140.642 22.2C140.642 21.9533 140.715 21.7167 140.862 21.49C141.009 21.2567 141.222 21.0667 141.502 20.92C141.789 20.7733 142.145 20.7 142.572 20.7C142.919 20.7 143.215 20.7433 143.462 20.83C143.709 20.9167 143.912 21.0267 144.072 21.16C144.232 21.2867 144.352 21.4133 144.432 21.54C144.512 21.6667 144.555 21.7733 144.562 21.86C144.569 21.9267 144.549 21.9833 144.502 22.03C144.455 22.07 144.402 22.09 144.342 22.09H143.922C143.875 22.09 143.835 22.08 143.802 22.06C143.775 22.04 143.749 22.0167 143.722 21.99C143.655 21.9033 143.575 21.8167 143.482 21.73C143.395 21.6433 143.279 21.5733 143.132 21.52C142.992 21.46 142.805 21.43 142.572 21.43C142.239 21.43 141.989 21.5 141.822 21.64C141.655 21.78 141.572 21.9567 141.572 22.17C141.572 22.2967 141.609 22.41 141.682 22.51C141.755 22.61 141.895 22.7 142.102 22.78C142.309 22.86 142.615 22.9467 143.022 23.04C143.462 23.1267 143.809 23.2433 144.062 23.39C144.315 23.5367 144.495 23.7067 144.602 23.9C144.709 24.0933 144.762 24.3167 144.762 24.57C144.762 24.85 144.679 25.1067 144.512 25.34C144.352 25.5733 144.112 25.76 143.792 25.9C143.479 26.0333 143.089 26.1 142.622 26.1ZM147.72 26.1C147.346 26.1 147.026 26.0533 146.76 25.96C146.493 25.8667 146.276 25.7533 146.11 25.62C145.943 25.4867 145.816 25.3533 145.73 25.22C145.65 25.0867 145.606 24.98 145.6 24.9C145.593 24.8267 145.616 24.77 145.67 24.73C145.723 24.69 145.776 24.67 145.83 24.67H146.27C146.31 24.67 146.34 24.6767 146.36 24.69C146.386 24.6967 146.42 24.7233 146.46 24.77C146.546 24.8633 146.643 24.9567 146.75 25.05C146.856 25.1433 146.986 25.22 147.14 25.28C147.3 25.34 147.496 25.37 147.73 25.37C148.07 25.37 148.35 25.3067 148.57 25.18C148.79 25.0467 148.9 24.8533 148.9 24.6C148.9 24.4333 148.853 24.3 148.76 24.2C148.673 24.1 148.513 24.01 148.28 23.93C148.053 23.85 147.74 23.7667 147.34 23.68C146.94 23.5867 146.623 23.4733 146.39 23.34C146.156 23.2 145.99 23.0367 145.89 22.85C145.79 22.6567 145.74 22.44 145.74 22.2C145.74 21.9533 145.813 21.7167 145.96 21.49C146.106 21.2567 146.32 21.0667 146.6 20.92C146.886 20.7733 147.243 20.7 147.67 20.7C148.016 20.7 148.313 20.7433 148.56 20.83C148.806 20.9167 149.01 21.0267 149.17 21.16C149.33 21.2867 149.45 21.4133 149.53 21.54C149.61 21.6667 149.653 21.7733 149.66 21.86C149.666 21.9267 149.646 21.9833 149.6 22.03C149.553 22.07 149.5 22.09 149.44 22.09H149.02C148.973 22.09 148.933 22.08 148.9 22.06C148.873 22.04 148.846 22.0167 148.82 21.99C148.753 21.9033 148.673 21.8167 148.58 21.73C148.493 21.6433 148.376 21.5733 148.23 21.52C148.09 21.46 147.903 21.43 147.67 21.43C147.336 21.43 147.086 21.5 146.92 21.64C146.753 21.78 146.67 21.9567 146.67 22.17C146.67 22.2967 146.706 22.41 146.78 22.51C146.853 22.61 146.993 22.7 147.2 22.78C147.406 22.86 147.713 22.9467 148.12 23.04C148.56 23.1267 148.906 23.2433 149.16 23.39C149.413 23.5367 149.593 23.7067 149.7 23.9C149.806 24.0933 149.86 24.3167 149.86 24.57C149.86 24.85 149.776 25.1067 149.61 25.34C149.45 25.5733 149.21 25.76 148.89 25.9C148.576 26.0333 148.186 26.1 147.72 26.1ZM151.247 26C151.181 26 151.124 25.98 151.077 25.94C151.037 25.8933 151.017 25.8367 151.017 25.77V21.03C151.017 20.9633 151.037 20.91 151.077 20.87C151.124 20.8233 151.181 20.8 151.247 20.8H151.727C151.794 20.8 151.847 20.8233 151.887 20.87C151.927 20.91 151.947 20.9633 151.947 21.03V25.77C151.947 25.8367 151.927 25.8933 151.887 25.94C151.847 25.98 151.794 26 151.727 26H151.247ZM151.167 19.83C151.101 19.83 151.044 19.81 150.997 19.77C150.957 19.7233 150.937 19.6667 150.937 19.6V19.06C150.937 18.9933 150.957 18.94 150.997 18.9C151.044 18.8533 151.101 18.83 151.167 18.83H151.797C151.864 18.83 151.917 18.8533 151.957 18.9C152.004 18.94 152.027 18.9933 152.027 19.06V19.6C152.027 19.6667 152.004 19.7233 151.957 19.77C151.917 19.81 151.864 19.83 151.797 19.83H151.167ZM155.529 26.1C154.842 26.1 154.295 25.89 153.889 25.47C153.482 25.0433 153.259 24.4633 153.219 23.73C153.212 23.6433 153.209 23.5333 153.209 23.4C153.209 23.26 153.212 23.1467 153.219 23.06C153.245 22.5867 153.355 22.1733 153.549 21.82C153.742 21.46 154.005 21.1833 154.339 20.99C154.679 20.7967 155.075 20.7 155.529 20.7C156.035 20.7 156.459 20.8067 156.799 21.02C157.145 21.2333 157.409 21.5367 157.589 21.93C157.769 22.3233 157.859 22.7833 157.859 23.31V23.48C157.859 23.5533 157.835 23.61 157.789 23.65C157.749 23.69 157.695 23.71 157.629 23.71H154.169C154.169 23.7167 154.169 23.73 154.169 23.75C154.169 23.77 154.169 23.7867 154.169 23.8C154.182 24.0733 154.242 24.33 154.349 24.57C154.455 24.8033 154.609 24.9933 154.809 25.14C155.009 25.2867 155.249 25.36 155.529 25.36C155.769 25.36 155.969 25.3233 156.129 25.25C156.289 25.1767 156.419 25.0967 156.519 25.01C156.619 24.9167 156.685 24.8467 156.719 24.8C156.779 24.7133 156.825 24.6633 156.859 24.65C156.892 24.63 156.945 24.62 157.019 24.62H157.499C157.565 24.62 157.619 24.64 157.659 24.68C157.705 24.7133 157.725 24.7633 157.719 24.83C157.712 24.93 157.659 25.0533 157.559 25.2C157.459 25.34 157.315 25.48 157.129 25.62C156.942 25.76 156.715 25.8767 156.449 25.97C156.182 26.0567 155.875 26.1 155.529 26.1ZM154.169 23.02H156.909V22.99C156.909 22.69 156.852 22.4233 156.739 22.19C156.632 21.9567 156.475 21.7733 156.269 21.64C156.062 21.5 155.815 21.43 155.529 21.43C155.242 21.43 154.995 21.5 154.789 21.64C154.589 21.7733 154.435 21.9567 154.329 22.19C154.222 22.4233 154.169 22.69 154.169 22.99V23.02ZM159.284 26C159.218 26 159.161 25.98 159.114 25.94C159.074 25.8933 159.054 25.8367 159.054 25.77V21.04C159.054 20.9733 159.074 20.9167 159.114 20.87C159.161 20.8233 159.218 20.8 159.284 20.8H159.744C159.811 20.8 159.868 20.8233 159.914 20.87C159.961 20.9167 159.984 20.9733 159.984 21.04V21.48C160.118 21.2533 160.301 21.0833 160.534 20.97C160.768 20.8567 161.048 20.8 161.374 20.8H161.774C161.841 20.8 161.894 20.8233 161.934 20.87C161.974 20.91 161.994 20.9633 161.994 21.03V21.44C161.994 21.5067 161.974 21.56 161.934 21.6C161.894 21.64 161.841 21.66 161.774 21.66H161.174C160.814 21.66 160.531 21.7667 160.324 21.98C160.118 22.1867 160.014 22.47 160.014 22.83V25.77C160.014 25.8367 159.991 25.8933 159.944 25.94C159.898 25.98 159.841 26 159.774 26H159.284ZM162.105 26.84C162.051 26.84 162.005 26.82 161.965 26.78C161.925 26.74 161.905 26.6933 161.905 26.64C161.905 26.6067 161.915 26.5667 161.935 26.52L165.355 18.32C165.375 18.28 165.401 18.24 165.435 18.2C165.475 18.16 165.535 18.14 165.615 18.14H166.005C166.058 18.14 166.105 18.16 166.145 18.2C166.185 18.24 166.205 18.2867 166.205 18.34C166.205 18.3667 166.198 18.4067 166.185 18.46L162.755 26.66C162.741 26.6933 162.711 26.73 162.665 26.77C162.625 26.8167 162.568 26.84 162.495 26.84H162.105ZM169.229 26C169.156 26 169.096 25.9767 169.049 25.93C169.009 25.8833 168.989 25.8267 168.989 25.76V20.58L167.469 21.75C167.409 21.79 167.349 21.8067 167.289 21.8C167.229 21.7867 167.176 21.75 167.129 21.69L166.709 21.15C166.669 21.09 166.652 21.0267 166.659 20.96C166.672 20.8933 166.709 20.84 166.769 20.8L169.009 19.07C169.049 19.0367 169.089 19.0167 169.129 19.01C169.169 19.0033 169.212 19 169.259 19H170.139C170.206 19 170.262 19.0233 170.309 19.07C170.356 19.1167 170.379 19.1733 170.379 19.24V25.76C170.379 25.8267 170.356 25.8833 170.309 25.93C170.262 25.9767 170.206 26 170.139 26H169.229ZM171.778 26C171.711 26 171.655 25.9767 171.608 25.93C171.561 25.8833 171.538 25.8267 171.538 25.76V25.25C171.538 25.19 171.551 25.12 171.578 25.04C171.611 24.9533 171.681 24.8667 171.788 24.78L173.368 23.21C173.808 22.8633 174.161 22.57 174.428 22.33C174.701 22.0833 174.898 21.86 175.018 21.66C175.145 21.4533 175.208 21.25 175.208 21.05C175.208 20.75 175.125 20.5067 174.958 20.32C174.798 20.1333 174.541 20.04 174.188 20.04C173.955 20.04 173.758 20.09 173.598 20.19C173.438 20.2833 173.311 20.41 173.218 20.57C173.131 20.73 173.071 20.9067 173.038 21.1C173.025 21.1867 172.988 21.2467 172.928 21.28C172.868 21.3133 172.808 21.33 172.748 21.33H171.858C171.798 21.33 171.748 21.31 171.708 21.27C171.668 21.23 171.648 21.1833 171.648 21.13C171.655 20.8433 171.715 20.5667 171.828 20.3C171.941 20.0267 172.105 19.7867 172.318 19.58C172.538 19.3667 172.805 19.1967 173.118 19.07C173.431 18.9433 173.785 18.88 174.178 18.88C174.731 18.88 175.188 18.9733 175.548 19.16C175.915 19.3467 176.188 19.6 176.368 19.92C176.555 20.24 176.648 20.6 176.648 21C176.648 21.3133 176.588 21.6033 176.468 21.87C176.348 22.13 176.175 22.3833 175.948 22.63C175.721 22.87 175.448 23.1167 175.128 23.37L173.708 24.81H176.558C176.631 24.81 176.688 24.8333 176.728 24.88C176.775 24.92 176.798 24.9767 176.798 25.05V25.76C176.798 25.8267 176.775 25.8833 176.728 25.93C176.688 25.9767 176.631 26 176.558 26H171.778ZM180.389 26.1C179.923 26.1 179.519 26.0433 179.179 25.93C178.839 25.8167 178.556 25.67 178.329 25.49C178.109 25.3033 177.943 25.1033 177.829 24.89C177.716 24.67 177.656 24.4533 177.649 24.24C177.649 24.18 177.669 24.1333 177.709 24.1C177.756 24.06 177.809 24.04 177.869 24.04H178.769C178.836 24.04 178.893 24.0533 178.939 24.08C178.986 24.1067 179.026 24.16 179.059 24.24C179.119 24.42 179.216 24.5633 179.349 24.67C179.489 24.7767 179.649 24.8533 179.829 24.9C180.009 24.94 180.199 24.96 180.399 24.96C180.799 24.96 181.116 24.8667 181.349 24.68C181.589 24.4867 181.709 24.2133 181.709 23.86C181.709 23.5067 181.599 23.2533 181.379 23.1C181.159 22.94 180.853 22.86 180.459 22.86H179.429C179.356 22.86 179.296 22.84 179.249 22.8C179.203 22.7533 179.179 22.6933 179.179 22.62V22.2C179.179 22.1333 179.193 22.0767 179.219 22.03C179.253 21.9767 179.286 21.9333 179.319 21.9L181.109 20.15H178.249C178.176 20.15 178.116 20.1267 178.069 20.08C178.029 20.0333 178.009 19.9767 178.009 19.91V19.25C178.009 19.1767 178.029 19.1167 178.069 19.07C178.116 19.0233 178.176 19 178.249 19H182.539C182.613 19 182.673 19.0233 182.719 19.07C182.766 19.1167 182.789 19.1767 182.789 19.25V19.85C182.789 19.91 182.776 19.9633 182.749 20.01C182.723 20.0567 182.693 20.0967 182.659 20.13L180.929 21.91L181.049 21.92C181.456 21.9533 181.816 22.0467 182.129 22.2C182.449 22.3467 182.696 22.5633 182.869 22.85C183.049 23.1367 183.139 23.4967 183.139 23.93C183.139 24.3833 183.019 24.7733 182.779 25.1C182.546 25.42 182.223 25.6667 181.809 25.84C181.396 26.0133 180.923 26.1 180.389 26.1ZM187.528 26C187.461 26 187.405 25.9767 187.358 25.93C187.311 25.8833 187.288 25.8267 187.288 25.76V24.48H184.118C184.045 24.48 183.985 24.4567 183.938 24.41C183.898 24.3633 183.878 24.3067 183.878 24.24V23.56C183.878 23.52 183.885 23.4733 183.898 23.42C183.918 23.36 183.948 23.3067 183.988 23.26L186.938 19.17C187.025 19.0567 187.148 19 187.308 19H188.398C188.465 19 188.521 19.0233 188.568 19.07C188.615 19.1167 188.638 19.1733 188.638 19.24V23.3H189.528C189.608 23.3 189.668 23.3233 189.708 23.37C189.755 23.41 189.778 23.4667 189.778 23.54V24.24C189.778 24.3067 189.755 24.3633 189.708 24.41C189.661 24.4567 189.605 24.48 189.538 24.48H188.638V25.76C188.638 25.8267 188.615 25.8833 188.568 25.93C188.521 25.9767 188.465 26 188.398 26H187.528ZM185.268 23.34H187.318V20.45L185.268 23.34ZM193.212 26.1C192.745 26.1 192.342 26.0433 192.002 25.93C191.662 25.8167 191.378 25.67 191.152 25.49C190.932 25.3033 190.765 25.1033 190.652 24.89C190.538 24.67 190.478 24.4533 190.472 24.24C190.472 24.18 190.492 24.1333 190.532 24.1C190.578 24.06 190.632 24.04 190.692 24.04H191.592C191.658 24.04 191.715 24.0533 191.762 24.08C191.808 24.1067 191.848 24.16 191.882 24.24C191.942 24.42 192.038 24.5633 192.172 24.67C192.312 24.7767 192.472 24.8533 192.652 24.9C192.832 24.94 193.022 24.96 193.222 24.96C193.622 24.96 193.938 24.8667 194.172 24.68C194.412 24.4867 194.532 24.2133 194.532 23.86C194.532 23.5067 194.422 23.2533 194.202 23.1C193.982 22.94 193.675 22.86 193.282 22.86H192.252C192.178 22.86 192.118 22.84 192.072 22.8C192.025 22.7533 192.002 22.6933 192.002 22.62V22.2C192.002 22.1333 192.015 22.0767 192.042 22.03C192.075 21.9767 192.108 21.9333 192.142 21.9L193.932 20.15H191.072C190.998 20.15 190.938 20.1267 190.892 20.08C190.852 20.0333 190.832 19.9767 190.832 19.91V19.25C190.832 19.1767 190.852 19.1167 190.892 19.07C190.938 19.0233 190.998 19 191.072 19H195.362C195.435 19 195.495 19.0233 195.542 19.07C195.588 19.1167 195.612 19.1767 195.612 19.25V19.85C195.612 19.91 195.598 19.9633 195.572 20.01C195.545 20.0567 195.515 20.0967 195.482 20.13L193.752 21.91L193.872 21.92C194.278 21.9533 194.638 22.0467 194.952 22.2C195.272 22.3467 195.518 22.5633 195.692 22.85C195.872 23.1367 195.962 23.4967 195.962 23.93C195.962 24.3833 195.842 24.7733 195.602 25.1C195.368 25.42 195.045 25.6667 194.632 25.84C194.218 26.0133 193.745 26.1 193.212 26.1ZM199.46 26.11C198.887 26.11 198.404 26.0167 198.01 25.83C197.617 25.6367 197.317 25.3867 197.11 25.08C196.91 24.7733 196.804 24.4467 196.79 24.1C196.784 24.04 196.8 23.9933 196.84 23.96C196.887 23.92 196.94 23.9 197 23.9H197.93C198.004 23.9 198.064 23.9167 198.11 23.95C198.164 23.9767 198.204 24.0267 198.23 24.1C198.297 24.3 198.39 24.4633 198.51 24.59C198.637 24.7167 198.78 24.81 198.94 24.87C199.107 24.93 199.28 24.96 199.46 24.96C199.7 24.96 199.917 24.9133 200.11 24.82C200.31 24.72 200.47 24.5733 200.59 24.38C200.71 24.1867 200.77 23.95 200.77 23.67C200.77 23.4233 200.714 23.21 200.6 23.03C200.487 22.85 200.33 22.71 200.13 22.61C199.937 22.5033 199.714 22.45 199.46 22.45C199.274 22.45 199.12 22.4733 199 22.52C198.88 22.5667 198.777 22.62 198.69 22.68C198.61 22.74 198.537 22.7933 198.47 22.84C198.41 22.8867 198.34 22.91 198.26 22.91H197.34C197.28 22.91 197.227 22.89 197.18 22.85C197.14 22.8033 197.12 22.75 197.12 22.69L197.47 19.27C197.477 19.1833 197.507 19.1167 197.56 19.07C197.614 19.0233 197.677 19 197.75 19H201.51C201.577 19 201.634 19.0233 201.68 19.07C201.727 19.1167 201.75 19.1733 201.75 19.24V19.91C201.75 19.9767 201.727 20.0333 201.68 20.08C201.634 20.1267 201.577 20.15 201.51 20.15H198.62L198.46 21.78C198.58 21.7 198.74 21.6233 198.94 21.55C199.14 21.4767 199.417 21.44 199.77 21.44C200.09 21.44 200.394 21.4933 200.68 21.6C200.974 21.7 201.234 21.85 201.46 22.05C201.687 22.2433 201.864 22.48 201.99 22.76C202.124 23.0333 202.19 23.3467 202.19 23.7C202.19 24.1867 202.077 24.61 201.85 24.97C201.624 25.33 201.307 25.61 200.9 25.81C200.494 26.01 200.014 26.11 199.46 26.11ZM205.792 26.1C205.218 26.1 204.725 25.9933 204.312 25.78C203.898 25.56 203.578 25.2667 203.352 24.9C203.125 24.5267 203.012 24.11 203.012 23.65C203.012 23.4433 203.038 23.2433 203.092 23.05C203.145 22.8567 203.215 22.6733 203.302 22.5C203.388 22.3267 203.472 22.1733 203.552 22.04C203.638 21.9 203.715 21.79 203.782 21.71L205.612 19.2C205.638 19.1667 205.678 19.1267 205.732 19.08C205.785 19.0267 205.858 19 205.952 19H206.882C206.942 19 206.992 19.0233 207.032 19.07C207.072 19.11 207.092 19.16 207.092 19.22C207.092 19.2467 207.085 19.2733 207.072 19.3C207.065 19.32 207.055 19.3367 207.042 19.35L205.642 21.29C205.702 21.27 205.772 21.2567 205.852 21.25C205.932 21.2433 206.005 21.24 206.072 21.24C206.405 21.2467 206.722 21.3133 207.022 21.44C207.322 21.56 207.585 21.7267 207.812 21.94C208.038 22.1533 208.215 22.4033 208.342 22.69C208.475 22.9767 208.542 23.29 208.542 23.63C208.542 24.07 208.432 24.48 208.212 24.86C207.992 25.2333 207.675 25.5333 207.262 25.76C206.855 25.9867 206.365 26.1 205.792 26.1ZM205.782 24.95C206.022 24.95 206.242 24.9 206.442 24.8C206.648 24.7 206.815 24.5533 206.942 24.36C207.068 24.1667 207.132 23.9267 207.132 23.64C207.132 23.36 207.068 23.1233 206.942 22.93C206.815 22.7367 206.648 22.59 206.442 22.49C206.242 22.39 206.022 22.34 205.782 22.34C205.542 22.34 205.318 22.39 205.112 22.49C204.912 22.59 204.748 22.7367 204.622 22.93C204.495 23.1233 204.432 23.36 204.432 23.64C204.432 23.9267 204.495 24.1667 204.622 24.36C204.748 24.5533 204.912 24.7 205.112 24.8C205.318 24.9 205.542 24.95 205.782 24.95ZM209.243 26.84C209.19 26.84 209.143 26.82 209.103 26.78C209.063 26.74 209.043 26.69 209.043 26.63C209.043 26.6033 209.05 26.5667 209.063 26.52L212.463 18.35C212.49 18.3033 212.526 18.2567 212.573 18.21C212.62 18.1633 212.686 18.14 212.773 18.14H213.423C213.476 18.14 213.523 18.16 213.563 18.2C213.61 18.24 213.633 18.29 213.633 18.35C213.633 18.3767 213.623 18.4133 213.603 18.46L210.193 26.63C210.173 26.67 210.14 26.7133 210.093 26.76C210.046 26.8133 209.976 26.84 209.883 26.84H209.243ZM216.631 26C216.564 26 216.508 25.98 216.461 25.94C216.421 25.8933 216.401 25.8367 216.401 25.77V20.17L214.741 21.45C214.688 21.49 214.631 21.5067 214.571 21.5C214.511 21.4933 214.461 21.4633 214.421 21.41L214.161 21.08C214.121 21.02 214.104 20.96 214.111 20.9C214.124 20.84 214.158 20.79 214.211 20.75L216.391 19.07C216.438 19.0367 216.481 19.0167 216.521 19.01C216.561 19.0033 216.604 19 216.651 19H217.161C217.228 19 217.281 19.0233 217.321 19.07C217.361 19.11 217.381 19.1633 217.381 19.23V25.77C217.381 25.8367 217.361 25.8933 217.321 25.94C217.281 25.98 217.228 26 217.161 26H216.631ZM222.158 26C222.092 26 222.035 25.98 221.988 25.94C221.948 25.8933 221.928 25.8367 221.928 25.77V24.33H218.688C218.622 24.33 218.565 24.31 218.518 24.27C218.478 24.2233 218.458 24.1667 218.458 24.1V23.7C218.458 23.6733 218.465 23.6333 218.478 23.58C218.498 23.52 218.528 23.46 218.568 23.4L221.568 19.17C221.648 19.0567 221.772 19 221.938 19H222.658C222.725 19 222.778 19.0233 222.818 19.07C222.865 19.11 222.888 19.1633 222.888 19.23V23.46H223.788C223.862 23.46 223.918 23.4833 223.958 23.53C224.005 23.57 224.028 23.6233 224.028 23.69V24.1C224.028 24.1667 224.005 24.2233 223.958 24.27C223.918 24.31 223.865 24.33 223.798 24.33H222.888V25.77C222.888 25.8367 222.865 25.8933 222.818 25.94C222.778 25.98 222.725 26 222.658 26H222.158ZM219.528 23.48H221.938V20.05L219.528 23.48ZM229.739 26.65C229.653 26.65 229.583 26.62 229.529 26.56C229.476 26.5067 229.433 26.46 229.399 26.42L228.989 25.86C228.629 26.02 228.213 26.1 227.739 26.1C227.166 26.1 226.676 26.0033 226.269 25.81C225.869 25.61 225.556 25.3067 225.329 24.9C225.109 24.4867 224.989 23.97 224.969 23.35C224.963 23.0567 224.959 22.7767 224.959 22.51C224.959 22.2367 224.963 21.9533 224.969 21.66C224.989 21.0467 225.116 20.5367 225.349 20.13C225.583 19.7167 225.903 19.41 226.309 19.21C226.723 19.0033 227.199 18.9 227.739 18.9C228.286 18.9 228.763 19.0033 229.169 19.21C229.583 19.41 229.906 19.7167 230.139 20.13C230.373 20.5367 230.496 21.0467 230.509 21.66C230.523 21.9533 230.529 22.2367 230.529 22.51C230.529 22.7767 230.523 23.0567 230.509 23.35C230.476 24.27 230.236 24.9533 229.789 25.4L230.449 26.34C230.456 26.3467 230.463 26.3567 230.469 26.37C230.476 26.39 230.479 26.4167 230.479 26.45C230.486 26.5033 230.469 26.55 230.429 26.59C230.389 26.63 230.339 26.65 230.279 26.65H229.739ZM227.739 25.25C228.246 25.25 228.663 25.0967 228.989 24.79C229.316 24.4833 229.493 23.9867 229.519 23.3C229.533 23 229.539 22.7333 229.539 22.5C229.539 22.26 229.533 21.9933 229.519 21.7C229.506 21.24 229.419 20.8667 229.259 20.58C229.106 20.2933 228.899 20.0833 228.639 19.95C228.379 19.8167 228.079 19.75 227.739 19.75C227.413 19.75 227.116 19.8167 226.849 19.95C226.589 20.0833 226.383 20.2933 226.229 20.58C226.076 20.8667 225.989 21.24 225.969 21.7C225.963 21.9933 225.959 22.26 225.959 22.5C225.959 22.7333 225.963 23 225.969 23.3C225.996 23.9867 226.173 24.4833 226.499 24.79C226.826 25.0967 227.239 25.25 227.739 25.25ZM232.227 26C232.154 26 232.097 25.98 232.057 25.94C232.017 25.8933 231.997 25.8367 231.997 25.77V19.24C231.997 19.1667 232.017 19.11 232.057 19.07C232.097 19.0233 232.154 19 232.227 19H236.357C236.43 19 236.487 19.0233 236.527 19.07C236.567 19.11 236.587 19.1667 236.587 19.24V19.62C236.587 19.6933 236.567 19.75 236.527 19.79C236.487 19.83 236.43 19.85 236.357 19.85H232.957V22.04H236.137C236.21 22.04 236.267 22.0633 236.307 22.11C236.347 22.15 236.367 22.2067 236.367 22.28V22.65C236.367 22.7167 236.347 22.7733 236.307 22.82C236.267 22.86 236.21 22.88 236.137 22.88H232.957V25.15H236.437C236.51 25.15 236.567 25.17 236.607 25.21C236.647 25.25 236.667 25.3067 236.667 25.38V25.77C236.667 25.8367 236.647 25.8933 236.607 25.94C236.567 25.98 236.51 26 236.437 26H232.227ZM240.513 26.1C239.9 26.1 239.39 25.9867 238.983 25.76C238.583 25.5333 238.28 25.2167 238.073 24.81C237.866 24.4033 237.753 23.93 237.733 23.39C237.726 23.1167 237.723 22.8233 237.723 22.51C237.723 22.1967 237.726 21.8967 237.733 21.61C237.753 21.07 237.866 20.5967 238.073 20.19C238.28 19.7833 238.583 19.4667 238.983 19.24C239.39 19.0133 239.9 18.9 240.513 18.9C240.973 18.9 241.376 18.9633 241.723 19.09C242.07 19.2167 242.356 19.3867 242.583 19.6C242.816 19.8133 242.993 20.0533 243.113 20.32C243.233 20.58 243.3 20.85 243.313 21.13C243.32 21.19 243.3 21.24 243.253 21.28C243.213 21.32 243.163 21.34 243.103 21.34H242.553C242.493 21.34 242.44 21.3233 242.393 21.29C242.353 21.2567 242.323 21.1967 242.303 21.11C242.19 20.59 241.976 20.2333 241.663 20.04C241.356 19.8467 240.97 19.75 240.503 19.75C239.97 19.75 239.546 19.9033 239.233 20.21C238.92 20.51 238.75 20.9933 238.723 21.66C238.703 22.2067 238.703 22.7667 238.723 23.34C238.75 24.0067 238.92 24.4933 239.233 24.8C239.546 25.1 239.97 25.25 240.503 25.25C240.97 25.25 241.356 25.1533 241.663 24.96C241.976 24.7667 242.19 24.41 242.303 23.89C242.323 23.8033 242.353 23.7433 242.393 23.71C242.44 23.6767 242.493 23.66 242.553 23.66H243.103C243.163 23.66 243.213 23.68 243.253 23.72C243.3 23.76 243.32 23.81 243.313 23.87C243.3 24.15 243.233 24.4233 243.113 24.69C242.993 24.95 242.816 25.1867 242.583 25.4C242.356 25.6133 242.07 25.7833 241.723 25.91C241.376 26.0367 240.973 26.1 240.513 26.1ZM244.556 26C244.49 26 244.433 25.98 244.386 25.94C244.346 25.8933 244.326 25.8367 244.326 25.77V25.05C244.326 24.9833 244.346 24.93 244.386 24.89C244.433 24.8433 244.49 24.82 244.556 24.82H245.276C245.343 24.82 245.396 24.8433 245.436 24.89C245.483 24.93 245.506 24.9833 245.506 25.05V25.77C245.506 25.8367 245.483 25.8933 245.436 25.94C245.396 25.98 245.343 26 245.276 26H244.556ZM247.076 26C247.009 26 246.952 25.98 246.906 25.94C246.866 25.8933 246.846 25.8367 246.846 25.77V25.05C246.846 24.9833 246.866 24.93 246.906 24.89C246.952 24.8433 247.009 24.82 247.076 24.82H247.796C247.862 24.82 247.916 24.8433 247.956 24.89C248.002 24.93 248.026 24.9833 248.026 25.05V25.77C248.026 25.8367 248.002 25.8933 247.956 25.94C247.916 25.98 247.862 26 247.796 26H247.076Z" fill="black"/>
</svg>
