<svg version="1.1" id="prefix__Calque_1" xmlns="http://www.w3.org/2000/svg" x="0" y="0" viewBox="0 0 42 42" xml:space="preserve"><style>.prefix__st0{fill:#283276}.prefix__st1{fill:#f29fc5}.prefix__st2{fill:#008ecf}.prefix__st4{fill:#ffe000}</style>
    <path class="prefix__st0" d="M38.8 29.2c0 1.8-1.5 3.4-3.4 3.4-1.8 0-3.4-1.5-3.4-3.4 0-1.8 1.5-3.4 3.4-3.4 1.9.1 3.4 1.6 3.4 3.4"/>
    <path class="prefix__st1" d="M16.7 16.7c0 1.8-1.5 3.4-3.4 3.4s-3.4-1.5-3.4-3.4c0-1.8 1.5-3.4 3.4-3.4s3.4 1.6 3.4 3.4"/>
    <path class="prefix__st2" d="M32.5 25.6c0 1.8-1.5 3.4-3.4 3.4s-3.3-1.6-3.3-3.4 1.5-3.4 3.4-3.4 3.3 1.6 3.3 3.4"/>
    <path class="prefix__st1" d="M24.3 29.7c0 1.8-1.5 3.4-3.4 3.4s-3.4-1.5-3.4-3.4c0-1.8 1.5-3.4 3.4-3.4 2 0 3.4 1.5 3.4 3.4"/>
    <path class="prefix__st0"
          d="M24.3 37.5c0 1.8-1.5 3.4-3.4 3.4-1.8 0-3.4-1.5-3.4-3.4 0-1.8 1.5-3.4 3.4-3.4 2 .1 3.4 1.6 3.4 3.4m14.5-25c0 1.8-1.5 3.4-3.4 3.4-1.8 0-3.4-1.5-3.4-3.4 0-1.8 1.5-3.4 3.4-3.4 1.9.1 3.4 1.6 3.4 3.4m-6.3 4.2c0 1.8-1.5 3.4-3.4 3.4s-3.3-1.5-3.3-3.4c0-1.8 1.5-3.4 3.4-3.4s3.3 1.6 3.3 3.4m-16.2 9.1c0 1.8-1.5 3.4-3.4 3.4s-3.4-1.5-3.4-3.4c0-1.8 1.5-3.4 3.4-3.4 1.9.1 3.4 1.6 3.4 3.4m-6.5-14a3.33 3.33 0 1 1-6.5 1.5c-.3-1.8.8-3.7 2.5-4 1.9-.4 3.7.7 4 2.5"/>
    <path
        d="M9.6 19.1c-.2 1-1.1 1.7-2.2 1.7-1-.2-1.7-1.1-1.7-2.2.2-1 1.1-1.7 2.2-1.7a2 2 0 0 1 1.7 2.2m19.2 13.8c-.2 1.2-1.3 2-2.5 1.8s-2-1.3-1.8-2.5 1.3-2 2.5-1.8c1.1.1 1.9 1.3 1.8 2.5M35.2 19c-.1.7-.8 1.2-1.5 1.1s-1.2-.8-1.1-1.5.8-1.2 1.5-1.1c.8.1 1.2.8 1.1 1.5m-13-6.2c-.2 1-1.1 1.7-2.2 1.7-1-.2-1.7-1.1-1.7-2.2.2-1 1.1-1.7 2.2-1.7 1.2.2 1.8 1.2 1.7 2.2"
        fill="#e1000f"/>
    <path class="prefix__st1" d="M27.7 10.3c-.2 1-1.1 1.7-2.2 1.7-1-.2-1.7-1.1-1.7-2.2C24 8.7 25 8 26 8.1a2 2 0 0 1 1.7 2.2"/>
    <path class="prefix__st4"
          d="M15.3 31.2c-.2 1-1.1 1.7-2.2 1.7-1-.2-1.7-1.1-1.7-2.2.2-1 1.1-1.7 2.2-1.7 1.1.2 1.8 1.3 1.7 2.2M34 22.7c-.2 1-1.1 1.7-2.2 1.7-1-.2-1.7-1.1-1.7-2.2.2-1 1.1-1.7 2.2-1.7 1.2.2 1.9 1.2 1.7 2.2"/>
    <path class="prefix__st0" d="M31.8 31.6c.5.9.3 2.1-.6 2.6s-2.1.3-2.6-.6-.3-2.1.6-2.6c.9-.6 2.1-.3 2.6.6"/>
    <path class="prefix__st4" d="M17.3 9.2c-.2 1-1.1 1.7-2.2 1.7-1-.2-1.7-1.1-1.7-2.2.2-1 1.1-1.7 2.2-1.7a2 2 0 0 1 1.7 2.2"/>
    <path class="prefix__st2"
          d="M24.5 4.4c0 1.9-1.6 3.5-3.5 3.5s-3.5-1.6-3.5-3.5S19.1.9 21 .9c2 0 3.5 1.6 3.5 3.5M9.9 29.2c0 1.8-1.5 3.4-3.4 3.4S3.2 31 3.2 29.2s1.5-3.4 3.4-3.4 3.3 1.6 3.3 3.4m16.5-9a5.8 5.8 0 1 1-11.6 0 5.8 5.8 0 0 1 11.6 0"/></svg>