<svg xmlns="http://www.w3.org/2000/svg" viewBox="0 0 42 42" xml:space="preserve"><path d="M34.2 24.8c-2.7 0-4.9 2.2-4.9 4.9v.1H23v1.3h6.4c0 .1.1.3.1.4H31c-.3-.5-.5-1.1-.5-1.8 0-2 1.6-3.6 3.6-3.6s3.6 1.6 3.6 3.6c0 .7-.2 1.3-.5 1.8h1.4c.2-.6.4-1.2.4-1.8.1-2.7-2.1-4.9-4.8-4.9" fill="#b41060"/>
    <path
        d="M32.5 18.1c-1.7-1.7-4.4-1.7-6.1 0-1.5 1.5-1.7 3.9-.4 5.6L21.7 28l.9.9 4.4-4.4c.8.5 1.6.8 2.5.8 1.1 0 2.2-.4 3-1.3.8-.8 1.2-1.9 1.2-3 0-1-.4-2.1-1.2-2.9m-.9 5.1c-1.2 1.2-3.1 1.2-4.2 0-1.2-1.2-1.2-3 0-4.2.6-.6 1.4-.9 2.1-.9q1.2 0 2.1.9c1.1 1.1 1.1 3 0 4.2"
        fill="#e51252"/>
    <path
        d="M25.5 15.9c0-3-2.4-5.5-5.5-5.5s-5.5 2.5-5.5 5.5c0 2.8 2.1 5.1 4.8 5.4v6.3h1.3v-6.3c2.8-.3 4.9-2.6 4.9-5.4m-5.4 4.2c-2.3 0-4.2-1.9-4.2-4.2s1.9-4.2 4.2-4.2 4.2 1.9 4.2 4.2c-.1 2.3-1.9 4.2-4.2 4.2"
        fill="#0f98d6"/>
    <path
        d="M18.5 28.1 14 23.6c1.7-2 1.6-5.1-.3-7-2-2-5.3-2-7.3 0s-2 5.3 0 7.3c1 1 2.3 1.5 3.7 1.5 1 0 2.1-.3 3-.9l4.6 4.6zM7.3 22.9c-1.5-1.5-1.5-4 0-5.5.8-.8 1.8-1.1 2.7-1.1s2 .4 2.7 1.1c1.5 1.5 1.5 4 0 5.5-1.4 1.5-3.9 1.5-5.4 0"
        fill="#89bd28"/>
    <path
        d="M17.3 30h-5.9c-.1-2.2-2-3.9-4.2-3.9C4.9 26.1 3 28 3 30.3c0 .5.1.9.2 1.3h1.4c-.2-.4-.3-.8-.3-1.3 0-1.6 1.3-2.9 2.9-2.9s2.9 1.3 2.9 2.9c0 .5-.1.9-.3 1.3h1.4c0-.1.1-.2.1-.3h6.1V30z"
        fill="#f08819"/></svg>