<svg width="162" height="88" viewBox="0 0 94 53.88" fill="inherit" xmlns="http://www.w3.org/2000/svg">
<path d="M8.03988 30.1147C6.98584 30.1147 6.16727 30.4144 5.58418 31.0139C5.0011 31.5912 4.65349 32.5126 4.54135 33.7782H11.202C11.1347 31.3358 10.0807 30.1147 8.03988 30.1147ZM8.10716 43.3702C5.61782 43.3702 3.6443 42.693 2.18658 41.3386C0.728859 39.9619 0 37.9747 0 35.3769C0 32.6459 0.717646 30.5254 2.15294 29.0156C3.58823 27.4835 5.5954 26.7175 8.17444 26.7175C10.5741 26.7175 12.3794 27.3614 13.5904 28.6492C14.8015 29.937 15.407 31.7022 15.407 33.9448C15.407 34.5221 15.3733 35.2326 15.306 36.0763H4.50772C4.64227 37.3419 5.0011 38.2745 5.58418 38.874C6.1897 39.4512 7.0419 39.7399 8.1408 39.7399C9.12756 39.7399 9.84521 39.5512 10.2937 39.1737C10.7647 38.7962 11.1235 38.2523 11.3702 37.5417L15.2051 38.5742C14.3754 41.7715 12.0094 43.3702 8.10716 43.3702Z" fill="inherit"/>
<path d="M22.3289 34.1446V42.9372H17.7539V27.1505H22.2279V31.3803H22.5643C23.0129 29.8704 23.6969 28.7158 24.6164 27.9165C25.5358 27.1172 26.6347 26.7175 27.913 26.7175C30.6266 26.7175 32.0956 28.294 32.3198 31.4469H32.6899C33.5869 28.294 35.3586 26.7175 38.0049 26.7175C39.5524 26.7175 40.7185 27.206 41.5035 28.1829C42.3108 29.1377 42.7145 30.4921 42.7145 32.2462V42.9372H38.1059V33.5118C38.1059 31.7133 37.2985 30.8141 35.6838 30.8141C34.7195 30.8141 33.9458 31.1249 33.3627 31.7466C32.802 32.3461 32.5217 33.1454 32.5217 34.1446V42.9372H27.9467V33.5118C27.9467 32.6903 27.7448 32.0353 27.3412 31.5468C26.9375 31.0583 26.332 30.8141 25.5246 30.8141C24.5603 30.8141 23.7866 31.1249 23.2035 31.7466C22.6204 32.3461 22.3289 33.1454 22.3289 34.1446Z" fill="inherit"/>
<path d="M53.4779 39.4068C55.6084 39.4068 56.6736 37.9636 56.6736 35.0771C56.6736 33.6117 56.4157 32.5348 55.8999 31.8465C55.4065 31.1582 54.6104 30.8141 53.5115 30.8141C52.5023 30.8141 51.7062 31.1471 51.1231 31.8132C50.54 32.4793 50.2485 33.3786 50.2485 34.511V35.7433C50.2485 36.8534 50.54 37.7416 51.1231 38.4077C51.7286 39.0738 52.5135 39.4068 53.4779 39.4068ZM61.1814 35.0771C61.1814 37.7638 60.6992 39.8287 59.7348 41.2719C58.7705 42.693 57.4249 43.4035 55.6981 43.4035C53.1415 43.4035 51.4146 41.8714 50.5176 38.8073H50.2485V47.9996H45.6735V27.1505H50.2485V31.1471H50.5512C51.4483 28.194 53.1639 26.7175 55.6981 26.7175C57.4474 26.7175 58.7929 27.4391 59.7348 28.8824C60.6992 30.3034 61.1814 32.3683 61.1814 35.0771Z" fill="inherit"/>
<path d="M68.1172 21.5552V42.9372H63.5422V21.5552H68.1172Z" fill="#inherit"/>
<path d="M78.7247 43.4035C76.1457 43.4035 74.1273 42.6597 72.6696 41.172C71.2118 39.6844 70.483 37.6417 70.483 35.0438C70.483 32.4238 71.2118 30.3811 72.6696 28.9157C74.1497 27.4502 76.1681 26.7175 78.7247 26.7175C81.2365 26.7175 83.2212 27.4613 84.6789 28.949C86.1591 30.4144 86.8991 32.446 86.8991 35.0438C86.8991 37.6417 86.1703 39.6844 84.7126 41.172C83.2548 42.6597 81.2589 43.4035 78.7247 43.4035ZM82.3241 35.0105C82.3241 32.0131 81.1131 30.5143 78.6911 30.5143C76.269 30.5143 75.058 32.0131 75.058 35.0105C75.058 38.0302 76.269 39.5401 78.6911 39.5401C81.1131 39.5401 82.3241 38.0302 82.3241 35.0105Z" fill="inherit"/>
<path d="M94 24.919H89.2232V21.6551H94V24.919ZM93.8991 42.9372H89.3241V27.1505H93.8991V42.9372Z" fill="inherit"/>
<path d="M24.2437 12.5211C26.3712 12.5211 27.4349 11.097 27.4349 8.24883C27.4349 6.80282 27.1774 5.74022 26.6623 5.06103C26.1696 4.38185 25.3746 4.04225 24.2773 4.04225C23.2696 4.04225 22.4746 4.37089 21.8923 5.02817C21.31 5.68545 21.0189 6.57277 21.0189 7.69014V8.9061C21.0189 10.0016 21.31 10.8779 21.8923 11.5352C22.4969 12.1925 23.2808 12.5211 24.2437 12.5211ZM31.9362 8.24883C31.9362 10.8998 31.4547 12.9374 30.4918 14.3615C29.5288 15.7637 28.1851 16.4648 26.4608 16.4648C23.9078 16.4648 22.1834 14.9531 21.2876 11.9296H21.0189V21H16.4504V0.427229H21.0189V4.37089H21.3212C22.217 1.45696 23.9302 0 26.4608 0C28.2075 0 29.5512 0.71205 30.4918 2.13615C31.4547 3.53834 31.9362 5.5759 31.9362 8.24883Z" fill="inherit"/>
<path d="M40.0043 12.9155C41.0344 12.9155 41.8518 12.6526 42.4565 12.1268C43.0835 11.579 43.397 10.8779 43.397 10.0235V9.39906H40.105C39.366 9.39906 38.7726 9.55243 38.3247 9.85915C37.8992 10.1659 37.6864 10.5931 37.6864 11.1408C37.6864 12.3239 38.459 12.9155 40.0043 12.9155ZM43.6322 16.0047V12.2911H43.2291C42.3557 14.9859 40.6201 16.3333 38.0223 16.3333C36.6115 16.3333 35.4806 15.9718 34.6296 15.2488C33.7786 14.5039 33.3531 13.3975 33.3531 11.9296C33.3531 10.4617 33.8234 9.31142 34.764 8.47887C35.7269 7.62441 37.2161 7.19718 39.2316 7.19718H43.397V6.11268C43.397 4.42566 42.5796 3.58216 40.9448 3.58216C39.4444 3.58216 38.5486 4.32707 38.2575 5.8169L33.9578 4.86385C34.2489 3.37402 34.9879 2.20188 36.1748 1.34742C37.3617 0.471049 39.0077 0.0328636 41.1128 0.0328636C43.4866 0.0328636 45.211 0.547731 46.2859 1.57747C47.3832 2.58529 47.9319 4.09703 47.9319 6.11268V16.0047H43.6322Z" fill="inherit"/>
<path d="M57.4696 16.4648C54.9614 16.4648 53.1474 16.0376 52.0277 15.1831C50.9304 14.3286 50.2586 13.1127 50.0122 11.5352L54.1104 10.7136C54.5135 12.4444 55.6668 13.3099 57.5704 13.3099C59.1156 13.3099 59.8994 12.8059 59.9218 11.7981C59.9218 11.2942 59.6754 10.8998 59.1828 10.615C58.7125 10.3083 57.7719 10.0235 56.3611 9.76056C54.2112 9.30047 52.6996 8.69797 51.8262 7.95305C50.9528 7.18623 50.5161 6.12363 50.5161 4.76526C50.5161 3.23161 51.076 2.05947 52.1957 1.24883C53.3154 0.416275 54.9838 0 57.2008 0C59.3731 0 60.9519 0.383412 61.9373 1.15023C62.945 1.89515 63.6057 3.01252 63.9192 4.50235L59.8546 5.32394C59.6754 4.5133 59.3731 3.94366 58.9476 3.61502C58.5445 3.26448 57.9287 3.0892 57.1001 3.0892C55.5996 3.0892 54.8494 3.56025 54.8494 4.50235C54.8494 4.98435 55.0622 5.37872 55.4877 5.68545C55.9356 5.99218 56.8201 6.27699 58.1414 6.53991C60.4928 7.02191 62.1052 7.66823 62.9786 8.47887C63.8744 9.26761 64.3223 10.3083 64.3223 11.6009C64.3223 14.8435 62.0381 16.4648 57.4696 16.4648Z" fill="inherit"/>
<path d="M73.0477 16.4648C70.5396 16.4648 68.7256 16.0376 67.6059 15.1831C66.5085 14.3286 65.8367 13.1127 65.5904 11.5352L69.6886 10.7136C70.0917 12.4444 71.245 13.3099 73.1485 13.3099C74.6937 13.3099 75.4775 12.8059 75.4999 11.7981C75.4999 11.2942 75.2536 10.8998 74.7609 10.615C74.2906 10.3083 73.3501 10.0235 71.9392 9.76056C69.7893 9.30047 68.2777 8.69797 67.4043 7.95305C66.5309 7.18623 66.0942 6.12363 66.0942 4.76526C66.0942 3.23161 66.6541 2.05947 67.7738 1.24883C68.8936 0.416275 70.5619 0 72.779 0C74.9513 0 76.5301 0.383412 77.5154 1.15023C78.5232 1.89515 79.1838 3.01252 79.4973 4.50235L75.4327 5.32394C75.2536 4.5133 74.9513 3.94366 74.5258 3.61502C74.1227 3.26448 73.5068 3.0892 72.6782 3.0892C71.1778 3.0892 70.4276 3.56025 70.4276 4.50235C70.4276 4.98435 70.6403 5.37872 71.0658 5.68545C71.5137 5.99218 72.3983 6.27699 73.7196 6.53991C76.071 7.02191 77.6834 7.66823 78.5568 8.47887C79.4525 9.26761 79.9004 10.3083 79.9004 11.6009C79.9004 14.8435 77.6162 16.4648 73.0477 16.4648Z" fill="inherit"/>
</svg>
