<svg viewBox="9.94 33 100.06 53.88" fill="none" xmlns="http://www.w3.org/2000/svg">
    <g clip-path="url(#clip0_44_332)">
        <path d="M105.32 77.3533L105.04 77.4031L67.97 84.0142L71.27 85.6595L108.99 78.9387V62.6054L105.37 61.0997L105.32 61.1197V77.3533Z" fill="white"></path>
        <path d="M90.9 67.9801L89 68.3291V74.2222L90.9 73.8832V70.2137C91.0017 69.9887 91.1537 69.7899 91.3444 69.6326C91.535 69.4753 91.7593 69.3637 92 69.3063C92.58 69.1866 92.91 69.5356 92.91 70.1439V73.5342L94.81 73.1852V69.7251C94.81 67.9402 93.81 67.2422 92.51 67.4715C91.9146 67.6043 91.3656 67.8935 90.92 68.3091L90.9 67.9801Z" fill="white"></path>
        <path d="M99.26 72.5969C99.7928 72.5053 100.301 72.307 100.755 72.0139C101.209 71.7208 101.598 71.3391 101.9 70.8917L100.59 70.104C100.28 70.5248 99.8168 70.8077 99.3 70.8917C98.51 71.0313 98.02 70.802 97.85 70.1538L101.69 69.4558C101.776 69.1305 101.816 68.795 101.81 68.4587C101.835 68.109 101.773 67.7586 101.63 67.4386C101.486 67.1186 101.266 66.839 100.987 66.6248C100.709 66.4105 100.382 66.2683 100.035 66.2107C99.6885 66.1531 99.3328 66.182 99 66.2949C98.1226 66.4484 97.3283 66.9075 96.7588 67.5905C96.1892 68.2735 95.8813 69.136 95.89 70.0242C95.91 71.7393 97.08 72.9957 99.26 72.5969ZM99 67.8205C99.64 67.7108 99.94 68.0798 100 68.4487L97.94 68.8177C97.9978 68.5655 98.1294 68.3361 98.3181 68.1585C98.5068 67.981 98.7442 67.8634 99 67.8205Z" fill="white"></path>
        <path d="M70.36 77.9416C70.2272 77.9585 70.0928 77.9585 69.96 77.9416V79.8661C70.12 79.8661 70.38 79.8661 70.68 79.7764C71.0853 79.7366 71.4787 79.617 71.8374 79.4246C72.196 79.2322 72.5129 78.9708 72.7696 78.6555C73.0262 78.3402 73.2177 77.9773 73.3327 77.5877C73.4478 77.1982 73.4843 76.7897 73.44 76.386V68.8974L71.34 69.2664V76.8746C71.3495 77.0097 71.3314 77.1452 71.2867 77.273C71.242 77.4009 71.1716 77.5183 71.0799 77.6181C70.9882 77.7179 70.8771 77.7981 70.7534 77.8537C70.6296 77.9093 70.4958 77.9392 70.36 77.9416Z" fill="white"></path>
        <path d="M80.75 72.3476C80.7773 71.9961 80.7172 71.6434 80.5752 71.3206C80.4331 70.9978 80.2134 70.7149 79.9355 70.497C79.6577 70.2791 79.3302 70.1329 78.9821 70.0713C78.634 70.0097 78.2761 70.0346 77.94 70.1439C77.0582 70.2884 76.2589 70.7471 75.6906 71.4348C75.1223 72.1225 74.8236 72.9925 74.85 73.8832C74.85 75.6083 76.02 76.8746 78.2 76.4658C78.7304 76.3778 79.2375 76.1841 79.6911 75.8963C80.1447 75.6085 80.5354 75.2324 80.84 74.7906L79.53 74.0028C79.22 74.4237 78.7568 74.7065 78.24 74.7906C77.47 74.9501 76.96 74.7008 76.79 74.0527L80.63 73.3547C80.7065 73.0243 80.7467 72.6866 80.75 72.3476ZM76.86 72.6667C76.9204 72.4089 77.058 72.1755 77.2544 71.9974C77.4508 71.8194 77.6969 71.705 77.96 71.6695C78.62 71.5598 78.9 71.9088 78.96 72.2977L76.86 72.6667Z" fill="white"></path>
        <path d="M81.87 69.6752V72.886C81.8162 73.2561 81.8589 73.6337 81.9942 73.9825C82.1294 74.3312 82.3526 74.6393 82.6422 74.8769C82.9317 75.1145 83.2779 75.2736 83.6471 75.3389C84.0164 75.4041 84.3962 75.3732 84.75 75.2493C85.5591 75.1372 86.299 74.7334 86.8297 74.1142C87.3604 73.495 87.6451 72.7033 87.63 71.8889V68.6083L85.73 68.9573V72.2977C85.7557 72.5927 85.6659 72.8861 85.4795 73.1166C85.2931 73.347 85.0246 73.4967 84.73 73.5342C84.03 73.6439 83.73 73.2749 83.73 72.6667V69.3262L81.87 69.6752Z" fill="white"></path>
        <path d="M78 71.6695C77.7369 71.705 77.4909 71.8194 77.2944 71.9974C77.098 72.1755 76.9605 72.4089 76.9 72.6667L78.96 72.2977C78.9 71.8889 78.62 71.5598 78 71.6695Z" fill="#3A61AA"></path>
        <path d="M99 67.8205C98.7369 67.856 98.4909 67.9704 98.2944 68.1484C98.098 68.3265 97.9605 68.5599 97.9 68.8177L99.96 68.4487C100 68.0798 99.66 67.7108 99 67.8205Z" fill="#3A61AA"></path>
        <path d="M96.36 61.6481V34.5057L92.36 33L10.36 47.0399L9.94 47.1097V80.8632L13.87 83.2564L12.4 86.6467L13.31 86.8761L14.83 83.416L15.83 83.2365L14.52 86.2279L15.43 86.4573L17 82.9971L18 82.8077L16.6 85.849L17.51 86.0784L19 82.6282L20 82.4387L18.69 85.4302L19.6 85.6595L21.1 82.2293L22.1 82.0399L20.79 85.0313L21.7 85.2607L23.13 81.8604L24.13 81.6809L22.8 84.5926L23.71 84.8319L25.21 81.4216L26.21 81.2322L24.92 84.1738L25.84 84.4131L27.33 81.0228L28.33 80.8333L27 83.8547L27.91 84.084L29.38 80.6937L30.38 80.5142L29 83.416L29.91 83.6453L31.38 80.2849L32.38 80.0954L31.12 82.9971L32.03 83.2265L33.5 79.8661L34.5 79.6766L33.23 82.5783L34.14 82.8077L35.62 79.4672L36.62 79.2877L35.36 82.1595L36.27 82.3989L37.72 79.0783L38.72 78.8889L37.45 81.7707L38.37 82L39.82 78.6795L40.82 78.5L39.55 81.3518L40.47 81.5812L41.92 78.2906L42.92 78.1011L41.68 80.953L42.59 81.1923L43.84 77.8718L44.84 77.6923L43.56 80.5641L44.47 80.7934L45.9 77.5228L46.9 77.3333L45.62 80.1652L46.53 80.3946L48 77.1239L49 76.9444L47.76 79.7464L48.67 79.9758L50 76.735L51.15 76.5256L49.81 79.5171L50.72 79.7664L52.27 76.3162L53.44 76.1068L52.1 79.188L53.01 79.4174L54.56 75.8775L55.56 75.688L54.16 78.7692L55.07 79.0085L56.62 75.4986L57.62 75.3191L56.28 78.3803L57.2 78.6097L58.74 75.1097L59.74 74.9202L58.41 77.9117L59.32 78.141L60.84 74.661L61.84 74.4815L60.51 77.4729L61.42 77.7122L62.94 74.2322L63.94 74.0427L62.61 77.0342L63.52 77.2735L64.88 73.8832L65.88 73.6937L64.57 76.6852L65.48 76.9145L66.48 74.6211V83.9843L71.23 86.3775L109.58 79.8661L110 79.7963V61.9972L105.34 60.0527L96.36 61.6481ZM99 66.2949C99.3351 66.1845 99.6924 66.1588 100.04 66.2202C100.387 66.2816 100.714 66.4282 100.991 66.6467C101.267 66.8652 101.485 67.1488 101.625 67.472C101.764 67.7953 101.821 68.148 101.79 68.4986C101.796 68.8349 101.756 69.1704 101.67 69.4957L97.83 70.1937C98 70.8419 98.49 71.0712 99.28 70.9316C99.7968 70.8476 100.26 70.5647 100.57 70.1439L101.88 70.9316C101.574 71.3716 101.183 71.7458 100.73 72.0318C100.276 72.3179 99.7696 72.5101 99.24 72.5969C97.06 72.9957 95.89 71.7393 95.89 70.0242C95.8813 69.136 96.1892 68.2735 96.7588 67.5905C97.3283 66.9075 98.1226 66.4484 99 66.2949ZM92.47 67.4715C93.74 67.2422 94.77 67.9402 94.77 69.7251V73.1852L92.87 73.5342V70.1439C92.87 69.5356 92.54 69.1467 91.96 69.3063C91.723 69.3664 91.5027 69.4793 91.3156 69.6364C91.1286 69.7936 90.9796 69.9909 90.88 70.2137V73.8832L89 74.2222V68.3291L90.87 67.9801V68.3091C91.324 67.8888 91.8839 67.5993 92.49 67.4715H92.47ZM66.36 66.963V69.4658L11.12 79.6068H11.03V47.9573L91.39 34.1567V62.5356L66.68 66.9031L66.36 66.963ZM84.73 73.5342C85.0245 73.4967 85.2931 73.347 85.4795 73.1166C85.6659 72.8861 85.7556 72.5927 85.73 72.2977V68.9573L87.63 68.6083V71.8889C87.6626 72.7151 87.3859 73.5239 86.8536 74.1579C86.3212 74.792 85.5714 75.2058 84.75 75.3191C84.3899 75.4476 84.0023 75.4794 83.6259 75.4113C83.2496 75.3432 82.8979 75.1776 82.6061 74.931C82.3143 74.6845 82.0926 74.3658 81.9634 74.0068C81.8342 73.6479 81.802 73.2613 81.87 72.886V69.6752L83.77 69.3262V72.6667C83.74 73.2749 84.05 73.6439 84.75 73.5342H84.73ZM78.24 74.7806C78.7568 74.6966 79.22 74.4137 79.53 73.9929L80.84 74.7806C80.5354 75.2224 80.1447 75.5985 79.6911 75.8863C79.2375 76.1742 78.7304 76.3679 78.2 76.4558C76 76.8746 74.85 75.5983 74.85 73.8832C74.8261 72.9942 75.1259 72.1266 75.694 71.441C76.2621 70.7554 77.0599 70.2981 77.94 70.1538C78.2761 70.0446 78.634 70.0196 78.9821 70.0812C79.3302 70.1428 79.6577 70.2891 79.9355 70.507C80.2134 70.7249 80.4331 71.0078 80.5752 71.3306C80.7172 71.6534 80.7773 72.0061 80.75 72.3575C80.746 72.6933 80.7058 73.0276 80.63 73.3547L76.79 74.0527C77 74.6909 77.47 74.9402 78.24 74.7806ZM73.44 68.8974V76.3162C73.4843 76.7199 73.4478 77.1284 73.3327 77.5179C73.2176 77.9075 73.0262 78.2704 72.7696 78.5857C72.5129 78.901 72.196 79.1624 71.8374 79.3548C71.4787 79.5472 71.0853 79.6668 70.68 79.7065C70.38 79.7065 70.12 79.7963 69.96 79.7963V77.9815C70.0928 77.9984 70.2272 77.9984 70.36 77.9815C70.5021 77.9825 70.6427 77.9533 70.7726 77.8959C70.9024 77.8385 71.0186 77.7541 71.1132 77.6485C71.2078 77.5428 71.2787 77.4182 71.3213 77.2831C71.3639 77.1479 71.3771 77.0053 71.36 76.8647V69.2863L73.44 68.8974ZM109 62.6054V78.9387L71.27 85.6595L68 84.0142L105 77.4031H105.28V61.1197H105.33L109 62.6054Z" fill="#3A61AA"></path>
        <path d="M11.03 47.9373V79.6268L11.12 79.6068L66.38 69.4658V66.963L66.68 66.943L91.39 62.5356V34.1567L11.03 47.9373Z" fill="white"></path>
        <path d="M18.45 67.8205C18.0023 67.5927 17.4866 67.536 17 67.661C16.2285 67.8161 15.537 68.2388 15.0482 68.8539C14.5594 69.4691 14.305 70.2369 14.33 71.0214C14.2874 71.3674 14.3304 71.7186 14.4554 72.0442C14.5804 72.3699 14.7835 72.66 15.047 72.8892C15.3104 73.1185 15.6262 73.2799 15.9666 73.3593C16.3071 73.4387 16.6619 73.4337 17 73.3447C17.542 73.2481 18.0451 72.999 18.45 72.6268V72.886L20.13 72.557V64.7094L18.45 65.0385V67.8205ZM18.45 70.812C18.3254 71.0399 18.1511 71.2371 17.94 71.389C17.7288 71.5408 17.4862 71.6435 17.23 71.6895C16.49 71.8291 16.06 71.3903 16.06 70.6225C16.039 70.2728 16.146 69.9273 16.3612 69.6504C16.5764 69.3734 16.8851 69.1838 17.23 69.1168C17.4522 69.0647 17.6847 69.0764 17.9006 69.1505C18.1165 69.2246 18.307 69.3581 18.45 69.5356V70.812Z" fill="#3A61AA"></path>
        <path d="M20.9 68.2194L22.45 67.9202L23.78 64.5L21.91 64.8789L20.9 68.2194Z" fill="#3A61AA"></path>
        <path d="M24.77 71.6296L29.31 70.7422V69.1667L26.64 69.6752V68.3291L28.89 67.8903V66.3148L26.64 66.7536V65.5271L29.31 65.0185V63.433L24.77 64.3205V71.6296Z" fill="#3A61AA"></path>
        <path d="M33.8 64.4103C33.2654 64.5171 32.7767 64.7851 32.4 65.1781V64.9088L30.73 65.2279V70.4729L32.4 70.1539V66.8433C32.4955 66.6427 32.635 66.466 32.808 66.3263C32.9811 66.1865 33.1834 66.0872 33.4 66.0356C33.93 65.9459 34.21 66.245 34.21 66.7735V69.765L35.9 69.4359V66.3846C35.86 64.8091 34.92 64.2009 33.8 64.4103Z" fill="#3A61AA"></path>
        <path d="M40.21 67.3319L39 67.5712C38.83 67.5712 38.71 67.5712 38.71 67.3818C38.7128 67.2954 38.7486 67.2134 38.81 67.1524C38.9098 67.162 39.0102 67.162 39.11 67.1524C39.6896 67.1005 40.231 66.8421 40.635 66.4246C41.039 66.007 41.2787 65.4583 41.31 64.8789V64.6197L42.13 64.4601V63.0242L40.24 63.3932C39.8688 63.3031 39.4813 63.3031 39.11 63.3932C38.5366 63.4538 38.0035 63.7157 37.606 64.1322C37.2084 64.5487 36.9724 65.0926 36.94 65.6667C36.9216 65.9267 36.9776 66.1865 37.1015 66.416C37.2255 66.6455 37.4122 66.8352 37.64 66.963C37.47 67.1041 37.3335 67.281 37.2401 67.481C37.1468 67.681 37.0989 67.8991 37.1 68.1197C37.1038 68.3827 37.2116 68.6336 37.4 68.8177C37.1891 68.9861 37.0173 69.1981 36.8965 69.4391C36.7756 69.6801 36.7086 69.9444 36.7 70.2137C36.7 71.3704 37.7 71.7393 39.46 71.3903C41.22 71.0413 42.27 69.9345 42.27 68.6781C42.27 67.6809 41.5 67.0826 40.21 67.3319ZM39.14 64.5698C39.53 64.5 39.84 64.6695 39.84 65.0883C39.843 65.28 39.772 65.4656 39.6418 65.6066C39.5115 65.7476 39.3319 65.8334 39.14 65.8462C38.71 65.916 38.43 65.7564 38.43 65.3376C38.427 65.1432 38.4991 64.9552 38.6312 64.8123C38.7633 64.6694 38.9455 64.5826 39.14 64.5698ZM39.46 70.0741C38.62 70.2336 38.27 70.0741 38.27 69.6353C38.2668 69.5173 38.2924 69.4002 38.3447 69.2943C38.3969 69.1883 38.4743 69.0966 38.57 69.0271L40 68.7479C40.42 68.6581 40.63 68.8476 40.63 69.1467C40.63 69.4459 40.31 69.8946 39.46 70.0741Z" fill="#3A61AA"></path>
        <path d="M45.13 62.2265C44.6673 62.3095 44.2268 62.4869 43.8361 62.7477C43.4455 63.0086 43.1132 63.3471 42.86 63.7422L44.07 64.4103C44.169 64.2192 44.3106 64.0533 44.484 63.9254C44.6574 63.7975 44.8578 63.7109 45.07 63.6724C45.54 63.5726 45.87 63.812 45.89 64.2009L44.42 64.7393C43.24 65.1581 42.64 65.896 42.64 66.7336C42.64 67.7308 43.39 68.2393 44.46 68.0499C45.02 67.921 45.5223 67.6128 45.89 67.1724V67.5613L47.57 67.2422V63.9117C47.58 62.765 46.81 61.9174 45.13 62.2265ZM45.88 65.8262C45.7754 66.0295 45.6255 66.2063 45.4417 66.3428C45.258 66.4794 45.0453 66.5721 44.82 66.614C44.5 66.6838 44.28 66.614 44.26 66.3148C44.24 66.0157 44.4 65.896 44.85 65.7365L45.85 65.3675L45.88 65.8262Z" fill="#3A61AA"></path>
        <path d="M51.94 65.0584L50.72 65.2977C50.56 65.2977 50.44 65.2977 50.44 65.1083C50.439 65.066 50.4464 65.024 50.4619 64.9846C50.4773 64.9452 50.5005 64.9093 50.53 64.8789C50.6331 64.8885 50.7369 64.8885 50.84 64.8789C51.4205 64.8167 51.9589 64.5472 52.3559 64.1202C52.7528 63.6932 52.9816 63.1375 53 62.5556V62.2963L53.82 62.1368V60.7507L52 61.1197C51.6334 61.0195 51.2466 61.0195 50.88 61.1197C50.3055 61.18 49.7712 61.4416 49.372 61.8579C48.9728 62.2742 48.7347 62.8182 48.7 63.3932C48.6816 63.6532 48.7376 63.913 48.8615 64.1425C48.9854 64.372 49.1722 64.5617 49.4 64.6895C49.2321 64.8324 49.097 65.0097 49.0038 65.2092C48.9106 65.4088 48.8616 65.626 48.86 65.8462C48.8631 65.9771 48.8921 66.1061 48.9453 66.2259C48.9985 66.3457 49.0749 66.4538 49.17 66.5442C48.9615 66.7148 48.7914 66.9273 48.6708 67.1678C48.5502 67.4083 48.4818 67.6715 48.47 67.9402C48.47 69.0969 49.47 69.4658 51.23 69.1168C52.99 68.7678 54 67.661 54 66.4046C54 65.4074 53.22 64.8091 51.94 65.0584ZM50.86 62.2963C51.26 62.2265 51.56 62.396 51.56 62.8148C51.5606 63.0059 51.4888 63.1901 51.359 63.3306C51.2292 63.4711 51.051 63.5576 50.86 63.5726C50.44 63.6424 50.16 63.4829 50.16 63.0641C50.1568 62.8713 50.2275 62.6846 50.3575 62.542C50.4876 62.3994 50.6672 62.3115 50.86 62.2963ZM51.17 67.8006C50.32 67.9601 49.99 67.8006 49.97 67.3618C49.9687 67.243 49.9963 67.1257 50.0502 67.0198C50.1042 66.9139 50.183 66.8226 50.28 66.7536L51.73 66.4744C52.15 66.3846 52.36 66.5741 52.36 66.8732C52.36 67.1724 52 67.641 51.17 67.8006Z" fill="#3A61AA"></path>
        <path d="M57.18 64.0912C56.48 64.2308 56.03 64.0214 55.89 63.433L59.31 62.765C59.3938 62.4699 59.4342 62.1642 59.43 61.8575C59.456 61.552 59.406 61.2449 59.2845 60.9632C59.163 60.6816 58.9737 60.4341 58.7334 60.2428C58.4931 60.0515 58.2092 59.9223 57.9069 59.8665C57.6045 59.8107 57.293 59.8302 57 59.9231C56.2111 60.0632 55.4984 60.4799 54.9905 61.0979C54.4825 61.7159 54.2128 62.4946 54.23 63.2934C54.23 64.8191 55.23 65.906 57.23 65.537C57.7012 65.462 58.1519 65.2915 58.5544 65.036C58.9569 64.7804 59.3025 64.4453 59.57 64.0513L58.4 63.3533C58.2558 63.5507 58.0737 63.7176 57.8642 63.8442C57.6548 63.9709 57.4222 64.0548 57.18 64.0912ZM57 61.2991C57.56 61.1895 57.81 61.4886 57.84 61.8376L56 62.1866C56.0569 61.9551 56.183 61.7463 56.3616 61.5878C56.5402 61.4293 56.7628 61.3287 57 61.2991Z" fill="#3A61AA"></path>
        <path d="M66.75 58.0285C66.0733 58.1928 65.486 58.6106 65.11 59.1952C64.9313 58.9631 64.6883 58.7884 64.411 58.6927C64.1337 58.597 63.8343 58.5845 63.55 58.6567C63.0414 58.7597 62.5791 59.0216 62.23 59.4046V59.1254L60.57 59.4444V64.6895L62.23 64.3704V61.0897C62.35 60.9103 62.56 60.4017 63.07 60.302C63.58 60.2023 63.8 60.4915 63.8 60.9601V64.0613L65.48 63.7422V60.4217C65.58 60.2821 65.79 59.7735 66.3 59.6838C66.81 59.594 67.03 59.8632 67.03 60.3319V63.433L68.71 63.114V59.9231C68.69 58.4074 67.8 57.8191 66.75 58.0285Z" fill="#3A61AA"></path>
        <path d="M72.72 61.0897C72.02 61.2293 71.57 61.0199 71.43 60.4416L74.85 59.7735C74.9119 59.475 74.9421 59.1709 74.94 58.8661C74.9694 58.5548 74.9198 58.2412 74.7958 57.954C74.6718 57.6669 74.4774 57.4154 74.2304 57.2228C73.9834 57.0301 73.6919 56.9025 73.3825 56.8516C73.0731 56.8008 72.7559 56.8283 72.46 56.9316C71.6738 57.0717 70.9636 57.4873 70.4575 58.1034C69.9514 58.7196 69.6828 59.4958 69.7 60.292C69.7 61.8276 70.7 62.9145 72.7 62.5456C73.6223 62.3518 74.441 61.8265 75 61.0698L73.83 60.3718C73.5648 60.7429 73.168 60.9996 72.72 61.0897ZM72.46 58.3077C73.02 58.198 73.28 58.4971 73.3 58.8462L71.48 59.1952C71.529 58.9633 71.6501 58.7527 71.826 58.5933C72.002 58.434 72.2238 58.3341 72.46 58.3077Z" fill="#3A61AA"></path>
        <path d="M79.15 55.6453C78.6147 55.7503 78.1255 56.0186 77.75 56.4131V56.104L76.09 56.433V61.6781L77.75 61.349V58.0783C77.8455 57.8778 77.985 57.7011 78.158 57.5613C78.3311 57.4215 78.5333 57.3222 78.75 57.2707C79.29 57.1709 79.57 57.4801 79.57 58.0085V61L81.25 60.6809V57.5897C81.21 56.0342 80.28 55.4359 79.15 55.6453Z" fill="#3A61AA"></path>
        <path d="M84.58 53.4815L82.9 53.8105V55.1068L81.9 55.2963V56.802L82.9 56.6125V58.3376C82.9 59.614 83.48 60.3319 84.9 60.0727C85.2887 60.0161 85.6624 59.8839 86 59.6838V58.2678C85.7516 58.4063 85.4809 58.5008 85.2 58.547C84.75 58.6368 84.54 58.4473 84.54 58.0285V56.3134L86 56.0342V54.5285L84.54 54.8077L84.58 53.4815Z" fill="#3A61AA"></path>
        <path d="M26.59 58.8162L23.85 57.2906C23.5304 57.8402 23.0979 58.3161 22.5809 58.6873C22.0639 59.0585 21.474 59.3165 20.85 59.4444C20.3846 59.563 19.8975 59.5684 19.4296 59.4601C18.9617 59.3519 18.5267 59.1332 18.1612 58.8225C17.7957 58.5118 17.5103 58.1181 17.3292 57.6745C17.148 57.2309 17.0762 56.7505 17.12 56.2735C17.1052 55.1912 17.4697 54.1377 18.1507 53.2949C18.8317 52.452 19.7863 51.8726 20.85 51.6567C21.3934 51.5206 21.9644 51.5422 22.4959 51.7188C23.0274 51.8955 23.4972 52.2199 23.85 52.6538L26.59 50.0513C25.8602 49.2996 24.9432 48.7548 23.9329 48.4727C22.9225 48.1906 21.8551 48.1814 20.84 48.4459C18.8436 48.8321 17.0371 49.8812 15.7151 51.4221C14.3931 52.9631 13.6335 54.9051 13.56 56.9316C13.56 60.7906 16.56 63.4729 20.84 62.6453C22.0043 62.4166 23.1117 61.9605 24.0985 61.3033C25.0853 60.6462 25.932 59.801 26.59 58.8162Z" fill="#3A61AA"></path>
        <path d="M32.84 60.3319C34.3254 60.0712 35.6739 59.3042 36.6552 58.1621C37.6364 57.0199 38.1895 55.5735 38.22 54.0698C38.22 51.0783 36.02 49.2635 32.84 49.8917C31.3474 50.1426 29.9897 50.9059 29.0018 52.0494C28.0139 53.1929 27.4579 54.6448 27.43 56.1538C27.43 59.0954 29.61 60.9202 32.84 60.3319ZM32.84 52.7436C33.1258 52.668 33.426 52.665 33.7133 52.7349C34.0005 52.8048 34.2656 52.9453 34.4844 53.1436C34.7032 53.3419 34.8687 53.5917 34.9657 53.8702C35.0628 54.1487 35.0883 54.447 35.04 54.7379C35.055 55.3855 34.8438 56.0182 34.4424 56.5276C34.0411 57.0369 33.4746 57.3913 32.84 57.5299C32.5584 57.6064 32.2623 57.6123 31.9779 57.5471C31.6935 57.4818 31.4297 57.3475 31.21 57.156C30.9903 56.9646 30.8214 56.7219 30.7185 56.4496C30.6155 56.1773 30.5817 55.8839 30.62 55.5954C30.5832 54.9331 30.7876 54.2798 31.1955 53.7558C31.6034 53.2318 32.1874 52.8724 32.84 52.7436Z" fill="#3A61AA"></path>
        <path d="M43.25 51.886C43.4093 51.52 43.6494 51.1944 43.9524 50.9337C44.2554 50.673 44.6135 50.4839 45 50.3803C46 50.1909 46.52 50.7692 46.52 51.7464V57.2906L49.63 56.6823V50.9986C49.63 48.0769 47.93 47.01 45.84 47.359C44.8417 47.5357 43.9287 48.0329 43.24 48.7749V48.2464L40.16 48.8447V58.5171L43.24 57.9188L43.25 51.886Z" fill="#3A61AA"></path>
        <path d="M52.73 52.3447C52.73 54.7179 53.83 56.084 56.5 55.5755C57.2067 55.4496 57.8845 55.1962 58.5 54.8276V52.1852C58.0361 52.4261 57.5364 52.5911 57.02 52.6738C56.2 52.8333 55.81 52.4843 55.81 51.7265V48.5655L58.47 48.057V45.2949L55.81 45.8034V43.3903L52.73 43.9687V46.4017L50.91 46.7507V49.5128L52.73 49.1638V52.3447Z" fill="#3A61AA"></path>
        <path d="M63.55 48.3162C63.7758 47.9666 64.0688 47.665 64.4121 47.4289C64.7553 47.1927 65.1421 47.0266 65.55 46.9402C65.9448 46.8615 66.3478 46.8314 66.75 46.8504V43.6296C66.4553 43.582 66.1548 43.582 65.86 43.6296C64.9334 43.829 64.1016 44.335 63.5 45.0655V44.2778L60.46 44.9658V54.6382L63.55 54.0399V48.3162Z" fill="#3A61AA"></path>
        <path d="M67.5 50.5897C67.5 52.4843 68.88 53.3718 70.85 52.9729C71.8921 52.7706 72.8279 52.205 73.49 51.3775V52.0954L76.6 51.4872V45.3647C76.6 43.2507 75.18 41.6752 72.06 42.2835C71.2067 42.4409 70.394 42.7685 69.6706 43.2465C68.9472 43.7246 68.328 44.3432 67.85 45.0655L70.1 46.312C70.2885 45.9547 70.5588 45.6466 70.8889 45.4127C71.2189 45.1789 71.5996 45.0258 72 44.9658C72.89 44.8063 73.47 45.245 73.52 45.963L70.81 46.9601C68.65 47.708 67.5 49.0741 67.5 50.5897ZM71.64 48.7749L73.51 48.1068V48.9544C73.3079 49.3315 73.0231 49.6582 72.6768 49.9102C72.3306 50.1623 71.9317 50.3332 71.51 50.4103C70.9 50.5499 70.51 50.3205 70.51 49.8319C70.51 49.3433 70.82 49.0741 71.64 48.7749Z" fill="#3A61AA"></path>
        <path d="M79.69 47.1496C79.69 49.5228 80.79 50.8889 83.46 50.3803C84.1668 50.2545 84.8445 50.001 85.46 49.6325V46.9601C84.9961 47.201 84.4964 47.366 83.98 47.4487C83.16 47.6083 82.77 47.2593 82.77 46.4516V43.3704L85.43 42.8319V40.0798L82.77 40.5883V38.1752L79.65 38.7735V41.2165L77.83 41.5556V44.3177L79.69 43.9687V47.1496Z" fill="#3A61AA"></path>
    </g>
    <defs>
        <clipPath id="clip0_44_332">
            <rect width="100" height="53.8462" fill="white" transform="translate(10 33)"></rect>
        </clipPath>
    </defs>
</svg>