<svg xmlns="http://www.w3.org/2000/svg" xml:space="preserve" id="prefix__Calque_1" x="0" y="0" version="1.1" viewBox="0 0 489.9 219.2"><style>.prefix__st0{fill:#283276}.prefix__st1{fill:#f29fc5}.prefix__st2{fill:#008ecf}.prefix__st4{fill:#ffe000}</style>
    <path d="M195.2 155.4c0 10.1-8.2 18.4-18.4 18.4-10.1 0-18.4-8.2-18.4-18.4 0-10.1 8.2-18.4 18.4-18.4 10.2.1 18.4 8.3 18.4 18.4"
          class="prefix__st0"/>
    <path d="M74.2 86.9c0 10.1-8.2 18.4-18.4 18.4s-18.4-8.2-18.4-18.4c0-10.1 8.2-18.4 18.4-18.4s18.4 8.2 18.4 18.4" class="prefix__st1"/>
    <path d="M160.5 135.3c0 10.1-8.2 18.4-18.4 18.4-10.1 0-18.4-8.2-18.4-18.4 0-10.1 8.2-18.4 18.4-18.4 10.2.1 18.4 8.3 18.4 18.4"
          class="prefix__st2"/>
    <path d="M116.1 157.5c0 10.1-8.2 18.4-18.4 18.4-10.1 0-18.4-8.2-18.4-18.4 0-10.1 8.2-18.4 18.4-18.4 10.2.1 18.4 8.3 18.4 18.4"
          class="prefix__st1"/>
    <path
        d="M116.1 200.8c0 10.1-8.2 18.4-18.4 18.4-10.1 0-18.4-8.2-18.4-18.4 0-10.1 8.2-18.4 18.4-18.4 10.2.1 18.4 8.3 18.4 18.4M195.2 64c0 10.1-8.2 18.4-18.4 18.4-10.1 0-18.4-8.2-18.4-18.4 0-10.1 8.2-18.4 18.4-18.4 10.2.1 18.4 8.3 18.4 18.4m-34.7 22.9c0 10.1-8.2 18.4-18.4 18.4-10.1 0-18.4-8.2-18.4-18.4 0-10.1 8.2-18.4 18.4-18.4s18.4 8.2 18.4 18.4m-89 50.1c0 10.1-8.2 18.4-18.4 18.4s-18.4-8.2-18.4-18.4c0-10.1 8.2-18.4 18.4-18.4s18.4 8.2 18.4 18.4m-35-77c2.2 9.9-4 19.7-13.9 21.9S2.9 77.9.7 68s4-19.7 13.9-21.9 19.7 4 21.9 13.9"
        class="prefix__st0"/>
    <path
        d="M34.7 99.7c-.8 5.7-6.1 9.7-11.8 8.9s-9.7-6.1-8.9-11.8 6.1-9.7 11.8-8.9 9.7 6.1 8.9 11.8M140 175.4a12 12 0 0 1-13.6 10.2 12 12 0 0 1-10.2-13.6 12 12 0 0 1 13.6-10.2c6.5.9 11.1 7 10.2 13.6m35.6-76.1c-.6 4-4.2 6.7-8.2 6.1s-6.7-4.2-6.2-8.2c.6-4 4.2-6.7 8.2-6.1s6.7 4.2 6.2 8.2m-71.5-34.1c-.8 5.7-6.1 9.7-11.8 8.9s-9.7-6.1-8.9-11.8 6.1-9.7 11.8-8.9 9.7 6.1 8.9 11.8"
        fill="#e1000f"/>
    <path d="M134.1 51.6c-.8 5.7-6.1 9.7-11.8 8.9s-9.7-6.1-8.9-11.8 6.1-9.7 11.8-8.9c5.8.8 9.7 6.1 8.9 11.8" class="prefix__st1"/>
    <path
        d="M66.2 166.5c-.8 5.7-6.1 9.7-11.8 8.9s-9.7-6.1-8.9-11.8 6.1-9.7 11.8-8.9 9.7 6.1 8.9 11.8m102.7-46.9c-.8 5.7-6.1 9.7-11.8 8.9s-9.7-6.1-8.9-11.8 6.1-9.7 11.8-8.9c5.8.7 9.8 6 8.9 11.8"
        class="prefix__st4"/>
    <path d="M157 168.1a10.4 10.4 0 0 1-3.3 14.4 10.4 10.4 0 0 1-14.4-3.3 10.4 10.4 0 0 1 3.3-14.4c4.9-3 11.3-1.6 14.4 3.3"
          class="prefix__st0"/>
    <path d="M77.2 45.4c-.8 5.7-6.1 9.7-11.8 8.9-5.8-.8-9.7-6.1-8.9-11.8s6.1-9.7 11.8-8.9 9.7 6.1 8.9 11.8" class="prefix__st4"/>
    <path
        d="M117 19.3a19.31 19.31 0 0 1-38.6 0 19.31 19.31 0 0 1 38.6 0m-80.2 136c0 10.1-8.2 18.4-18.4 18.4S0 165.5 0 155.3c0-10.1 8.2-18.4 18.4-18.4s18.4 8.3 18.4 18.4m90.5-49.4c0 17.7-14.3 32-32 32s-32-14.3-32-32 14.3-32 32-32c17.6-.1 32 14.3 32 32"
        class="prefix__st2"/>
    <path
        d="M238.2 42.6h32.4v8.1h-22.9v16.4h19.6v8h-19.6v25.6h-9.5zm40 16.3h8.5v4.7c2.9-3.2 6.6-5.6 11.7-5.6 1.3 0 2.6.2 3.7.6V67c-1.3-.3-2.7-.6-4.4-.6-5.3 0-8.8 2.8-11 6.4v27.9h-8.5zm29 30.9c0-6.3 4.9-10.9 13.8-12.4l13.5-2.2V73c0-5.1-3.8-8.3-9.2-8.3-4.6 0-8.1 2.1-10.5 5.5l-6.4-4.9c3.7-5 9.7-8.1 17.2-8.1 11.3 0 17.5 6.6 17.5 15.9v27.6h-8.5V96c-3 3.7-8.2 6-13.4 6-8.4 0-14-4.8-14-12.2m15.5 5.2c5.2 0 9.3-2.5 11.8-6.5v-7.2l-11.3 1.9c-5.2.9-7.4 3.2-7.4 6.3 0 3.2 2.6 5.5 6.9 5.5m32.4-36.1h8.5V63c3.2-3.3 7.3-5.7 13.3-5.7 9.2 0 16.3 6.2 16.3 18.3v25.1h-8.6V75.9c0-6.6-3.7-10.6-9.6-10.6-5.7 0-9.1 3.6-11.3 7.2v28.2h-8.5V58.9zm81.8 29.9 6.7 5.1c-3.8 5.1-10 8.5-17.7 8.5-14 0-22.8-10.4-22.8-22.6s8.8-22.6 22.8-22.6c7.6 0 13.9 3.3 17.7 8.5l-6.7 5.1c-2.3-3.2-6.1-5.6-11-5.6-8.1 0-13.9 6.3-13.9 14.5 0 8.3 5.8 14.5 13.9 14.5 4.8.1 8.6-2.2 11-5.4m35 13.6c-14.4 0-23-10.4-23-22.6 0-12.5 8-22.6 21.2-22.6 11.5 0 19 7.9 19 18.5 0 1.9-.2 3.8-.6 5.1h-30.9c.6 9.1 6.1 13.9 14.2 13.9 5.1 0 9.3-2.2 11.9-5.7l6.2 5c-3.8 5.1-10.2 8.4-18 8.4m-13.8-28h22.5c-.2-5.2-3.9-10-10.6-10-6.2 0-10.5 3.5-11.9 10M232 117.3h46.9v8.7h-18.7v49.4h-9.5V126H232zm50.9 16.2h8.5v4.7c2.9-3.2 6.6-5.6 11.7-5.6 1.3 0 2.6.2 3.7.6v8.4c-1.3-.3-2.7-.6-4.4-.6-5.3 0-8.8 2.8-11 6.4v27.9h-8.5zm29 31c0-6.3 4.9-10.9 13.8-12.4l13.5-2.2v-2.2c0-5.1-3.8-8.3-9.2-8.3-4.6 0-8.1 2.1-10.5 5.5l-6.4-4.9c3.7-5 9.7-8.1 17.2-8.1 11.3 0 17.5 6.6 17.5 15.9v27.6h-8.5v-4.7c-3 3.7-8.2 6-13.4 6-8.3-.1-14-4.8-14-12.2m15.5 5.1c5.2 0 9.3-2.5 11.8-6.5v-7.2l-11.3 1.9c-5.2.9-7.4 3.2-7.4 6.3 0 3.3 2.6 5.5 6.9 5.5m36.4-36.1 12.3 32.6 12.2-32.6h9.3l-15.9 41.9h-11.4l-15.7-41.9zm38.2 31c0-6.3 4.9-10.9 13.8-12.4l13.5-2.2v-2.2c0-5.1-3.8-8.3-9.2-8.3-4.6 0-8.1 2.1-10.5 5.5l-6.4-4.9c3.7-5 9.7-8.1 17.2-8.1 11.3 0 17.5 6.6 17.5 15.9v27.6h-8.5v-4.7c-3 3.7-8.2 6-13.4 6-8.3-.1-14-4.8-14-12.2m15.6 5.1c5.2 0 9.3-2.5 11.8-6.5v-7.2l-11.3 1.9c-5.2.9-7.4 3.2-7.4 6.3 0 3.3 2.5 5.5 6.9 5.5m33.7-36.1h8.5v41.8h-8.5zm22.4-20.4h8.5v62.2h-8.5zm-23.3 7.7c0-2.8 2.3-5.1 5.1-5.1s5.1 2.3 5.1 5.1-2.3 5.1-5.1 5.1c-2.7 0-5.1-2.4-5.1-5.1"
        class="prefix__st0"/></svg>