<svg xmlns="http://www.w3.org/2000/svg" viewBox="0 0 42 42" xml:space="preserve"><path d="M24.4 13.6v9.1c.7-.4 1.5-.8 2.4-1.3v-8.9c-.8.4-1.6.8-2.4 1.1m3.8-1.9v8.7c.2-.1.4-.2.6-.4l1.8-1.2v-8.4c-.8.5-1.6.9-2.4 1.3m2.4-1.7c-.3.2-.6.4-.8.5l-1.5.9c0-4.3.1-7 .1-7 .1 0 .6.5 1.2 1.2l1 1.2zm1.5-.4c0 1.2-.1 3.8-.1 8.3.9-.7 1.7-1.3 2.3-1.9v-4.9l-1-1.2-.6-.6zm.2-.8c-.1 0-.1.1-.2.1v-.3zm-5.6 3.5c-.8.5-1.6.9-2.3 1.3L24.5 0l2.3 2.6c-.1 3.5-.1 6.8-.1 9.7M34.4 26v7.4c-.7.6-1.4 1.2-2.4 2v-7.9c.7-.4 1.4-.9 2.1-1.3.1-.1.2-.2.3-.2m0-1.3v-7.4c-.1.1-.2.1-.2.2-.7.4-1.4.8-2.1 1.3v8c.8-.9 1.6-1.5 2.3-2.1m-7.7 5.4v-8.5l-2.4 1.2v8.7c.8-.5 1.6-.9 2.4-1.4m1.5-6.6v-2.7c.8-.4 1.6-.8 2.3-1.3v8.1l-1.8 1.2c-.2.1-.4.2-.6.4.1-1.7.1-3.6.1-5.7m-3.9 8v8.7c.8-.4 1.6-.9 2.5-1.4v-8.5c-.8.4-1.7.8-2.5 1.2m3.9-2v8.4c.2-.1.4-.2.6-.4l1.8-1.2v-8.1h-.1c-.7.5-1.5.9-2.3 1.3m5.9 5.4c.1-.1.2-.1.3-.2 0 2.5 0 3.9.1 4.6-.6.2-1.1.5-1.6.6l-.9.3v-4.1c.7-.4 1.5-.8 2.1-1.2M30.5 37c-.8.4-1.5.9-2.3 1.3 0 1.4 0 2.4-.1 3 .5-.1.9-.2 1.3-.3.3-.1.8-.2 1.2-.3 0-.8 0-2-.1-3.7m-3.7 2c-.8.4-1.7.8-2.5 1.2v1.6c.8-.1 1.5-.1 1.9-.2.2 0 .4-.1.6-.1zm-4.2 1.9c.1 0 .2.4.2 1H21c1-.7 1.4-.9 1.4-.9s0-.1.2-.1m-3.2.1c-.5.3-.9.6-1.2.8v-2.5l.3-.2.9-.6zm-4 .6c.5.1 1.1.2 1.7.2V40c-.6.4-1.2.8-1.7 1.1zm0-2.5c.1-.1.2-.1.3-.2.4-.3.9-.6 1.3-.8v-2.5c-.5.3-1.1.7-1.7 1.1v2.4zm0-4.4 1.7-1.1v-2.5l-.4.2-1.3.8zM14.2 31c-.4.3-.8.5-1.2.8v-2.5l.9-.6.3-.2zm-2.4 1.5V30c-.6.4-1.2.8-1.7 1.1v2.5a46 46 0 0 0 1.7-1.1m-2.9 1.8c-.8.5-1.2.8-1.3.8s-.1-.5-.1-1.2c0-1.1 0-1.2.6-1.6.1-.1.4-.2.8-.5zm1.2-5.2c.4-.3.9-.6 1.4-.9l.2-.2v-2.5L10 26.6v2.5zm-1.2-1.7v2.5c-.6.4-1.1.7-1.1.7-.2.1-.2-.2-.2-2.3zm1.2-2.8a46 46 0 0 0 1.7-1.1V21l-.4.3c-.5.3-.9.6-1.3.8zm-1.2-1.7v2.5c-.8.5-1.2.8-1.3.8s-.1-.5-.1-2.4zm1.2-2.6a46 46 0 0 0 1.7-1.1v-2.5l-1.7 1.1zm-1.2-1.8V21c-.7.4-1.1.6-1.1.7-.2 0-.2-.3-.3-2.3zm1.2-2.6a46 46 0 0 0 1.7-1.1v-2.5l-1.7 1.1zm-1.2-1.7v2.5c-.7.4-1.1.7-1.2.7s-.2-.5-.2-2.3zm0 22.1v2.5c-.4.2-.7.4-.9.5-.1-.1-.3-.1-.4-.2-.1-.3-.1-.9-.1-2zm1.2 1.8v-2.5l1.7-1.1V37c-.6.4-1.2.8-1.7 1.1m0 2.1V40c.4-.3 1-.6 1.7-1v1.8c-.1 0-.1 0-.2-.1-.4-.1-.9-.3-1.5-.5m4.1-13.7-1.2.8v-2.5c.4-.3.8-.5 1.2-.8zm0-4.4c-.4.3-.8.5-1.2.8v-2.5c.4-.3.8-.5 1.2-.8zm-.2-4.3-1 .6v-2.5c.4-.3.8-.5 1.2-.8v2.5zm-.8-3.8-.2.1v-2.5l.4-.3.8-.5v2.5c-.3.3-.6.5-1 .7M13 38.2v2.5c.4-.2.8-.5 1.2-.8v-2.5c-.4.3-.8.5-1.2.8m0-4.5v2.5c.4-.3.8-.5 1.2-.8V33l-.4.3zm2.4-3.5 1.7-1.1v-2.5c-.5.3-1.1.7-1.7 1.1zm0-4.4 1.1-.7c.2-.1.4-.2.6-.4v-2.5c-.5.3-1.1.7-1.7 1.1zm.9-5.1.8-.5v-2.5c-.5.3-1 .6-1.4.9-.1.1-.2.1-.3.2v2.5zm-.9-3.8 1.7-1.1v-2.5l-.9.6-.7.5v2.5zm0-4.3 1.7-1.1V9c-.5.3-1.1.7-1.7 1.1zm4 23.9c-.4.2-.8.5-1.2.8v-2.5c.4-.3.8-.5 1.2-.8zm-1.1-6.2v2.5c.5-.3.9-.6 1.2-.8v-2.5c-.4.3-.8.6-1.2.8m1.1-2.7c-.4.2-.8.5-1.2.8v-2.5c.4-.3.8-.5 1.2-.8zm0-4.4c-.4.3-.8.5-1.2.8v-2.5c.4-.3.8-.5 1.2-.8zm0-4.5c-.3.2-.7.5-1.2.7v-2.5c.4-.3.8-.5 1.2-.8zm-.1-4.3c-.3.2-.7.4-1.1.7v-2.5c.2-.1.3-.2.5-.3s.4-.3.7-.4v2.5zm.1-4.4c-.4.2-.8.5-1.2.8V8.2c.4-.3.8-.5 1.2-.8zm1.2 30.2c.6-.4 1.3-.8 2.1-1.3v-1.2c0-.6-.1-1.2-.1-1.2-.1 0-.8.5-2 1.2zm0-4.4c.7-.4 1.4-.9 2.1-1.3V32l-.9.6c-.2.1-.6.4-1.1.7v2.5zm0-4.5c.8-.5 1.4-.9 1.6-1.1.5-.3.5-.4.5-1.5 0-.6-.1-1.2-.1-1.2-.1 0-.7.4-1.4.8-.1.1-.3.2-.6.4zm0-4.4 2.2-1.4c0-1.8-.1-2.4-.1-2.4-.1 0-.9.5-1.9 1.1l-.1.1v2.6zm0-4.5 2.1-1.4c0-1.9 0-2.4-.1-2.4s-1 .5-2 1.2zm0-4.5 2.2-1.4c0-1.8-.1-2.4-.1-2.4-.1 0-1 .5-2 1.2v2.6zm0-4.3 2.2-1.4c0-1.8-.1-2.4-.1-2.4-.1 0-1 .5-2 1.2v2.6zm0-4.4 2.1-1.4c0-1.9 0-2.4-.1-2.4s-1 .5-2 1.2z" fill-rule="evenodd" clip-rule="evenodd" fill="#5149a8"/></svg>