<svg version="1.0" xmlns="http://www.w3.org/2000/svg"
 width="90" height="90" viewBox="0 0 2000.000000 2000.000000"
 preserveAspectRatio="xMidYMid meet">
<metadata>
Created by potrace 1.16, written by Peter Selinger 2001-2019
</metadata>
<g transform="translate(0.000000,2000.000000) scale(0.100000,-0.100000)"
fill="#000000" stroke="none">
<path d="M1010 16820 l0 -2170 2170 0 2170 0 0 2170 0 2170 -2170 0 -2170 0 0
-2170z m3720 0 l0 -1550 -1550 0 -1550 0 0 1550 0 1550 1550 0 1550 0 0 -1550z"/>
<path d="M2250 16820 l0 -930 930 0 930 0 0 930 0 930 -930 0 -930 0 0 -930z"/>
<path d="M7210 18680 l0 -310 -620 0 -620 0 0 -310 0 -310 310 0 310 0 0 -310
0 -310 -310 0 -310 0 0 -1240 0 -1240 310 0 310 0 0 1240 0 1240 310 0 310 0
0 -1550 0 -1550 -1240 0 -1240 0 0 -310 0 -310 310 0 310 0 0 -310 0 -310
-310 0 -310 0 0 -310 0 -310 310 0 310 0 0 -310 0 -310 -310 0 -310 0 0 -310
0 -310 310 0 310 0 0 310 0 310 310 0 310 0 0 930 0 930 310 0 310 0 0 -620 0
-620 310 0 310 0 0 930 0 930 310 0 310 0 0 620 0 620 310 0 310 0 0 -310 0
-310 310 0 310 0 0 310 0 310 310 0 310 0 0 -1860 0 -1860 -1550 0 -1550 0 0
-310 0 -310 -310 0 -310 0 0 -1240 0 -1240 310 0 310 0 0 -620 0 -620 -310 0
-310 0 0 310 0 310 -620 0 -620 0 0 310 0 310 310 0 310 0 0 310 0 310 -310 0
-310 0 0 310 0 310 310 0 310 0 0 310 0 310 -310 0 -310 0 0 -310 0 -310 -620
0 -620 0 0 620 0 620 310 0 310 0 0 310 0 310 -310 0 -310 0 0 930 0 930 310
0 310 0 0 310 0 310 -620 0 -620 0 0 -310 0 -310 -310 0 -310 0 0 310 0 310
-310 0 -310 0 0 -310 0 -310 -310 0 -310 0 0 -310 0 -310 310 0 310 0 0 -620
0 -620 -310 0 -310 0 0 -620 0 -620 310 0 310 0 0 -310 0 -310 -310 0 -310 0
0 -1240 0 -1240 310 0 310 0 0 -310 0 -310 310 0 310 0 0 -310 0 -310 310 0
310 0 0 310 0 310 -310 0 -310 0 0 310 0 310 -310 0 -310 0 0 310 0 310 310 0
310 0 0 310 0 310 310 0 310 0 0 -620 0 -620 310 0 310 0 0 -310 0 -310 310 0
310 0 0 -310 0 -310 620 0 620 0 0 310 0 310 -620 0 -620 0 0 310 0 310 930 0
930 0 0 -1240 0 -1240 310 0 310 0 0 -310 0 -310 -310 0 -310 0 0 -620 0 -620
310 0 310 0 0 -310 0 -310 -310 0 -310 0 0 -310 0 -310 620 0 620 0 0 620 0
620 930 0 930 0 0 -310 0 -310 -310 0 -310 0 0 -310 0 -310 -310 0 -310 0 0
-310 0 -310 310 0 310 0 0 310 0 310 310 0 310 0 0 -310 0 -310 620 0 620 0 0
310 0 310 -620 0 -620 0 0 310 0 310 310 0 310 0 0 310 0 310 310 0 310 0 0
-310 0 -310 310 0 310 0 0 310 0 310 310 0 310 0 0 -310 0 -310 310 0 310 0 0
930 0 930 -310 0 -310 0 0 310 0 310 -310 0 -310 0 0 620 0 620 620 0 620 0 0
310 0 310 310 0 310 0 0 -1240 0 -1240 310 0 310 0 0 -620 0 -620 -310 0 -310
0 0 -620 0 -620 -310 0 -310 0 0 -310 0 -310 620 0 620 0 0 620 0 620 620 0
620 0 0 -310 0 -310 310 0 310 0 0 -310 0 -310 310 0 310 0 0 310 0 310 620 0
620 0 0 -310 0 -310 620 0 620 0 0 310 0 310 -310 0 -310 0 0 310 0 310 310 0
310 0 0 310 0 310 -310 0 -310 0 0 -310 0 -310 -1240 0 -1240 0 0 310 0 310
310 0 310 0 0 310 0 310 310 0 310 0 0 310 0 310 310 0 310 0 0 -310 0 -310
930 0 930 0 0 620 0 620 -310 0 -310 0 0 310 0 310 310 0 310 0 0 930 0 930
-310 0 -310 0 0 310 0 310 -310 0 -310 0 0 310 0 310 -310 0 -310 0 0 -310 0
-310 -310 0 -310 0 0 -310 0 -310 -1550 0 -1550 0 0 -310 0 -310 -310 0 -310
0 0 930 0 930 310 0 310 0 0 -310 0 -310 1240 0 1240 0 0 310 0 310 310 0 310
0 0 1240 0 1240 310 0 310 0 0 -310 0 -310 310 0 310 0 0 -310 0 -310 -310 0
-310 0 0 -310 0 -310 310 0 310 0 0 310 0 310 310 0 310 0 0 930 0 930 310 0
310 0 0 620 0 620 -310 0 -310 0 0 -310 0 -310 -310 0 -310 0 0 310 0 310
-310 0 -310 0 0 620 0 620 -930 0 -930 0 0 -310 0 -310 -310 0 -310 0 0 310 0
310 -310 0 -310 0 0 -930 0 -930 620 0 620 0 0 620 0 620 620 0 620 0 0 -310
0 -310 310 0 310 0 0 -310 0 -310 -620 0 -620 0 0 -310 0 -310 -1240 0 -1240
0 0 310 0 310 -620 0 -620 0 0 310 0 310 310 0 310 0 0 310 0 310 310 0 310 0
0 310 0 310 -310 0 -310 0 0 -310 0 -310 -620 0 -620 0 0 310 0 310 310 0 310
0 0 310 0 310 310 0 310 0 0 310 0 310 310 0 310 0 0 -310 0 -310 310 0 310 0
0 310 0 310 -310 0 -310 0 0 310 0 310 -310 0 -310 0 0 310 0 310 -620 0 -620
0 0 620 0 620 -620 0 -620 0 0 -310 0 -310 -310 0 -310 0 0 310 0 310 -620 0
-620 0 0 -310 0 -310 310 0 310 0 0 -310 0 -310 620 0 620 0 0 -310 0 -310
-1240 0 -1240 0 0 620 0 620 -310 0 -310 0 0 310 0 310 310 0 310 0 0 310 0
310 620 0 620 0 0 310 0 310 -930 0 -930 0 0 -310z m4340 -3100 l0 -310 310 0
310 0 0 310 0 310 310 0 310 0 0 -310 0 -310 -310 0 -310 0 0 -310 0 -310
-310 0 -310 0 0 -310 0 -310 -620 0 -620 0 0 620 0 620 310 0 310 0 0 310 0
310 310 0 310 0 0 -310z m-9300 -2480 l0 -310 -310 0 -310 0 0 310 0 310 310
0 310 0 0 -310z m9300 -310 l0 -620 -310 0 -310 0 0 310 0 310 -310 0 -310 0
0 310 0 310 620 0 620 0 0 -620z m6200 -930 l0 -310 -310 0 -310 0 0 310 0
310 310 0 310 0 0 -310z m-15500 -620 l0 -310 310 0 310 0 0 310 0 310 310 0
310 0 0 -310 0 -310 -310 0 -310 0 0 -310 0 -310 -310 0 -310 0 0 310 0 310
-310 0 -310 0 0 310 0 310 310 0 310 0 0 -310z m9300 0 l0 -310 310 0 310 0 0
310 0 310 620 0 620 0 0 -310 0 -310 -310 0 -310 0 0 -310 0 -310 -930 0 -930
0 0 620 0 620 310 0 310 0 0 -310z m4960 0 l0 -310 -310 0 -310 0 0 310 0 310
310 0 310 0 0 -310z m-8680 -620 l0 -310 -310 0 -310 0 0 -310 0 -310 310 0
310 0 0 -1550 0 -1550 620 0 620 0 0 310 0 310 -310 0 -310 0 0 620 0 620 310
0 310 0 0 310 0 310 -310 0 -310 0 0 930 0 930 930 0 930 0 0 -620 0 -620 310
0 310 0 0 -310 0 -310 310 0 310 0 0 310 0 310 620 0 620 0 0 -310 0 -310
-310 0 -310 0 0 -310 0 -310 -310 0 -310 0 0 -930 0 -930 -310 0 -310 0 0
-310 0 -310 -310 0 -310 0 0 310 0 310 310 0 310 0 0 310 0 310 -620 0 -620 0
0 -930 0 -930 310 0 310 0 0 -310 0 -310 310 0 310 0 0 -310 0 -310 310 0 310
0 0 -310 0 -310 -310 0 -310 0 0 310 0 310 -310 0 -310 0 0 -310 0 -310 -310
0 -310 0 0 -310 0 -310 -310 0 -310 0 0 310 0 310 -310 0 -310 0 0 310 0 310
-620 0 -620 0 0 310 0 310 310 0 310 0 0 620 0 620 -310 0 -310 0 0 1240 0
1240 -310 0 -310 0 0 310 0 310 310 0 310 0 0 310 0 310 -310 0 -310 0 0 620
0 620 620 0 620 0 0 -310z m6820 -620 l0 -310 -310 0 -310 0 0 -310 0 -310
930 0 930 0 0 -310 0 -310 -1240 0 -1240 0 0 620 0 620 310 0 310 0 0 310 0
310 310 0 310 0 0 -310z m-11160 -930 l0 -620 310 0 310 0 0 310 0 310 310 0
310 0 0 -310 0 -310 -310 0 -310 0 0 -310 0 -310 -310 0 -310 0 0 310 0 310
-310 0 -310 0 0 310 0 310 -620 0 -620 0 0 310 0 310 930 0 930 0 0 -620z
m14260 -2170 l0 -310 -310 0 -310 0 0 -620 0 -620 310 0 310 0 0 -310 0 -310
310 0 310 0 0 -310 0 -310 -310 0 -310 0 0 310 0 310 -620 0 -620 0 0 1240 0
1240 620 0 620 0 0 -310z m-1860 -1860 l0 -930 -930 0 -930 0 0 930 0 930 930
0 930 0 0 -930z m-8680 -1860 l0 -310 -310 0 -310 0 0 310 0 310 310 0 310 0
0 -310z m8060 0 l0 -310 -310 0 -310 0 0 310 0 310 310 0 310 0 0 -310z"/>
<path d="M10930 14960 l0 -310 310 0 310 0 0 310 0 310 -310 0 -310 0 0 -310z"/>
<path d="M9070 10000 l0 -310 310 0 310 0 0 -310 0 -310 310 0 310 0 0 310 0
310 -310 0 -310 0 0 310 0 310 -310 0 -310 0 0 -310z"/>
<path d="M9070 8140 l0 -310 310 0 310 0 0 310 0 310 -310 0 -310 0 0 -310z"/>
<path d="M8450 5350 l0 -620 620 0 620 0 0 -310 0 -310 -310 0 -310 0 0 -310
0 -310 310 0 310 0 0 310 0 310 310 0 310 0 0 310 0 310 -310 0 -310 0 0 310
0 310 -310 0 -310 0 0 310 0 310 -310 0 -310 0 0 -620z"/>
<path d="M14650 5040 l0 -310 310 0 310 0 0 310 0 310 -310 0 -310 0 0 -310z"/>
<path d="M10930 18680 l0 -310 620 0 620 0 0 -620 0 -620 310 0 310 0 0 310 0
310 310 0 310 0 0 -310 0 -310 310 0 310 0 0 930 0 930 -1550 0 -1550 0 0
-310z"/>
<path d="M14650 16820 l0 -2170 2170 0 2170 0 0 2170 0 2170 -2170 0 -2170 0
0 -2170z m3720 0 l0 -1550 -1550 0 -1550 0 0 1550 0 1550 1550 0 1550 0 0
-1550z"/>
<path d="M15890 16820 l0 -930 930 0 930 0 0 930 0 930 -930 0 -930 0 0 -930z"/>
<path d="M17750 13720 l0 -310 310 0 310 0 0 310 0 310 -310 0 -310 0 0 -310z"/>
<path d="M7830 12480 l0 -310 310 0 310 0 0 310 0 310 -310 0 -310 0 0 -310z"/>
<path d="M1010 3180 l0 -2170 2170 0 2170 0 0 2170 0 2170 -2170 0 -2170 0 0
-2170z m3720 0 l0 -1550 -1550 0 -1550 0 0 1550 0 1550 1550 0 1550 0 0 -1550z"/>
<path d="M2250 3180 l0 -930 930 0 930 0 0 930 0 930 -930 0 -930 0 0 -930z"/>
<path d="M10930 1320 l0 -310 310 0 310 0 0 310 0 310 -310 0 -310 0 0 -310z"/>
</g>
</svg>
