<svg version="1.0" xmlns="http://www.w3.org/2000/svg"
 width="90" height="90" viewBox="0 0 2000.000000 2000.000000"
 preserveAspectRatio="xMidYMid meet">
<metadata>
Created by potrace 1.16, written by Peter Selinger 2001-2019
</metadata>
<g transform="translate(0.000000,2000.000000) scale(0.100000,-0.100000)"
fill="#000000" stroke="none">
<path d="M1010 16820 l0 -2170 2170 0 2170 0 0 2170 0 2170 -2170 0 -2170 0 0
-2170z m3720 0 l0 -1550 -1550 0 -1550 0 0 1550 0 1550 1550 0 1550 0 0 -1550z"/>
<path d="M2250 16820 l0 -930 930 0 930 0 0 930 0 930 -930 0 -930 0 0 -930z"/>
<path d="M7210 18370 l0 -620 -310 0 -310 0 0 310 0 310 -310 0 -310 0 0 -310
0 -310 310 0 310 0 0 -310 0 -310 -310 0 -310 0 0 -1240 0 -1240 310 0 310 0
0 -310 0 -310 -930 0 -930 0 0 -310 0 -310 -310 0 -310 0 0 310 0 310 -620 0
-620 0 0 -310 0 -310 -310 0 -310 0 0 310 0 310 -310 0 -310 0 0 -310 0 -310
-310 0 -310 0 0 -3410 0 -3410 620 0 620 0 0 -310 0 -310 310 0 310 0 0 310 0
310 620 0 620 0 0 -310 0 -310 620 0 620 0 0 310 0 310 -620 0 -620 0 0 1240
0 1240 310 0 310 0 0 -310 0 -310 310 0 310 0 0 310 0 310 -310 0 -310 0 0
310 0 310 310 0 310 0 0 310 0 310 620 0 620 0 0 310 0 310 620 0 620 0 0
-310 0 -310 -310 0 -310 0 0 -310 0 -310 -620 0 -620 0 0 -620 0 -620 310 0
310 0 0 -620 0 -620 -310 0 -310 0 0 310 0 310 -620 0 -620 0 0 -310 0 -310
620 0 620 0 0 -310 0 -310 620 0 620 0 0 -310 0 -310 -620 0 -620 0 0 -620 0
-620 310 0 310 0 0 -310 0 -310 -310 0 -310 0 0 -620 0 -620 310 0 310 0 0
-310 0 -310 -310 0 -310 0 0 -310 0 -310 620 0 620 0 0 620 0 620 930 0 930 0
0 -310 0 -310 -310 0 -310 0 0 -310 0 -310 -310 0 -310 0 0 -310 0 -310 310 0
310 0 0 310 0 310 310 0 310 0 0 -310 0 -310 620 0 620 0 0 310 0 310 -620 0
-620 0 0 310 0 310 310 0 310 0 0 310 0 310 310 0 310 0 0 -310 0 -310 310 0
310 0 0 310 0 310 310 0 310 0 0 -310 0 -310 310 0 310 0 0 930 0 930 -310 0
-310 0 0 310 0 310 -310 0 -310 0 0 620 0 620 310 0 310 0 0 -310 0 -310 310
0 310 0 0 620 0 620 310 0 310 0 0 -1240 0 -1240 310 0 310 0 0 -620 0 -620
-310 0 -310 0 0 -620 0 -620 -310 0 -310 0 0 -310 0 -310 620 0 620 0 0 620 0
620 620 0 620 0 0 -310 0 -310 310 0 310 0 0 -310 0 -310 310 0 310 0 0 310 0
310 620 0 620 0 0 -310 0 -310 620 0 620 0 0 310 0 310 -310 0 -310 0 0 310 0
310 310 0 310 0 0 310 0 310 -310 0 -310 0 0 -310 0 -310 -1240 0 -1240 0 0
310 0 310 310 0 310 0 0 310 0 310 310 0 310 0 0 310 0 310 310 0 310 0 0
-310 0 -310 930 0 930 0 0 930 0 930 -310 0 -310 0 0 310 0 310 310 0 310 0 0
620 0 620 -310 0 -310 0 0 310 0 310 -310 0 -310 0 0 620 0 620 310 0 310 0 0
1240 0 1240 -310 0 -310 0 0 -310 0 -310 -310 0 -310 0 0 -310 0 -310 -310 0
-310 0 0 310 0 310 -310 0 -310 0 0 310 0 310 310 0 310 0 0 310 0 310 620 0
620 0 0 310 0 310 -310 0 -310 0 0 620 0 620 -930 0 -930 0 0 -310 0 -310
-310 0 -310 0 0 310 0 310 -310 0 -310 0 0 -930 0 -930 -930 0 -930 0 0 -620
0 -620 310 0 310 0 0 -310 0 -310 -310 0 -310 0 0 -310 0 -310 310 0 310 0 0
-310 0 -310 -310 0 -310 0 0 -310 0 -310 -620 0 -620 0 0 -310 0 -310 -310 0
-310 0 0 -310 0 -310 -310 0 -310 0 0 -930 0 -930 -310 0 -310 0 0 310 0 310
-310 0 -310 0 0 -620 0 -620 -310 0 -310 0 0 930 0 930 -310 0 -310 0 0 1240
0 1240 620 0 620 0 0 -310 0 -310 -310 0 -310 0 0 -620 0 -620 310 0 310 0 0
620 0 620 310 0 310 0 0 310 0 310 -310 0 -310 0 0 930 0 930 620 0 620 0 0
-310 0 -310 -310 0 -310 0 0 -310 0 -310 310 0 310 0 0 -310 0 -310 310 0 310
0 0 310 0 310 310 0 310 0 0 -310 0 -310 310 0 310 0 0 310 0 310 -310 0 -310
0 0 620 0 620 310 0 310 0 0 620 0 620 -620 0 -620 0 0 620 0 620 620 0 620 0
0 -310 0 -310 620 0 620 0 0 310 0 310 310 0 310 0 0 310 0 310 -310 0 -310 0
0 -310 0 -310 -310 0 -310 0 0 310 0 310 -930 0 -930 0 0 620 0 620 -310 0
-310 0 0 620 0 620 310 0 310 0 0 -310 0 -310 310 0 310 0 0 620 0 620 310 0
310 0 0 310 0 310 1240 0 1240 0 0 620 0 620 -2170 0 -2170 0 0 -620 0 -620
-620 0 -620 0 0 -310 0 -310 -620 0 -620 0 0 310 0 310 310 0 310 0 0 310 0
310 620 0 620 0 0 310 0 310 -930 0 -930 0 0 -620z m4340 -310 l0 -310 -620 0
-620 0 0 -310 0 -310 -310 0 -310 0 0 310 0 310 310 0 310 0 0 310 0 310 620
0 620 0 0 -310z m-2480 -1550 l0 -620 -620 0 -620 0 0 310 0 310 310 0 310 0
0 310 0 310 310 0 310 0 0 -620z m-1860 -930 l0 -930 -310 0 -310 0 0 930 0
930 310 0 310 0 0 -930z m1240 -620 l0 -310 310 0 310 0 0 310 0 310 310 0
310 0 0 -930 0 -930 -310 0 -310 0 0 -310 0 -310 310 0 310 0 0 -620 0 -620
-620 0 -620 0 0 -310 0 -310 -310 0 -310 0 0 310 0 310 -930 0 -930 0 0 -310
0 -310 -310 0 -310 0 0 -310 0 -310 -310 0 -310 0 0 -310 0 -310 -620 0 -620
0 0 310 0 310 310 0 310 0 0 620 0 620 -310 0 -310 0 0 -310 0 -310 -310 0
-310 0 0 -310 0 -310 -310 0 -310 0 0 310 0 310 -310 0 -310 0 0 310 0 310
310 0 310 0 0 -310 0 -310 310 0 310 0 0 620 0 620 310 0 310 0 0 310 0 310
310 0 310 0 0 -310 0 -310 620 0 620 0 0 310 0 310 -310 0 -310 0 0 310 0 310
930 0 930 0 0 310 0 310 620 0 620 0 0 620 0 620 310 0 310 0 0 -310z m-6200
-1860 l0 -310 -310 0 -310 0 0 310 0 310 310 0 310 0 0 -310z m14260 -310 l0
-620 -310 0 -310 0 0 -310 0 -310 -930 0 -930 0 0 310 0 310 310 0 310 0 0
310 0 310 310 0 310 0 0 310 0 310 620 0 620 0 0 -620z m-1860 -2480 l0 -620
-310 0 -310 0 0 -310 0 -310 930 0 930 0 0 -310 0 -310 310 0 310 0 0 620 0
620 310 0 310 0 0 310 0 310 310 0 310 0 0 -310 0 -310 -310 0 -310 0 0 -930
0 -930 -310 0 -310 0 0 -310 0 -310 620 0 620 0 0 -310 0 -310 -310 0 -310 0
0 -620 0 -620 310 0 310 0 0 -310 0 -310 310 0 310 0 0 -310 0 -310 -310 0
-310 0 0 310 0 310 -620 0 -620 0 0 1240 0 1240 -1860 0 -1860 0 0 620 0 620
310 0 310 0 0 620 0 620 310 0 310 0 0 620 0 620 310 0 310 0 0 -620z m1240 0
l0 -620 -310 0 -310 0 0 620 0 620 310 0 310 0 0 -620z m-13640 -1240 l0 -620
310 0 310 0 0 310 0 310 310 0 310 0 0 -310 0 -310 -310 0 -310 0 0 -930 0
-930 -310 0 -310 0 0 310 0 310 -310 0 -310 0 0 310 0 310 310 0 310 0 0 310
0 310 -310 0 -310 0 0 620 0 620 310 0 310 0 0 -620z m9300 -1860 l0 -620
-310 0 -310 0 0 -310 0 -310 -310 0 -310 0 0 310 0 310 310 0 310 0 0 620 0
620 310 0 310 0 0 -620z m4340 -2170 l0 -930 -930 0 -930 0 0 930 0 930 930 0
930 0 0 -930z m-8680 0 l0 -310 310 0 310 0 0 -620 0 -620 -310 0 -310 0 0
-310 0 -310 -310 0 -310 0 0 310 0 310 310 0 310 0 0 620 0 620 -310 0 -310 0
0 310 0 310 310 0 310 0 0 -310z m2480 -620 l0 -310 310 0 310 0 0 310 0 310
310 0 310 0 0 -310 0 -310 -310 0 -310 0 0 -310 0 -310 -310 0 -310 0 0 -310
0 -310 -310 0 -310 0 0 310 0 310 -310 0 -310 0 0 620 0 620 620 0 620 0 0
-310z m5580 -1240 l0 -310 -310 0 -310 0 0 310 0 310 310 0 310 0 0 -310z"/>
<path d="M6590 13100 l0 -310 -310 0 -310 0 0 -310 0 -310 -310 0 -310 0 0
-310 0 -310 -310 0 -310 0 0 -310 0 -310 310 0 310 0 0 310 0 310 310 0 310 0
0 310 0 310 620 0 620 0 0 620 0 620 -310 0 -310 0 0 -310z"/>
<path d="M7830 12170 l0 -620 310 0 310 0 0 620 0 620 -310 0 -310 0 0 -620z"/>
<path d="M15270 12480 l0 -310 310 0 310 0 0 310 0 310 -310 0 -310 0 0 -310z"/>
<path d="M13410 8140 l0 -310 310 0 310 0 0 310 0 310 -310 0 -310 0 0 -310z"/>
<path d="M14650 8140 l0 -310 620 0 620 0 0 310 0 310 -620 0 -620 0 0 -310z"/>
<path d="M14650 5040 l0 -310 310 0 310 0 0 310 0 310 -310 0 -310 0 0 -310z"/>
<path d="M9070 3800 l0 -310 310 0 310 0 0 310 0 310 -310 0 -310 0 0 -310z"/>
<path d="M14650 16820 l0 -2170 2170 0 2170 0 0 2170 0 2170 -2170 0 -2170 0
0 -2170z m3720 0 l0 -1550 -1550 0 -1550 0 0 1550 0 1550 1550 0 1550 0 0
-1550z"/>
<path d="M15890 16820 l0 -930 930 0 930 0 0 930 0 930 -930 0 -930 0 0 -930z"/>
<path d="M12790 16820 l0 -310 -620 0 -620 0 0 -310 0 -310 620 0 620 0 0
-310 0 -310 -310 0 -310 0 0 -310 0 -310 310 0 310 0 0 310 0 310 310 0 310 0
0 -310 0 -310 310 0 310 0 0 310 0 310 -310 0 -310 0 0 310 0 310 -310 0 -310
0 0 310 0 310 310 0 310 0 0 310 0 310 -310 0 -310 0 0 -310z"/>
<path d="M10930 14960 l0 -310 310 0 310 0 0 310 0 310 -310 0 -310 0 0 -310z"/>
<path d="M17750 13720 l0 -310 310 0 310 0 0 310 0 310 -310 0 -310 0 0 -310z"/>
<path d="M18370 12480 l0 -310 310 0 310 0 0 310 0 310 -310 0 -310 0 0 -310z"/>
<path d="M1010 3180 l0 -2170 2170 0 2170 0 0 2170 0 2170 -2170 0 -2170 0 0
-2170z m3720 0 l0 -1550 -1550 0 -1550 0 0 1550 0 1550 1550 0 1550 0 0 -1550z"/>
<path d="M2250 3180 l0 -930 930 0 930 0 0 930 0 930 -930 0 -930 0 0 -930z"/>
<path d="M10930 1320 l0 -310 310 0 310 0 0 310 0 310 -310 0 -310 0 0 -310z"/>
</g>
</svg>
