<svg viewBox="0 0 24 24" xmlns="http://www.w3.org/2000/svg"><path d="M15.3 16.3c-.2-.2-.3-.5-.3-.8 0-.2.1-.5.3-.7l1.9-1.8H10a1 1 0 0 1-.7-.3A1 1 0 0 1 9 12c0-.3.1-.5.3-.7.2-.2.4-.3.7-.3h7.2l-1.9-1.8a1 1 0 0 1-.3-.8c0-.2.1-.5.3-.7.2-.2.4-.3.7-.3.3 0 .5.1.7.3l3.6 3.6.2.3a1.1 1.1 0 0 1 0 .8l-.2.3-3.6 3.6c-.2.2-.5.3-.7.3a1 1 0 0 1-.7-.3ZM5 21a2 2 0 0 1-1.4-.6A2 2 0 0 1 3 19V5c0-.5.2-1 .6-1.4A2 2 0 0 1 5 3h6c.3 0 .5.1.7.3.2.2.3.4.3.7 0 .3-.1.5-.3.7a1 1 0 0 1-.7.3H5v14h6c.3 0 .5.1.7.3.2.2.3.4.3.7 0 .3-.1.5-.3.7a1 1 0 0 1-.7.3H5Z" fill="inherit"/></svg>