<svg viewBox="0 0 24 24" xmlns="http://www.w3.org/2000/svg"><path d="M5 21a2 2 0 0 1-1.4-.6A2 2 0 0 1 3 19V5c0-.5.2-1 .6-1.4A2 2 0 0 1 5 3h6c.3 0 .5.1.7.3.2.2.3.4.3.7 0 .3-.1.5-.3.7a1 1 0 0 1-.7.3H5v14h14v-6c0-.3.1-.5.3-.7.2-.2.4-.3.7-.3.3 0 .5.1.7.3.2.2.3.4.3.7v6c0 .6-.2 1-.6 1.4a2 2 0 0 1-1.4.6H5Zm4-6a1 1 0 0 1-.3-.7c0-.3.1-.5.3-.7L17.6 5H15a1 1 0 0 1-.7-.3A1 1 0 0 1 14 4c0-.3.1-.5.3-.7.2-.2.4-.3.7-.3h5c.3 0 .5.1.7.3.2.2.3.4.3.7v5c0 .3-.1.5-.3.7a1 1 0 0 1-.7.3 1 1 0 0 1-.7-.3A1 1 0 0 1 19 9V6.4L10.4 15a1 1 0 0 1-.7.3A1 1 0 0 1 9 15Z" fill="inherit"/></svg>