<svg viewBox="0 0 24 24" xmlns="http://www.w3.org/2000/svg"><path d="M14 18.2V12c0-.3.1-.5.3-.7.2-.2.4-.3.7-.3.3 0 .5.1.7.3.2.2.3.4.3.7v6.2l1.9-1.9c.2-.2.4-.3.7-.3.2 0 .5.1.7.3.2.2.3.4.3.7 0 .3-.1.5-.3.7l-3.6 3.6-.3.2h-.8a.9.9 0 0 1-.3-.2l-3.6-3.6a1 1 0 0 1-.3-.7c0-.3.1-.5.3-.7.2-.2.5-.3.7-.3.3 0 .5.1.7.3l1.9 1.9ZM8 5.8 6.1 7.7a1 1 0 0 1-.7.3 1 1 0 0 1-.7-.3 1 1 0 0 1-.3-.7c0-.3.1-.5.3-.7l3.6-3.6.3-.2a1.1 1.1 0 0 1 .8 0l.3.2 3.6 3.6c.2.2.3.4.3.7 0 .3-.1.5-.3.7a1 1 0 0 1-.7.3 1 1 0 0 1-.7-.3L10 5.8V12c0 .3-.1.5-.3.7a1 1 0 0 1-.7.3 1 1 0 0 1-.7-.3A1 1 0 0 1 8 12V5.8Z" fill="inherit"/></svg>