<svg viewBox="0 0 24 24" xmlns="http://www.w3.org/2000/svg"><path d="M11.5 22c-1.5 0-2.8-.5-3.9-1.6-1-1-1.6-2.4-1.6-3.9V6c0-1.1.4-2 1.2-2.8C8 2.4 8.9 2 10 2c1.1 0 2 .4 2.8 1.2C13.6 4 14 4.9 14 6v9.5c0 .7-.2 1.3-.7 1.8-.5.5-1.1.7-1.8.7s-1.3-.2-1.8-.7c-.5-.5-.7-1.1-.7-1.8V6.7a.7.7 0 0 1 .8-.7.7.7 0 0 1 .7.8v8.7c0 .3.1.5.3.7.2.2.4.3.7.3.3 0 .5-.1.7-.3.2-.2.3-.4.3-.7V6c0-.7-.2-1.3-.7-1.8-.5-.5-1.1-.7-1.8-.7s-1.3.2-1.8.7c-.5.5-.7 1.1-.7 1.8v10.5c0 1.1.4 2 1.2 2.8.8.8 1.7 1.2 2.8 1.2 1.1 0 2-.4 2.8-1.2.8-.8 1.2-1.7 1.2-2.8V6.7a.7.7 0 0 1 .8-.7.7.7 0 0 1 .7.8v9.7c0 1.5-.5 2.8-1.6 3.9-1 1-2.4 1.6-3.9 1.6Z" fill="inherit"/></svg>