<svg viewBox="0 0 24 24" xmlns="http://www.w3.org/2000/svg"><path d="M7 21a2 2 0 0 1-1.4-.6A2 2 0 0 1 5 19V6a1 1 0 0 1-.7-.3A1 1 0 0 1 4 5c0-.3.1-.5.3-.7.2-.2.4-.3.7-.3h4c0-.3.1-.5.3-.7.2-.2.4-.3.7-.3h4c.3 0 .5.1.7.3.2.2.3.4.3.7h4c.3 0 .5.1.7.3.2.2.3.4.3.7 0 .3-.1.5-.3.7a1 1 0 0 1-.7.3v13c0 .6-.2 1-.6 1.4a2 2 0 0 1-1.4.6H7Zm2-5c0 .3.1.5.3.7.2.2.4.3.7.3.3 0 .5-.1.7-.3.2-.2.3-.4.3-.7V9a1 1 0 0 0-.3-.7A1 1 0 0 0 10 8a1 1 0 0 0-.7.3A1 1 0 0 0 9 9v7Zm4 0c0 .3.1.5.3.7.2.2.4.3.7.3.3 0 .5-.1.7-.3.2-.2.3-.4.3-.7V9a1 1 0 0 0-.3-.7A1 1 0 0 0 14 8a1 1 0 0 0-.7.3 1 1 0 0 0-.3.7v7Z" fill="inherit"/></svg>