<svg viewBox="0 0 24 24" xmlns="http://www.w3.org/2000/svg"><path d="M12 15.6h-.4a.9.9 0 0 1-.3-.3l-3.6-3.6a1 1 0 0 1-.3-.7c0-.3.1-.5.3-.7.2-.2.4-.3.7-.3.3 0 .5 0 .7.3L11 12V5c0-.3.1-.5.3-.7.2-.2.4-.3.7-.3.3 0 .5.1.7.3.2.2.3.4.3.7v7.2l1.9-2 .7-.2c.3 0 .5.1.7.3.2.2.3.4.3.7 0 .3-.1.5-.3.7l-3.6 3.6-.3.2H12ZM6 20a2 2 0 0 1-1.4-.6A2 2 0 0 1 4 18v-2c0-.3.1-.5.3-.7.2-.2.4-.3.7-.3.3 0 .5.1.7.3.2.2.3.4.3.7v2h12v-2c0-.3.1-.5.3-.7.2-.2.4-.3.7-.3.3 0 .5.1.7.3.2.2.3.4.3.7v2c0 .6-.2 1-.6 1.4a2 2 0 0 1-1.4.6H6Z" fill="inherit"/></svg>