<svg viewBox="0 0 24 24" xmlns="http://www.w3.org/2000/svg">
    <path
        d="M3.9 20.8c-.8 0-1.4-.3-2-.8-.4-.5-.7-1.2-.7-1.9V5.9c0-.7.3-1.4.8-1.9s1.1-.8 1.9-.8h16.3c.7 0 1.3.3 1.8.8s.8 1.2.8 1.9v8.6c-.5-.3-1-.6-1.6-.7-.5-.2-1-.2-1.7-.2q-2.55 0-4.5 1.8a6 6 0 0 0-1.8 4.5v.9zM12 11 5.5 7c-.3-.3-.7-.3-1 0a1 1 0 0 0-.6.9l.1.5.4.4 6.9 4.3a1.3 1.3 0 0 0 1.4 0l7-4.3.3-.4.2-.5a1 1 0 0 0-.6-1 1 1 0 0 0-1.1 0zm6.9 9.8h-2.4c-.4 0-.7-.2-1-.4-.2-.3-.3-.6-.3-1 0-.3.1-.7.4-1q.3-.3.9-.3h2.4l-.3-.3c-.3-.3-.4-.6-.4-1a1.3 1.3 0 0 1 1.3-1.3c.4 0 .7.1 1 .4l2.6 2.6c.2.3.3.6.3 1l-.3.9-2.7 2.6q-.3.3-.9.3c-.3 0-.7 0-1-.4q-.3-.3-.3-.9c0-.3.1-.6.4-.9l.3-.4Z"
        fill="inherit"/>
</svg>