<svg viewBox="0 0 24 24" xmlns="http://www.w3.org/2000/svg"><path d="M19 14a1 1 0 0 1-.7-.3 1 1 0 0 1-.3-.7v-2h-2a1 1 0 0 1-.7-.3 1 1 0 0 1-.3-.7c0-.3.1-.5.3-.7.2-.2.4-.3.7-.3h2V7c0-.3.1-.5.3-.7.2-.2.4-.3.7-.3.3 0 .5.1.7.3.2.2.3.4.3.7v2h2c.3 0 .5.1.7.3.2.2.3.4.3.7 0 .3-.1.5-.3.7a1 1 0 0 1-.7.3h-2v2c0 .3-.1.5-.3.7a1 1 0 0 1-.7.3ZM9 12c-1.1 0-2-.4-2.8-1.2A3.9 3.9 0 0 1 5 8c0-1.1.4-2 1.2-2.8C7 4.4 7.9 4 9 4c1.1 0 2 .4 2.8 1.2C12.6 6 13 6.9 13 8c0 1.1-.4 2-1.2 2.8-.8.8-1.7 1.2-2.8 1.2Zm-7 8a1 1 0 0 1-.7-.3A1 1 0 0 1 1 19v-1.8c0-.6.1-1 .4-1.6a3 3 0 0 1 1.2-1A14.9 14.9 0 0 1 9 13a13.8 13.8 0 0 1 6.4 1.6c.5.2.9.6 1.2 1 .3.5.4 1 .4 1.6V19c0 .3-.1.5-.3.7a1 1 0 0 1-.7.3H2Z" fill="inherit"/></svg>