<svg width="24" height="24" viewBox="0 0 24 24" xmlns="http://www.w3.org/2000/svg"><path d="M12 20c-2.2 0-4.1-.8-5.7-2.3A7.7 7.7 0 0 1 4 12c0-2.2.8-4.1 2.3-5.7A7.7 7.7 0 0 1 12 4a8 8 0 0 1 6 2.8V5c0-.3.1-.5.3-.7.2-.2.4-.3.7-.3.3 0 .5.1.7.3.2.2.3.4.3.7v5c0 .3-.1.5-.3.7a1 1 0 0 1-.7.3h-5a1 1 0 0 1-.7-.3 1 1 0 0 1-.3-.7c0-.3.1-.5.3-.7.2-.2.4-.3.7-.3h3.2c-.5-1-1.3-1.7-2.2-2.2a6 6 0 0 0-3-.8c-1.7 0-3 .6-4.3 1.8A5.8 5.8 0 0 0 6 12c0 1.7.6 3 1.8 4.3A5.8 5.8 0 0 0 12 18a6 6 0 0 0 5.4-3.3c0-.2.2-.4.4-.5l.6-.2c.4 0 .6.1.8.4.2.3.3.6.1.9a7.8 7.8 0 0 1-3 3.4A7.8 7.8 0 0 1 12 20Z" fill="inherit"/></svg>