<svg viewBox="0 0 24 24" xmlns="http://www.w3.org/2000/svg"><path d="m18.9 20.3-5.6-5.6A6 6 0 0 1 9.5 16c-1.8 0-3.4-.6-4.6-1.9A6.3 6.3 0 0 1 3 9.5c0-1.8.6-3.4 1.9-4.6A6.3 6.3 0 0 1 9.5 3c1.8 0 3.4.6 4.6 1.9A6.3 6.3 0 0 1 16 9.5a6.1 6.1 0 0 1-1.3 3.8l5.6 5.6c.2.2.3.4.3.7 0 .3-.1.5-.3.7a1 1 0 0 1-.7.3 1 1 0 0 1-.7-.3ZM9.5 14c1.3 0 2.3-.4 3.2-1.3.9-.9 1.3-2 1.3-3.2 0-1.3-.4-2.3-1.3-3.2-.9-.9-2-1.3-3.2-1.3-1.3 0-2.3.4-3.2 1.3-.9.9-1.3 2-1.3 3.2 0 1.3.4 2.3 1.3 3.2.9.9 2 1.3 3.2 1.3Z" fill="inherit"/></svg>