<svg xmlns="http://www.w3.org/2000/svg" viewBox="0 0 20 20"><path d="M11.9 20H8l-.6-.2-.3-.7-.3-2.3q-.4 0-.7-.3l-.5-.4-2.2 1h-.7l-.5-.5-1.9-3.2-.1-.7q0-.3.4-.6l1.8-1.4V9.3L.7 8l-.4-.6.1-.7 1.9-3.2q0-.4.5-.5h.7l2.2 1 1.2-.7.3-2.3a1 1 0 0 1 1-.9h3.7q.3 0 .6.3t.4.6l.3 2.3.6.3.5.4 2.2-1h.7l.6.5 1.8 3.2q.2.3.1.7 0 .4-.3.6l-2 1.4.1.4v1l1.8 1.4q.3.2.4.6l-.1.7-1.9 3.2-.5.4h-.7l-2.2-.9-1.1.7-.3 2.3a1 1 0 0 1-1 .9M10 13.5q1.4 0 2.4-1t1-2.5-1-2.5-2.4-1q-1.6 0-2.5 1-1 1-1 2.5t1 2.5 2.5 1m0-2q-.7 0-1.1-.4T8.6 10 9 9q.4-.6 1-.5t1.1.4q.5.5.5 1.1t-.5 1-1 .5M9 18h2l.3-2.7a6 6 0 0 0 2.7-1.5l2.5 1 1-1.7-2.2-1.6.2-.7a6 6 0 0 0-.2-2.3l2.1-1.7-1-1.6-2.4 1a6 6 0 0 0-2.7-1.5L11 2H9l-.3 2.7A6 6 0 0 0 6 6.2l-2.4-1-1 1.6 2.1 1.6-.1.8a6 6 0 0 0 .1 2.3l-2.1 1.7 1 1.7L6 13.8a6 6 0 0 0 2.7 1.5z" fill="inherit"/></svg>
