<svg viewBox="0 0 24 24" xmlns="http://www.w3.org/2000/svg"><path d="M18 22c-.8 0-1.5-.3-2.1-.9a2.9 2.9 0 0 1-.8-2.8l-7-4.1c-.3.3-.6.4-1 .6L6 15c-.8 0-1.5-.3-2.1-.9-.6-.6-.9-1.3-.9-2.1s.3-1.5.9-2.1A3 3 0 0 1 7 9.2l1 .6 7-4.1v-.3L15 5c0-.8.3-1.5.9-2.1.6-.6 1.3-.9 2.1-.9s1.5.3 2.1.9c.6.6.9 1.3.9 2.1s-.3 1.5-.9 2.1a2.9 2.9 0 0 1-3.2.7c-.3-.2-.7-.3-1-.6l-7 4.1v.3a2.8 2.8 0 0 1 0 1.1l7 4.1c.3-.3.7-.4 1-.6A3 3 0 0 1 18 16c.8 0 1.5.3 2.1.9.6.6.9 1.3.9 2.1s-.3 1.5-.9 2.1c-.6.6-1.3.9-2.1.9Z" fill="inherit"/></svg>