<?xml version="1.0" encoding="utf-8"?>
<!-- Generator: Adobe Illustrator 27.6.1, SVG Export Plug-In . SVG Version: 6.00 Build 0)  -->
<svg version="1.1" id="Calque_1" xmlns="http://www.w3.org/2000/svg" xmlns:xlink="http://www.w3.org/1999/xlink" x="0px" y="0px"
	 viewBox="0 0 42 42" style="enable-background:new 0 0 42 42;" xml:space="preserve">
<style type="text/css">
	.st0{fill:#B41060;}
	.st1{fill:#E51252;}
	.st2{fill:#0F98D6;}
	.st3{fill:#89BD28;}
	.st4{fill:#F08819;}
</style>
<g>
	<path class="st0" d="M34.2,24.8c-2.7,0-4.9,2.2-4.9,4.9c0,0,0,0.1,0,0.1H23v1.3h6.4c0,0,0,0,0,0c0,0.1,0.1,0.3,0.1,0.4H31
		c-0.3-0.5-0.5-1.1-0.5-1.8c0-2,1.6-3.6,3.6-3.6s3.6,1.6,3.6,3.6c0,0.7-0.2,1.3-0.5,1.8h1.4c0.2-0.6,0.4-1.2,0.4-1.8
		C39.1,27,36.9,24.8,34.2,24.8z"/>
	<path class="st1" d="M32.5,18.1c-1.7-1.7-4.4-1.7-6.1,0c-1.5,1.5-1.7,3.9-0.4,5.6L21.7,28l0.9,0.9l4.4-4.4c0,0,0,0,0,0
		c0.8,0.5,1.6,0.8,2.5,0.8c1.1,0,2.2-0.4,3-1.3c0.8-0.8,1.2-1.9,1.2-3C33.7,20,33.3,18.9,32.5,18.1z M31.6,23.2
		c-1.2,1.2-3.1,1.2-4.2,0c-1.2-1.2-1.2-3,0-4.2c0.6-0.6,1.4-0.9,2.1-0.9c0.8,0,1.5,0.3,2.1,0.9C32.7,20.1,32.7,22,31.6,23.2z"/>
	<path class="st2" d="M25.5,15.9c0-3-2.4-5.5-5.5-5.5s-5.5,2.5-5.5,5.5c0,2.8,2.1,5.1,4.8,5.4c0,0,0,0,0,0v6.3h1.3v-6.3
		C23.4,21,25.5,18.7,25.5,15.9z M20.1,20.1c-2.3,0-4.2-1.9-4.2-4.2c0-2.3,1.9-4.2,4.2-4.2c2.3,0,4.2,1.9,4.2,4.2
		C24.2,18.2,22.4,20.1,20.1,20.1z"/>
	<path class="st3" d="M18.5,28.1L14,23.6c1.7-2,1.6-5.1-0.3-7c-2-2-5.3-2-7.3,0c-2,2-2,5.3,0,7.3c1,1,2.3,1.5,3.7,1.5
		c1,0,2.1-0.3,3-0.9c0,0,0,0,0,0l4.6,4.6L18.5,28.1z M7.3,22.9c-1.5-1.5-1.5-4,0-5.5c0.8-0.8,1.8-1.1,2.7-1.1s2,0.4,2.7,1.1
		c1.5,1.5,1.5,4,0,5.5C11.3,24.4,8.8,24.4,7.3,22.9z"/>
	<path class="st4" d="M17.3,30h-5.9c0,0,0,0,0,0c-0.1-2.2-2-3.9-4.2-3.9c-2.3,0-4.2,1.9-4.2,4.2c0,0.5,0.1,0.9,0.2,1.3h1.4
		c-0.2-0.4-0.3-0.8-0.3-1.3c0-1.6,1.3-2.9,2.9-2.9c1.6,0,2.9,1.3,2.9,2.9c0,0.5-0.1,0.9-0.3,1.3h1.4c0-0.1,0.1-0.2,0.1-0.3
		c0,0,0,0,0,0h6.1V30z"/>
</g>
</svg>
