<?xml version="1.0" encoding="utf-8"?>
<!-- Generator: Adobe Illustrator 27.6.1, SVG Export Plug-In . SVG Version: 6.00 Build 0)  -->
<svg version="1.1" id="Calque_1" xmlns="http://www.w3.org/2000/svg" xmlns:xlink="http://www.w3.org/1999/xlink" x="0px" y="0px"
	 viewBox="0 0 42 42" style="enable-background:new 0 0 42 42;" xml:space="preserve">
<style type="text/css">
	.st0{fill-rule:evenodd;clip-rule:evenodd;fill:#5149A8;}
</style>
<path class="st0" d="M24.4,13.6l0,9.1c0.7-0.4,1.5-0.8,2.4-1.3c0-2.6,0-5.6,0-8.9C26,12.9,25.2,13.3,24.4,13.6z M28.2,11.7
	c0,2.5,0,5.5,0,8.7c0.2-0.1,0.4-0.2,0.6-0.4c0.6-0.4,1.2-0.8,1.8-1.2c0-2.5,0-5.4,0-8.4C29.8,10.9,29,11.3,28.2,11.7z M30.6,10
	c-0.3,0.2-0.6,0.4-0.8,0.5c-0.5,0.3-1,0.6-1.5,0.9c0-4.3,0.1-7,0.1-7c0.1,0,0.6,0.5,1.2,1.2l1,1.2C30.6,7.9,30.6,9,30.6,10z
	 M32.1,9.6c0,1.2-0.1,3.8-0.1,8.3c0.9-0.7,1.7-1.3,2.3-1.9c0-1.5,0-3.2,0-4.9l-1-1.2c-0.2-0.2-0.4-0.4-0.6-0.6
	C32.5,9.4,32.3,9.5,32.1,9.6z M32.3,8.8c-0.1,0-0.1,0.1-0.2,0.1c0-0.2,0-0.3,0-0.3C32.2,8.7,32.2,8.7,32.3,8.8z M26.7,12.3
	c-0.8,0.5-1.6,0.9-2.3,1.3L24.5,0l2.3,2.6C26.7,6.1,26.7,9.4,26.7,12.3z M34.4,26c0,3.1,0,5.5,0,7.4c-0.7,0.6-1.4,1.2-2.4,2
	c0-2.9,0-5.6,0-7.9c0.7-0.4,1.4-0.9,2.1-1.3C34.2,26.1,34.3,26,34.4,26z M34.4,24.7c0-2.2,0-4.6,0-7.4c-0.1,0.1-0.2,0.1-0.2,0.2
	c-0.7,0.4-1.4,0.8-2.1,1.3c0,2.2,0,4.8,0,8C32.9,25.9,33.7,25.3,34.4,24.7z M26.7,30.1c0-2.4,0-5.2,0-8.5c-0.8,0.4-1.6,0.8-2.4,1.2
	l0,8.7C25.1,31,25.9,30.6,26.7,30.1z M28.2,23.5c0-0.9,0-1.8,0-2.7c0.8-0.4,1.6-0.8,2.3-1.3l0,0c0,3.1,0,5.8,0,8.1
	c-0.6,0.4-1.2,0.8-1.8,1.2c-0.2,0.1-0.4,0.2-0.6,0.4C28.2,27.5,28.2,25.6,28.2,23.5L28.2,23.5z M24.3,31.5l0,8.7
	c0.8-0.4,1.6-0.9,2.5-1.4c0-1.8,0-4.5,0-8.5C26,30.7,25.1,31.1,24.3,31.5z M28.2,29.5c0,3.8,0,6.5,0,8.4c0.2-0.1,0.4-0.2,0.6-0.4
	c0.6-0.4,1.2-0.8,1.8-1.2c0-2,0-4.7,0-8.1l-0.1,0C29.8,28.7,29,29.1,28.2,29.5z M34.1,34.9c0.1-0.1,0.2-0.1,0.3-0.2
	c0,2.5,0,3.9,0.1,4.6c-0.6,0.2-1.1,0.5-1.6,0.6c-0.3,0.1-0.6,0.2-0.9,0.3c0-1.4,0-2.8,0-4.1C32.7,35.7,33.5,35.3,34.1,34.9z
	 M30.5,37c-0.8,0.4-1.5,0.9-2.3,1.3c0,1.4,0,2.4-0.1,3c0.5-0.1,0.9-0.2,1.3-0.3c0.3-0.1,0.8-0.2,1.2-0.3
	C30.6,39.9,30.6,38.7,30.5,37L30.5,37z M26.8,39c-0.8,0.4-1.7,0.8-2.5,1.2l0,1.6c0.8-0.1,1.5-0.1,1.9-0.2c0.2,0,0.4-0.1,0.6-0.1
	C26.8,41,26.8,40.2,26.8,39z M22.6,40.9c0.1,0,0.2,0.4,0.2,1c-0.1,0-0.3,0-0.4,0c-0.4,0-0.9,0-1.4,0c1-0.7,1.4-0.9,1.4-0.9
	C22.4,41,22.4,40.9,22.6,40.9z M19.4,41c-0.5,0.3-0.9,0.6-1.2,0.8v-2.5l0.3-0.2c0.3-0.2,0.6-0.4,0.9-0.6V41z M15.4,41.6
	c0.5,0.1,1.1,0.2,1.7,0.2V40c-0.6,0.4-1.2,0.8-1.7,1.1V41.6z M15.4,39.1c0.1-0.1,0.2-0.1,0.3-0.2c0.4-0.3,0.9-0.6,1.3-0.8v-2.5
	c-0.5,0.3-1.1,0.7-1.7,1.1V39.1z M15.4,34.7c0.6-0.4,1.1-0.7,1.7-1.1v-2.5l-0.4,0.2l0,0l-1.3,0.8V34.7z M14.2,31
	c-0.4,0.3-0.8,0.5-1.2,0.8v-2.5c0.3-0.2,0.6-0.4,0.9-0.6l0.3-0.2V31z M11.8,32.5V30c-0.6,0.4-1.2,0.8-1.7,1.1v2.5
	C10.6,33.3,11.2,32.9,11.8,32.5z M8.9,34.3c-0.8,0.5-1.2,0.8-1.3,0.8c-0.1,0-0.1-0.5-0.1-1.2c0-1.1,0-1.2,0.6-1.6
	c0.1-0.1,0.4-0.2,0.8-0.5V34.3z M10.1,29.1c0.4-0.3,0.9-0.6,1.4-0.9l0.2-0.2v-2.5l-1.7,1.1V29.1z M8.9,27.4v2.5
	c-0.6,0.4-1.1,0.7-1.1,0.7c-0.2,0.1-0.2-0.2-0.2-2.3L8.9,27.4z M10.1,24.6c0.5-0.3,1.1-0.7,1.7-1.1v-2.5l-0.4,0.3l0,0
	c-0.5,0.3-0.9,0.6-1.3,0.8V24.6z M8.9,22.9v2.5c-0.8,0.5-1.2,0.8-1.3,0.8c-0.1,0-0.1-0.5-0.1-2.4L8.9,22.9z M10.1,20.3
	c0.5-0.3,1.1-0.7,1.7-1.1v-2.5l-1.7,1.1V20.3z M8.9,18.5V21c-0.7,0.4-1.1,0.6-1.1,0.7c-0.2,0-0.2-0.3-0.3-2.3L8.9,18.5z M10.1,15.9
	c0.5-0.3,1.1-0.7,1.7-1.1v-2.5l-1.7,1.1V15.9z M8.9,14.2v2.5c-0.7,0.4-1.1,0.7-1.2,0.7c-0.1,0-0.2-0.5-0.2-2.3L8.9,14.2z M8.9,36.3
	v2.5c-0.4,0.2-0.7,0.4-0.9,0.5c-0.1-0.1-0.3-0.1-0.4-0.2c-0.1-0.3-0.1-0.9-0.1-2L8.9,36.3z M10.1,38.1v-2.5l1.7-1.1V37
	C11.2,37.4,10.6,37.8,10.1,38.1z M10.1,40.2V40c0.4-0.3,1-0.6,1.7-1v1.8c-0.1,0-0.1,0-0.2-0.1C11.2,40.6,10.7,40.4,10.1,40.2z
	 M14.2,26.5L13,27.3v-2.5c0.4-0.3,0.8-0.5,1.2-0.8V26.5z M14.2,22.1c-0.4,0.3-0.8,0.5-1.2,0.8v-2.5c0.4-0.3,0.8-0.5,1.2-0.8V22.1z
	 M14,17.8l-1,0.6v-2.5c0.4-0.3,0.8-0.5,1.2-0.8v2.5L14,17.8L14,17.8L14,17.8L14,17.8z M13.2,14L13,14.1v-2.5l0.4-0.3l0.8-0.5v2.5
	C13.9,13.6,13.6,13.8,13.2,14z M13,38.2v2.5c0.4-0.2,0.8-0.5,1.2-0.8v-2.5C13.8,37.7,13.4,37.9,13,38.2z M13,33.7v2.5
	c0.4-0.3,0.8-0.5,1.2-0.8V33l-0.4,0.3L13,33.7z M15.4,30.2c0.6-0.4,1.1-0.7,1.7-1.1v-2.5c-0.5,0.3-1.1,0.7-1.7,1.1V30.2z M15.4,25.8
	L15.4,25.8L15.4,25.8l1.1-0.7c0.2-0.1,0.4-0.2,0.6-0.4v-2.5c-0.5,0.3-1.1,0.7-1.7,1.1V25.8z M16.3,20.7L16.3,20.7L16.3,20.7l0.8-0.5
	v-2.5c-0.5,0.3-1,0.6-1.4,0.9c-0.1,0.1-0.2,0.1-0.3,0.2v2.5C15.7,21.1,16,20.9,16.3,20.7z M15.4,16.9c0.6-0.4,1.1-0.7,1.7-1.1v-2.5
	c-0.3,0.2-0.6,0.4-0.9,0.6l0,0l0,0l-0.7,0.5V16.9z M15.4,12.6c0.6-0.4,1.1-0.7,1.7-1.1V9c-0.5,0.3-1.1,0.7-1.7,1.1V12.6z M19.4,36.5
	c-0.4,0.2-0.8,0.5-1.2,0.8v-2.5c0.4-0.3,0.8-0.5,1.2-0.8V36.5z M18.3,30.3v2.5c0.5-0.3,0.9-0.6,1.2-0.8v-2.5
	C19.1,29.8,18.7,30.1,18.3,30.3z M19.4,27.6c-0.4,0.2-0.8,0.5-1.2,0.8v-2.5c0.4-0.3,0.8-0.5,1.2-0.8V27.6z M19.4,23.2
	c-0.4,0.3-0.8,0.5-1.2,0.8v-2.5c0.4-0.3,0.8-0.5,1.2-0.8V23.2z M19.4,18.7c-0.3,0.2-0.7,0.5-1.2,0.7v-2.5c0.4-0.3,0.8-0.5,1.2-0.8
	L19.4,18.7L19.4,18.7z M19.3,14.4c-0.3,0.2-0.7,0.4-1.1,0.7v-2.5c0.2-0.1,0.3-0.2,0.5-0.3l0,0l0,0l0,0l0,0c0.2-0.1,0.4-0.3,0.7-0.4
	v2.5L19.3,14.4z M19.4,10c-0.4,0.2-0.8,0.5-1.2,0.8V8.2c0.4-0.3,0.8-0.5,1.2-0.8V10z M20.6,40.2c0.6-0.4,1.3-0.8,2.1-1.3v-1.2
	c0-0.6-0.1-1.2-0.1-1.2c-0.1,0-0.8,0.5-2,1.2V40.2z M20.6,35.8c0.7-0.4,1.4-0.9,2.1-1.3V32l-0.9,0.6c-0.2,0.1-0.6,0.4-1.1,0.7V35.8z
	 M20.6,31.3c0.8-0.5,1.4-0.9,1.6-1.1c0.5-0.3,0.5-0.4,0.5-1.5c0-0.6-0.1-1.2-0.1-1.2c-0.1,0-0.7,0.4-1.4,0.8
	c-0.1,0.1-0.3,0.2-0.6,0.4V31.3z M20.6,26.9l2.2-1.4c0-1.8-0.1-2.4-0.1-2.4c-0.1,0-0.9,0.5-1.9,1.1l-0.1,0.1V26.9z M20.6,22.4
	l2.1-1.4c0-1.9,0-2.4-0.1-2.4c-0.1,0-1,0.5-2,1.2V22.4z M20.6,17.9l2.2-1.4c0-1.8-0.1-2.4-0.1-2.4c-0.1,0-1,0.5-2,1.2V17.9z
	 M20.6,13.6l2.2-1.4c0-1.8-0.1-2.4-0.1-2.4c-0.1,0-1,0.5-2,1.2V13.6z M20.6,9.2L20.6,9.2l2.1-1.4c0-1.9,0-2.4-0.1-2.4
	c-0.1,0-1,0.5-2,1.2V9.2z"/>
</svg>
