<?xml version="1.0" encoding="utf-8"?>
<!-- Generator: Adobe Illustrator 27.6.1, SVG Export Plug-In . SVG Version: 6.00 Build 0)  -->
<svg version="1.1" id="Calque_1" xmlns="http://www.w3.org/2000/svg" xmlns:xlink="http://www.w3.org/1999/xlink" x="0px" y="0px"
	 viewBox="0 0 42 42" style="enable-background:new 0 0 42 42;" xml:space="preserve">
<style type="text/css">
	.st0{fill:#283276;}
	.st1{fill:#F29FC5;}
	.st2{fill:#008ECF;}
	.st3{fill:#E1000F;}
	.st4{fill:#FFE000;}
</style>
<path class="st0" d="M38.8,29.2c0,1.8-1.5,3.4-3.4,3.4c-1.8,0-3.4-1.5-3.4-3.4c0-1.8,1.5-3.4,3.4-3.4C37.3,25.9,38.8,27.4,38.8,29.2
	z"/>
<path class="st1" d="M16.7,16.7c0,1.8-1.5,3.4-3.4,3.4c-1.9,0-3.4-1.5-3.4-3.4c0-1.8,1.5-3.4,3.4-3.4C15.2,13.3,16.7,14.9,16.7,16.7
	z"/>
<path class="st2" d="M32.5,25.6c0,1.8-1.5,3.4-3.4,3.4c-1.9,0-3.3-1.6-3.3-3.4c0-1.8,1.5-3.4,3.4-3.4C31.1,22.2,32.5,23.8,32.5,25.6
	z"/>
<path class="st1" d="M24.3,29.7c0,1.8-1.5,3.4-3.4,3.4c-1.9,0-3.4-1.5-3.4-3.4c0-1.8,1.5-3.4,3.4-3.4C22.9,26.3,24.3,27.8,24.3,29.7
	z"/>
<path class="st0" d="M24.3,37.5c0,1.8-1.5,3.4-3.4,3.4c-1.8,0-3.4-1.5-3.4-3.4c0-1.8,1.5-3.4,3.4-3.4C22.9,34.2,24.3,35.7,24.3,37.5
	z"/>
<path class="st0" d="M38.8,12.5c0,1.8-1.5,3.4-3.4,3.4c-1.8,0-3.4-1.5-3.4-3.4c0-1.8,1.5-3.4,3.4-3.4C37.3,9.2,38.8,10.7,38.8,12.5z
	"/>
<path class="st0" d="M32.5,16.7c0,1.8-1.5,3.4-3.4,3.4c-1.9,0-3.3-1.5-3.3-3.4c0-1.8,1.5-3.4,3.4-3.4C31.1,13.3,32.5,14.9,32.5,16.7
	z"/>
<path class="st0" d="M16.3,25.8c0,1.8-1.5,3.4-3.4,3.4c-1.9,0-3.4-1.5-3.4-3.4c0-1.8,1.5-3.4,3.4-3.4C14.8,22.5,16.3,24,16.3,25.8z"
	/>
<path class="st0" d="M9.8,11.8c0.4,1.8-0.7,3.6-2.5,4c-1.8,0.4-3.6-0.7-4-2.5c-0.3-1.8,0.8-3.7,2.5-4C7.7,8.9,9.5,10,9.8,11.8z"/>
<path class="st3" d="M9.6,19.1c-0.2,1-1.1,1.7-2.2,1.7c-1-0.2-1.7-1.1-1.7-2.2c0.2-1,1.1-1.7,2.2-1.7C9,17.1,9.7,18,9.6,19.1z"/>
<path class="st3" d="M28.8,32.9c-0.2,1.2-1.3,2-2.5,1.8c-1.2-0.2-2-1.3-1.8-2.5c0.2-1.2,1.3-2,2.5-1.8
	C28.1,30.5,28.9,31.7,28.8,32.9z"/>
<path class="st3" d="M35.2,19c-0.1,0.7-0.8,1.2-1.5,1.1c-0.7-0.1-1.2-0.8-1.1-1.5c0.1-0.7,0.8-1.2,1.5-1.1
	C34.9,17.6,35.3,18.3,35.2,19z"/>
<path class="st3" d="M22.2,12.8c-0.2,1-1.1,1.7-2.2,1.7c-1-0.2-1.7-1.1-1.7-2.2c0.2-1,1.1-1.7,2.2-1.7
	C21.7,10.8,22.3,11.8,22.2,12.8z"/>
<path class="st1" d="M27.7,10.3c-0.2,1-1.1,1.7-2.2,1.7c-1-0.2-1.7-1.1-1.7-2.2C24,8.7,25,8,26,8.1C27.1,8.3,27.8,9.2,27.7,10.3z"/>
<path class="st4" d="M15.3,31.2c-0.2,1-1.1,1.7-2.2,1.7c-1-0.2-1.7-1.1-1.7-2.2c0.2-1,1.1-1.7,2.2-1.7
	C14.7,29.2,15.4,30.3,15.3,31.2z"/>
<path class="st4" d="M34,22.7c-0.2,1-1.1,1.7-2.2,1.7c-1-0.2-1.7-1.1-1.7-2.2c0.2-1,1.1-1.7,2.2-1.7C33.5,20.7,34.2,21.7,34,22.7z"
	/>
<path class="st0" d="M31.8,31.6c0.5,0.9,0.3,2.1-0.6,2.6c-0.9,0.5-2.1,0.3-2.6-0.6c-0.5-0.9-0.3-2.1,0.6-2.6
	C30.1,30.4,31.3,30.7,31.8,31.6z"/>
<path class="st4" d="M17.3,9.2c-0.2,1-1.1,1.7-2.2,1.7c-1-0.2-1.7-1.1-1.7-2.2c0.2-1,1.1-1.7,2.2-1.7C16.7,7.2,17.4,8.1,17.3,9.2z"
	/>
<path class="st2" d="M24.5,4.4c0,1.9-1.6,3.5-3.5,3.5c-1.9,0-3.5-1.6-3.5-3.5c0-1.9,1.6-3.5,3.5-3.5C23,0.9,24.5,2.5,24.5,4.4z"/>
<path class="st2" d="M9.9,29.2c0,1.8-1.5,3.4-3.4,3.4c-1.9,0-3.3-1.6-3.3-3.4c0-1.8,1.5-3.4,3.4-3.4C8.5,25.8,9.9,27.4,9.9,29.2z"/>
<path class="st2" d="M26.4,20.2c0,3.2-2.6,5.8-5.8,5.8s-5.8-2.6-5.8-5.8s2.6-5.8,5.8-5.8S26.4,17,26.4,20.2z"/>
</svg>
