<svg viewBox="0 0 32 32" stroke="var(--color-primary)" fill="white" xmlns="http://www.w3.org/2000/svg">
    <circle cx="16" cy="16" r="8" stroke-width="16" stroke="inherit" fill="none"/>
    <path
        d="M20 17.8a3 3 0 0 0-1.7-2.8 3 3 0 0 0 1.2-2.5c0-1.9-1.5-3-3.5-3-1.8 0-3.1.8-4 2l1.8 1.2c.5-.8 1.1-1.3 2-1.3.9 0 1.5.5 1.5 1.3 0 .9-.7 1.4-1.6 1.4H14v2h1.8c1.2 0 2 .6 2 1.6s-.8 1.7-1.9 1.7c-1 0-1.8-.5-2.5-1.8l-1.8 1.2c.9 1.6 2.2 2.5 4.3 2.5 2.4 0 4.1-1.4 4.1-3.5Z"
        fill="inherit" stroke="none"/>
</svg>
