<svg width="24" height="22" viewBox="0 0 24 22" fill="none" xmlns="http://www.w3.org/2000/svg">
<path d="M12.12 21.6C11.78 21.6 11.49 21.48 11.25 21.24C11.01 21 10.89 20.71 10.89 20.37C10.89 20.23 10.92 20.085 10.98 19.935C11.04 19.785 11.13 19.65 11.25 19.53L16.8 13.98L16.17 13.35L10.62 18.9C10.5 19.02 10.37 19.11 10.23 19.17C10.09 19.23 9.94 19.26 9.78 19.26C9.44 19.26 9.155 19.145 8.925 18.915C8.695 18.685 8.58 18.4 8.58 18.06C8.58 17.86 8.61 17.695 8.67 17.565C8.73 17.435 8.81 17.32 8.91 17.22L14.46 11.67L13.83 11.04L8.28 16.56C8.16 16.68 8.03 16.77 7.89 16.83C7.75 16.89 7.59 16.92 7.41 16.92C7.09 16.92 6.81 16.8 6.57 16.56C6.33 16.32 6.21 16.04 6.21 15.72C6.21 15.56 6.24 15.41 6.3 15.27C6.36 15.13 6.45 15 6.57 14.88L12.12 9.33L11.49 8.7L5.97 14.25C5.87 14.35 5.75 14.43 5.61 14.49C5.47 14.55 5.3 14.58 5.1 14.58C4.76 14.58 4.475 14.47 4.245 14.25C4.015 14.03 3.9 13.75 3.9 13.41C3.9 13.25 3.93 13.1 3.99 12.96C4.05 12.82 4.14 12.69 4.26 12.57L10.95 5.88L14.76 9.69C14.98 9.91 15.225 10.095 15.495 10.245C15.765 10.395 16.09 10.47 16.47 10.47C17.11 10.47 17.65 10.265 18.09 9.855C18.53 9.445 18.75 8.89 18.75 8.19C18.75 7.91 18.695 7.635 18.585 7.365C18.475 7.095 18.29 6.83 18.03 6.57L12.66 1.2L12.84 0.99C13.18 0.67 13.56 0.425 13.98 0.255C14.4 0.0850001 14.82 0 15.24 0C15.76 0 16.24 0.0850001 16.68 0.255C17.12 0.425 17.52 0.69 17.88 1.05L22.95 6.15C23.31 6.51 23.575 6.91 23.745 7.35C23.915 7.79 24 8.3 24 8.88C24 9.28 23.91 9.685 23.73 10.095C23.55 10.505 23.29 10.88 22.95 11.22L12.96 21.24C12.8 21.4 12.66 21.5 12.54 21.54C12.42 21.58 12.28 21.6 12.12 21.6ZM2.67 12.84L1.05 11.22C0.71 10.9 0.45 10.52 0.27 10.08C0.0899999 9.64 0 9.18 0 8.7C0 8.18 0.1 7.7 0.3 7.26C0.5 6.82 0.75 6.45 1.05 6.15L6.12 1.05C6.44 0.73 6.82 0.475 7.26 0.285C7.7 0.0949999 8.13 0 8.55 0C9.09 0 9.57 0.075 9.99 0.225C10.41 0.375 10.82 0.65 11.22 1.05L17.37 7.2C17.55 7.38 17.675 7.55 17.745 7.71C17.815 7.87 17.85 8.03 17.85 8.19C17.85 8.59 17.72 8.92 17.46 9.18C17.2 9.44 16.87 9.57 16.47 9.57C16.29 9.57 16.105 9.525 15.915 9.435C15.725 9.345 15.54 9.21 15.36 9.03L10.92 4.59L2.67 12.84Z" fill="#3B69D1"/>
</svg>
