<svg viewBox="0 0 24 24" xmlns="http://www.w3.org/2000/svg">
<path d="M1.3 21.1C0.933333 21.1 0.625 20.975 0.375 20.725C0.125 20.475 0 20.1667 0 19.8V17.525C0 16.8417 0.162333 16.225 0.487 15.675C0.812333 15.125 1.25 14.7083 1.8 14.425C2.9 13.8583 4.03733 13.4333 5.212 13.15C6.38733 12.8667 7.575 12.725 8.775 12.725C9.975 12.725 11.1583 12.8667 12.325 13.15C13.4917 13.4333 14.625 13.8583 15.725 14.425C16.275 14.7083 16.7123 15.125 17.037 15.675C17.3623 16.225 17.525 16.8417 17.525 17.525V19.8C17.525 20.1667 17.4 20.475 17.15 20.725C16.9 20.975 16.5917 21.1 16.225 21.1H1.3ZM19 21.1C19.1667 21.0167 19.3167 20.8707 19.45 20.662C19.5833 20.454 19.65 20.1667 19.65 19.8V17.225C19.65 16.525 19.4583 15.7583 19.075 14.925C18.6917 14.0917 18.0917 13.3833 17.275 12.8C18.325 12.9 19.3127 13.0873 20.238 13.362C21.1627 13.6373 22.0167 13.9917 22.8 14.425C23.5 14.825 24.0333 15.2667 24.4 15.75C24.7667 16.2333 24.95 16.725 24.95 17.225V19.8C24.95 20.1667 24.825 20.475 24.575 20.725C24.325 20.975 24.0167 21.1 23.65 21.1H19ZM8.75 11.4C7.45 11.4 6.34167 10.9417 5.425 10.025C4.50833 9.10833 4.05 8 4.05 6.7C4.05 5.4 4.50833 4.29167 5.425 3.375C6.34167 2.45833 7.45 2 8.75 2C10.05 2 11.1583 2.45833 12.075 3.375C12.9917 4.29167 13.45 5.4 13.45 6.7C13.45 8 12.9917 9.10833 12.075 10.025C11.1583 10.9417 10.05 11.4 8.75 11.4ZM20.875 6.7C20.875 8 20.4167 9.10833 19.5 10.025C18.5833 10.9417 17.475 11.4 16.175 11.4C15.925 11.4 15.5833 11.3707 15.15 11.312C14.7167 11.254 14.375 11.1833 14.125 11.1C14.6083 10.4667 14.971 9.775 15.213 9.025C15.4543 8.275 15.575 7.5 15.575 6.7C15.575 5.9 15.4543 5.125 15.213 4.375C14.971 3.625 14.6083 2.93333 14.125 2.3C14.4583 2.18333 14.8 2.104 15.15 2.062C15.5 2.02067 15.8417 2 16.175 2C17.475 2 18.5833 2.45833 19.5 3.375C20.4167 4.29167 20.875 5.4 20.875 6.7Z" fill="inherit"/>
</svg>
