<svg viewBox="0 0 24 24" xmlns="http://www.w3.org/2000/svg">
<path d="M6.07498 12.425L3.54998 11.375C3.11664 11.1917 2.85831 10.875 2.77498 10.425C2.69164 9.97499 2.81664 9.58332 3.14998 9.24999L6.32498 6.07499C6.62498 5.77499 6.99164 5.55832 7.42498 5.42499C7.85831 5.29165 8.29164 5.26665 8.72498 5.34999L10.275 5.64999C9.39164 6.69999 8.65398 7.71232 8.06198 8.68699C7.47064 9.66232 6.80831 10.9083 6.07498 12.425ZM21.375 2.17499C21.5583 2.17499 21.7293 2.21232 21.888 2.28699C22.046 2.36232 22.1916 2.46665 22.325 2.59999C22.4583 2.73332 22.5583 2.87899 22.625 3.03699C22.6916 3.19565 22.725 3.36665 22.725 3.54999C22.6916 5.08332 22.3333 6.62899 21.65 8.18699C20.9666 9.74565 20.025 11.125 18.825 12.325C17.825 13.325 16.9 14.104 16.05 14.662C15.2 15.2207 14.0583 15.8167 12.625 16.45C12.3416 16.5833 12.0583 16.625 11.775 16.575C11.4916 16.525 11.2583 16.4083 11.075 16.225L8.67498 13.85C8.49164 13.6667 8.37931 13.429 8.33798 13.137C8.29598 12.8457 8.34164 12.5583 8.47498 12.275C9.07498 10.8583 9.66664 9.72065 10.25 8.86199C10.8333 8.00399 11.6166 7.08332 12.6 6.09999C13.8 4.89999 15.1793 3.95399 16.738 3.26199C18.296 2.57065 19.8416 2.20832 21.375 2.17499ZM15.275 9.62499C15.6083 9.95832 16.0206 10.125 16.512 10.125C17.004 10.125 17.4166 9.95832 17.75 9.62499C18.0833 9.29165 18.25 8.87899 18.25 8.38699C18.25 7.89565 18.0833 7.48332 17.75 7.14999C17.4166 6.81665 17.004 6.64999 16.512 6.64999C16.0206 6.64999 15.6083 6.81665 15.275 7.14999C14.9416 7.48332 14.775 7.89565 14.775 8.38699C14.775 8.87899 14.9416 9.29165 15.275 9.62499ZM12.45 18.825C13.9666 18.0917 15.2166 17.429 16.2 16.837C17.1833 16.2457 18.2 15.5083 19.25 14.625L19.55 16.175C19.6333 16.6083 19.6083 17.0417 19.475 17.475C19.3416 17.9083 19.125 18.275 18.825 18.575L15.65 21.75C15.3166 22.0833 14.925 22.2083 14.475 22.125C14.025 22.0417 13.7083 21.7833 13.525 21.35L12.45 18.825ZM3.37498 16.8C4.02498 16.15 4.81264 15.8207 5.73798 15.812C6.66264 15.804 7.44998 16.125 8.09998 16.775C8.74998 17.425 9.07064 18.2123 9.06198 19.137C9.05398 20.0623 8.72498 20.85 8.07498 21.5C7.62498 21.95 6.89164 22.346 5.87498 22.688C4.85831 23.0293 3.34998 23.3083 1.34998 23.525C1.56664 21.525 1.84598 20.0167 2.18798 19C2.52931 17.9833 2.92498 17.25 3.37498 16.8Z" fill="inherit"/>
</svg>
