<svg viewBox="0 0 24 24"  xmlns="http://www.w3.org/2000/svg">
    <path fill-rule="evenodd" clip-rule="evenodd"
          d="M7.19704 5.24927C7.47277 4.94018 7.44573 4.46607 7.13663 4.19034C6.82753 3.9146 6.35343 3.94164 6.07769 4.25074L4.27298 6.27381L3.2724 5.3025C2.9752 5.01398 2.50037 5.02103 2.21186 5.31824C1.92334 5.61544 1.93039 6.09026 2.2276 6.37878L3.78949 7.89499C3.93614 8.03735 4.13455 8.1137 4.33882 8.10636C4.54308 8.09902 4.7355 8.00864 4.87156 7.85611L7.19704 5.24927ZM10.233 5.2979C9.78126 5.2979 9.41504 5.66412 9.41504 6.11587C9.41504 6.56763 9.78126 6.93384 10.233 6.93384H21.179C21.6308 6.93384 21.997 6.56763 21.997 6.11587C21.997 5.66412 21.6308 5.2979 21.179 5.2979H10.233ZM10.233 10.7478C9.78126 10.7478 9.41504 11.114 9.41504 11.5657C9.41504 12.0175 9.78126 12.3837 10.233 12.3837H21.179C21.6308 12.3837 21.997 12.0175 21.997 11.5657C21.997 11.114 21.6308 10.7478 21.179 10.7478H10.233ZM9.41504 17.0205C9.41504 16.5687 9.78126 16.2025 10.233 16.2025H21.179C21.6308 16.2025 21.997 16.5687 21.997 17.0205C21.997 17.4722 21.6308 17.8384 21.179 17.8384H10.233C9.78126 17.8384 9.41504 17.4722 9.41504 17.0205ZM7.13663 9.64311C7.44573 9.91885 7.47277 10.393 7.19704 10.7021L4.87156 13.3089C4.7355 13.4614 4.54308 13.5518 4.33882 13.5591C4.13455 13.5665 3.93614 13.4901 3.78949 13.3478L2.2276 11.8316C1.93039 11.543 1.92334 11.0682 2.21186 10.771C2.50037 10.4738 2.9752 10.4668 3.2724 10.7553L4.27298 11.7266L6.07769 9.70352C6.35343 9.39442 6.82753 9.36738 7.13663 9.64311ZM7.19704 16.1558C7.47277 15.8467 7.44573 15.3726 7.13663 15.0969C6.82753 14.8211 6.35343 14.8482 6.07769 15.1573L4.27298 17.1803L3.2724 16.209C2.9752 15.9205 2.50037 15.9276 2.21186 16.2248C1.92334 16.522 1.93039 16.9968 2.2276 17.2853L3.78949 18.8015C3.93614 18.9439 4.13455 19.0202 4.33882 19.0129C4.54308 19.0055 4.7355 18.9152 4.87156 18.7626L7.19704 16.1558Z"
          fill="inherit"/>
</svg>
