<svg width="32" height="32" viewBox="0 0 32 32" fill="none" xmlns="http://www.w3.org/2000/svg">
<path d="M24 17.3337H17.3333V24.0003C17.3333 24.7337 16.7333 25.3337 16 25.3337C15.2666 25.3337 14.6666 24.7337 14.6666 24.0003V17.3337H7.99996C7.26663 17.3337 6.66663 16.7337 6.66663 16.0003C6.66663 15.267 7.26663 14.667 7.99996 14.667H14.6666V8.00033C14.6666 7.26699 15.2666 6.66699 16 6.66699C16.7333 6.66699 17.3333 7.26699 17.3333 8.00033V14.667H24C24.7333 14.667 25.3333 15.267 25.3333 16.0003C25.3333 16.7337 24.7333 17.3337 24 17.3337Z" fill="white"/>
</svg>
