<svg viewBox="0 0 24 24" fill="#3B69D1" xmlns="http://www.w3.org/2000/svg">
<path d="M22.7403 14.2911C22.3848 13.9328 21.8107 13.9328 21.4553 14.2911L17.9102 17.8557V3.91872C17.9102 3.41342 17.5001 3 16.9989 3C16.4976 3 16.0875 3.41342 16.0875 3.91872V17.8649L12.5515 14.3002C12.1961 13.9419 11.622 13.9419 11.2666 14.3002C10.9111 14.6585 10.9111 15.2373 11.2666 15.5956L16.3609 20.7313C16.7163 21.0896 17.2905 21.0896 17.6459 20.7313L22.7403 15.5956C23.0866 15.2373 23.0866 14.6494 22.7403 14.2911Z" fill="inherit"/>
<path d="M1.26662 9.69976C1.6221 10.0581 2.19635 10.0581 2.55184 9.69976L6.08849 6.14432V20.0813C6.08849 20.5866 6.49867 21 7 21C7.50133 21 7.91151 20.5866 7.91151 20.0813V6.14432L11.4482 9.70894C11.8036 10.0672 12.3779 10.0672 12.7334 9.70894C13.0889 9.35064 13.0889 8.77185 12.7334 8.41355L7.63805 3.26873C7.28257 2.91042 6.70832 2.91042 6.35283 3.26873L1.26662 8.40436C0.911128 8.76266 0.911128 9.35064 1.26662 9.69976Z" fill="inherit"/>
</svg>
