<svg viewBox="0 0 21 18" fill="#3B69D1" xmlns="http://www.w3.org/2000/svg">
<path d="M2 18C1.6 18 1.25 17.85 0.95 17.55C0.65 17.25 0.5 16.9 0.5 16.5V1.5C0.5 1.1 0.65 0.75 0.95 0.45C1.25 0.15 1.6 0 2 0H19.4C19.8 0 20.15 0.15 20.45 0.45C20.75 0.75 20.9 1.1 20.9 1.5V16.5C20.9 16.9 20.75 17.25 20.45 17.55C20.15 17.85 19.8 18 19.4 18H2ZM3.7 14H8.7V12H3.7V14ZM13.25 12L18.2 7.05L16.775 5.625L13.25 9.175L11.825 7.75L10.425 9.175L13.25 12ZM3.7 10H8.7V8H3.7V10ZM3.7 6H8.7V4H3.7V6Z" fill="inherit"/>
</svg>
