<svg width="48" height="48" viewBox="0 0 48 48" fill="none" xmlns="http://www.w3.org/2000/svg">
<circle cx="24" cy="24" r="24" fill="#333866"/>
<g clip-path="url(#clip0)">
<path d="M32.1067 22.3946L20.0043 16.3685C19.4944 16.1146 18.9184 16.2263 18.5011 16.6599C18.0838 17.0935 17.9092 17.7616 18.0456 18.4034L19.1228 23.4727H24.397C24.6397 23.4727 24.8365 23.7088 24.8365 24.0001C24.8365 24.2913 24.6398 24.5274 24.397 24.5274H19.1228L18.0456 29.5967C17.9092 30.2385 18.0837 30.9066 18.5011 31.3402C18.9193 31.7747 19.4954 31.885 20.0043 31.6316L32.1067 25.6055C32.6577 25.3311 33 24.7159 33 24.0001C33 23.2842 32.6577 22.669 32.1067 22.3946Z" fill="white"/>
</g>
<defs>
<clipPath id="clip0">
<rect width="15" height="18" fill="white" transform="translate(18 15)"/>
</clipPath>
</defs>
</svg>
