<svg viewBox="0 0 24 24" fill="#3B69D1" stroke="#3B69D1" xmlns="http://www.w3.org/2000/svg">
    <path d="M17.8 3.81818V4.31818H18.3H19.2C19.9091 4.31818 20.5 4.90776 20.5 5.63636V20.1818C20.5 20.9104 19.9091 21.5 19.2 21.5H4.8C4.09087 21.5 3.5 20.9104 3.5 20.1818V5.63636C3.5 4.90776 4.09087 4.31818 4.8 4.31818H5.7H6.2V3.81818V2.90909C6.2 2.68048 6.38587 2.5 6.6 2.5C6.81413 2.5 7 2.68048 7 2.90909V3.81818V4.31818H7.5H16.5H17V3.81818V2.90909C17 2.68048 17.1859 2.5 17.4 2.5C17.6141 2.5 17.8 2.68048 17.8 2.90909V3.81818ZM4.8 7.86364H4.3V8.36364V19.2727C4.3 20.0441 4.92413 20.6818 5.7 20.6818H18.3C19.0759 20.6818 19.7 20.0441 19.7 19.2727V8.36364V7.86364H19.2H4.8Z"
          fill="inherit" stroke="inherit"/>
</svg>
