<svg width="21" height="21" viewBox="0 0 21 21" fill="none" xmlns="http://www.w3.org/2000/svg">
<path d="M10.5 1.75C5.67 1.75 1.75 5.67 1.75 10.5C1.75 15.33 5.67 19.25 10.5 19.25C15.33 19.25 19.25 15.33 19.25 10.5C19.25 5.67 15.33 1.75 10.5 1.75ZM10.5 17.5C6.6325 17.5 3.5 14.3675 3.5 10.5C3.5 6.6325 6.6325 3.5 10.5 3.5C14.3675 3.5 17.5 6.6325 17.5 10.5C17.5 14.3675 14.3675 17.5 10.5 17.5Z" fill="white"/>
<path d="M8.87501 12.7586L6.99543 10.879C6.78418 10.6678 6.44293 10.6678 6.23168 10.879C6.02043 11.0903 6.02043 11.4315 6.23168 11.6428L8.49585 13.9069C8.7071 14.1182 9.04835 14.1182 9.2596 13.9069L14.9904 8.17609C15.2017 7.96484 15.2017 7.62359 14.9904 7.41234C14.7792 7.20109 14.4379 7.20109 14.2267 7.41234L8.87501 12.7586Z" fill="white"/>
</svg>
