<svg viewBox="0 0 24 24" xmlns="http://www.w3.org/2000/svg">
    <path d="M6.28957 8.11L10.1796 12L6.28957 15.89C5.89957 16.28 5.89957 16.91 6.28957 17.3C6.67957 17.69 7.30957 17.69 7.69957 17.3L12.2896 12.71C12.6796 12.32 12.6796 11.69 12.2896 11.3L7.69957 6.7C7.30957 6.31 6.67957 6.31 6.28957 6.7C5.90957 7.09 5.90957 7.73 6.28957 8.11ZM16.9996 6C17.5496 6 17.9996 6.45 17.9996 7V17C17.9996 17.55 17.5496 18 16.9996 18C16.4496 18 15.9996 17.55 15.9996 17V7C15.9996 6.45 16.4496 6 16.9996 6Z" fill="inherit"/>
</svg>
