<svg viewBox="0 0 24 24" stroke="#3B69D1" xmlns="http://www.w3.org/2000/svg">
    <path d="M11.7472 12.8713L11.7473 12.8712L11.7411 12.8676C11.5915 12.7808 11.5 12.6192 11.5 12.44V7.72C11.5 7.59614 11.5961 7.5 11.72 7.5H11.78C11.9039 7.5 12 7.59614 12 7.72V12.26V12.5445L12.2446 12.6898L16.1146 14.9898L16.1145 14.9899L16.1219 14.9941C16.2229 15.0518 16.2581 15.1845 16.1946 15.2873L16.1945 15.2872L16.189 15.2965C16.1381 15.3831 16.0118 15.4277 15.8949 15.3598L11.7472 12.8713ZM2.5 12C2.5 6.75549 6.74679 2.5 11.99 2.5C17.2442 2.5 21.5 6.75647 21.5 12C21.5 17.2435 17.2442 21.5 11.99 21.5C6.74679 21.5 2.5 17.2445 2.5 12ZM3.5 12C3.5 16.6961 7.30386 20.5 12 20.5C16.6961 20.5 20.5 16.6961 20.5 12C20.5 7.30386 16.6961 3.5 12 3.5C7.30386 3.5 3.5 7.30386 3.5 12Z" stroke="inherit"/>
</svg>
