<svg width="26" height="26" viewBox="0 0 32 32" fill="#333866" stroke="#333866" xmlns="http://www.w3.org/2000/svg">
    <path d="M15.5773 17.3046L15.5774 17.3046L15.5711 17.301C15.3182 17.1541 15.1667 16.8826 15.1667 16.5867V10.2934C15.1667 10.0362 15.3696 9.83335 15.6267 9.83335H15.7067C15.9639 9.83335 16.1667 10.0362 16.1667 10.2934V16.3467V16.6312L16.4113 16.7765L21.5713 19.8432L21.5713 19.8432L21.5787 19.8475C21.7963 19.9718 21.8682 20.2545 21.7347 20.4706L21.7346 20.4705L21.7291 20.4798C21.6116 20.6797 21.3388 20.7577 21.1085 20.6233C21.108 20.623 21.1075 20.6227 21.1069 20.6224L15.5773 17.3046ZM3.16675 16C3.16675 8.91551 8.90354 3.16669 15.9867 3.16669C23.0843 3.16669 28.8334 8.91649 28.8334 16C28.8334 23.0836 23.0843 28.8334 15.9867 28.8334C8.90354 28.8334 3.16675 23.0845 3.16675 16ZM4.83341 16C4.83341 22.1695 9.83061 27.1667 16.0001 27.1667C22.1696 27.1667 27.1667 22.1695 27.1667 16C27.1667 9.83054 22.1696 4.83335 16.0001 4.83335C9.83061 4.83335 4.83341 9.83054 4.83341 16Z" fill="inherit" stroke="inherit"/>
</svg>