<svg width="22" height="22" viewBox="0 0 22 22" fill="none" xmlns="http://www.w3.org/2000/svg">
<path d="M21.5 0.516862C20.85 -0.133138 19.8 -0.133138 19.15 0.516862L11 8.6502L2.84995 0.500195C2.19995 -0.149805 1.14995 -0.149805 0.499951 0.500195C-0.150049 1.1502 -0.150049 2.2002 0.499951 2.8502L8.64995 11.0002L0.499951 19.1502C-0.150049 19.8002 -0.150049 20.8502 0.499951 21.5002C1.14995 22.1502 2.19995 22.1502 2.84995 21.5002L11 13.3502L19.15 21.5002C19.8 22.1502 20.85 22.1502 21.5 21.5002C22.15 20.8502 22.15 19.8002 21.5 19.1502L13.35 11.0002L21.5 2.8502C22.1333 2.21686 22.1333 1.1502 21.5 0.516862Z" fill="white"/>
</svg>
