<svg width="48" height="48" viewBox="0 0 48 48" fill="#333866" xmlns="http://www.w3.org/2000/svg">
<circle cx="24" cy="24" r="24" fill="#F6F9FC"/>
<path d="M30.825 17.1851C30.4025 16.7626 29.72 16.7626 29.2975 17.1851L24 22.4718L18.7025 17.1743C18.28 16.7518 17.5975 16.7518 17.175 17.1743C16.7525 17.5968 16.7525 18.2793 17.175 18.7018L22.4725 23.9993L17.175 29.2968C16.7525 29.7193 16.7525 30.4018 17.175 30.8243C17.5975 31.2468 18.28 31.2468 18.7025 30.8243L24 25.5268L29.2975 30.8243C29.72 31.2468 30.4025 31.2468 30.825 30.8243C31.2475 30.4018 31.2475 29.7193 30.825 29.2968L25.5275 23.9993L30.825 18.7018C31.2367 18.2901 31.2367 17.5968 30.825 17.1851Z" fill="inherit"/>
</svg>
