<svg width="15" height="15" viewBox="0 0 15 15" fill="none" xmlns="http://www.w3.org/2000/svg">
<path d="M2.5 8.125H6.25C6.59375 8.125 6.875 7.84375 6.875 7.5V2.5C6.875 2.15625 6.59375 1.875 6.25 1.875H2.5C2.15625 1.875 1.875 2.15625 1.875 2.5V7.5C1.875 7.84375 2.15625 8.125 2.5 8.125ZM2.5 13.125H6.25C6.59375 13.125 6.875 12.8438 6.875 12.5V10C6.875 9.65625 6.59375 9.375 6.25 9.375H2.5C2.15625 9.375 1.875 9.65625 1.875 10V12.5C1.875 12.8438 2.15625 13.125 2.5 13.125ZM8.75 13.125H12.5C12.8438 13.125 13.125 12.8438 13.125 12.5V7.5C13.125 7.15625 12.8438 6.875 12.5 6.875H8.75C8.40625 6.875 8.125 7.15625 8.125 7.5V12.5C8.125 12.8438 8.40625 13.125 8.75 13.125ZM8.125 2.5V5C8.125 5.34375 8.40625 5.625 8.75 5.625H12.5C12.8438 5.625 13.125 5.34375 13.125 5V2.5C13.125 2.15625 12.8438 1.875 12.5 1.875H8.75C8.40625 1.875 8.125 2.15625 8.125 2.5Z" fill="#333866"/>
</svg>
