<svg width="44" height="44" viewBox="0 0 44 44" fill="none" xmlns="http://www.w3.org/2000/svg">
<path d="M7.33333 23.8333H18.3333C19.3417 23.8333 20.1667 23.0083 20.1667 22V7.33333C20.1667 6.325 19.3417 5.5 18.3333 5.5H7.33333C6.325 5.5 5.5 6.325 5.5 7.33333V22C5.5 23.0083 6.325 23.8333 7.33333 23.8333ZM7.33333 38.5H18.3333C19.3417 38.5 20.1667 37.675 20.1667 36.6667V29.3333C20.1667 28.325 19.3417 27.5 18.3333 27.5H7.33333C6.325 27.5 5.5 28.325 5.5 29.3333V36.6667C5.5 37.675 6.325 38.5 7.33333 38.5ZM25.6667 38.5H36.6667C37.675 38.5 38.5 37.675 38.5 36.6667V22C38.5 20.9917 37.675 20.1667 36.6667 20.1667H25.6667C24.6583 20.1667 23.8333 20.9917 23.8333 22V36.6667C23.8333 37.675 24.6583 38.5 25.6667 38.5ZM23.8333 7.33333V14.6667C23.8333 15.675 24.6583 16.5 25.6667 16.5H36.6667C37.675 16.5 38.5 15.675 38.5 14.6667V7.33333C38.5 6.325 37.675 5.5 36.6667 5.5H25.6667C24.6583 5.5 23.8333 6.325 23.8333 7.33333Z" fill="white"/>
</svg>
