<svg viewBox="0 0 15 13" fill="#3B69D1" xmlns="http://www.w3.org/2000/svg">
<path d="M12.3334 0.666718H1.66671C0.933374 0.666718 0.333374 1.26672 0.333374 2.00005V10.0001C0.333374 10.7334 0.933374 11.3334 1.66671 11.3334H7.66671V10.0001H1.66671V3.33338L6.29337 6.22672C6.72671 6.50005 7.27337 6.50005 7.70671 6.22672L12.3334 3.33338V6.66672H13.6667V2.00005C13.6667 1.26672 13.0667 0.666718 12.3334 0.666718ZM7.00004 5.33338L1.66671 2.00005H12.3334L7.00004 5.33338ZM11.6667 8.80672C11.6667 8.50672 12.0267 8.36005 12.2334 8.57338L14.0934 10.4334C14.2267 10.5667 14.2267 10.7734 14.0934 10.9067L12.2334 12.7667C12.0267 12.9734 11.6667 12.8267 11.6667 12.5267V11.3334H9.66671C9.30004 11.3334 9.00004 11.0334 9.00004 10.6667C9.00004 10.3001 9.30004 10.0001 9.66671 10.0001H11.6667V8.80672Z" fill="inherit"/>
</svg>
