<svg width="16" height="16" viewBox="0 0 16 16" fill="none" xmlns="http://www.w3.org/2000/svg">
    <path d="M13.333 2.6665H2.66634C1.93301 2.6665 1.33301 3.2665 1.33301 3.99984V11.9998C1.33301 12.7332 1.93301 13.3332 2.66634 13.3332H13.333C14.0663 13.3332 14.6663 12.7332 14.6663 11.9998V3.99984C14.6663 3.2665 14.0663 2.6665 13.333 2.6665ZM13.0663 5.49984L8.70634 8.2265C8.27301 8.49984 7.72634 8.49984 7.29301 8.2265L2.93301 5.49984C2.76634 5.39317 2.66634 5.21317 2.66634 5.01984C2.66634 4.57317 3.15301 4.3065 3.53301 4.53984L7.99967 7.33317L12.4663 4.53984C12.8463 4.3065 13.333 4.57317 13.333 5.01984C13.333 5.21317 13.233 5.39317 13.0663 5.49984Z" fill="#333866"/>
</svg>
