<svg width="257" height="265" viewBox="0 0 257 265" fill="none" xmlns="http://www.w3.org/2000/svg">
<path fill-rule="evenodd" clip-rule="evenodd" d="M198.016 187.67C198.016 171.469 211.107 158.33 227.257 158.33C243.407 158.33 256.499 171.466 256.499 187.67C256.499 203.873 243.407 217.011 227.257 217.011C211.107 217.011 198.016 203.873 198.016 187.67Z" fill="#F3F6FF"/>
<path fill-rule="evenodd" clip-rule="evenodd" d="M37.0264 125.036C37.0264 84.4099 69.8506 51.4756 110.342 51.4756C150.833 51.4756 183.657 84.4089 183.657 125.036C183.657 165.663 150.833 198.596 110.342 198.596C69.8506 198.596 37.0264 165.662 37.0264 125.036Z" fill="#EAF0FF"/>
<path fill-rule="evenodd" clip-rule="evenodd" d="M41.8906 150.805C43.9537 148.894 51.1922 142.228 52.6904 141.549C54.1886 140.869 71.5633 160.316 69.8472 161.708C68.1311 163.099 59.0489 171.491 55.6335 173.625C48.8109 166.175 44.0671 157.619 41.8906 150.805Z" fill="white"/>
<path d="M41.1963 149.115C43.2594 147.204 50.2418 140.742 51.7421 140.062C53.2424 139.383 70.7419 160.269 69.0259 161.66C67.3098 163.051 58.2015 171.971 55.5098 173.681" stroke="#1B3C87" stroke-width="2.5" stroke-linecap="round" stroke-linejoin="round"/>
<path fill-rule="evenodd" clip-rule="evenodd" d="M86.9003 128.839C96.8562 144.031 72.4055 163.097 68.6629 164.192C64.9203 165.287 48.8055 143.137 49.9724 140.219C51.1393 137.302 74.8777 110.493 86.9003 128.839Z" fill="#46DBC9"/>
<path d="M61.3835 125.963C69.2883 120.461 79.1266 117.287 85.5844 127.141C95.5403 142.333 71.0896 161.399 67.347 162.494C63.6044 163.59 47.4896 141.436 48.657 138.522C48.8833 137.957 49.9556 136.496 51.6257 134.642" fill="#B6FFD3"/>
<path d="M61.3835 125.963C69.2883 120.461 79.1266 117.287 85.5844 127.141C95.5403 142.333 71.0896 161.399 67.347 162.494C63.6044 163.59 47.4896 141.436 48.657 138.522C48.8833 137.957 49.9556 136.496 51.6257 134.642" stroke="#1B3C87" stroke-width="2.5" stroke-linecap="round" stroke-linejoin="round"/>
<path fill-rule="evenodd" clip-rule="evenodd" d="M106.904 115.954C95.6899 115.886 84.656 118.051 79.2177 122.29C70.3864 129.175 64.5128 171.736 67.0456 184.402C79.1774 193.324 94.1431 198.596 110.338 198.596C123.122 198.596 135.14 195.309 145.604 189.537C147.457 173.722 142.891 128.512 135.669 123.012C129.512 118.322 118.118 116.021 106.904 115.954Z" fill="#B6FFD3"/>
<path d="M69.2324 140.43C71.3572 131.071 74.202 123.266 77.5725 120.639C88.4491 112.161 121.708 111.981 134.023 121.361C141.685 127.197 146.698 177.82 143.552 190.446" stroke="#1B3C87" stroke-width="2.5" stroke-linecap="round" stroke-linejoin="round"/>
<path d="M65.4381 182.961C64.9297 179.738 64.8978 174.513 65.2813 168.409" stroke="#1B3C87" stroke-width="2.5" stroke-linecap="round" stroke-linejoin="round"/>
<path d="M15.3402 0.472656L48.8364 13.1609L34.4612 51.3556L0.969727 38.6679L15.3402 0.472656Z" stroke="#B6C6FC" stroke-width="2.5" stroke-linecap="round" stroke-linejoin="round"/>
<path d="M165.55 199.604L172.666 264.53L218.474 186.218L165.55 199.604Z" stroke="#B6C6FC" stroke-width="2.5" stroke-linecap="round" stroke-linejoin="round"/>
<path d="M14.3379 54.472C14.3379 43.5664 23.1488 34.7266 34.0176 34.7266C44.8863 34.7266 53.6957 43.5669 53.6957 54.472C53.6957 65.377 44.8848 74.2174 34.016 74.2174C23.1472 74.2174 14.3379 65.377 14.3379 54.472Z" stroke="#B6C6FC" stroke-width="2.5" stroke-linecap="round" stroke-linejoin="round"/>
<path fill-rule="evenodd" clip-rule="evenodd" d="M154.029 184.767C152.466 183.2 141.696 168.461 140.483 167.074C139.269 165.687 162.296 146.529 163.712 148.204C165.128 149.879 170.806 157.852 173.453 162.235C171.325 166.082 159.562 180.978 154.029 184.767Z" fill="white"/>
<path d="M154.551 183.599C153.244 181.812 141.572 165.678 140.358 164.29C139.144 162.902 162.171 143.745 163.587 145.42C165.003 147.095 171.786 156.409 174.122 160.966" stroke="#1B3C87" stroke-width="2.5" stroke-linecap="round" stroke-linejoin="round"/>
<path fill-rule="evenodd" clip-rule="evenodd" d="M129.285 120.748C140.912 112.743 168.976 140.236 168.906 148.431C168.836 156.627 143.884 171.518 139.727 169.368C135.146 166.999 111.443 133.024 129.285 120.748Z" fill="#B6FFD3"/>
<path d="M122.278 138.64C120.71 131.02 121.717 123.71 128.19 119.256C139.819 111.253 167.882 138.745 167.811 146.943C167.74 155.14 142.789 170.03 138.632 167.879C137.302 167.191 134.36 163.839 131.291 159.127" stroke="#1B3C87" stroke-width="2.5" stroke-linecap="round" stroke-linejoin="round"/>
<path d="M37.0264 125.036C37.0264 84.4099 69.8506 51.4756 110.342 51.4756C150.833 51.4756 183.657 84.4089 183.657 125.036C183.657 165.663 150.833 198.596 110.342 198.596C69.8506 198.596 37.0264 165.662 37.0264 125.036Z" stroke="#1B3C87" stroke-width="2.5" stroke-linecap="round" stroke-linejoin="round"/>
<path fill-rule="evenodd" clip-rule="evenodd" d="M173.363 137.28C173.435 135.167 177.54 134.309 182.532 135.365C187.523 136.42 191.511 138.989 191.44 141.102C191.368 143.215 187.262 144.072 182.271 143.016C177.279 141.961 173.29 139.393 173.363 137.28Z" fill="white"/>
<path fill-rule="evenodd" clip-rule="evenodd" d="M174.844 129.196C174.916 127.083 179.02 126.225 184.012 127.281C189.003 128.336 192.992 130.905 192.92 133.018C192.848 135.131 188.743 135.988 183.751 134.933C178.76 133.877 174.774 131.309 174.844 129.196Z" fill="white"/>
<path fill-rule="evenodd" clip-rule="evenodd" d="M174.652 120.841C174.724 118.728 178.829 117.871 183.821 118.926C188.813 119.981 192.801 122.55 192.729 124.663C192.657 126.776 188.551 127.634 183.56 126.578C178.568 125.523 174.58 122.954 174.652 120.841Z" fill="white"/>
<path d="M176.703 117.776C178.343 117.472 180.539 117.537 182.94 118.044C187.932 119.1 191.92 121.668 191.848 123.781C191.799 125.208 189.912 126.063 187.154 126.141" stroke="#1B3C87" stroke-width="2.5" stroke-linecap="round" stroke-linejoin="round"/>
<path d="M175.474 126.545C177.119 125.83 179.945 125.724 183.132 126.398C188.124 127.453 192.112 130.022 192.04 132.135C191.988 133.675 189.793 134.547 186.67 134.5" stroke="#1B3C87" stroke-width="2.5" stroke-linecap="round" stroke-linejoin="round"/>
<path d="M176.498 134.073C177.97 133.955 179.745 134.079 181.649 134.482C186.641 135.537 190.629 138.106 190.557 140.219C190.512 141.539 188.892 142.369 186.464 142.549" stroke="#1B3C87" stroke-width="2.5" stroke-linecap="round" stroke-linejoin="round"/>
<path fill-rule="evenodd" clip-rule="evenodd" d="M27.5107 123.907C27.5828 121.795 31.6881 120.937 36.6796 121.993C41.6711 123.048 45.6593 125.616 45.5872 127.73C45.5151 129.843 41.4104 130.7 36.4183 129.644C31.4263 128.589 27.4386 126.02 27.5107 123.907Z" fill="white"/>
<path fill-rule="evenodd" clip-rule="evenodd" d="M28.9922 115.824C29.0643 113.712 33.1695 112.854 38.161 113.91C43.1526 114.965 47.1407 117.534 47.0686 119.648C46.9965 121.763 42.8918 122.618 37.9003 121.563C32.9088 120.508 28.9201 117.938 28.9922 115.824Z" fill="white"/>
<path fill-rule="evenodd" clip-rule="evenodd" d="M28.8017 107.469C28.8738 105.356 32.9791 104.499 37.9706 105.554C42.9621 106.61 46.9503 109.178 46.8782 111.291C46.8061 113.404 42.7013 114.261 37.7098 113.206C32.7183 112.151 28.7301 109.581 28.8017 107.469Z" fill="white"/>
<path d="M29.8341 109.467C28.2977 108.45 27.3712 107.314 27.4062 106.285C27.4783 104.172 31.5836 103.315 36.5751 104.371C38.8111 104.843 40.8455 105.62 42.4043 106.52" stroke="#1B3C87" stroke-width="2.5" stroke-linecap="round" stroke-linejoin="round"/>
<path d="M31.9475 118.885C29.3002 117.655 27.5496 116.047 27.5976 114.641C27.6698 112.528 31.775 111.671 36.7665 112.726C38.8463 113.166 40.7521 113.868 42.2623 114.691" stroke="#1B3C87" stroke-width="2.5" stroke-linecap="round" stroke-linejoin="round"/>
<path d="M33.337 128.036C29.1643 126.817 26.0524 124.592 26.1162 122.723C26.1883 120.61 30.2936 119.753 35.2851 120.808C38.2046 121.426 40.7814 122.56 42.4024 123.819" stroke="#1B3C87" stroke-width="2.5" stroke-linecap="round" stroke-linejoin="round"/>
<path fill-rule="evenodd" clip-rule="evenodd" d="M118.121 99.7894C117.646 102.502 115.456 113.425 117.135 125.265C115.199 126.733 103.91 127.794 100.805 125.265C100.914 120.463 101.024 110.859 100.586 108.403C100.148 105.947 118.598 97.0771 118.121 99.7894Z" fill="white"/>
<path d="M99.5377 123.69C99.6469 118.888 99.7567 109.285 99.3182 106.829C98.8798 104.373 117.329 95.5037 116.854 98.2149C116.38 100.926 114.189 111.851 115.868 123.69C114.991 124.354 112.199 124.935 109.117 125.138" stroke="#1B3C87" stroke-width="2.5" stroke-linecap="round" stroke-linejoin="round"/>
<path fill-rule="evenodd" clip-rule="evenodd" d="M81.2563 84.071C82.3307 70.847 92.2223 60.85 103.349 61.7418C114.476 62.6337 122.626 74.0767 121.551 87.3008C120.476 100.525 110.585 110.524 99.4582 109.633C88.3313 108.741 80.1814 97.2951 81.2563 84.071Z" fill="white"/>
<path d="M110.097 105.096C106.657 107.45 102.632 108.665 98.4314 108.328C93.2497 107.913 88.7118 105.209 85.4541 101.104" stroke="#1B3C87" stroke-width="2.5" stroke-linecap="round" stroke-linejoin="round"/>
<path d="M81.1303 92.4919C80.2889 89.4703 79.9529 86.1797 80.2299 82.7712C81.3043 69.5472 91.1959 59.5502 102.323 60.442C113.451 61.3339 121.6 72.7769 120.525 86.001C120.201 89.9857 119.077 93.6768 117.359 96.8656" stroke="#1B3C87" stroke-width="2.5" stroke-linecap="round" stroke-linejoin="round"/>
<path fill-rule="evenodd" clip-rule="evenodd" d="M100.818 79.2421C100.972 77.8128 101.619 76.7107 102.264 76.7805C102.909 76.8502 103.307 78.0661 103.153 79.4948C102.998 80.9235 102.351 82.0261 101.707 81.9559C101.062 81.8856 100.664 80.6708 100.818 79.2421Z" fill="#1B3C87"/>
<path d="M91.9515 80.4395C91.4399 82.652 90.0222 85.1802 88.3291 86.5214" stroke="#1B3C87" stroke-width="2.5" stroke-linecap="round" stroke-linejoin="round"/>
<path d="M96.0869 94.2069C96.0869 93.742 96.2243 93.2876 96.4817 92.9011C96.7391 92.5145 97.105 92.2133 97.5331 92.0354C97.9611 91.8575 98.4322 91.8109 98.8866 91.9016C99.341 91.9923 99.7584 92.2162 100.086 92.5449C100.414 92.8736 100.637 93.2924 100.727 93.7484C100.818 94.2043 100.771 94.6769 100.594 95.1064C100.417 95.5359 100.116 95.903 99.7311 96.1613C99.3458 96.4195 98.8929 96.5574 98.4296 96.5574C97.8083 96.5572 97.2125 96.3096 96.7732 95.8688C96.3339 95.428 96.0871 94.8303 96.0869 94.2069V94.2069Z" stroke="#1B3C87" stroke-width="2.5" stroke-linecap="round" stroke-linejoin="round"/>
<path fill-rule="evenodd" clip-rule="evenodd" d="M115.678 87.6779C114.263 87.5767 110.203 81.7642 114.368 77.7685C112.324 75.7709 100.302 66.7418 85.8575 72.3414C83.9809 70.4266 78.8588 62.7277 83.2802 59.4083C87.7016 56.0889 89.5483 60.103 90.121 61.6985C88.7854 57.4862 89.5373 46.1559 100.781 46.0306C112.025 45.9053 124.114 78.8674 123.626 84.7827C123.137 90.6979 123.113 91.4969 115.678 87.6779Z" fill="#FB5D64"/>
<path d="M115.189 61.3604C119.443 70.207 122.25 79.6718 122.009 82.5833C121.52 88.4985 121.496 89.2975 114.061 85.4785C112.647 85.3773 108.586 79.5648 112.752 75.5691C111.135 73.9883 103.268 68.0038 92.8984 68.3504" stroke="#1B3C87" stroke-width="2.5" stroke-linecap="round" stroke-linejoin="round"/>
<path d="M84.2412 70.1418C82.3647 68.227 77.2426 60.5281 81.664 57.2087C86.0854 53.8893 87.9347 57.9029 88.5048 59.4989C87.1692 55.286 87.9217 43.9563 99.1651 43.8304C101.987 43.799 104.865 45.8537 107.582 49.0421" stroke="#1B3C87" stroke-width="2.5" stroke-linecap="round" stroke-linejoin="round"/>
<path fill-rule="evenodd" clip-rule="evenodd" d="M112.465 90.4865C112.465 89.4643 112.767 88.4651 113.333 87.6152C113.899 86.7653 114.703 86.1029 115.645 85.7118C116.586 85.3206 117.621 85.2183 118.621 85.4177C119.62 85.6171 120.538 86.1093 121.258 86.8321C121.978 87.5548 122.469 88.4757 122.668 89.4782C122.866 90.4808 122.764 91.5199 122.375 92.4643C121.985 93.4086 121.324 94.2158 120.477 94.7836C119.63 95.3515 118.634 95.6546 117.616 95.6546C116.25 95.6546 114.939 95.1101 113.974 94.1409C113.008 93.1717 112.465 91.8572 112.465 90.4865Z" fill="white"/>
<path d="M114.996 85.0912C115.793 84.7233 116.67 84.5658 117.545 84.6335C118.419 84.7011 119.262 84.9918 119.994 85.4779C120.725 85.964 121.32 86.6294 121.723 87.411C122.127 88.1927 122.324 89.0647 122.297 89.9444C122.27 90.8241 122.02 91.6824 121.57 92.4378C121.12 93.1933 120.485 93.8209 119.726 94.2612C118.966 94.7015 118.107 94.9399 117.23 94.9537C116.353 94.9676 115.487 94.7565 114.714 94.3405" stroke="#1B3C87" stroke-width="2.5" stroke-linecap="round" stroke-linejoin="round"/>
</svg>
