<svg width="16" height="16" viewBox="0 0 16 16" fill="#D33211" xmlns="http://www.w3.org/2000/svg">
    <path d="M7.99998 4.66665C8.36665 4.66665 8.66665 4.96665 8.66665 5.33331V7.99998C8.66665 8.36665 8.36665 8.66665 7.99998 8.66665C7.63331 8.66665 7.33331 8.36665 7.33331 7.99998V5.33331C7.33331 4.96665 7.63331 4.66665 7.99998 4.66665ZM7.99331 1.33331C4.31331 1.33331 1.33331 4.31998 1.33331 7.99998C1.33331 11.68 4.31331 14.6666 7.99331 14.6666C11.68 14.6666 14.6666 11.68 14.6666 7.99998C14.6666 4.31998 11.68 1.33331 7.99331 1.33331ZM7.99998 13.3333C5.05331 13.3333 2.66665 10.9466 2.66665 7.99998C2.66665 5.05331 5.05331 2.66665 7.99998 2.66665C10.9466 2.66665 13.3333 5.05331 13.3333 7.99998C13.3333 10.9466 10.9466 13.3333 7.99998 13.3333ZM8.66665 11.3333H7.33331V9.99998H8.66665V11.3333Z" fill="inherit"/>
</svg>