<svg viewBox="0 0 16 16" xmlns="http://www.w3.org/2000/svg">
    <path d="M11.6933 10C11.7803 10 11.8529 10.0297 11.9109 10.0889C11.9787 10.1482 12.0077 10.2222 11.998 10.3111C11.9787 10.8148 11.8142 11.2988 11.5046 11.763C11.195 12.2272 10.7354 12.6074 10.1259 12.9037C9.52607 13.1901 8.7956 13.3334 7.93453 13.3334C6.69613 13.3334 5.74315 13.0074 5.07557 12.3556C4.408 11.6938 4.03068 10.7852 3.9436 9.62965H3.00029C2.90354 9.62965 2.8213 9.60002 2.75358 9.54076C2.69553 9.47163 2.6665 9.38767 2.6665 9.28891V8.81484C2.6665 8.71607 2.69553 8.63706 2.75358 8.5778C2.8213 8.50866 2.90354 8.47409 3.00029 8.47409H3.92909V7.54076H3.00029C2.90354 7.54076 2.8213 7.51113 2.75358 7.45187C2.69553 7.38274 2.6665 7.29879 2.6665 7.20002V6.71113C2.6665 6.61237 2.69553 6.53335 2.75358 6.47409C2.8213 6.40496 2.90354 6.37039 3.00029 6.37039H3.9436C4.04035 5.21484 4.42251 4.31113 5.09009 3.65928C5.75766 2.99755 6.70581 2.66669 7.93453 2.66669C8.7956 2.66669 9.52607 2.81484 10.1259 3.11113C10.7354 3.39755 11.195 3.77286 11.5046 4.23706C11.8142 4.69138 11.9787 5.17533 11.998 5.68891V5.71854C11.998 5.79755 11.9642 5.86669 11.8964 5.92595C11.8384 5.97533 11.7707 6.00002 11.6933 6.00002H10.9531C10.8564 6.00002 10.779 5.97533 10.7209 5.92595C10.6726 5.87656 10.629 5.78767 10.5903 5.65928C10.4258 5.02718 10.1211 4.57286 9.67603 4.29632C9.23098 4.01977 8.65048 3.8815 7.93453 3.8815C6.36718 3.8815 5.50611 4.71113 5.35131 6.37039H8.25381C8.35056 6.37039 8.42795 6.40496 8.486 6.47409C8.55373 6.53335 8.58759 6.61237 8.58759 6.71113V7.20002C8.58759 7.29879 8.55373 7.38274 8.486 7.45187C8.42795 7.51113 8.35056 7.54076 8.25381 7.54076H5.32229V8.47409H8.25381C8.36023 8.47409 8.44247 8.50372 8.50052 8.56298C8.55857 8.62224 8.58759 8.70619 8.58759 8.81484V9.28891C8.58759 9.38767 8.55857 9.47163 8.50052 9.54076C8.44247 9.60002 8.36023 9.62965 8.25381 9.62965H5.35131C5.50611 11.279 6.36718 12.1037 7.93453 12.1037C8.65048 12.1037 9.23098 11.9655 9.67603 11.6889C10.1211 11.4124 10.4258 10.963 10.5903 10.3408C10.629 10.2124 10.6726 10.1235 10.7209 10.0741C10.779 10.0247 10.8564 10 10.9531 10H11.6933Z" fill="inherit"/>
</svg>
