<svg viewBox="0 0 14 14" fill="#FF3F15" xmlns="http://www.w3.org/2000/svg">
<path d="M6.99992 3.66683C7.36659 3.66683 7.66659 3.96683 7.66659 4.3335V7.00016C7.66659 7.36683 7.36659 7.66683 6.99992 7.66683C6.63325 7.66683 6.33325 7.36683 6.33325 7.00016V4.3335C6.33325 3.96683 6.63325 3.66683 6.99992 3.66683ZM6.99325 0.333496C3.31325 0.333496 0.333252 3.32016 0.333252 7.00016C0.333252 10.6802 3.31325 13.6668 6.99325 13.6668C10.6799 13.6668 13.6666 10.6802 13.6666 7.00016C13.6666 3.32016 10.6799 0.333496 6.99325 0.333496ZM6.99992 12.3335C4.05325 12.3335 1.66659 9.94683 1.66659 7.00016C1.66659 4.0535 4.05325 1.66683 6.99992 1.66683C9.94659 1.66683 12.3333 4.0535 12.3333 7.00016C12.3333 9.94683 9.94659 12.3335 6.99992 12.3335ZM7.66659 10.3335H6.33325V9.00016H7.66659V10.3335Z" fill="inherit"/>
</svg>
