<svg viewBox="0 0 14 12" xmlns="http://www.w3.org/2000/svg">
<path d="M6.61408 1.74215L6.99745 2.20002L7.38081 1.74215C8.41495 0.507049 10.3028 0.0308799 11.816 1.0832C12.616 1.64324 13.127 2.59708 13.1618 3.60041C13.1996 4.7538 12.7257 5.82809 11.7648 7.04425C10.7964 8.26994 9.38392 9.57859 7.62419 11.2066L7.6237 11.2071L7.55039 11.2751L7.55039 11.2751L7.54801 11.2773C7.23361 11.5728 6.75197 11.5729 6.4376 11.2817L6.43599 11.2802L6.37109 11.2206L6.36935 11.219L6.35846 11.2089C4.60428 9.58257 3.19459 8.27564 2.22757 7.05187C1.26565 5.83456 0.792271 4.76071 0.83303 3.60806L0.833047 3.60757C0.867809 2.59664 1.37931 1.64266 2.17936 1.08286C3.6911 0.025252 5.57876 0.505631 6.61408 1.74215ZM7.35455 10.992L7.41251 10.9329C8.986 9.47907 10.3262 8.24041 11.269 7.11622C12.2096 5.99475 12.8287 4.90364 12.8287 3.73999C12.8287 2.1134 11.6147 0.859968 9.99629 0.859968C8.89255 0.859968 7.81378 1.50453 7.302 2.46478H6.69778C6.1817 1.5057 5.10378 0.859968 3.9986 0.859968C2.38016 0.859968 1.16616 2.1134 1.16616 3.73999C1.16616 4.90364 1.78527 5.99475 2.72584 7.11622C3.66871 8.24041 5.00889 9.47907 6.58238 10.9329L6.64034 10.992L6.99745 11.3564L7.35455 10.992Z"  stroke="#A44C66"/>
</svg>
