<svg viewBox="0 0 16 16" xmlns="http://www.w3.org/2000/svg">
<path d="M7.61408 3.74215L7.99745 4.20002L8.38081 3.74215C9.41495 2.50705 11.3028 2.03088 12.816 3.0832C13.616 3.64324 14.127 4.59708 14.1618 5.60041C14.1996 6.7538 13.7257 7.82809 12.7648 9.04425C11.7964 10.2699 10.3839 11.5786 8.62419 13.2066L8.6237 13.2071L8.55039 13.2751L8.55039 13.2751L8.54801 13.2773C8.23361 13.5728 7.75197 13.5729 7.4376 13.2817L7.43599 13.2802L7.37109 13.2206L7.36935 13.219L7.35846 13.2089C5.60428 11.5826 4.19459 10.2756 3.22757 9.05187C2.26565 7.83456 1.79227 6.76071 1.83303 5.60806L1.83305 5.60757C1.86781 4.59664 2.37931 3.64266 3.17936 3.08286C4.6911 2.02525 6.57876 2.50563 7.61408 3.74215ZM8.35455 12.992L8.41251 12.9329C9.986 11.4791 11.3262 10.2404 12.269 9.11622C13.2096 7.99475 13.8287 6.90364 13.8287 5.73999C13.8287 4.1134 12.6147 2.85997 10.9963 2.85997C9.89255 2.85997 8.81378 3.50453 8.302 4.46478H7.69778C7.1817 3.5057 6.10378 2.85997 4.9986 2.85997C3.38016 2.85997 2.16616 4.1134 2.16616 5.73999C2.16616 6.90364 2.78527 7.99475 3.72584 9.11622C4.66871 10.2404 6.00889 11.4791 7.58238 12.9329L7.64034 12.992L7.99745 13.3564L8.35455 12.992Z" fill="inherit" stroke="inherit"/>
</svg>
