<svg width="15" height="13" viewBox="0 0 15 13" fill="none" xmlns="http://www.w3.org/2000/svg">
<path d="M12.8333 0.666748H2.16666C1.43333 0.666748 0.833328 1.26675 0.833328 2.00008V10.0001C0.833328 10.7334 1.43333 11.3334 2.16666 11.3334H8.16666V10.0001H2.16666V3.33341L6.79333 6.22675C7.22666 6.50008 7.77333 6.50008 8.20666 6.22675L12.8333 3.33341V6.66675H14.1667V2.00008C14.1667 1.26675 13.5667 0.666748 12.8333 0.666748ZM7.5 5.33341L2.16666 2.00008H12.8333L7.5 5.33341ZM12.1667 8.80675C12.1667 8.50675 12.5267 8.36008 12.7333 8.57341L14.5933 10.4334C14.7267 10.5667 14.7267 10.7734 14.5933 10.9067L12.7333 12.7667C12.5267 12.9734 12.1667 12.8267 12.1667 12.5267V11.3334H10.1667C9.8 11.3334 9.5 11.0334 9.5 10.6667C9.5 10.3001 9.8 10.0001 10.1667 10.0001H12.1667V8.80675Z" fill="white"/>
</svg>
