<svg width="15" height="13" viewBox="0 0 15 13" fill="white" xmlns="http://www.w3.org/2000/svg">
<path d="M12.8335 0.666748H2.16683C1.4335 0.666748 0.833496 1.26675 0.833496 2.00008V10.0001C0.833496 10.7334 1.4335 11.3334 2.16683 11.3334H8.16683V10.0001H2.16683V3.33341L6.7935 6.22675C7.22683 6.50008 7.7735 6.50008 8.20683 6.22675L12.8335 3.33341V6.66675H14.1668V2.00008C14.1668 1.26675 13.5668 0.666748 12.8335 0.666748ZM7.50016 5.33341L2.16683 2.00008H12.8335L7.50016 5.33341ZM12.1668 8.80675C12.1668 8.50675 12.5268 8.36008 12.7335 8.57341L14.5935 10.4334C14.7268 10.5667 14.7268 10.7734 14.5935 10.9067L12.7335 12.7667C12.5268 12.9734 12.1668 12.8267 12.1668 12.5267V11.3334H10.1668C9.80016 11.3334 9.50016 11.0334 9.50016 10.6667C9.50016 10.3001 9.80016 10.0001 10.1668 10.0001H12.1668V8.80675Z" fill="inherit"/>
</svg>
