<svg viewBox="0 0 16 16" fill="#D33211" xmlns="http://www.w3.org/2000/svg">
    <path d="M8.00001 4.66666C8.36668 4.66666 8.66668 4.96666 8.66668 5.33333V8C8.66668 8.36666 8.36668 8.66666 8.00001 8.66666C7.63334 8.66666 7.33334 8.36666 7.33334 8V5.33333C7.33334 4.96666 7.63334 4.66666 8.00001 4.66666ZM7.99334 1.33333C4.31334 1.33333 1.33334 4.32 1.33334 8C1.33334 11.68 4.31334 14.6667 7.99334 14.6667C11.68 14.6667 14.6667 11.68 14.6667 8C14.6667 4.32 11.68 1.33333 7.99334 1.33333ZM8.00001 13.3333C5.05334 13.3333 2.66668 10.9467 2.66668 8C2.66668 5.05333 5.05334 2.66666 8.00001 2.66666C10.9467 2.66666 13.3333 5.05333 13.3333 8C13.3333 10.9467 10.9467 13.3333 8.00001 13.3333ZM8.66668 11.3333H7.33334V10H8.66668V11.3333Z" fill="inherit"/>
</svg>
