<svg viewBox="0 0 24 24"  xmlns="http://www.w3.org/2000/svg">
<path d="M12.0002 17.0001C11.4502 17.0001 11.0002 16.5501 11.0002 16.0001L11.0002 12.0001C11.0002 11.4501 11.4502 11.0001 12.0002 11.0001C12.5502 11.0001 13.0002 11.4501 13.0002 12.0001L13.0002 16.0001C13.0002 16.5501 12.5502 17.0001 12.0002 17.0001ZM12.0102 22.0001C17.5302 22.0001 22.0002 17.5201 22.0002 12.0001C22.0002 6.48011 17.5302 2.00011 12.0102 2.00011C6.48021 2.00011 2.00021 6.48011 2.00021 12.0001C2.00021 17.5201 6.48021 22.0001 12.0102 22.0001ZM12.0002 4.00011C16.4202 4.00011 20.0002 7.58011 20.0002 12.0001C20.0002 16.4201 16.4202 20.0001 12.0002 20.0001C7.58021 20.0001 4.00021 16.4201 4.00021 12.0001C4.00021 7.58011 7.58021 4.00011 12.0002 4.00011ZM11.0002 7.00011L13.0002 7.00011L13.0002 9.00011L11.0002 9.00011L11.0002 7.00011Z" fill="inherit"/>
</svg>
