<svg viewBox="0 0 25 24" stroke="#878787" fill="#878787" xmlns="http://www.w3.org/2000/svg">
    <path d="M2.96777 12C2.96777 6.75549 7.21457 2.5 12.4578 2.5C17.712 2.5 21.9678 6.75647 21.9678 12C21.9678 17.2435 17.712 21.5 12.4578 21.5C7.21457 21.5 2.96777 17.2445 2.96777 12ZM3.96777 12C3.96777 16.6961 7.77163 20.5 12.4678 20.5C17.1639 20.5 20.9678 16.6961 20.9678 12C20.9678 7.30386 17.1639 3.5 12.4678 3.5C7.77163 3.5 3.96777 7.30386 3.96777 12Z" stroke="inherit"/>
    <path fill-rule="evenodd" clip-rule="evenodd" d="M16.2095 9.50552C16.5539 9.16111 16.5539 8.60271 16.2095 8.25831C15.8651 7.9139 15.3067 7.9139 14.9623 8.25831L12.4677 10.7528L9.9733 8.25844C9.62889 7.91403 9.07049 7.91403 8.72608 8.25844C8.38167 8.60285 8.38167 9.16124 8.72608 9.50565L11.2205 12L8.72616 14.4944C8.38175 14.8388 8.38175 15.3972 8.72616 15.7416C9.07057 16.086 9.62897 16.086 9.97338 15.7416L12.4677 13.2472L14.9622 15.7417C15.3066 16.0861 15.865 16.0861 16.2094 15.7417C16.5538 15.3973 16.5538 14.8389 16.2094 14.4945L13.7149 12L16.2095 9.50552Z" stroke="none" fill="inherit"/>
</svg>