<svg width="21" height="26" viewBox="0 0 17 17"  stroke="#3B69D1"
 xmlns="http://www.w3.org/2000/svg">
<path d="M8.50016 8.5013C9.27933 8.5013 9.91683 7.8638 9.91683 7.08464C9.91683 6.30547 9.27933 5.66797 8.50016 5.66797C7.721 5.66797 7.0835 6.30547 7.0835 7.08464C7.0835 7.8638 7.721 8.5013 8.50016 8.5013ZM8.50016 1.41797C11.4752 1.41797 14.1668 3.6988 14.1668 7.2263C14.1668 9.4788 12.4314 12.128 8.96766 15.1809C8.6985 15.4146 8.29475 15.4146 8.02558 15.1809C4.56891 12.128 2.8335 9.4788 2.8335 7.2263C2.8335 3.6988 5.52516 1.41797 8.50016 1.41797Z" fill="inherit" stroke="inherit"/>
</svg>
