<svg width="120" height="54" viewBox="0 0 120 54" fill="none" xmlns="http://www.w3.org/2000/svg">
<path d="M10.2637 31.005C8.91809 31.005 7.87311 31.3904 7.12875 32.1612C6.38438 32.9034 5.94062 34.0882 5.79747 35.7154H14.3004C14.2145 32.5751 12.869 31.005 10.2637 31.005ZM10.3496 48.0479C7.17169 48.0479 4.65229 47.1772 2.79138 45.4358C0.930459 43.6658 0 41.1108 0 37.7708C0 34.2594 0.916144 31.5332 2.74843 29.5919C4.58072 27.6222 7.14306 26.6373 10.4355 26.6373C13.4988 26.6373 15.8035 27.4652 17.3495 29.1209C18.8955 30.7767 19.6685 33.0462 19.6685 35.9295C19.6685 36.6717 19.6255 37.5852 19.5396 38.67H5.75453C5.92631 40.2972 6.38438 41.4962 7.12875 42.267C7.90174 43.0092 8.98966 43.3804 10.3925 43.3804C11.6522 43.3804 12.5684 43.1377 13.1409 42.6524C13.7422 42.1671 14.2002 41.4677 14.5152 40.5542L19.4108 41.8816C18.3515 45.9924 15.3311 48.0479 10.3496 48.0479Z" fill="#333866"/>
<path d="M28.5049 36.1864V47.4912H22.6645V27.194H28.3761V32.6322H28.8055C29.3781 30.691 30.2513 29.2065 31.4251 28.1788C32.5989 27.1511 34.0018 26.6373 35.6337 26.6373C39.0978 26.6373 40.9731 28.6641 41.2594 32.7179H41.7317C42.8769 28.6641 45.1387 26.6373 48.5169 26.6373C50.4924 26.6373 51.9811 27.2653 52.9831 28.5214C54.0138 29.749 54.5291 31.4903 54.5291 33.7456V47.4912H48.6458V35.3728C48.6458 33.0605 47.6151 31.9043 45.5538 31.9043C44.3227 31.9043 43.335 32.3039 42.5906 33.1033C41.8749 33.8741 41.517 34.9018 41.517 36.1864V47.4912H35.6766V35.3728C35.6766 34.3165 35.4189 33.4744 34.9036 32.8463C34.3883 32.2183 33.6153 31.9043 32.5846 31.9043C31.3536 31.9043 30.3658 32.3039 29.6215 33.1033C28.8771 33.8741 28.5049 34.9018 28.5049 36.1864Z" fill="#333866"/>
<path d="M68.2696 42.9521C70.9894 42.9521 72.3493 41.0966 72.3493 37.3854C72.3493 35.5013 72.0201 34.1167 71.3616 33.2317C70.7318 32.3468 69.7154 31.9043 68.3126 31.9043C67.0242 31.9043 66.0079 32.3325 65.2635 33.1889C64.5191 34.0453 64.147 35.2015 64.147 36.6574V38.2418C64.147 39.6692 64.5191 40.8111 65.2635 41.6675C66.0365 42.5239 67.0386 42.9521 68.2696 42.9521ZM78.1039 37.3854C78.1039 40.8396 77.4883 43.4945 76.2572 45.3501C75.0262 47.1772 73.3084 48.0907 71.1039 48.0907C67.8402 48.0907 65.6357 46.1209 64.4905 42.1814H64.147V54H58.3065V27.194H64.147V32.3325H64.5335C65.6786 28.5357 67.8688 26.6373 71.1039 26.6373C73.337 26.6373 75.0548 27.5651 76.2572 29.4207C77.4883 31.2477 78.1039 33.9026 78.1039 37.3854Z" fill="#333866"/>
<path d="M86.9581 20V47.4912H81.1177V20H86.9581Z" fill="#333866"/>
<path d="M100.5 48.0907C97.2072 48.0907 94.6306 47.1343 92.7696 45.2217C90.9087 43.309 89.9783 40.6826 89.9783 37.3426C89.9783 33.974 90.9087 31.3476 92.7696 29.4635C94.6592 27.5793 97.2358 26.6373 100.5 26.6373C103.706 26.6373 106.24 27.5936 108.101 29.5063C109.99 31.3904 110.935 34.0025 110.935 37.3426C110.935 40.6826 110.005 43.309 108.144 45.2217C106.283 47.1343 103.735 48.0907 100.5 48.0907ZM105.095 37.2997C105.095 33.4458 103.549 31.5189 100.457 31.5189C97.3647 31.5189 95.8187 33.4458 95.8187 37.2997C95.8187 41.1822 97.3647 43.1234 100.457 43.1234C103.549 43.1234 105.095 41.1822 105.095 37.2997Z" fill="#333866"/>
<path d="M120 24.3249H113.902V20.1285H120V24.3249ZM119.871 47.4912H114.031V27.194H119.871V47.4912Z" fill="#333866"/>
<path d="M30.9489 16.0986C33.6648 16.0986 35.0227 14.2676 35.0227 10.6056C35.0227 8.74648 34.694 7.38028 34.0364 6.50704C33.4075 5.6338 32.3926 5.19718 30.9917 5.19718C29.7053 5.19718 28.6904 5.61972 27.947 6.46479C27.2037 7.30986 26.8321 8.4507 26.8321 9.88732V11.4507C26.8321 12.8592 27.2037 13.9859 27.947 14.831C28.7189 15.6761 29.7195 16.0986 30.9489 16.0986ZM40.7691 10.6056C40.7691 14.0141 40.1544 16.6338 38.9251 18.4648C37.6958 20.2676 35.9805 21.169 33.7791 21.169C30.52 21.169 28.3187 19.2254 27.1752 15.338H26.8321V27H21V0.549295H26.8321V5.61972H27.218C28.3616 1.87324 30.5486 0 33.7791 0C36.0091 0 37.7244 0.915493 38.9251 2.74648C40.1544 4.5493 40.7691 7.16902 40.7691 10.6056Z" fill="#333866"/>
<path d="M51.0687 16.6056C52.3838 16.6056 53.4273 16.2676 54.1992 15.5915C54.9996 14.8873 55.3999 13.9859 55.3999 12.8873V12.0845H51.1974C50.2539 12.0845 49.4963 12.2817 48.9246 12.6761C48.3814 13.0704 48.1098 13.6197 48.1098 14.3239C48.1098 15.8451 49.0961 16.6056 51.0687 16.6056ZM55.7001 20.5775V15.8028H55.1855C54.0705 19.2676 51.8549 21 48.5386 21C46.7375 21 45.2938 20.5352 44.2074 19.6056C43.121 18.6479 42.5779 17.2254 42.5779 15.338C42.5779 13.4507 43.1782 11.9718 44.379 10.9014C45.6083 9.80282 47.5094 9.25352 50.0824 9.25352H55.3999V7.85915C55.3999 5.69014 54.3564 4.60563 52.2694 4.60563C50.354 4.60563 49.2104 5.56338 48.8388 7.47888L43.3498 6.25352C43.7214 4.33803 44.6648 2.83099 46.18 1.7324C47.6952 0.605634 49.7965 0.0422531 52.4838 0.0422531C55.5142 0.0422531 57.7156 0.704226 59.0878 2.02817C60.4887 3.32394 61.1891 5.26761 61.1891 7.85915V20.5775H55.7001Z" fill="#333866"/>
<path d="M73.3649 21.169C70.1629 21.169 67.8472 20.6197 66.4178 19.5211C65.017 18.4225 64.1593 16.8592 63.8448 14.831L69.0766 13.7746C69.5912 16 71.0635 17.1127 73.4935 17.1127C75.4661 17.1127 76.4667 16.4648 76.4953 15.169C76.4953 14.5211 76.1809 14.0141 75.5519 13.6479C74.9515 13.2535 73.7508 12.8873 71.9497 12.5493C69.2052 11.9577 67.2755 11.1831 66.1605 10.2254C65.0456 9.23944 64.4881 7.87324 64.4881 6.12676C64.4881 4.15493 65.2028 2.64789 66.6322 1.60563C68.0617 0.535211 70.1915 0 73.0218 0C75.7949 0 77.8104 0.492958 79.0683 1.47887C80.3548 2.43662 81.1982 3.87324 81.5984 5.78873L76.4096 6.84507C76.1808 5.80282 75.7949 5.07042 75.2517 4.64789C74.7371 4.19718 73.9509 3.97183 72.8932 3.97183C70.9777 3.97183 70.02 4.57747 70.02 5.78873C70.02 6.40845 70.2916 6.91549 70.8348 7.30986C71.4065 7.70423 72.5358 8.07042 74.2225 8.40845C77.2243 9.02817 79.2827 9.85915 80.3977 10.9014C81.5412 11.9155 82.113 13.2535 82.113 14.9155C82.113 19.0845 79.197 21.169 73.3649 21.169Z" fill="#333866"/>
<path d="M93.2519 21.169C90.0499 21.169 87.7342 20.6197 86.3048 19.5211C84.904 18.4225 84.0463 16.8592 83.7318 14.831L88.9636 13.7746C89.4782 16 90.9505 17.1127 93.3805 17.1127C95.3531 17.1127 96.3537 16.4648 96.3823 15.169C96.3823 14.5211 96.0678 14.0141 95.4389 13.6479C94.8385 13.2535 93.6378 12.8873 91.8367 12.5493C89.0922 11.9577 87.1625 11.1831 86.0475 10.2254C84.9326 9.23944 84.3751 7.87324 84.3751 6.12676C84.3751 4.15493 85.0898 2.64789 86.5192 1.60563C87.9487 0.535211 90.0785 0 92.9088 0C95.6819 0 97.6974 0.492958 98.9553 1.47887C100.242 2.43662 101.085 3.87324 101.485 5.78873L96.2966 6.84507C96.0678 5.80282 95.6819 5.07042 95.1387 4.64789C94.6241 4.19718 93.8379 3.97183 92.7802 3.97183C90.8647 3.97183 89.907 4.57747 89.907 5.78873C89.907 6.40845 90.1786 6.91549 90.7218 7.30986C91.2935 7.70423 92.4228 8.07042 94.1095 8.40845C97.1113 9.02817 99.1697 9.85915 100.285 10.9014C101.428 11.9155 102 13.2535 102 14.9155C102 19.0845 99.084 21.169 93.2519 21.169Z" fill="#333866"/>
</svg>
