<svg  fill="none" xmlns="http://www.w3.org/2000/svg">
<path d="M5.98714 18.3736C5.20222 18.3736 4.59265 18.6019 4.15844 19.0587C3.72422 19.4985 3.46536 20.2006 3.38186 21.1649H8.34192C8.29182 19.304 7.50689 18.3736 5.98714 18.3736ZM6.03725 28.473C4.18349 28.473 2.71384 27.957 1.6283 26.9251C0.542768 25.8762 0 24.3622 0 22.3829C0 20.3021 0.534417 18.6865 1.60325 17.5362C2.67209 16.3689 4.16679 15.7853 6.08735 15.7853C7.87431 15.7853 9.2187 16.2758 10.1205 17.257C11.0224 18.2382 11.4733 19.5831 11.4733 21.2917C11.4733 21.7316 11.4482 22.2729 11.3981 22.9158H3.35681C3.45701 23.88 3.72422 24.5905 4.15844 25.0473C4.60935 25.4871 5.24397 25.7071 6.0623 25.7071C6.79712 25.7071 7.33154 25.5633 7.66555 25.2757C8.01626 24.9881 8.28347 24.5736 8.46718 24.0323L11.323 24.8189C10.705 27.255 8.94314 28.473 6.03725 28.473Z" fill="#333866"/>
<path d="M16.6279 21.444V28.1431H13.221V16.1151H16.5527V19.3378H16.8032C17.1372 18.1875 17.6466 17.3078 18.3313 16.6988C19.016 16.0898 19.8344 15.7853 20.7863 15.7853C22.8071 15.7853 23.901 16.9864 24.068 19.3886H24.3435C25.0115 16.9864 26.3309 15.7853 28.3015 15.7853C29.4539 15.7853 30.3223 16.1574 30.9068 16.9018C31.5081 17.6292 31.8087 18.6611 31.8087 19.9976V28.1431H28.3767V20.9619C28.3767 19.5916 27.7755 18.9064 26.573 18.9064C25.8549 18.9064 25.2788 19.1433 24.8445 19.617C24.427 20.0737 24.2183 20.6827 24.2183 21.444V28.1431H20.8114V20.9619C20.8114 20.3359 20.661 19.8369 20.3604 19.4647C20.0598 19.0925 19.6089 18.9064 19.0077 18.9064C18.2896 18.9064 17.7134 19.1433 17.2792 19.617C16.845 20.0737 16.6279 20.6827 16.6279 21.444Z" fill="#333866"/>
<path d="M39.8239 25.4533C41.4105 25.4533 42.2038 24.3537 42.2038 22.1545C42.2038 21.038 42.0117 20.2175 41.6276 19.6931C41.2602 19.1686 40.6673 18.9064 39.849 18.9064C39.0975 18.9064 38.5046 19.1602 38.0704 19.6677C37.6362 20.1752 37.4191 20.8603 37.4191 21.7231V22.662C37.4191 23.5079 37.6362 24.1845 38.0704 24.692C38.5213 25.1996 39.1058 25.4533 39.8239 25.4533ZM45.5606 22.1545C45.5606 24.2015 45.2015 25.7747 44.4834 26.8743C43.7653 27.957 42.7632 28.4984 41.4773 28.4984C39.5734 28.4984 38.2875 27.3311 37.6195 24.9966H37.4191V32.0002H34.0122V16.1151H37.4191V19.1602H37.6445C38.3125 16.9102 39.5901 15.7853 41.4773 15.7853C42.7799 15.7853 43.782 16.3351 44.4834 17.4347C45.2015 18.5173 45.5606 20.0906 45.5606 22.1545Z" fill="#333866"/>
<path d="M50.7255 11.8521V28.1431H47.3186V11.8521H50.7255Z" fill="#333866"/>
<path d="M58.6248 28.4984C56.7042 28.4984 55.2012 27.9317 54.1156 26.7982C53.0301 25.6648 52.4873 24.1084 52.4873 22.1291C52.4873 20.1329 53.0301 18.5766 54.1156 17.46C55.2179 16.3435 56.7209 15.7853 58.6248 15.7853C60.4952 15.7853 61.9732 16.352 63.0588 17.4854C64.161 18.6019 64.7121 20.1498 64.7121 22.1291C64.7121 24.1084 64.1694 25.6648 63.0838 26.7982C61.9983 27.9317 60.5119 28.4984 58.6248 28.4984ZM61.3052 22.1037C61.3052 19.82 60.4034 18.6781 58.5997 18.6781C56.7961 18.6781 55.8942 19.82 55.8942 22.1037C55.8942 24.4045 56.7961 25.5548 58.5997 25.5548C60.4034 25.5548 61.3052 24.4045 61.3052 22.1037Z" fill="#333866"/>
<path d="M70 14.415H66.4428V11.9282H70V14.415ZM69.9248 28.1431H66.5179V16.1151H69.9248V28.1431Z" fill="#333866"/>
<path d="M18.0535 9.5399C19.6378 9.5399 20.4299 8.45487 20.4299 6.28482C20.4299 5.1831 20.2382 4.3735 19.8546 3.85602C19.4877 3.33855 18.8957 3.07981 18.0785 3.07981C17.3281 3.07981 16.736 3.3302 16.3024 3.83098C15.8689 4.33177 15.6521 5.00782 15.6521 5.85915V6.7856C15.6521 7.62024 15.8689 8.28795 16.3024 8.78873C16.7527 9.28951 17.3364 9.5399 18.0535 9.5399ZM23.782 6.28482C23.782 8.30464 23.4234 9.85706 22.7063 10.9421C21.9892 12.0104 20.9886 12.5446 19.7045 12.5446C17.8034 12.5446 16.5192 11.3928 15.8522 9.0892H15.6521V16H12.25V0.325508H15.6521V3.3302H15.8772C16.5443 1.11007 17.82 0 19.7045 0C21.0053 0 22.0059 0.542514 22.7063 1.62754C23.4234 2.69588 23.782 4.2483 23.782 6.28482Z" fill="#333866"/>
<path d="M29.7901 9.84037C30.5572 9.84037 31.1659 9.64006 31.6162 9.23943C32.0831 8.82211 32.3166 8.28794 32.3166 7.63693V7.16118H29.8651C29.3148 7.16118 28.8729 7.27803 28.5393 7.51173C28.2225 7.74543 28.064 8.07094 28.064 8.48826C28.064 9.38967 28.6394 9.84037 29.7901 9.84037ZM32.4917 12.194V9.36463H32.1915C31.5411 11.4178 30.2487 12.4444 28.3142 12.4444C27.2636 12.4444 26.4214 12.169 25.7877 11.6181C25.1539 11.0506 24.8371 10.2076 24.8371 9.0892C24.8371 7.97078 25.1873 7.09441 25.8877 6.46009C26.6048 5.80907 27.7138 5.48356 29.2147 5.48356H32.3166V4.65727C32.3166 3.37193 31.7079 2.72926 30.4905 2.72926C29.3732 2.72926 28.7061 3.29682 28.4893 4.43192L25.2874 3.70579C25.5042 2.57068 26.0545 1.67762 26.9384 1.0266C27.8222 0.358894 29.048 0.0250389 30.6156 0.0250389C32.3833 0.0250389 33.6674 0.417319 34.4679 1.20188C35.2851 1.96974 35.6936 3.12154 35.6936 4.65727V12.194H32.4917Z" fill="#333866"/>
<path d="M42.7962 12.5446C40.9284 12.5446 39.5776 12.2191 38.7437 11.5681C37.9266 10.9171 37.4263 9.9906 37.2428 8.78873L40.2947 8.16275C40.5948 9.48148 41.4537 10.1408 42.8712 10.1408C44.0219 10.1408 44.6056 9.75691 44.6223 8.98904C44.6223 8.60511 44.4388 8.30464 44.0719 8.08763C43.7217 7.85393 43.0213 7.63693 41.9707 7.43661C40.3697 7.08607 39.244 6.62702 38.5936 6.05946C37.9432 5.47522 37.618 4.66562 37.618 3.63067C37.618 2.46218 38.035 1.56912 38.8688 0.951486C39.7026 0.317162 40.9451 0 42.5961 0C44.2137 0 45.3894 0.292123 46.1232 0.876369C46.8736 1.44392 47.3656 2.29525 47.5991 3.43036L44.5722 4.05634C44.4388 3.4387 44.2137 3.00469 43.8968 2.7543C43.5967 2.48722 43.138 2.35368 42.521 2.35368C41.4037 2.35368 40.845 2.71257 40.845 3.43036C40.845 3.7976 41.0034 4.09807 41.3203 4.33177C41.6538 4.56546 42.3125 4.78247 43.2965 4.98278C45.0475 5.35002 46.2483 5.84246 46.8986 6.46009C47.5657 7.06103 47.8993 7.85393 47.8993 8.83881C47.8993 11.3093 46.1982 12.5446 42.7962 12.5446Z" fill="#333866"/>
<path d="M54.3969 12.5446C52.5291 12.5446 51.1783 12.2191 50.3445 11.5681C49.5273 10.9171 49.027 9.9906 48.8436 8.78873L51.8954 8.16275C52.1956 9.48148 53.0544 10.1408 54.472 10.1408C55.6227 10.1408 56.2063 9.75691 56.223 8.98904C56.223 8.60511 56.0396 8.30464 55.6727 8.08763C55.3225 7.85393 54.6221 7.63693 53.5714 7.43661C51.9705 7.08607 50.8448 6.62702 50.1944 6.05946C49.544 5.47522 49.2188 4.66562 49.2188 3.63067C49.2188 2.46218 49.6357 1.56912 50.4695 0.951486C51.3034 0.317162 52.5458 0 54.1968 0C55.8144 0 56.9902 0.292123 57.7239 0.876369C58.4744 1.44392 58.9663 2.29525 59.1998 3.43036L56.173 4.05634C56.0396 3.4387 55.8144 3.00469 55.4976 2.7543C55.1974 2.48722 54.7388 2.35368 54.1218 2.35368C53.0044 2.35368 52.4457 2.71257 52.4457 3.43036C52.4457 3.7976 52.6042 4.09807 52.921 4.33177C53.2546 4.56546 53.9133 4.78247 54.8972 4.98278C56.6483 5.35002 57.849 5.84246 58.4994 6.46009C59.1665 7.06103 59.5 7.85393 59.5 8.83881C59.5 11.3093 57.799 12.5446 54.3969 12.5446Z" fill="#333866"/>
</svg>
