<svg width="94" height="69" viewBox="0 0 94 69" fill="none" xmlns="http://www.w3.org/2000/svg">
<path d="M18.57 65.7309C17.6167 65.7309 16.87 65.5009 16.33 65.0409C15.7967 64.5742 15.5133 63.9009 15.48 63.0209C15.4733 62.8409 15.47 62.5475 15.47 62.1409C15.47 61.7275 15.4733 61.4275 15.48 61.2409C15.5133 60.3742 15.8033 59.7075 16.35 59.2409C16.8967 58.7675 17.6367 58.5309 18.57 58.5309C19.1567 58.5309 19.6833 58.6309 20.15 58.8309C20.6167 59.0242 20.9833 59.3042 21.25 59.6709C21.5233 60.0309 21.6633 60.4542 21.67 60.9409V60.9609C21.67 61.0142 21.6467 61.0609 21.6 61.1009C21.56 61.1342 21.5133 61.1509 21.46 61.1509H20.11C20.0233 61.1509 19.9567 61.1342 19.91 61.1009C19.8633 61.0609 19.8233 60.9909 19.79 60.8909C19.6967 60.5509 19.55 60.3142 19.35 60.1809C19.15 60.0409 18.8867 59.9709 18.56 59.9709C17.7733 59.9709 17.3667 60.4109 17.34 61.2909C17.3333 61.4709 17.33 61.7475 17.33 62.1209C17.33 62.4942 17.3333 62.7775 17.34 62.9709C17.3667 63.8509 17.7733 64.2909 18.56 64.2909C18.8867 64.2909 19.1533 64.2209 19.36 64.0809C19.5667 63.9342 19.71 63.6975 19.79 63.3709C19.8167 63.2709 19.8533 63.2042 19.9 63.1709C19.9467 63.1309 20.0167 63.1109 20.11 63.1109H21.46C21.52 63.1109 21.57 63.1309 21.61 63.1709C21.6567 63.2109 21.6767 63.2609 21.67 63.3209C21.6633 63.8075 21.5233 64.2342 21.25 64.6009C20.9833 64.9609 20.6167 65.2409 20.15 65.4409C19.6833 65.6342 19.1567 65.7309 18.57 65.7309ZM25.5815 65.7309C24.6415 65.7309 23.9015 65.5009 23.3615 65.0409C22.8215 64.5809 22.5348 63.9042 22.5015 63.0109C22.4948 62.8175 22.4915 62.5309 22.4915 62.1509C22.4915 61.7642 22.4948 61.4742 22.5015 61.2809C22.5348 60.4009 22.8248 59.7242 23.3715 59.2509C23.9248 58.7709 24.6615 58.5309 25.5815 58.5309C26.5015 58.5309 27.2382 58.7709 27.7915 59.2509C28.3448 59.7242 28.6348 60.4009 28.6615 61.2809C28.6748 61.6675 28.6815 61.9575 28.6815 62.1509C28.6815 62.3375 28.6748 62.6242 28.6615 63.0109C28.6282 63.9042 28.3415 64.5809 27.8015 65.0409C27.2615 65.5009 26.5215 65.7309 25.5815 65.7309ZM25.5815 64.2909C25.9482 64.2909 26.2382 64.1809 26.4515 63.9609C26.6715 63.7409 26.7882 63.4042 26.8015 62.9509C26.8148 62.5642 26.8215 62.2909 26.8215 62.1309C26.8215 61.9575 26.8148 61.6842 26.8015 61.3109C26.7882 60.8575 26.6715 60.5209 26.4515 60.3009C26.2315 60.0809 25.9415 59.9709 25.5815 59.9709C25.2215 59.9709 24.9315 60.0809 24.7115 60.3009C24.4982 60.5209 24.3815 60.8575 24.3615 61.3109C24.3548 61.4975 24.3515 61.7709 24.3515 62.1309C24.3515 62.4842 24.3548 62.7575 24.3615 62.9509C24.3815 63.4042 24.4982 63.7409 24.7115 63.9609C24.9248 64.1809 25.2148 64.2909 25.5815 64.2909ZM30.0906 65.6309C30.024 65.6309 29.964 65.6075 29.9106 65.5609C29.864 65.5075 29.8406 65.4475 29.8406 65.3809V58.8809C29.8406 58.8075 29.864 58.7475 29.9106 58.7009C29.964 58.6542 30.024 58.6309 30.0906 58.6309H31.1506C31.3173 58.6309 31.4306 58.6942 31.4906 58.8209L33.9306 62.6609V58.8809C33.9306 58.8075 33.954 58.7475 34.0006 58.7009C34.054 58.6542 34.114 58.6309 34.1806 58.6309H35.3806C35.454 58.6309 35.514 58.6542 35.5606 58.7009C35.6073 58.7475 35.6306 58.8075 35.6306 58.8809V65.3709C35.6306 65.4442 35.6073 65.5075 35.5606 65.5609C35.514 65.6075 35.454 65.6309 35.3806 65.6309H34.3106C34.164 65.6309 34.054 65.5675 33.9806 65.4409L31.5406 61.7409V65.3809C31.5406 65.4475 31.5173 65.5075 31.4706 65.5609C31.424 65.6075 31.364 65.6309 31.2906 65.6309H30.0906ZM39.6381 65.7309C39.0048 65.7309 38.4615 65.6375 38.0081 65.4509C37.5548 65.2642 37.2115 65.0209 36.9781 64.7209C36.7515 64.4142 36.6315 64.0809 36.6181 63.7209C36.6181 63.6675 36.6381 63.6209 36.6781 63.5809C36.7248 63.5342 36.7781 63.5109 36.8381 63.5109H38.0981C38.1781 63.5109 38.2415 63.5275 38.2881 63.5609C38.3415 63.5875 38.3948 63.6309 38.4481 63.6909C38.5348 63.8642 38.6748 64.0075 38.8681 64.1209C39.0615 64.2342 39.3181 64.2909 39.6381 64.2909C40.0181 64.2909 40.3081 64.2309 40.5081 64.1109C40.7081 63.9909 40.8081 63.8275 40.8081 63.6209C40.8081 63.4742 40.7548 63.3542 40.6481 63.2609C40.5481 63.1675 40.3881 63.0842 40.1681 63.0109C39.9481 62.9375 39.6215 62.8542 39.1881 62.7609C38.3881 62.5942 37.7881 62.3509 37.3881 62.0309C36.9948 61.7042 36.7981 61.2409 36.7981 60.6409C36.7981 60.2342 36.9115 59.8709 37.1381 59.5509C37.3648 59.2309 37.6881 58.9809 38.1081 58.8009C38.5281 58.6209 39.0181 58.5309 39.5781 58.5309C40.1581 58.5309 40.6615 58.6309 41.0881 58.8309C41.5148 59.0309 41.8381 59.2842 42.0581 59.5909C42.2848 59.8909 42.4048 60.1875 42.4181 60.4809C42.4181 60.5409 42.3981 60.5909 42.3581 60.6309C42.3181 60.6709 42.2681 60.6909 42.2081 60.6909H40.8881C40.8081 60.6909 40.7415 60.6775 40.6881 60.6509C40.6415 60.6242 40.5981 60.5809 40.5581 60.5209C40.5181 60.3675 40.4081 60.2375 40.2281 60.1309C40.0548 60.0242 39.8381 59.9709 39.5781 59.9709C39.2781 59.9709 39.0481 60.0242 38.8881 60.1309C38.7281 60.2375 38.6481 60.3942 38.6481 60.6009C38.6481 60.7409 38.6915 60.8575 38.7781 60.9509C38.8715 61.0442 39.0181 61.1309 39.2181 61.2109C39.4248 61.2842 39.7181 61.3609 40.0981 61.4409C40.7181 61.5542 41.2115 61.6975 41.5781 61.8709C41.9515 62.0375 42.2248 62.2575 42.3981 62.5309C42.5715 62.7975 42.6581 63.1342 42.6581 63.5409C42.6581 63.9875 42.5281 64.3775 42.2681 64.7109C42.0148 65.0375 41.6581 65.2909 41.1981 65.4709C40.7448 65.6442 40.2248 65.7309 39.6381 65.7309ZM43.909 65.6309C43.8423 65.6309 43.7823 65.6075 43.729 65.5609C43.6823 65.5075 43.659 65.4475 43.659 65.3809V58.8809C43.659 58.8075 43.6823 58.7475 43.729 58.7009C43.7823 58.6542 43.8423 58.6309 43.909 58.6309H48.579C48.6523 58.6309 48.7123 58.6542 48.759 58.7009C48.8057 58.7475 48.829 58.8075 48.829 58.8809V59.8209C48.829 59.8875 48.8057 59.9475 48.759 60.0009C48.7123 60.0475 48.6523 60.0709 48.579 60.0709H45.389V61.4209H48.359C48.4323 61.4209 48.4923 61.4475 48.539 61.5009C48.5857 61.5475 48.609 61.6075 48.609 61.6809V62.5509C48.609 62.6175 48.5857 62.6775 48.539 62.7309C48.4923 62.7775 48.4323 62.8009 48.359 62.8009H45.389V64.1909H48.659C48.7323 64.1909 48.7923 64.2142 48.839 64.2609C48.8857 64.3075 48.909 64.3675 48.909 64.4409V65.3809C48.909 65.4475 48.8857 65.5075 48.839 65.5609C48.7923 65.6075 48.7323 65.6309 48.659 65.6309H43.909ZM50.2957 65.6309C50.229 65.6309 50.169 65.6075 50.1157 65.5609C50.069 65.5075 50.0457 65.4475 50.0457 65.3809V58.8809C50.0457 58.8075 50.069 58.7475 50.1157 58.7009C50.169 58.6542 50.229 58.6309 50.2957 58.6309H51.6357C51.709 58.6309 51.769 58.6542 51.8157 58.7009C51.869 58.7475 51.8957 58.8075 51.8957 58.8809V65.3809C51.8957 65.4542 51.869 65.5142 51.8157 65.5609C51.769 65.6075 51.709 65.6309 51.6357 65.6309H50.2957ZM53.5379 65.6309C53.4712 65.6309 53.4112 65.6075 53.3579 65.5609C53.3112 65.5075 53.2879 65.4475 53.2879 65.3809V58.8809C53.2879 58.8075 53.3112 58.7475 53.3579 58.7009C53.4112 58.6542 53.4712 58.6309 53.5379 58.6309H54.8579C54.9312 58.6309 54.9912 58.6542 55.0379 58.7009C55.0846 58.7475 55.1079 58.8075 55.1079 58.8809V64.1209H58.1379C58.2112 64.1209 58.2712 64.1475 58.3179 64.2009C58.3646 64.2475 58.3879 64.3075 58.3879 64.3809V65.3809C58.3879 65.4475 58.3646 65.5075 58.3179 65.5609C58.2712 65.6075 58.2112 65.6309 58.1379 65.6309H53.5379ZM59.5047 65.6309C59.438 65.6309 59.378 65.6075 59.3247 65.5609C59.278 65.5075 59.2547 65.4475 59.2547 65.3809V58.8809C59.2547 58.8075 59.278 58.7475 59.3247 58.7009C59.378 58.6542 59.438 58.6309 59.5047 58.6309H60.8247C60.898 58.6309 60.958 58.6542 61.0047 58.7009C61.0514 58.7475 61.0747 58.8075 61.0747 58.8809V64.1209H64.1047C64.178 64.1209 64.238 64.1475 64.2847 64.2009C64.3314 64.2475 64.3547 64.3075 64.3547 64.3809V65.3809C64.3547 65.4475 64.3314 65.5075 64.2847 65.5609C64.238 65.6075 64.178 65.6309 64.1047 65.6309H59.5047ZM65.4715 65.6309C65.4048 65.6309 65.3448 65.6075 65.2915 65.5609C65.2448 65.5075 65.2215 65.4475 65.2215 65.3809V58.8809C65.2215 58.8075 65.2448 58.7475 65.2915 58.7009C65.3448 58.6542 65.4048 58.6309 65.4715 58.6309H70.1415C70.2148 58.6309 70.2748 58.6542 70.3215 58.7009C70.3682 58.7475 70.3915 58.8075 70.3915 58.8809V59.8209C70.3915 59.8875 70.3682 59.9475 70.3215 60.0009C70.2748 60.0475 70.2148 60.0709 70.1415 60.0709H66.9515V61.4209H69.9215C69.9948 61.4209 70.0548 61.4475 70.1015 61.5009C70.1482 61.5475 70.1715 61.6075 70.1715 61.6809V62.5509C70.1715 62.6175 70.1482 62.6775 70.1015 62.7309C70.0548 62.7775 69.9948 62.8009 69.9215 62.8009H66.9515V64.1909H70.2215C70.2948 64.1909 70.3548 64.2142 70.4015 64.2609C70.4482 64.3075 70.4715 64.3675 70.4715 64.4409V65.3809C70.4715 65.4475 70.4482 65.5075 70.4015 65.5609C70.3548 65.6075 70.2948 65.6309 70.2215 65.6309H65.4715ZM71.8582 65.6309C71.7915 65.6309 71.7315 65.6075 71.6782 65.5609C71.6315 65.5075 71.6082 65.4475 71.6082 65.3809V58.8809C71.6082 58.8075 71.6315 58.7475 71.6782 58.7009C71.7315 58.6542 71.7915 58.6309 71.8582 58.6309H74.5782C75.4515 58.6309 76.1315 58.8309 76.6182 59.2309C77.1115 59.6242 77.3582 60.1842 77.3582 60.9109C77.3582 61.3775 77.2482 61.7742 77.0282 62.1009C76.8082 62.4275 76.5049 62.6775 76.1182 62.8509L77.4882 65.3109C77.5082 65.3509 77.5182 65.3875 77.5182 65.4209C77.5182 65.4742 77.4949 65.5242 77.4482 65.5709C77.4082 65.6109 77.3615 65.6309 77.3082 65.6309H75.9782C75.7849 65.6309 75.6482 65.5409 75.5682 65.3609L74.4282 63.1609H73.4082V65.3809C73.4082 65.4542 73.3815 65.5142 73.3282 65.5609C73.2815 65.6075 73.2215 65.6309 73.1482 65.6309H71.8582ZM74.5582 61.7409C74.8649 61.7409 75.0982 61.6675 75.2582 61.5209C75.4182 61.3675 75.4982 61.1575 75.4982 60.8909C75.4982 60.6242 75.4182 60.4142 75.2582 60.2609C75.1049 60.1009 74.8715 60.0209 74.5582 60.0209H73.4082V61.7409H74.5582Z" fill="#333866"/>
<path d="M8.03988 30.8638C6.98584 30.8638 6.16727 31.1621 5.58418 31.7589C5.0011 32.3335 4.65349 33.2507 4.54135 34.5105H11.202C11.1347 32.0793 10.0807 30.8638 8.03988 30.8638ZM8.10716 44.0582C5.61782 44.0582 3.6443 43.3841 2.18658 42.036C0.728859 40.6657 0 38.6876 0 36.1018C0 33.3833 0.717646 31.2727 2.15294 29.7698C3.58823 28.2448 5.5954 27.4823 8.17444 27.4823C10.5741 27.4823 12.3794 28.1232 13.5904 29.4051C14.8015 30.687 15.407 32.444 15.407 34.6762C15.407 35.2509 15.3733 35.9581 15.306 36.798H4.50772C4.64227 38.0577 5.0011 38.986 5.58418 39.5827C6.1897 40.1574 7.0419 40.4447 8.1408 40.4447C9.12756 40.4447 9.84521 40.2568 10.2937 39.8811C10.7647 39.5054 11.1235 38.9639 11.3702 38.2566L15.2051 39.2844C14.3754 42.4669 12.0094 44.0582 8.10716 44.0582Z" fill="#333866"/>
<path d="M22.3289 34.8752V43.6272H17.7539V27.9133H22.2279V32.1236H22.5643C23.0129 30.6207 23.6969 29.4714 24.6164 28.6758C25.5358 27.8801 26.6347 27.4823 27.913 27.4823C30.6266 27.4823 32.0956 29.0515 32.3198 32.1899H32.6899C33.5869 29.0515 35.3586 27.4823 38.0049 27.4823C39.5524 27.4823 40.7185 27.9685 41.5035 28.941C42.3108 29.8913 42.7145 31.2395 42.7145 32.9855V43.6272H38.1059V34.2453C38.1059 32.4551 37.2985 31.56 35.6838 31.56C34.7195 31.56 33.9458 31.8694 33.3627 32.4882C32.802 33.085 32.5217 33.8806 32.5217 34.8752V43.6272H27.9467V34.2453C27.9467 33.4275 27.7448 32.7755 27.3412 32.2893C26.9375 31.8031 26.332 31.56 25.5246 31.56C24.5603 31.56 23.7866 31.8694 23.2035 32.4882C22.6204 33.085 22.3289 33.8806 22.3289 34.8752Z" fill="#333866"/>
<path d="M53.4779 40.1131C55.6084 40.1131 56.6736 38.6766 56.6736 35.8034C56.6736 34.3447 56.4157 33.2728 55.8999 32.5877C55.4065 31.9025 54.6104 31.56 53.5115 31.56C52.5023 31.56 51.7062 31.8915 51.1231 32.5545C50.54 33.2176 50.2485 34.1127 50.2485 35.2398V36.4664C50.2485 37.5715 50.54 38.4556 51.1231 39.1186C51.7286 39.7816 52.5135 40.1131 53.4779 40.1131ZM61.1814 35.8034C61.1814 38.4777 60.6992 40.5331 59.7348 41.9697C58.7705 43.3841 57.4249 44.0914 55.6981 44.0914C53.1415 44.0914 51.4146 42.5664 50.5176 39.5164H50.2485V48.6663H45.6735V27.9133H50.2485V31.8915H50.5512C51.4483 28.952 53.1639 27.4823 55.6981 27.4823C57.4474 27.4823 58.7929 28.2006 59.7348 29.6372C60.6992 31.0516 61.1814 33.1071 61.1814 35.8034Z" fill="#333866"/>
<path d="M68.1172 22.3438V43.6272H63.5422V22.3438H68.1172Z" fill="#333866"/>
<path d="M78.7247 44.0914C76.1457 44.0914 74.1273 43.351 72.6696 41.8702C71.2118 40.3894 70.483 38.3561 70.483 35.7703C70.483 33.1623 71.2118 31.129 72.6696 29.6703C74.1497 28.2116 76.1681 27.4823 78.7247 27.4823C81.2365 27.4823 83.2212 28.2227 84.6789 29.7035C86.1591 31.1621 86.8991 33.1844 86.8991 35.7703C86.8991 38.3561 86.1703 40.3894 84.7126 41.8702C83.2548 43.351 81.2589 44.0914 78.7247 44.0914ZM82.3241 35.7371C82.3241 32.7534 81.1131 31.2616 78.6911 31.2616C76.269 31.2616 75.058 32.7534 75.058 35.7371C75.058 38.7429 76.269 40.2458 78.6911 40.2458C81.1131 40.2458 82.3241 38.7429 82.3241 35.7371Z" fill="#333866"/>
<path d="M94 25.6921H89.2232V22.4432H94V25.6921ZM93.8991 43.6272H89.3241V27.9133H93.8991V43.6272Z" fill="#333866"/>
<path d="M24.2435 13.3521C26.3709 13.3521 27.4347 11.9346 27.4347 9.09949C27.4347 7.66014 27.1771 6.60244 26.6621 5.92638C26.1694 5.25033 25.3744 4.9123 24.2771 4.9123C23.2693 4.9123 22.4743 5.23942 21.8921 5.89367C21.3098 6.54792 21.0187 7.43115 21.0187 8.54337V9.75373C21.0187 10.8441 21.3098 11.7165 21.8921 12.3707C22.4967 13.025 23.2805 13.3521 24.2435 13.3521ZM31.936 9.09949C31.936 11.7383 31.4545 13.7665 30.4915 15.184C29.5286 16.5797 28.1849 17.2776 26.4605 17.2776C23.9076 17.2776 22.1832 15.7728 21.2874 12.7633H21.0187V21.7919H16.4502V1.31393H21.0187V5.23942H21.321C22.2168 2.33892 23.9299 0.888672 26.4605 0.888672C28.2073 0.888672 29.551 1.59744 30.4915 3.01498C31.4545 4.41071 31.936 6.43888 31.936 9.09949Z" fill="#333866"/>
<path d="M40.004 13.7446C41.0342 13.7446 41.8516 13.4829 42.4562 12.9595C43.0833 12.4143 43.3968 11.7165 43.3968 10.866V10.2444H40.1048C39.3658 10.2444 38.7723 10.3971 38.3244 10.7024C37.8989 11.0077 37.6862 11.433 37.6862 11.9782C37.6862 13.1558 38.4588 13.7446 40.004 13.7446ZM43.6319 16.8196V13.1231H43.2288C42.3554 15.8055 40.6199 17.1467 38.0221 17.1467C36.6113 17.1467 35.4803 16.7869 34.6293 16.0672C33.7784 15.3257 33.3529 14.2244 33.3529 12.7633C33.3529 11.3021 33.8231 10.1572 34.7637 9.32847C35.7267 8.47795 37.2159 8.05269 39.2314 8.05269H43.3968V6.97318C43.3968 5.29394 42.5794 4.45432 40.9446 4.45432C39.4442 4.45432 38.5484 5.19581 38.2572 6.67877L33.9575 5.73011C34.2486 4.24715 34.9877 3.0804 36.1746 2.22988C37.3615 1.35755 39.0075 0.921384 41.1125 0.921384C43.4864 0.921384 45.2107 1.43388 46.2857 2.45887C47.383 3.46205 47.9317 4.96682 47.9317 6.97318V16.8196H43.6319Z" fill="#333866"/>
<path d="M57.4693 17.2776C54.9612 17.2776 53.1472 16.8523 52.0275 16.0018C50.9302 15.1513 50.2583 13.9409 50.012 12.3707L54.1102 11.5529C54.5133 13.2758 55.6666 14.1372 57.5701 14.1372C59.1153 14.1372 59.8991 13.6356 59.9215 12.6324C59.9215 12.1308 59.6752 11.7383 59.1825 11.4548C58.7122 11.1495 57.7717 10.866 56.3608 10.6043C54.2109 10.1463 52.6993 9.54655 51.8259 8.80507C50.9525 8.04178 50.5159 6.98408 50.5159 5.63197C50.5159 4.10539 51.0757 2.93865 52.1954 2.13174C53.3152 1.30303 54.9836 0.888672 57.2006 0.888672C59.3729 0.888672 60.9517 1.27032 61.937 2.03361C62.9448 2.77509 63.6054 3.88731 63.9189 5.37027L59.8543 6.18808C59.6752 5.38118 59.3729 4.81416 58.9474 4.48704C58.5443 4.1381 57.9284 3.96364 57.0998 3.96364C55.5994 3.96364 54.8492 4.43252 54.8492 5.37027C54.8492 5.85005 55.0619 6.2426 55.4874 6.54792C55.9353 6.85323 56.8199 7.13674 58.1412 7.39844C60.4926 7.87822 62.105 8.52157 62.9784 9.32847C63.8742 10.1136 64.322 11.1495 64.322 12.4362C64.322 15.6638 62.0378 17.2776 57.4693 17.2776Z" fill="#333866"/>
<path d="M73.0475 17.2776C70.5393 17.2776 68.7254 16.8523 67.6056 16.0018C66.5083 15.1513 65.8365 13.9409 65.5901 12.3707L69.6883 11.5529C70.0914 13.2758 71.2447 14.1372 73.1483 14.1372C74.6935 14.1372 75.4773 13.6356 75.4997 12.6324C75.4997 12.1308 75.2533 11.7383 74.7607 11.4548C74.2904 11.1495 73.3498 10.866 71.939 10.6043C69.7891 10.1463 68.2775 9.54655 67.4041 8.80507C66.5307 8.04178 66.094 6.98408 66.094 5.63197C66.094 4.10539 66.6539 2.93865 67.7736 2.13174C68.8933 1.30303 70.5617 0.888672 72.7788 0.888672C74.951 0.888672 76.5298 1.27032 77.5152 2.03361C78.5229 2.77509 79.1836 3.88731 79.4971 5.37027L75.4325 6.18808C75.2533 5.38118 74.951 4.81416 74.5255 4.48704C74.1224 4.1381 73.5066 3.96364 72.678 3.96364C71.1775 3.96364 70.4273 4.43252 70.4273 5.37027C70.4273 5.85005 70.6401 6.2426 71.0656 6.54792C71.5135 6.85323 72.398 7.13674 73.7193 7.39844C76.0707 7.87822 77.6831 8.52157 78.5565 9.32847C79.4523 10.1136 79.9002 11.1495 79.9002 12.4362C79.9002 15.6638 77.616 17.2776 73.0475 17.2776Z" fill="#333866"/>
</svg>
