<svg width="30" height="30" viewBox="0 0 30 30" fill="#E1000F" xmlns="http://www.w3.org/2000/svg">
<circle opacity="0.05" cx="15" cy="15" r="15" fill="inherit"/>
<path d="M18.4844 18.1875V19.125C18.4844 20.1589 17.6433 21 16.6094 21H11.8984C10.8645 21 10.0234 20.1589 10.0234 19.125V10.875C10.0234 9.84109 10.8645 9 11.8984 9H16.6094C17.6433 9 18.4844 9.84109 18.4844 10.875V11.8125C18.4844 12.0714 18.2745 12.2812 18.0156 12.2812C17.7567 12.2812 17.5469 12.0714 17.5469 11.8125V10.875C17.5469 10.3581 17.1263 9.9375 16.6094 9.9375H11.8984C11.3815 9.9375 10.9609 10.3581 10.9609 10.875V19.125C10.9609 19.6419 11.3815 20.0625 11.8984 20.0625H16.6094C17.1263 20.0625 17.5469 19.6419 17.5469 19.125V18.1875C17.5469 17.9286 17.7567 17.7188 18.0156 17.7188C18.2745 17.7188 18.4844 17.9286 18.4844 18.1875ZM21.6802 14.1948L20.6306 13.1451C20.4474 12.962 20.1506 12.962 19.9676 13.1451C19.7845 13.3282 19.7845 13.625 19.9676 13.808L20.7142 14.5547H15.0859C14.827 14.5547 14.6172 14.7645 14.6172 15.0234C14.6172 15.2823 14.827 15.4922 15.0859 15.4922H20.7142L19.9676 16.2389C19.7845 16.4219 19.7845 16.7187 19.9676 16.9017C20.0592 16.9933 20.1791 17.0391 20.299 17.0391C20.4191 17.0391 20.539 16.9933 20.6306 16.9017L21.6802 15.8521C22.1371 15.3951 22.1371 14.6517 21.6802 14.1948Z" fill="inherit"/>
</svg>
