<svg width="254" height="116" viewBox="0 0 254 116" fill="none" xmlns="http://www.w3.org/2000/svg">
<path d="M21.7033 66.6037C18.8579 66.6037 16.6483 67.4316 15.0742 69.0873C13.5002 70.6817 12.5619 73.2266 12.2592 76.7221H30.2393C30.0577 69.9765 27.2123 66.6037 21.7033 66.6037ZM21.8849 103.214C15.165 103.214 9.83761 101.344 5.90256 97.6028C1.96752 93.8008 0 88.3123 0 81.1374C0 73.5946 1.93725 67.7382 5.81176 63.5682C9.68626 59.3368 15.1045 57.2211 22.0665 57.2211C28.5442 57.2211 33.4176 58.9995 36.6867 62.5563C39.9558 66.1131 41.5904 70.9883 41.5904 77.182C41.5904 78.7764 41.4996 80.7388 41.3179 83.0691H12.1684C12.5316 86.5646 13.5002 89.1402 15.0742 90.7959C16.7088 92.3903 19.0093 93.1875 21.9757 93.1875C24.6394 93.1875 26.5767 92.6663 27.7875 91.6238C29.0588 90.5813 30.0274 89.0788 30.6933 87.1165L41.0455 89.968C38.8056 98.7986 32.4187 103.214 21.8849 103.214Z" fill="#333866"/>
<path d="M60.2757 77.7339V102.018H47.9257V58.417H60.0033V70.0991H60.9113C62.1221 65.9291 63.9686 62.7403 66.4507 60.5326C68.9328 58.325 71.8992 57.2211 75.3499 57.2211C82.6751 57.2211 86.6405 61.5751 87.2458 70.2831H88.2447C90.6663 61.5751 95.4489 57.2211 102.593 57.2211C106.77 57.2211 109.918 58.5703 112.037 61.2685C114.216 63.9054 115.306 67.6462 115.306 72.4908V102.018H102.865V75.9862C102.865 71.019 100.686 68.5354 96.3267 68.5354C93.7235 68.5354 91.6349 69.3939 90.0609 71.111C88.5474 72.7667 87.7907 74.9744 87.7907 77.7339V102.018H75.4407V75.9862C75.4407 73.7172 74.8959 71.9082 73.8062 70.5591C72.7165 69.2099 71.0819 68.5354 68.9025 68.5354C66.2993 68.5354 64.2107 69.3939 62.6367 71.111C61.0627 72.7667 60.2757 74.9744 60.2757 77.7339Z" fill="#333866"/>
<path d="M144.361 92.2677C150.112 92.2677 152.988 88.2816 152.988 80.3095C152.988 76.2622 152.292 73.288 150.899 71.3869C149.567 69.4859 147.418 68.5354 144.452 68.5354C141.728 68.5354 139.578 69.4552 138.004 71.2949C136.43 73.1347 135.643 75.6183 135.643 78.7458V82.1493C135.643 85.2154 136.43 87.6684 138.004 89.5081C139.639 91.3478 141.758 92.2677 144.361 92.2677ZM165.156 80.3095C165.156 87.7297 163.855 93.4328 161.251 97.4189C158.648 101.344 155.016 103.306 150.354 103.306C143.453 103.306 138.791 99.0746 136.37 90.6119H135.643V116H123.293V58.417H135.643V69.4552H136.461C138.882 61.2992 143.513 57.2211 150.354 57.2211C155.076 57.2211 158.709 59.2142 161.251 63.2002C163.855 67.1249 165.156 72.828 165.156 80.3095Z" fill="#333866"/>
<path d="M183.879 42.9634V102.018H171.529V42.9634H183.879Z" fill="#333866"/>
<path d="M212.514 103.306C205.552 103.306 200.103 101.252 196.168 97.1429C192.233 93.0342 190.265 87.3924 190.265 80.2175C190.265 72.9813 192.233 67.3396 196.168 63.2922C200.164 59.2448 205.612 57.2211 212.514 57.2211C219.294 57.2211 224.652 59.2755 228.587 63.3842C232.582 67.4316 234.58 73.0427 234.58 80.2175C234.58 87.3924 232.613 93.0342 228.678 97.1429C224.742 101.252 219.355 103.306 212.514 103.306ZM222.23 80.1256C222.23 71.8469 218.961 67.7075 212.423 67.7075C205.885 67.7075 202.615 71.8469 202.615 80.1256C202.615 88.4656 205.885 92.6356 212.423 92.6356C218.961 92.6356 222.23 88.4656 222.23 80.1256Z" fill="#333866"/>
<path d="M253.749 52.2539H240.854V43.2393H253.749V52.2539ZM253.476 102.018H241.126V58.417H253.476V102.018Z" fill="#333866"/>
<path d="M65.4433 34.5819C71.1864 34.5819 74.0579 30.6487 74.0579 22.7823C74.0579 18.7886 73.3627 15.8538 71.9722 13.978C70.6423 12.1022 68.4962 11.1642 65.534 11.1642C62.8136 11.1642 60.6676 12.0719 59.0958 13.8872C57.524 15.7026 56.7381 18.1532 56.7381 21.2393V24.5977C56.7381 27.6232 57.524 30.0436 59.0958 31.859C60.728 33.6743 62.8439 34.5819 65.4433 34.5819ZM86.2089 22.7823C86.2089 30.1041 84.9091 35.7316 82.3097 39.6648C79.7102 43.5375 76.083 45.4739 71.4282 45.4739C64.5365 45.4739 59.8817 41.2986 57.4636 32.9482H56.7381V57.9996H44.4058V1.17996H56.7381V12.0719H57.5542C59.9724 4.02397 64.597 0 71.4282 0C76.1435 0 79.7707 1.9666 82.3097 5.89981C84.9091 9.7725 86.2089 15.4 86.2089 22.7823Z" fill="#333866"/>
<path d="M107.988 35.6711C110.769 35.6711 112.976 34.945 114.608 33.4927C116.3 31.98 117.147 30.0436 117.147 27.6837V25.9591H108.26C106.265 25.9591 104.663 26.3827 103.454 27.2299C102.306 28.077 101.731 29.257 101.731 30.7698C101.731 34.0373 103.817 35.6711 107.988 35.6711ZM117.782 44.2032V33.9466H116.693C114.336 41.3894 109.651 45.1108 102.638 45.1108C98.8296 45.1108 95.7767 44.1124 93.4795 42.1155C91.1823 40.0582 90.0337 37.0024 90.0337 32.9482C90.0337 28.8939 91.3032 25.7171 93.8422 23.4177C96.4417 21.0578 100.462 19.8778 105.903 19.8778H117.147V16.8825C117.147 12.2232 114.94 9.89352 110.527 9.89352C106.477 9.89352 104.059 11.9509 103.273 16.0656L91.6659 13.4334C92.4518 9.31867 94.4467 6.08134 97.6507 3.72142C100.855 1.30098 105.298 0.0907654 110.981 0.0907654C117.389 0.0907654 122.043 1.51277 124.945 4.35678C127.907 7.14028 129.388 11.3155 129.388 16.8825V44.2032H117.782Z" fill="#333866"/>
<path d="M155.135 45.4739C148.364 45.4739 143.468 44.2939 140.445 41.934C137.483 39.5741 135.669 36.2157 135.004 31.859L146.067 29.5898C147.155 34.3702 150.269 36.7603 155.407 36.7603C159.578 36.7603 161.694 35.3686 161.755 32.5851C161.755 31.1933 161.09 30.1041 159.76 29.3175C158.49 28.4703 155.951 27.6837 152.143 26.9576C146.339 25.6868 142.259 24.0228 139.901 21.9654C137.543 19.8476 136.364 16.9128 136.364 13.1611C136.364 8.92535 137.876 5.68802 140.898 3.44912C143.921 1.1497 148.425 0 154.41 0C160.273 0 164.535 1.05894 167.195 3.17682C169.916 5.23419 171.699 8.32024 172.545 12.435L161.573 14.7041C161.09 12.4652 160.273 10.8919 159.125 9.98429C158.037 9.01611 156.374 8.53203 154.138 8.53203C150.087 8.53203 148.062 9.83301 148.062 12.435C148.062 13.7662 148.636 14.8554 149.785 15.7026C150.994 16.5497 153.382 17.3363 156.949 18.0625C163.296 19.3937 167.649 21.1788 170.006 23.4177C172.424 25.5961 173.634 28.4703 173.634 32.0405C173.634 40.9961 167.467 45.4739 155.135 45.4739Z" fill="#333866"/>
<path d="M197.187 45.4739C190.417 45.4739 185.52 44.2939 182.497 41.934C179.535 39.5741 177.722 36.2157 177.057 31.859L188.12 29.5898C189.208 34.3702 192.321 36.7603 197.46 36.7603C201.631 36.7603 203.747 35.3686 203.807 32.5851C203.807 31.1933 203.142 30.1041 201.812 29.3175C200.543 28.4703 198.004 27.6837 194.195 26.9576C188.392 25.6868 184.311 24.0228 181.953 21.9654C179.596 19.8476 178.417 16.9128 178.417 13.1611C178.417 8.92535 179.928 5.68802 182.951 3.44912C185.973 1.1497 190.477 0 196.462 0C202.326 0 206.588 1.05894 209.248 3.17682C211.968 5.23419 213.752 8.32024 214.598 12.435L203.626 14.7041C203.142 12.4652 202.326 10.8919 201.177 9.98429C200.089 9.01611 198.427 8.53203 196.19 8.53203C192.14 8.53203 190.114 9.83301 190.114 12.435C190.114 13.7662 190.689 14.8554 191.837 15.7026C193.046 16.5497 195.434 17.3363 199.001 18.0625C205.349 19.3937 209.701 21.1788 212.059 23.4177C214.477 25.5961 215.686 28.4703 215.686 32.0405C215.686 40.9961 209.52 45.4739 197.187 45.4739Z" fill="#333866"/>
</svg>
