<svg width="14" height="14" viewBox="0 0 14 14" fill="none" xmlns="http://www.w3.org/2000/svg">
<path d="M13.6602 1.66667C13.6602 0.933336 13.0668 0.333336 12.3335 0.333336H1.66683C0.933496 0.333336 0.333496 0.933336 0.333496 1.66667V9.66667C0.333496 10.4 0.933496 11 1.66683 11H11.0002L13.6668 13.6667L13.6602 1.66667ZM10.3335 8.33334H3.66683C3.30016 8.33334 3.00016 8.03334 3.00016 7.66667C3.00016 7.3 3.30016 7 3.66683 7H10.3335C10.7002 7 11.0002 7.3 11.0002 7.66667C11.0002 8.03334 10.7002 8.33334 10.3335 8.33334ZM10.3335 6.33334H3.66683C3.30016 6.33334 3.00016 6.03334 3.00016 5.66667C3.00016 5.3 3.30016 5 3.66683 5H10.3335C10.7002 5 11.0002 5.3 11.0002 5.66667C11.0002 6.03334 10.7002 6.33334 10.3335 6.33334ZM10.3335 4.33334H3.66683C3.30016 4.33334 3.00016 4.03334 3.00016 3.66667C3.00016 3.3 3.30016 3 3.66683 3H10.3335C10.7002 3 11.0002 3.3 11.0002 3.66667C11.0002 4.03334 10.7002 4.33334 10.3335 4.33334Z" fill="#767BA8"/>
</svg>
