<svg viewBox="0 0 16 16" xmlns="http://www.w3.org/2000/svg">
    <path d="M10.8574 10.72C10.3508 10.72 9.89742 10.92 9.55076 11.2333L4.79742 8.46665C4.83076 8.31331 4.85742 8.15998 4.85742 7.99998C4.85742 7.83998 4.83076 7.68665 4.79742 7.53331L9.49742 4.79331C9.85742 5.12665 10.3308 5.33331 10.8574 5.33331C11.9641 5.33331 12.8574 4.43998 12.8574 3.33331C12.8574 2.22665 11.9641 1.33331 10.8574 1.33331C9.75076 1.33331 8.85742 2.22665 8.85742 3.33331C8.85742 3.49331 8.88409 3.64665 8.91742 3.79998L4.21742 6.53998C3.85742 6.20665 3.38409 5.99998 2.85742 5.99998C1.75076 5.99998 0.857422 6.89331 0.857422 7.99998C0.857422 9.10665 1.75076 9.99998 2.85742 9.99998C3.38409 9.99998 3.85742 9.79331 4.21742 9.45998L8.96409 12.2333C8.93076 12.3733 8.91076 12.52 8.91076 12.6666C8.91076 13.74 9.78409 14.6133 10.8574 14.6133C11.9308 14.6133 12.8041 13.74 12.8041 12.6666C12.8041 11.5933 11.9308 10.72 10.8574 10.72Z" fill="inherit"/>
</svg>
