<svg width="14" height="12" viewBox="0 0 14 12" fill="none" xmlns="http://www.w3.org/2000/svg">
<path d="M11.4335 3.5665L9.57352 5.4265C9.36018 5.63984 9.50685 5.99984 9.80685 5.99984H11.0002C11.0002 8.2065 9.20685 9.99984 7.00018 9.99984C6.47352 9.99984 5.96018 9.89984 5.50018 9.7065C5.26018 9.6065 4.98685 9.67984 4.80685 9.85984C4.46685 10.1998 4.58685 10.7732 5.03352 10.9532C5.64018 11.1998 6.30685 11.3332 7.00018 11.3332C9.94685 11.3332 12.3335 8.9465 12.3335 5.99984H13.5269C13.8269 5.99984 13.9735 5.63984 13.7602 5.43317L11.9002 3.57317C11.7735 3.43984 11.5602 3.43984 11.4335 3.5665ZM3.00018 5.99984C3.00018 3.79317 4.79352 1.99984 7.00018 1.99984C7.52685 1.99984 8.04018 2.09984 8.50018 2.29317C8.74018 2.39317 9.01352 2.31984 9.19352 2.13984C9.53352 1.79984 9.41352 1.2265 8.96685 1.0465C8.36018 0.799837 7.69352 0.666504 7.00018 0.666504C4.05352 0.666504 1.66685 3.05317 1.66685 5.99984H0.473516C0.173516 5.99984 0.0268498 6.35984 0.240183 6.5665L2.10018 8.4265C2.23352 8.55984 2.44018 8.55984 2.57352 8.4265L4.43352 6.5665C4.64018 6.35984 4.49352 5.99984 4.19352 5.99984H3.00018Z" fill="white"/>
</svg>
