<svg viewBox="0 0 24 24" xmlns="http://www.w3.org/2000/svg">
    <path d="M12 2C10.0222 2 8.08879 2.58649 6.4443 3.6853C4.79981 4.78412 3.51809 6.3459 2.76121 8.17317C2.00433 10.0004 1.8063 12.0111 2.19215 13.9509C2.578 15.8907 3.53041 17.6725 4.92894 19.0711C6.32746 20.4696 8.10929 21.422 10.0491 21.8078C11.9889 22.1937 13.9996 21.9957 15.8268 21.2388C17.6541 20.4819 19.2159 19.2002 20.3147 17.5557C21.4135 15.9112 22 13.9778 22 12C22.0007 10.6866 21.7425 9.3859 21.2403 8.17232C20.738 6.95874 20.0014 5.85606 19.0727 4.92733C18.1439 3.99861 17.0413 3.26204 15.8277 2.75975C14.6141 2.25745 13.3134 1.99928 12 2ZM17.2 9.79091L11.7455 15.4727C11.6602 15.5597 11.5583 15.6287 11.4459 15.6755C11.3334 15.7224 11.2127 15.7462 11.0909 15.7455C10.8826 15.7472 10.6801 15.6765 10.5182 15.5455L6.88182 12.5909C6.78248 12.5181 6.69899 12.4258 6.6364 12.3197C6.57382 12.2135 6.53346 12.0958 6.51777 11.9736C6.50208 11.8514 6.51138 11.7273 6.54512 11.6089C6.57886 11.4904 6.63633 11.38 6.71404 11.2844C6.79174 11.1888 6.88807 11.11 6.99716 11.0528C7.10626 10.9956 7.22584 10.9611 7.34866 10.9515C7.47148 10.9419 7.59496 10.9574 7.71162 10.997C7.82828 11.0366 7.93567 11.0995 8.02728 11.1818L11.0182 13.6091L15.8909 8.52727C16.0585 8.35368 16.2881 8.25376 16.5294 8.24949C16.6488 8.24738 16.7675 8.26882 16.8787 8.31258C16.9899 8.35635 17.0913 8.42157 17.1773 8.50455C17.2632 8.58752 17.332 8.68661 17.3797 8.79616C17.4273 8.90571 17.4529 9.02357 17.4551 9.14302C17.4572 9.26247 17.4357 9.38117 17.392 9.49233C17.3482 9.6035 17.283 9.70495 17.2 9.79091Z"/>
</svg>
