<svg viewBox="0 0 24 24" xmlns="http://www.w3.org/2000/svg">
    <path d="M12.925 15.525L15.525 12.925C15.7917 12.6583 15.925 12.35 15.925 12C15.925 11.65 15.7917 11.3416 15.525 11.075L12.9 8.44995C12.6667 8.19995 12.3667 8.07895 12 8.08695C11.6333 8.09562 11.325 8.22495 11.075 8.47495C10.825 8.72495 10.7 9.03328 10.7 9.39995C10.7 9.76662 10.825 10.075 11.075 10.325L11.425 10.675H8.97501C8.60835 10.675 8.30001 10.804 8.05001 11.062C7.80001 11.3206 7.67501 11.6333 7.67501 12C7.67501 12.3666 7.80401 12.6793 8.06201 12.938C8.32068 13.196 8.63335 13.325 9.00001 13.325H11.425L11.05 13.7C10.8 13.9333 10.6793 14.2333 10.688 14.6C10.696 14.9666 10.825 15.275 11.075 15.525C11.325 15.775 11.6333 15.9 12 15.9C12.3667 15.9 12.675 15.775 12.925 15.525ZM12 22.7999C10.5 22.7999 9.09568 22.5166 7.78701 21.95C6.47901 21.3833 5.33768 20.6126 4.36301 19.638C3.38768 18.6626 2.61668 17.5206 2.05001 16.212C1.48335 14.904 1.20001 13.5 1.20001 12C1.20001 10.5 1.48335 9.09162 2.05001 7.77495C2.61668 6.45828 3.38768 5.31262 4.36301 4.33795C5.33768 3.36262 6.47901 2.59562 7.78701 2.03695C9.09568 1.47895 10.5 1.19995 12 1.19995C13.5 1.19995 14.9083 1.47895 16.225 2.03695C17.5417 2.59562 18.6877 3.36262 19.663 4.33795C20.6377 5.31262 21.404 6.45828 21.962 7.77495C22.5207 9.09162 22.8 10.5 22.8 12C22.8 13.5 22.5207 14.904 21.962 16.212C21.404 17.5206 20.6377 18.6626 19.663 19.638C18.6877 20.6126 17.5417 21.3833 16.225 21.95C14.9083 22.5166 13.5 22.7999 12 22.7999Z" fill="inherit"/>
</svg>
