<svg viewBox="0 0 24 24" xmlns="http://www.w3.org/2000/svg">
    <path d="M2.5 12C2.5 6.75549 6.74679 2.5 11.99 2.5C17.2442 2.5 21.5 6.75647 21.5 12C21.5 17.2435 17.2442 21.5 11.99 21.5C6.74679 21.5 2.5 17.2445 2.5 12ZM3.5 12C3.5 16.6961 7.30386 20.5 12 20.5C16.6961 20.5 20.5 16.6961 20.5 12C20.5 7.30386 16.6961 3.5 12 3.5C7.30386 3.5 3.5 7.30386 3.5 12Z" fill="inherit" stroke="inherit"/>
    <path fill-rule="evenodd" clip-rule="evenodd" d="M15.7416 9.50551C16.086 9.16111 16.086 8.60271 15.7416 8.25831C15.3972 7.9139 14.8388 7.9139 14.4944 8.2583L11.9999 10.7528L9.50545 8.25844C9.16104 7.91403 8.60264 7.91403 8.25823 8.25844C7.91382 8.60285 7.91381 9.16124 8.25823 9.50565L10.7526 12L8.2583 14.4944C7.91389 14.8388 7.91389 15.3972 8.2583 15.7416C8.60271 16.086 9.16111 16.086 9.50552 15.7416L11.9999 13.2472L14.4943 15.7417C14.8387 16.0861 15.3971 16.0861 15.7415 15.7417C16.086 15.3973 16.086 14.8389 15.7415 14.4945L13.2471 12L15.7416 9.50551Z" fill="inherit"/>
</svg>
