<svg viewBox="0 0 24 24" xmlns="http://www.w3.org/2000/svg">
    <path d="M12.01 22C17.53 22 22 17.52 22 12C22 6.48 17.53 2 12.01 2C6.48 2 2 6.48 2 12C2 17.52 6.48 22 12.01 22ZM12 4C16.42 4 20 7.58 20 12C20 16.42 16.42 20 12 20C7.58 20 4 16.42 4 12C4 7.58 7.58 4 12 4Z" fill="inherit"/>
    <path d="M12.2351 15.2234L17.6896 9.54156C17.7726 9.4556 17.8378 9.35414 17.8816 9.24298C17.9254 9.13181 17.9468 9.01312 17.9447 8.89367C17.9426 8.77422 17.917 8.65635 17.8693 8.5468C17.8216 8.43725 17.7529 8.33816 17.6669 8.25519C17.581 8.17222 17.4795 8.10699 17.3683 8.06323C17.2572 8.01947 17.1385 7.99803 17.019 8.00014C16.7778 8.0044 16.5481 8.10432 16.3805 8.27792L11.5078 13.3597L8.51691 10.9325C8.4253 10.8501 8.31791 10.7872 8.20126 10.7476C8.0846 10.708 7.96111 10.6926 7.8383 10.7022C7.71548 10.7117 7.59589 10.7462 7.4868 10.8034C7.3777 10.8607 7.28138 10.9395 7.20367 11.035C7.12597 11.1306 7.0685 11.241 7.03476 11.3595C7.00102 11.478 6.99171 11.6021 7.00741 11.7243C7.0231 11.8465 7.06346 11.9642 7.12604 12.0703C7.18862 12.1764 7.27212 12.2687 7.37146 12.3416L11.0078 15.2961C11.1698 15.4272 11.3722 15.4979 11.5805 15.4961C11.7024 15.4968 11.8231 15.473 11.9355 15.4262C12.0479 15.3793 12.1498 15.3104 12.2351 15.2234Z" fill="inherit"/>
</svg>