<svg width="18" height="18" viewBox="0 0 18 18" fill="#333866" xmlns="http://www.w3.org/2000/svg">
<path d="M12.5 11.0001H11.71L11.43 10.7301C12.63 9.33014 13.25 7.42014 12.91 5.39014C12.44 2.61014 10.12 0.390137 7.32001 0.0501373C3.09001 -0.469863 -0.469985 3.09014 0.0500152 7.32014C0.390015 10.1201 2.61002 12.4401 5.39002 12.9101C7.42002 13.2501 9.33002 12.6301 10.73 11.4301L11 11.7101V12.5001L15.25 16.7501C15.66 17.1601 16.33 17.1601 16.74 16.7501C17.15 16.3401 17.15 15.6701 16.74 15.2601L12.5 11.0001ZM6.50002 11.0001C4.01002 11.0001 2.00002 8.99014 2.00002 6.50014C2.00002 4.01014 4.01002 2.00014 6.50002 2.00014C8.99002 2.00014 11 4.01014 11 6.50014C11 8.99014 8.99002 11.0001 6.50002 11.0001Z" fill="inherit"/>
</svg>
