<svg viewBox="0 0 24 24" fill="#3B69D1" xmlns="http://www.w3.org/2000/svg">
    <path d="M20.8089 10.1394L4.6724 3.15546C3.9926 2.8612 3.22459 2.99065 2.66814 3.49311C2.1117 3.99565 1.87896 4.76995 2.06084 5.51382L3.49713 11.3888H10.5294C10.853 11.3888 11.1154 11.6625 11.1154 12C11.1154 12.3375 10.853 12.6112 10.5294 12.6112H3.49713L2.06084 18.4862C1.87896 19.2301 2.11166 20.0044 2.66814 20.5069C3.22572 21.0104 3.99381 21.1382 4.67244 20.8445L20.8089 13.8606C21.5436 13.5426 22 12.8297 22 12C22 11.1703 21.5436 10.4574 20.8089 10.1394Z" fill="inherit"/>
</svg>
