<svg width="15" height="16" viewBox="0 0 15 16" fill="none" xmlns="http://www.w3.org/2000/svg">
<path d="M14.1068 6.39465L2.00439 0.368513C1.49454 0.114615 0.918532 0.226306 0.501198 0.659853C0.0838637 1.09347 -0.0906871 1.76158 0.0457192 2.40343L1.12294 7.47268H6.39714C6.63983 7.47268 6.83662 7.70879 6.83662 8.00006C6.83662 8.29129 6.63986 8.52744 6.39714 8.52744H1.12294L0.0457192 13.5967C-0.0906871 14.2385 0.0838344 14.9066 0.501198 15.3402C0.919381 15.7747 1.49545 15.885 2.00442 15.6316L14.1068 9.60547C14.6578 9.33111 15.0001 8.71594 15.0001 8.00006C15.0001 7.28417 14.6578 6.66897 14.1068 6.39465Z" fill="white"/>
</svg>
