<svg viewBox="0 0 10 12" fill="#3B69D1" xmlns="http://www.w3.org/2000/svg">
<path d="M0.99998 10.6667C0.99998 11.4 1.59998 12 2.33331 12H7.66665C8.39998 12 8.99998 11.4 8.99998 10.6667V4C8.99998 3.26667 8.39998 2.66667 7.66665 2.66667H2.33331C1.59998 2.66667 0.99998 3.26667 0.99998 4V10.6667ZM8.99998 0.666667H7.33331L6.85998 0.193333C6.73998 0.0733333 6.56665 0 6.39331 0H3.60665C3.43331 0 3.25998 0.0733333 3.13998 0.193333L2.66665 0.666667H0.99998C0.633313 0.666667 0.333313 0.966667 0.333313 1.33333C0.333313 1.7 0.633313 2 0.99998 2H8.99998C9.36665 2 9.66665 1.7 9.66665 1.33333C9.66665 0.966667 9.36665 0.666667 8.99998 0.666667Z" fill="inherit"/>
</svg>
