<svg width="44" height="44" viewBox="0 0 44 44" fill="none" xmlns="http://www.w3.org/2000/svg">
<path d="M7.33333 25.667H11C12.0083 25.667 12.8333 24.842 12.8333 23.8337V20.167C12.8333 19.1587 12.0083 18.3337 11 18.3337H7.33333C6.325 18.3337 5.5 19.1587 5.5 20.167V23.8337C5.5 24.842 6.325 25.667 7.33333 25.667ZM7.33333 34.8337H11C12.0083 34.8337 12.8333 34.0087 12.8333 33.0003V29.3337C12.8333 28.3253 12.0083 27.5003 11 27.5003H7.33333C6.325 27.5003 5.5 28.3253 5.5 29.3337V33.0003C5.5 34.0087 6.325 34.8337 7.33333 34.8337ZM7.33333 16.5003H11C12.0083 16.5003 12.8333 15.6753 12.8333 14.667V11.0003C12.8333 9.99199 12.0083 9.16699 11 9.16699H7.33333C6.325 9.16699 5.5 9.99199 5.5 11.0003V14.667C5.5 15.6753 6.325 16.5003 7.33333 16.5003ZM16.5 25.667H34.8333C35.8417 25.667 36.6667 24.842 36.6667 23.8337V20.167C36.6667 19.1587 35.8417 18.3337 34.8333 18.3337H16.5C15.4917 18.3337 14.6667 19.1587 14.6667 20.167V23.8337C14.6667 24.842 15.4917 25.667 16.5 25.667ZM16.5 34.8337H34.8333C35.8417 34.8337 36.6667 34.0087 36.6667 33.0003V29.3337C36.6667 28.3253 35.8417 27.5003 34.8333 27.5003H16.5C15.4917 27.5003 14.6667 28.3253 14.6667 29.3337V33.0003C14.6667 34.0087 15.4917 34.8337 16.5 34.8337ZM14.6667 11.0003V14.667C14.6667 15.6753 15.4917 16.5003 16.5 16.5003H34.8333C35.8417 16.5003 36.6667 15.6753 36.6667 14.667V11.0003C36.6667 9.99199 35.8417 9.16699 34.8333 9.16699H16.5C15.4917 9.16699 14.6667 9.99199 14.6667 11.0003Z" fill="white"/>
</svg>
