<svg width="17" height="17" viewBox="0 0 17 17" fill="none" xmlns="http://www.w3.org/2000/svg">
<path d="M2.83333 9.20898C3.22292 9.20898 3.54167 8.89023 3.54167 8.50065C3.54167 8.11107 3.22292 7.79232 2.83333 7.79232C2.44375 7.79232 2.125 8.11107 2.125 8.50065C2.125 8.89023 2.44375 9.20898 2.83333 9.20898ZM2.83333 12.0423C3.22292 12.0423 3.54167 11.7236 3.54167 11.334C3.54167 10.9444 3.22292 10.6257 2.83333 10.6257C2.44375 10.6257 2.125 10.9444 2.125 11.334C2.125 11.7236 2.44375 12.0423 2.83333 12.0423ZM2.83333 6.37565C3.22292 6.37565 3.54167 6.0569 3.54167 5.66732C3.54167 5.27773 3.22292 4.95898 2.83333 4.95898C2.44375 4.95898 2.125 5.27773 2.125 5.66732C2.125 6.0569 2.44375 6.37565 2.83333 6.37565ZM5.66667 9.20898H14.1667C14.5562 9.20898 14.875 8.89023 14.875 8.50065C14.875 8.11107 14.5562 7.79232 14.1667 7.79232H5.66667C5.27708 7.79232 4.95833 8.11107 4.95833 8.50065C4.95833 8.89023 5.27708 9.20898 5.66667 9.20898ZM5.66667 12.0423H14.1667C14.5562 12.0423 14.875 11.7236 14.875 11.334C14.875 10.9444 14.5562 10.6257 14.1667 10.6257H5.66667C5.27708 10.6257 4.95833 10.9444 4.95833 11.334C4.95833 11.7236 5.27708 12.0423 5.66667 12.0423ZM4.95833 5.66732C4.95833 6.0569 5.27708 6.37565 5.66667 6.37565H14.1667C14.5562 6.37565 14.875 6.0569 14.875 5.66732C14.875 5.27773 14.5562 4.95898 14.1667 4.95898H5.66667C5.27708 4.95898 4.95833 5.27773 4.95833 5.66732ZM2.83333 9.20898C3.22292 9.20898 3.54167 8.89023 3.54167 8.50065C3.54167 8.11107 3.22292 7.79232 2.83333 7.79232C2.44375 7.79232 2.125 8.11107 2.125 8.50065C2.125 8.89023 2.44375 9.20898 2.83333 9.20898ZM2.83333 12.0423C3.22292 12.0423 3.54167 11.7236 3.54167 11.334C3.54167 10.9444 3.22292 10.6257 2.83333 10.6257C2.44375 10.6257 2.125 10.9444 2.125 11.334C2.125 11.7236 2.44375 12.0423 2.83333 12.0423ZM2.83333 6.37565C3.22292 6.37565 3.54167 6.0569 3.54167 5.66732C3.54167 5.27773 3.22292 4.95898 2.83333 4.95898C2.44375 4.95898 2.125 5.27773 2.125 5.66732C2.125 6.0569 2.44375 6.37565 2.83333 6.37565ZM5.66667 9.20898H14.1667C14.5562 9.20898 14.875 8.89023 14.875 8.50065C14.875 8.11107 14.5562 7.79232 14.1667 7.79232H5.66667C5.27708 7.79232 4.95833 8.11107 4.95833 8.50065C4.95833 8.89023 5.27708 9.20898 5.66667 9.20898ZM5.66667 12.0423H14.1667C14.5562 12.0423 14.875 11.7236 14.875 11.334C14.875 10.9444 14.5562 10.6257 14.1667 10.6257H5.66667C5.27708 10.6257 4.95833 10.9444 4.95833 11.334C4.95833 11.7236 5.27708 12.0423 5.66667 12.0423ZM4.95833 5.66732C4.95833 6.0569 5.27708 6.37565 5.66667 6.37565H14.1667C14.5562 6.37565 14.875 6.0569 14.875 5.66732C14.875 5.27773 14.5562 4.95898 14.1667 4.95898H5.66667C5.27708 4.95898 4.95833 5.27773 4.95833 5.66732Z" fill="#333866"/>
</svg>
