<svg width="80" height="71" viewBox="0 0 80 71" fill="none" xmlns="http://www.w3.org/2000/svg">
<path d="M39.9999 8.41264L71.3749 62.621H8.62493L39.9999 8.41264ZM1.4166 58.4543C-1.79173 63.996 2.20827 70.9543 8.62493 70.9543H71.3749C77.7916 70.9543 81.7916 63.996 78.5833 58.4543L47.2083 4.24597C43.9999 -1.2957 35.9999 -1.2957 32.7916 4.24597L1.4166 58.4543ZM35.8333 29.2876V37.621C35.8333 39.9126 37.7083 41.7876 39.9999 41.7876C42.2916 41.7876 44.1666 39.9126 44.1666 37.621V29.2876C44.1666 26.996 42.2916 25.121 39.9999 25.121C37.7083 25.121 35.8333 26.996 35.8333 29.2876ZM35.8333 50.121H44.1666V58.4543H35.8333V50.121Z" fill="#3B69D1"/>
</svg>
