<svg viewBox="0 0 12 12" xmlns="http://www.w3.org/2000/svg">
<path d="M6 3.50006C6.275 3.50006 6.5 3.72506 6.5 4.00006V6.00006C6.5 6.27506 6.275 6.50006 6 6.50006C5.725 6.50006 5.5 6.27506 5.5 6.00006V4.00006C5.5 3.72506 5.725 3.50006 6 3.50006ZM5.995 1.00006C3.235 1.00006 1 3.24006 1 6.00006C1 8.76006 3.235 11.0001 5.995 11.0001C8.76 11.0001 11 8.76006 11 6.00006C11 3.24006 8.76 1.00006 5.995 1.00006ZM6 10.0001C3.79 10.0001 2 8.21006 2 6.00006C2 3.79006 3.79 2.00006 6 2.00006C8.21 2.00006 10 3.79006 10 6.00006C10 8.21006 8.21 10.0001 6 10.0001ZM6.5 8.50006H5.5V7.50006H6.5V8.50006Z" fill="inherit"/>
</svg>
