<svg width="54" height="57" viewBox="0 0 54 57" fill="#4A526D" xmlns="http://www.w3.org/2000/svg">
    <path d="M26.9998 14.0228L43.9423 43.2953H10.0573L26.9998 14.0228ZM6.16478 41.0453C4.43228 44.0378 6.59228 47.7953 10.0573 47.7953H43.9423C47.4073 47.7953 49.5673 44.0378 47.8348 41.0453L30.8923 11.7728C29.1598 8.78032 24.8398 8.78032 23.1073 11.7728L6.16478 41.0453ZM24.7498 25.2953V29.7953C24.7498 31.0328 25.7623 32.0453 26.9998 32.0453C28.2373 32.0453 29.2498 31.0328 29.2498 29.7953V25.2953C29.2498 24.0578 28.2373 23.0453 26.9998 23.0453C25.7623 23.0453 24.7498 24.0578 24.7498 25.2953ZM24.7498 36.5453H29.2498V41.0453H24.7498V36.5453Z" fill="inherit"/>
</svg>